<svg width="170" height="170" viewBox="0 0 170 170" fill="none" xmlns="http://www.w3.org/2000/svg">
<path d="M37.3624 107.174L33.4457 109.687C33.9538 108.182 35.3677 107.171 36.9565 107.174H37.3624ZM36.9565 114.565H37.3624L33.4457 112.053C33.9538 113.557 35.3677 114.569 36.9565 114.565ZM25.8696 114.565L31.6339 110.87L25.8696 107.174C8.0561 107.174 7.3913 90.5798 7.3913 88.6957V85C7.3913 84.2609 7.61239 66.5217 25.8696 66.5217H77.6087C79.7568 66.5069 81.8965 66.7923 83.9656 67.3714C85.924 67.9439 87.9764 66.8187 88.5474 64.8587C89.1199 62.8987 87.9947 60.8479 86.0347 60.2752C83.2959 59.4899 80.4583 59.1039 77.609 59.1303H25.8699C5.39515 59.1303 0.000341569 76.0559 0.000341569 84.9998V88.6955C0.000341569 97.6394 5.39481 114.565 25.8696 114.565ZM25.8696 25.8696C25.8696 19.0079 28.5951 12.4284 33.4471 7.57757C38.2975 2.72549 44.877 0 51.7391 0C58.6012 0 65.1803 2.72553 70.0311 7.57757C74.8832 12.428 77.6087 19.0075 77.6087 25.8696C77.6087 32.7317 74.8832 39.3108 70.0311 44.1616C65.1808 49.0136 58.6012 51.7391 51.7391 51.7391C44.877 51.7391 38.2979 49.0136 33.4471 44.1616C28.5951 39.3112 25.8696 32.7317 25.8696 25.8696ZM33.2609 25.8696C33.2609 30.7698 35.2077 35.4698 38.6722 38.9365C42.1385 42.4012 46.8389 44.3478 51.7391 44.3478C56.6394 44.3478 61.3394 42.401 64.8061 38.9365C68.2708 35.4702 70.2174 30.7698 70.2174 25.8696C70.2174 20.9693 68.2706 16.2693 64.8061 12.8026C61.3398 9.33792 56.6394 7.3913 51.7391 7.3913C46.8389 7.3913 42.1389 9.33813 38.6722 12.8026C35.2075 16.2689 33.2609 20.9693 33.2609 25.8696ZM170 121.957V166.304C170 167.284 169.611 168.225 168.918 168.918C168.225 169.611 167.284 170 166.304 170C165.658 169.995 165.024 169.83 164.457 169.52C163.889 169.83 163.255 169.995 162.609 170H3.69565C1.65481 170 0 168.345 0 166.304V121.957C0 119.916 1.65481 118.261 3.69565 118.261H166.304C167.284 118.261 168.225 118.65 168.918 119.343C169.611 120.036 170 120.977 170 121.957ZM162.609 125.652H7.3913V162.609H162.609V125.652ZM75.1337 107.174L90.1372 71.2154H90.1388C91.165 68.7275 92.9073 66.6024 95.1446 65.1094C97.3818 63.6146 100.013 62.821 102.704 62.826H158.358C161.371 62.8145 164.189 64.3141 165.862 66.8203C167.533 69.3247 167.839 72.5023 166.674 75.2806L151.226 112.237C150.67 113.631 149.327 114.552 147.826 114.565H48.0435C46.0026 114.565 44.3478 112.91 44.3478 110.869C44.3478 108.829 46.0026 107.174 48.0435 107.174L75.1337 107.174ZM83.1534 107.174H145.35L159.838 72.4348C160.108 71.9662 160.108 71.3888 159.838 70.9202C159.541 70.4764 159.041 70.2141 158.508 70.2174H102.706C101.49 70.2091 100.298 70.554 99.2739 71.2106C98.251 71.8673 97.441 72.806 96.9394 73.913L83.1534 107.174ZM77.61 88.6957C77.61 87.7156 77.2206 86.7752 76.5277 86.0823C75.8347 85.3894 74.8943 85 73.9143 85H33.2621C32.2524 85.1056 31.251 84.7509 30.5333 84.0332C29.8156 83.3155 29.4609 82.314 29.5665 81.3043C29.5665 79.2635 27.9117 77.6087 25.8708 77.6087C23.83 77.6087 22.1752 79.2635 22.1752 81.3043C22.0811 84.2724 23.2196 87.1464 25.3198 89.2468C27.4201 91.3471 30.2939 92.4855 33.2623 92.3914H73.9144C74.8944 92.3914 75.8349 92.0021 76.5278 91.3091C77.2207 90.6162 77.61 89.6757 77.61 88.6957Z" fill="#045299"/>
</svg>
