<svg width="24" height="24" viewBox="0 0 24 24" fill="none" xmlns="http://www.w3.org/2000/svg">
<circle cx="12" cy="12.0007" r="11.5435" stroke="#045299" stroke-width="0.913043"/>
<path d="M17.4234 8.33307C17.2092 8.12021 16.9196 8.00073 16.6176 8.00073C16.3157 8.00073 16.0261 8.12021 15.8119 8.33307L11.7091 12.3788L7.66335 8.33307C7.44922 8.12021 7.15956 8.00073 6.85764 8.00073C6.55571 8.00073 6.26605 8.12021 6.05192 8.33307C5.9448 8.43931 5.85978 8.56571 5.80176 8.70498C5.74374 8.84425 5.71387 8.99362 5.71387 9.1445C5.71387 9.29537 5.74374 9.44474 5.80176 9.58401C5.85978 9.72328 5.9448 9.84968 6.05192 9.95592L10.8976 14.8016C11.0039 14.9088 11.1303 14.9938 11.2695 15.0518C11.4088 15.1098 11.5582 15.1397 11.7091 15.1397C11.8599 15.1397 12.0093 15.1098 12.1486 15.0518C12.2878 14.9938 12.4142 14.9088 12.5205 14.8016L17.4234 9.95592C17.5305 9.84968 17.6155 9.72328 17.6735 9.58401C17.7315 9.44474 17.7614 9.29537 17.7614 9.1445C17.7614 8.99362 17.7315 8.84425 17.6735 8.70498C17.6155 8.56571 17.5305 8.43931 17.4234 8.33307Z" fill="#045299"/>
</svg>
