<svg width="18" height="18" viewBox="0 0 18 18" fill="none" xmlns="http://www.w3.org/2000/svg">
<path d="M17.8696 1.00113C18.0797 0.730185 18.0304 0.340312 17.7596 0.130238C17.4886 -0.0798513 17.0987 -0.0305124 16.8887 0.240315L8.84697 10.6102C8.61796 10.9056 8.18177 10.9329 7.91763 10.6688L4.8789 7.63006C4.63645 7.38761 4.24353 7.38761 4.00109 7.63006C3.75875 7.8724 3.75875 8.26544 4.00109 8.50775L7.03982 11.5465C7.83254 12.3393 9.14096 12.2569 9.82797 11.3709L17.8696 1.00113Z" fill="#8CE02C"/>
<path d="M1.24139 4.34565C1.24139 3.31726 2.07507 2.48357 3.10347 2.48357H11.7932C12.136 2.48357 12.4139 2.20572 12.4139 1.86288C12.4139 1.52004 12.136 1.24219 11.7932 1.24219H3.10347C1.38951 1.24219 0 2.6317 0 4.34565V14.2767C0 15.9907 1.38951 17.3802 3.10347 17.3802H13.0346C14.7485 17.3802 16.138 15.9907 16.138 14.2767V9.3112C16.138 8.96836 15.8602 8.69051 15.5173 8.69051C15.1745 8.69051 14.8966 8.96836 14.8966 9.3112V14.2767C14.8966 15.3051 14.063 16.1388 13.0346 16.1388H3.10347C2.07507 16.1388 1.24139 15.3051 1.24139 14.2767V4.34565Z" fill="#8CE02C"/>
</svg>
