<svg width="96" height="96" viewBox="0 0 96 96" fill="none" xmlns="http://www.w3.org/2000/svg">
<path d="M83.9387 81.8815C81.9921 83.9302 80.1476 85.2541 78.691 86.2988C61.5766 98.5774 41.3279 95.0007 37.0229 94.1261C30.6658 92.8363 18.3838 90.3418 9.50163 79.8941C-3.93399 64.0933 -1.84106 39.1993 8.57938 22.7655C10.4851 19.7605 20.5551 3.07488 41.025 0.400002C53.4124 -1.2199 67.852 2.04712 78.3099 10.8068C100.26 29.194 98.6981 66.3462 83.9387 81.8815Z" fill="url(#paint0_linear_1990_218387)"/>
<path d="M42.0015 75.9961L40.2761 91.4736H60.2968L57.69 75.9961H42.0015Z" fill="url(#paint1_linear_1990_218387)"/>
<path d="M0 30.1901V72.7702C0 76.2721 2.79058 79.1375 6.29242 79.226C21.8448 79.6276 76.2373 80.6009 91.041 80.3797C93.5865 80.3422 95.6454 78.3072 95.7203 75.7616C96.0062 65.8687 96.469 42.0841 94.7538 31.0408C94.3931 28.7165 92.4295 26.9775 90.0779 26.9026C77.0472 26.4874 19.3877 25.1636 4.59085 25.4937C2.03849 25.555 0 27.6377 0 30.1901Z" fill="url(#paint2_linear_1990_218387)"/>
<path d="M2.67139 29.9851V70.4383C2.67139 72.4836 4.3117 74.1512 6.35699 74.1818L88.9105 75.2027C90.9388 75.2334 92.5995 73.6033 92.6063 71.575L92.7459 31.4825C92.7527 30.0328 91.5956 28.8451 90.1459 28.811L5.62532 27.1027C4.00882 27.0584 2.67139 28.3618 2.67139 29.9851Z" fill="#7D97F4"/>
<path d="M5.01611 31.2683V69.2372C5.01611 71.1566 6.57816 72.7221 8.52476 72.7493L87.1306 73.7056C89.0602 73.7328 90.6427 72.2048 90.6495 70.299L90.7822 32.6704C90.789 31.3092 89.6864 30.1963 88.3081 30.1623L7.83051 28.5594C6.28549 28.522 5.01611 29.7471 5.01611 31.2683Z" fill="#91B3FA"/>
<path d="M93.2291 76.8674L2.67133 75.3258C2.59986 75.3258 2.54541 75.2679 2.54541 75.1965C2.54541 75.125 2.60667 75.0671 2.67473 75.0705L93.2325 76.6122C93.3039 76.6122 93.3584 76.67 93.3584 76.7415C93.355 76.813 93.3005 76.8674 93.2291 76.8674Z" fill="#91B3FA"/>
<path d="M48.8454 78.7544C48.2567 78.7544 47.7769 78.2745 47.7769 77.6858C47.7769 77.097 48.2567 76.6172 48.8454 76.6172C49.4342 76.6172 49.914 77.097 49.914 77.6858C49.914 78.2745 49.4342 78.7544 48.8454 78.7544ZM48.8454 76.869C48.3962 76.869 48.0287 77.2366 48.0287 77.6858C48.0287 78.135 48.3962 78.5025 48.8454 78.5025C49.2947 78.5025 49.6622 78.135 49.6622 77.6858C49.6622 77.2366 49.2947 76.869 48.8454 76.869Z" fill="#91B3FA"/>
<path d="M64.6122 94.6412H35.3077C34.5113 94.6412 33.9124 94.0729 34.0689 93.4671L34.4433 91.9799C34.5556 91.5341 35.049 91.204 35.6344 91.187L63.8839 90.3056C64.4931 90.2852 65.0342 90.6119 65.1669 91.0747L65.8441 93.4433C66.0211 94.0559 65.4187 94.6412 64.6122 94.6412Z" fill="url(#paint3_linear_1990_218387)"/>
<path d="M51.0812 91.616C51.0132 91.616 50.9553 91.5616 50.9553 91.4901C50.9553 91.4186 51.0098 91.3642 51.0812 91.3608L52.2928 91.3438C52.3608 91.3472 52.4187 91.3982 52.4221 91.4697C52.4221 91.5411 52.3676 91.5956 52.2962 91.599L51.0812 91.616Z" fill="#91B3FA"/>
<path d="M35.1512 93.8511C35.1444 93.8511 35.1376 93.8511 35.1308 93.8511C35.0627 93.8409 35.0151 93.7762 35.0253 93.7048L35.1989 92.6226C35.2942 92.027 35.8012 91.588 36.4036 91.5778L49.2437 91.3906C49.3151 91.3906 49.3696 91.4451 49.373 91.5165C49.373 91.588 49.3185 91.6425 49.2471 91.6459L36.407 91.833C35.9271 91.8398 35.5222 92.1904 35.4473 92.6634L35.2737 93.7456C35.2669 93.8069 35.2125 93.8511 35.1512 93.8511Z" fill="#91B3FA"/>
<path d="M30.7067 31.3801L40.2423 31.3087C41.5457 31.2985 42.5905 32.3058 42.5361 33.5139L41.6036 54.1234C41.5525 55.2532 40.5554 56.1482 39.3405 56.155L30.8905 56.2163C29.6313 56.2265 28.6036 55.2838 28.5934 54.1132L28.4402 33.5105C28.4334 32.3466 29.4476 31.3903 30.7067 31.3801Z" fill="#BDD0FB"/>
<path opacity="0.2" d="M38.0982 60.3244L7.92592 60.6817C6.76544 60.6954 5.84659 61.4475 5.90445 62.3425L6.40811 70.2446C6.46256 71.0886 7.36439 71.7488 8.46021 71.7488H38.1322C39.2689 71.7488 40.1877 71.0409 40.1877 70.1663V61.9069C40.1843 61.0221 39.2451 60.3108 38.0982 60.3244Z" fill="white"/>
<path d="M75.3524 58.1292L45.1801 58.5682C44.0196 58.5852 43.1007 59.504 43.1586 60.5998L43.6623 70.2682C43.7167 71.2993 44.6185 72.1093 45.7144 72.1093H75.3864C76.523 72.1093 77.4419 71.2415 77.4419 70.1729V60.0655C77.4419 58.9833 76.4992 58.1121 75.3524 58.1292Z" fill="#BDD0FB"/>
<path d="M24.6829 30.4221H9.09651C7.83735 30.4221 6.81641 31.4498 6.81641 32.7192V55.0575C6.81641 56.3268 7.83735 57.3546 9.09651 57.3546H24.6829C25.9421 57.3546 26.963 56.3268 26.963 55.0575V32.7192C26.963 31.4498 25.9421 30.4221 24.6829 30.4221Z" fill="#BDD0FB"/>
<path d="M63.1522 39.082H47.5658C46.3066 39.082 45.2856 39.6333 45.2856 40.314V52.2862C45.2856 52.9669 46.3066 53.5182 47.5658 53.5182H63.1522C64.4113 53.5182 65.4323 52.9669 65.4323 52.2862V40.314C65.4323 39.6333 64.4113 39.082 63.1522 39.082Z" fill="#BDD0FB"/>
<path d="M89.1419 38.0117H70.4212C68.9102 38.0117 67.6816 38.563 67.6816 39.2437V51.2159C67.6816 51.8966 68.9068 52.4479 70.4212 52.4479H89.1419C90.6529 52.4479 91.8814 51.8966 91.8814 51.2159V39.2437C91.8814 38.563 90.6529 38.0117 89.1419 38.0117Z" fill="#BDD0FB"/>
<path d="M27.6575 39.6412L27.2117 37.6776H25.1834L24.7376 39.6412H23.2878L25.214 31.8242H27.1776L29.1106 39.6412H27.6575ZM26.9394 36.3946L26.5242 34.5842C26.5004 34.4753 26.4426 34.1996 26.3575 33.7572C26.269 33.3148 26.218 33.0187 26.2009 32.869C26.1533 33.1753 26.0954 33.5122 26.024 33.8797C25.9525 34.2473 25.7687 35.0844 25.4693 36.3946H26.9394Z" fill="url(#paint4_linear_1990_218387)"/>
<path d="M34.0452 34.2508C34.0452 35.0777 33.8376 35.7141 33.4191 36.1531C33.0005 36.5955 32.3981 36.8168 31.612 36.8168H31.2513V39.638H29.8015V31.8516H31.7787C33.2863 31.855 34.0452 32.6513 34.0452 34.2508ZM31.2479 35.561H31.5235C31.8774 35.561 32.1429 35.4623 32.3164 35.2683C32.49 35.0743 32.5785 34.7544 32.5785 34.3086C32.5785 33.9003 32.5002 33.5974 32.3403 33.4C32.1803 33.2026 31.9353 33.1039 31.5984 33.1039H31.2479V35.561Z" fill="url(#paint5_linear_1990_218387)"/>
<path d="M39.2689 34.2508C39.2689 35.0777 39.0613 35.7141 38.6427 36.1531C38.2241 36.5955 37.6217 36.8168 36.8356 36.8168H36.4749V39.638H35.0251V31.8516H37.0024C38.51 31.855 39.2689 32.6513 39.2689 34.2508ZM36.4715 35.561H36.7471C37.1011 35.561 37.3665 35.4623 37.5401 35.2683C37.7136 35.0743 37.8021 34.7544 37.8021 34.3086C37.8021 33.9003 37.7238 33.5974 37.5639 33.4C37.4039 33.2026 37.1589 33.1039 36.822 33.1039H36.4715V35.561Z" fill="url(#paint6_linear_1990_218387)"/>
<path d="M41.6956 36.6092V39.638H40.2458V31.8516H42.1414C42.9445 31.8516 43.5367 32.0421 43.9178 32.4199C44.299 32.801 44.4896 33.3796 44.4896 34.1623C44.4896 35.1458 44.1561 35.8332 43.4925 36.2246L44.9898 39.638H43.4414L42.2129 36.6092H41.6956ZM41.6956 35.3636H42.0699C42.4102 35.3636 42.6553 35.2683 42.805 35.0743C42.9548 34.8804 43.0296 34.5911 43.0296 34.2099C43.0296 33.8118 42.9514 33.5293 42.7914 33.3592C42.6349 33.189 42.3898 33.1073 42.0597 33.1073H41.699V35.3636H41.6956Z" fill="url(#paint7_linear_1990_218387)"/>
<path d="M51.0574 35.7359C51.0574 37.0257 50.8158 38.016 50.3325 38.7069C49.8493 39.3977 49.1584 39.7448 48.26 39.7448C47.3582 39.7448 46.6673 39.4011 46.1841 38.7103C45.7008 38.0194 45.4592 37.0257 45.4592 35.7257C45.4592 34.4359 45.7008 33.449 46.1841 32.7616C46.6673 32.0741 47.3616 31.7304 48.2702 31.7304C49.1687 31.7304 49.8561 32.0741 50.3359 32.765C50.8192 33.4592 51.0574 34.4495 51.0574 35.7359ZM46.943 35.7359C46.943 36.6241 47.0553 37.3014 47.2799 37.7642C47.5045 38.2304 47.8312 38.4618 48.2668 38.4618C49.1414 38.4618 49.577 37.5532 49.577 35.7359C49.577 33.9186 49.1448 33.01 48.277 33.01C47.838 33.01 47.5045 33.2414 47.2799 33.7042C47.0553 34.1705 46.943 34.8477 46.943 35.7359Z" fill="url(#paint8_linear_1990_218387)"/>
<path d="M55.543 31.8555H57.0029L55.172 39.6419H53.3309L51.5103 31.8555H52.9702L53.9877 36.6097C54.0796 37.0146 54.1715 37.5966 54.26 38.3521C54.3349 37.7089 54.4302 37.1303 54.5425 36.6097L55.543 31.8555Z" fill="url(#paint9_linear_1990_218387)"/>
<path d="M61.1988 39.638H57.6902V31.8516H61.1988V33.1039H59.1365V34.9586H61.0491V36.2144H59.1365V38.372H61.1988V39.638Z" fill="url(#paint10_linear_1990_218387)"/>
<path d="M67.287 35.6738C67.287 36.9602 67.025 37.9403 66.5009 38.6209C65.9768 39.3016 65.2247 39.6419 64.2412 39.6419H62.3354V31.8555H64.4182C65.3234 31.8555 66.0279 32.189 66.5315 32.8594C67.0318 33.5264 67.287 34.4657 67.287 35.6738ZM65.7999 35.7146C65.7999 33.9756 65.32 33.1044 64.3603 33.1044H63.7784V38.3725H64.248C64.7755 38.3725 65.1669 38.1513 65.4187 37.7089C65.6739 37.2665 65.7999 36.6029 65.7999 35.7146Z" fill="url(#paint11_linear_1990_218387)"/>
<path d="M10.1788 50.6213L37.0637 50.8425C38.5475 50.8561 39.759 52.0268 39.8237 53.5105L41.4878 92.5038C41.5388 93.6642 40.6166 94.6342 39.4561 94.6444L8.64063 94.9506C7.55162 94.9609 6.6634 94.076 6.6702 92.9836L6.9935 53.7556C7.00712 52.0131 8.43303 50.6076 10.1788 50.6213Z" fill="url(#paint12_linear_1990_218387)"/>
<path d="M13.143 94.3418L9.69559 94.2703C8.53512 94.2465 7.59925 93.28 7.60946 92.1195L7.6537 86.9127C7.6537 86.8651 7.69454 86.8242 7.74218 86.8242C7.78983 86.8276 7.83066 86.8651 7.83066 86.9127L7.78642 92.1195C7.77621 93.1847 8.63721 94.0695 9.70239 94.0933L13.1498 94.1648C13.1974 94.1648 13.2383 94.2056 13.2349 94.2533C13.2315 94.3043 13.194 94.3418 13.143 94.3418Z" fill="#BDD0FB"/>
<path d="M7.75231 85.3881C7.70467 85.3881 7.66724 85.3473 7.66724 85.2996L7.67404 84.4556C7.67404 84.408 7.71488 84.3672 7.76252 84.3672C7.81017 84.3672 7.85101 84.408 7.8476 84.4556L7.8408 85.2996C7.8408 85.3507 7.79996 85.3881 7.75231 85.3881Z" fill="#BDD0FB"/>
<path d="M10.2638 50.3069C13.9324 50.8344 26.5411 52.4781 36.9887 51.7634C37.4652 51.7294 37.8735 52.0935 37.8974 52.5734L39.6534 91.7402C39.6772 92.2779 39.2654 92.7339 38.7277 92.7611C34.3343 92.9857 16.2499 93.8399 9.80438 93.1117C9.41302 93.0674 9.11694 92.7339 9.11694 92.3391L9.21563 51.2155C9.21563 50.654 9.71249 50.2252 10.2638 50.3069Z" fill="url(#paint13_linear_1990_218387)"/>
<path opacity="0.6" d="M10.6485 51.3252C14.1776 51.8323 26.3132 53.4148 36.3661 52.7273C36.8255 52.6967 37.2203 53.0472 37.2407 53.5066L38.9321 91.1999C38.9559 91.7172 38.5577 92.1562 38.0404 92.18C33.8137 92.3944 16.4066 93.218 10.2061 92.5169C9.82836 92.4727 9.5459 92.1528 9.5459 91.775L9.64119 52.1998C9.64119 51.6621 10.1176 51.2503 10.6485 51.3252Z" fill="white"/>
<g opacity="0.6">
<path d="M35.8488 56.0337C36.104 56.0371 36.3048 55.9146 36.298 55.7648C36.2878 55.6151 36.0734 55.4892 35.8181 55.4858L13.4016 55.1251C13.1464 55.1217 13.0647 55.2816 13.2246 55.4824C13.3812 55.6832 13.7181 55.8499 13.9733 55.8499L35.8488 56.0337Z" fill="white"/>
</g>
<g opacity="0.6">
<path d="M13.3914 56.629C13.1361 56.6256 13.0544 56.7855 13.2144 56.9863C13.3709 57.1871 13.7078 57.3538 13.9631 57.3538L35.8385 57.5342C36.0937 57.5376 36.2945 57.4151 36.2877 57.2653C36.2775 57.1156 36.0631 56.9897 35.8079 56.9863L13.3914 56.629Z" fill="white"/>
</g>
<path d="M17.0122 70.3436C17.0088 70.3436 17.0054 70.3436 17.0054 70.3436L13.98 70.3878C13.5444 70.3946 13.1768 70.1019 13.1258 69.7106L12.7991 67.1786C12.7786 67.0289 12.8229 66.8792 12.9216 66.7566C13.0305 66.6205 13.2006 66.532 13.3844 66.515C13.6396 66.4912 13.9902 66.4538 14.3747 66.4095C15.2153 66.3176 16.1682 66.2121 16.7263 66.1917C16.7297 66.1917 16.7331 66.1917 16.7399 66.1917C17.1415 66.1815 17.492 66.4197 17.5975 66.7703C17.7711 67.3488 17.7813 68.4548 17.7813 69.6289C17.7745 70.0169 17.4342 70.3334 17.0122 70.3436ZM13.4014 66.76C13.2823 66.7703 13.1768 66.8247 13.1088 66.9098C13.0543 66.9778 13.0271 67.0629 13.0407 67.148L13.3674 69.6799C13.4014 69.9488 13.6635 70.1462 13.9732 70.1428L16.9986 70.0985C17.002 70.0985 17.002 70.0985 17.0054 70.0985C17.2946 70.0917 17.5294 69.8807 17.5294 69.6289C17.5294 68.4718 17.5192 67.3862 17.3559 66.8383C17.2844 66.5967 17.0156 66.4197 16.7331 66.4367C16.1818 66.4572 15.1915 66.5661 14.3985 66.6511C14.0106 66.6988 13.6601 66.7362 13.4014 66.76Z" fill="white"/>
<path opacity="0.6" d="M13.7351 67.0057C14.3681 66.9478 15.7464 66.7743 16.4032 66.7505C16.6822 66.7402 16.9272 66.9036 16.9987 67.1418C17.1348 67.6046 17.1416 68.5371 17.1416 69.3981C17.1416 69.6567 16.9102 69.8677 16.621 69.8711L14.2047 69.9052C13.9087 69.9086 13.6568 69.7112 13.6228 69.4492L13.3607 67.4277C13.3301 67.2201 13.5003 67.0295 13.7351 67.0057Z" fill="white"/>
<g opacity="0.6">
<path d="M19.8199 67.6479C19.5646 67.6479 19.4149 67.8487 19.4863 68.0937L19.6633 68.7029C19.7348 68.9479 20.0002 69.1419 20.2555 69.1385L35.0557 68.7812C35.311 68.7744 35.5084 68.56 35.4981 68.3081L35.4879 68.1074C35.4777 67.8521 35.2565 67.6445 35.0013 67.6445L19.8199 67.6479Z" fill="white"/>
</g>
<path d="M13.8713 67.4032C14.0926 67.267 14.3852 67.3385 14.5145 67.5631L15.1373 68.6181C15.1986 68.7236 15.3551 68.7134 15.4028 68.6011L16.8015 65.2694C16.8729 65.1026 17.1179 65.1537 17.1179 65.334C17.1282 66.3414 16.907 68.2641 15.3347 69.9079C15.3347 69.9079 14.4397 69.5846 13.6876 68.0327C13.5821 67.8081 13.6604 67.5359 13.8713 67.4032Z" fill="url(#paint14_linear_1990_218387)"/>
<path d="M17.1279 63.5506C17.1245 63.5506 17.1211 63.5506 17.1211 63.5506L14.0957 63.5948C13.6601 63.6016 13.2925 63.309 13.2415 62.9176L12.9148 60.3857C12.8944 60.2359 12.9386 60.0862 13.0373 59.9637C13.1462 59.8276 13.3164 59.7391 13.5001 59.7221C13.7554 59.6982 14.1059 59.6608 14.4904 59.6166C15.331 59.5247 16.2839 59.4192 16.842 59.3988C16.8454 59.3988 16.8488 59.3988 16.8556 59.3988C17.2572 59.3885 17.6077 59.6268 17.7132 59.9773C17.8868 60.5558 17.897 61.6618 17.897 62.8359C17.8936 63.2205 17.5499 63.5404 17.1279 63.5506ZM13.5205 59.9637C13.4014 59.9739 13.2959 60.0283 13.2279 60.1134C13.1734 60.1815 13.1462 60.2666 13.1598 60.3516L13.4865 62.8836C13.5205 63.1524 13.7826 63.3498 14.0923 63.3464L17.1177 63.3022C17.1211 63.3022 17.1211 63.3022 17.1245 63.3022C17.4137 63.2954 17.6486 63.0844 17.6486 62.8325C17.6486 61.6755 17.6384 60.5899 17.475 60.0419C17.4035 59.8003 17.1347 59.6234 16.8522 59.6404C16.3009 59.6608 15.3106 59.7697 14.5177 59.8548C14.1297 59.9024 13.7758 59.9399 13.5205 59.9637Z" fill="white"/>
<path opacity="0.6" d="M13.8508 60.2127C14.4838 60.1549 15.8621 59.9813 16.5189 59.9575C16.7979 59.9473 17.043 60.1106 17.1144 60.3488C17.2506 60.8117 17.2574 61.7441 17.2574 62.6051C17.2574 62.8638 17.0259 63.0748 16.7367 63.0782L14.3204 63.1122C14.0244 63.1156 13.7725 62.9182 13.7385 62.6562L13.4765 60.6347C13.4458 60.4237 13.616 60.2331 13.8508 60.2127Z" fill="white"/>
<g opacity="0.6">
<path d="M19.9358 60.8511C19.6806 60.8511 19.5308 61.0518 19.6023 61.2969L19.7793 61.906C19.8507 62.1511 20.1162 62.345 20.3714 62.3416L35.1717 61.9843C35.4269 61.9775 35.6243 61.7631 35.6141 61.5113L35.6039 61.3105C35.5937 61.0552 35.3725 60.8477 35.1173 60.8477L19.9358 60.8511Z" fill="white"/>
</g>
<path d="M13.9902 60.6063C14.2114 60.4701 14.5041 60.5416 14.6334 60.7662L15.2562 61.8212C15.3175 61.9267 15.474 61.9165 15.5217 61.8042L16.9204 58.4725C16.9918 58.3057 17.2368 58.3568 17.2368 58.5372C17.2471 59.5445 17.0258 61.4673 15.4536 63.111C15.4536 63.111 14.5586 62.7877 13.8065 61.2359C13.701 61.0078 13.7792 60.7356 13.9902 60.6063Z" fill="url(#paint15_linear_1990_218387)"/>
<path d="M17.1689 76.828C17.1655 76.828 17.1621 76.828 17.1621 76.828L14.1367 76.8723C13.7011 76.8791 13.3336 76.5864 13.2825 76.195L12.9558 73.6631C12.9354 73.5134 12.9796 73.3636 13.0783 73.2411C13.1872 73.105 13.3574 73.0165 13.5411 72.9995C13.7964 72.9757 14.1469 72.9382 14.5315 72.894C15.372 72.8021 16.3249 72.6966 16.883 72.6762C16.8864 72.6762 16.8898 72.6762 16.8966 72.6762C17.2982 72.666 17.6487 72.9042 17.7542 73.2547C17.9278 73.8333 17.938 74.9393 17.938 76.1134C17.9312 76.5013 17.5909 76.8178 17.1689 76.828ZM13.5582 73.2445C13.4391 73.2547 13.3336 73.3092 13.2655 73.3942C13.211 73.4623 13.1838 73.5474 13.194 73.6325L13.5207 76.1644C13.5548 76.4333 13.8168 76.6306 14.1265 76.6272L17.1519 76.583C17.1553 76.583 17.1553 76.583 17.1587 76.583C17.448 76.5762 17.6828 76.3652 17.6828 76.1134C17.6828 74.9563 17.6726 73.8707 17.5092 73.3228C17.4377 73.0812 17.1689 72.9076 16.8864 72.9212C16.3351 72.9416 15.3448 73.0505 14.5519 73.1356C14.1673 73.1833 13.8168 73.2207 13.5582 73.2445Z" fill="white"/>
<path opacity="0.6" d="M13.8916 73.4901C14.5246 73.4322 15.9028 73.2586 16.5597 73.2348C16.8387 73.2246 17.0837 73.388 17.1552 73.6262C17.2913 74.089 17.2981 75.0215 17.2981 75.8825C17.2981 76.1411 17.0667 76.3521 16.7775 76.3555L14.3612 76.3895C14.0651 76.3929 13.8133 76.1956 13.7793 75.9335L13.5172 73.9121C13.4866 73.7045 13.6568 73.5139 13.8916 73.4901Z" fill="white"/>
<g opacity="0.6">
<path d="M19.9729 74.1318C19.7177 74.1318 19.568 74.3326 19.6394 74.5776L19.8164 75.1868C19.8879 75.4318 20.1533 75.6258 20.4085 75.6224L35.2088 75.2651C35.4641 75.2582 35.6614 75.0438 35.6512 74.7886L35.641 74.5878C35.6308 74.3326 35.4096 74.125 35.1544 74.125L19.9729 74.1318Z" fill="white"/>
</g>
<path d="M14.0276 73.8838C14.2488 73.7477 14.5415 73.8192 14.6708 74.0438L15.2936 75.0988C15.3548 75.2043 15.5114 75.194 15.559 75.0817L16.9577 71.7501C17.0292 71.5833 17.2742 71.6344 17.2742 71.8147C17.2844 72.8221 17.0632 74.7448 15.491 76.3885C15.491 76.3885 14.5959 76.0653 13.8438 74.5134C13.7383 74.2888 13.8166 74.0166 14.0276 73.8838Z" fill="url(#paint16_linear_1990_218387)"/>
<path d="M17.0327 83.0623C17.0293 83.0623 17.0259 83.0623 17.0259 83.0623L14.0005 83.1066C13.5649 83.1134 13.1973 82.8207 13.1463 82.4293L12.8196 79.8974C12.7992 79.7477 12.8434 79.5979 12.9421 79.4754C13.051 79.3393 13.2211 79.2508 13.4049 79.2338C13.6602 79.21 14.0107 79.1725 14.3952 79.1283C15.195 79.0398 16.1887 78.9309 16.7502 78.9105C17.1484 78.9003 17.5125 79.1317 17.618 79.489C17.7916 80.0676 17.8018 81.1736 17.8018 82.3477C17.7984 82.7322 17.4547 83.0521 17.0327 83.0623ZM13.4253 79.4754C13.3062 79.4856 13.2007 79.5401 13.1327 79.6251C13.0782 79.6932 13.051 79.7783 13.0646 79.8634L13.3913 82.3953C13.4253 82.6641 13.6874 82.8615 13.9971 82.8581L17.0225 82.8139C17.3083 82.8003 17.5534 82.5995 17.5534 82.3443C17.5534 81.1872 17.5431 80.105 17.3798 79.5537C17.3083 79.312 17.0395 79.1419 16.757 79.1521C16.2057 79.1725 15.2154 79.2814 14.4225 79.3665C14.0345 79.4141 13.6806 79.4516 13.4253 79.4754Z" fill="white"/>
<path opacity="0.6" d="M13.7588 79.7244C14.3918 79.6666 15.77 79.493 16.4268 79.4692C16.7059 79.459 16.9509 79.6223 17.0224 79.8606C17.1585 80.3234 17.1653 81.2559 17.1653 82.1169C17.1653 82.3755 16.9339 82.5865 16.6446 82.5899L14.2284 82.6239C13.9323 82.6273 13.6805 82.4299 13.6465 82.1679L13.3844 80.1464C13.3538 79.9354 13.524 79.7449 13.7588 79.7244Z" fill="white"/>
<g opacity="0.6">
<path d="M19.8404 80.3628C19.5851 80.3628 19.4354 80.5636 19.5069 80.8086L19.6838 81.4178C19.7553 81.6628 20.0207 81.8568 20.276 81.8534L35.0762 81.496C35.3315 81.4892 35.5289 81.2748 35.5187 81.023L35.5084 80.8222C35.4982 80.567 35.277 80.3594 35.0218 80.3594L19.8404 80.3628Z" fill="white"/>
</g>
<path d="M13.8948 80.118C14.116 79.9819 14.4087 80.0533 14.538 80.2779L15.1608 81.3329C15.222 81.4384 15.3786 81.4282 15.4262 81.3159L16.8249 77.9842C16.8964 77.8175 17.1414 77.8685 17.1414 78.0489C17.1516 79.0562 16.9304 80.979 15.3581 82.6227C15.3581 82.6227 14.4631 82.2994 13.711 80.7476C13.6055 80.5196 13.6838 80.2473 13.8948 80.118Z" fill="url(#paint17_linear_1990_218387)"/>
<path d="M16.8454 89.4878C16.842 89.4878 16.8386 89.4878 16.8386 89.4878L13.8132 89.532C13.3776 89.5389 13.0101 89.2462 12.959 88.8548L12.6323 86.3229C12.6119 86.1731 12.6561 86.0234 12.7548 85.9009C12.8637 85.7648 13.0339 85.6763 13.2177 85.6593C13.4729 85.6355 13.8234 85.598 14.208 85.5538C15.0486 85.4619 16.0014 85.3564 16.5595 85.336C16.9713 85.3326 17.3219 85.5572 17.4274 85.9145C17.6009 86.493 17.6111 87.5991 17.6111 88.7732C17.6111 89.1611 17.2674 89.4776 16.8454 89.4878ZM13.2381 85.9043C13.119 85.9145 13.0135 85.969 12.9454 86.054C12.891 86.1221 12.8637 86.2072 12.8739 86.2923L13.2006 88.8242C13.2347 89.093 13.4967 89.2904 13.8064 89.287L16.8318 89.2428C16.8352 89.2428 16.8352 89.2428 16.8386 89.2428C17.1279 89.236 17.3627 89.025 17.3627 88.7732C17.3627 87.6161 17.3525 86.5305 17.1891 85.9826C17.1177 85.741 16.8488 85.5742 16.5664 85.581C16.015 85.6014 15.0247 85.7103 14.2318 85.7954C13.8472 85.843 13.4933 85.8805 13.2381 85.9043Z" fill="white"/>
<path opacity="0.6" d="M13.5683 86.1502C14.2013 86.0924 15.5796 85.9188 16.2364 85.895C16.5155 85.8848 16.7605 86.0481 16.832 86.2863C16.9681 86.7492 16.9749 87.6816 16.9749 88.5426C16.9749 88.8013 16.7435 89.0123 16.4542 89.0157L14.038 89.0497C13.7419 89.0531 13.4901 88.8557 13.456 88.5937L13.194 86.5722C13.1634 86.3646 13.3335 86.174 13.5683 86.1502Z" fill="white"/>
<g opacity="0.6">
<path d="M19.6529 86.7925C19.3976 86.7925 19.2479 86.9932 19.3194 87.2383L19.4963 87.8474C19.5678 88.0925 19.8332 88.2864 20.0885 88.283L34.8887 87.9257C35.144 87.9189 35.3414 87.7045 35.3312 87.4527L35.3209 87.2519C35.3107 86.9966 35.0895 86.7891 34.8343 86.7891L19.6529 86.7925Z" fill="white"/>
</g>
<path d="M13.7078 86.5477C13.929 86.4116 14.2216 86.483 14.351 86.7076L14.9737 87.7626C15.035 87.8681 15.1915 87.8579 15.2392 87.7456L16.6379 84.4139C16.7093 84.2472 16.9544 84.2982 16.9544 84.4786C16.9646 85.4859 16.7434 87.4087 15.1711 89.0524C15.1711 89.0524 14.2761 88.7291 13.524 87.1773C13.4185 86.9493 13.4968 86.677 13.7078 86.5477Z" fill="url(#paint18_linear_1990_218387)"/>
<path d="M25.3331 45.4352C24.3666 44.7511 23.5226 44.7579 22.9271 44.9281C22.3826 45.0846 22.0287 45.6053 22.0763 46.1668L22.3111 48.9676L25.3603 49.2637C25.3569 49.2637 27.2253 46.7726 25.3331 45.4352ZM23.9719 47.6812C23.5533 47.6778 23.213 47.3341 23.2164 46.9155C23.2198 46.4969 23.5635 46.1566 23.9821 46.16C24.4007 46.1634 24.741 46.5072 24.7376 46.9257C24.7342 47.3443 24.3939 47.6846 23.9719 47.6812Z" fill="url(#paint19_linear_1990_218387)"/>
<path d="M22.5695 47.8593C22.515 47.8389 22.4776 47.7912 22.4708 47.73L22.4333 47.2841C22.4265 47.2025 22.4878 47.1276 22.5729 47.1208C22.6545 47.114 22.7294 47.1752 22.7362 47.2603L22.7737 47.7061C22.7805 47.7878 22.7192 47.8627 22.6341 47.8695C22.6103 47.8729 22.5899 47.8695 22.5695 47.8593ZM22.4946 46.9881C22.4401 46.9676 22.4027 46.92 22.3959 46.8587L22.3687 46.5218C22.321 45.9467 22.6852 45.4192 23.2365 45.2593C23.6142 45.1504 24.0022 45.1402 24.3901 45.2218C24.4718 45.2389 24.5229 45.3205 24.5059 45.4022C24.4888 45.4839 24.4072 45.5349 24.3255 45.5179C23.9852 45.4464 23.6483 45.4567 23.3182 45.5519C22.9064 45.671 22.6307 46.0692 22.6682 46.498L22.6954 46.8349C22.7022 46.9166 22.6409 46.9915 22.5559 46.9983C22.5388 46.9983 22.515 46.9949 22.4946 46.9881Z" fill="#BDD0FB"/>
<path d="M18.1287 50.7414L18.1389 49.3359C18.1423 48.8493 18.5472 48.4647 19.0339 48.4852L28.7295 48.8969C29.1583 48.914 29.5054 49.2577 29.5292 49.6865L29.6007 51.0375L18.1287 50.7414Z" fill="url(#paint20_linear_1990_218387)"/>
<path d="M21.3412 49.0441C21.2935 49.0441 21.2561 49.0033 21.2561 48.9557C21.2561 48.908 21.2969 48.8672 21.3446 48.8672L21.7632 48.8706C21.8142 48.8706 21.8517 48.9114 21.8517 48.9591C21.8517 49.0067 21.8108 49.0476 21.7632 49.0476L21.3412 49.0441Z" fill="#BDD0FB"/>
<path d="M18.6048 50.3681C18.5469 50.3477 18.5061 50.2899 18.5061 50.2252L18.5095 49.6569C18.5129 49.422 18.6048 49.2042 18.7715 49.0409C18.9383 48.8775 19.1595 48.7891 19.3909 48.7891L20.9257 48.8027C21.0074 48.8027 21.0755 48.8707 21.0755 48.9558C21.0755 49.0409 21.0074 49.1056 20.9223 49.1056L19.3875 49.0919C19.071 49.0885 18.8124 49.3438 18.809 49.6603L18.8056 50.2286C18.8056 50.3137 18.7375 50.3783 18.6524 50.3783C18.6388 50.3783 18.6218 50.3749 18.6048 50.3681Z" fill="#BDD0FB"/>
<path d="M15.0929 50.1992L32.0542 50.3388C32.6634 50.3422 33.1806 50.788 33.2793 51.3903L33.2929 51.472C33.4018 52.1322 32.8914 52.7278 32.221 52.7244L14.8207 52.5814C14.4225 52.578 14.106 52.2411 14.1264 51.843L14.1707 51.0636C14.2013 50.577 14.6063 50.1958 15.0929 50.1992Z" fill="url(#paint21_linear_1990_218387)"/>
<path d="M79.8715 94.5195C80.8005 94.6012 82.4136 94.7305 83.6864 94.785C84.4521 94.819 84.8911 94.7441 85.1464 94.642C85.1464 94.6693 85.1464 94.6965 85.143 94.7237C85.1361 94.8564 85.0273 94.9653 84.8945 94.9722C82.4919 95.1049 80.5793 95.0198 79.8987 94.9755C79.7592 94.9653 79.6741 94.8156 79.7456 94.6931C79.7796 94.6352 79.8238 94.5774 79.8715 94.5195Z" fill="url(#paint22_linear_1990_218387)"/>
<path d="M83.6865 94.7885C82.4137 94.7341 80.8006 94.6013 79.8716 94.5231C80.787 93.4 83.6865 92.6445 83.6865 92.6445H84.5067C85.0716 93.4579 85.1533 94.2304 85.1465 94.6456C84.8912 94.7443 84.4522 94.8191 83.6865 94.7885Z" fill="url(#paint23_linear_1990_218387)"/>
<path d="M84.6427 91.3047L84.5645 92.8225C84.5577 92.9858 84.4317 93.1254 84.2684 93.1492C84.105 93.173 83.8838 93.1764 83.6524 93.0981C83.5095 93.0505 83.404 92.9314 83.3768 92.7816L83.1113 91.3047H84.6427Z" fill="url(#paint24_linear_1990_218387)"/>
<path d="M95.2913 94.7791C95.6928 94.7213 95.8766 94.5137 95.9549 94.2891C95.9549 94.2925 95.9549 94.2925 95.9549 94.2959C96.0127 94.5307 95.8766 94.7757 95.6009 94.8948C95.2674 95.0343 94.9067 95.0582 94.6242 95.048C94.3214 95.0343 94.0423 94.9118 93.8926 94.711L93.8892 94.7076C94.192 94.8574 94.6174 94.8744 95.2913 94.7791Z" fill="url(#paint25_linear_1990_218387)"/>
<path d="M93.3889 91.297H94.0661C95.0973 91.2766 95.7405 93.4478 95.9549 94.2884C95.88 94.513 95.6962 94.7206 95.2913 94.7784C94.6174 94.8737 94.192 94.8533 93.8892 94.7036C93.3344 93.9719 93.0588 92.8999 92.9261 92.2737C92.7729 91.5625 93.3889 91.297 93.3889 91.297Z" fill="url(#paint26_linear_1990_218387)"/>
<path d="M93.9776 89.8867L94.352 91.3807C94.3996 91.5645 94.3111 91.7516 94.141 91.8401C93.93 91.949 93.6339 92.0613 93.3651 92.0273C93.2357 92.0103 93.1302 91.9218 93.0894 91.8027L92.5381 90.2338L93.9776 89.8867Z" fill="url(#paint27_linear_1990_218387)"/>
<path d="M94.4235 90.3197C93.9573 90.7349 92.436 90.7893 92.436 90.7893C86.9638 77.66 84.7279 75.7917 84.7279 75.7917C85.5174 80.7466 84.8538 91.7218 84.8538 91.7218C83.952 92.1199 82.7881 91.7218 82.7881 91.7218C82.7132 83.6087 81.4677 76.5335 79.9941 70.9524C83.6934 70.8707 85.657 69.6047 86.3002 69.0977C89.3868 74.0663 94.4235 90.3197 94.4235 90.3197Z" fill="url(#paint28_linear_1990_218387)"/>
<path d="M85.3642 53.9968C86.0653 57.4884 85.8134 63.7366 85.6501 66.585C85.6024 67.3848 86.1639 68.4976 86.6166 69.2531C86.688 69.3722 86.6438 69.5254 86.5213 69.5866C85.7658 69.9746 83.1998 71.1793 80.2289 71.3324C80.0315 71.3426 79.8545 71.2065 79.8035 71.0159C77.5982 62.7871 75.0391 57.5293 75.0391 57.5293C77.8603 53.0133 85.3642 53.9968 85.3642 53.9968Z" fill="url(#paint29_linear_1990_218387)"/>
<path d="M84.3569 75.4804C84.3876 75.4804 84.4182 75.4736 84.4488 75.4532C84.5305 75.4022 84.5577 75.2967 84.5067 75.2116C84.476 75.1639 83.7682 74.0205 82.3389 73.3296C82.2504 73.2888 82.1483 73.3228 82.1041 73.4113C82.0632 73.4998 82.0973 73.6019 82.1857 73.6461C83.5198 74.2893 84.2004 75.3851 84.2072 75.3954C84.2412 75.4498 84.2991 75.4804 84.3569 75.4804Z" fill="#91B3FA"/>
<path d="M89.7543 64.0132C89.5296 65.6399 88.866 67.413 87.5354 69.2983L87.0317 68.8865C87.0317 68.8865 87.6137 66.5213 87.2836 63.8362C88.1037 63.6729 89.0702 63.8397 89.7543 64.0132Z" fill="url(#paint30_linear_1990_218387)"/>
<path d="M84.5815 58.3006L85.3643 53.9922C85.3643 53.9922 90.5881 57.9841 89.7543 64.0111C89.0703 63.8375 88.1038 63.6741 87.2836 63.8341C87.0454 61.9011 86.3308 59.8014 84.5815 58.3006Z" fill="url(#paint31_linear_1990_218387)"/>
<path d="M75.0356 57.5312L77.0503 61.8737C76.7236 64.4941 75.3147 65.6273 73.7969 66.0629C73.7016 64.8684 73.3987 63.9019 73.1196 63.2349C75.0628 61.2305 75.0356 57.5312 75.0356 57.5312Z" fill="url(#paint32_linear_1990_218387)"/>
<path d="M73.1232 63.2344C73.4023 63.9014 73.7052 64.8679 73.8004 66.0624C69.7507 67.6346 68.6787 64.5854 68.6787 64.5854L69.4274 64.4527C71.1154 64.6297 72.2963 64.0852 73.1232 63.2344Z" fill="url(#paint33_linear_1990_218387)"/>
<path d="M76.8938 52.1657L77.8671 55.7424C77.976 56.144 78.4116 56.3618 78.7996 56.2053C79.2181 56.0385 79.7456 55.8105 80.2017 55.5655C80.6883 55.3034 80.8414 54.6772 80.5318 54.2178L78.5069 51.1992L76.8938 52.1657Z" fill="url(#paint34_linear_1990_218387)"/>
<path d="M66.8208 62.1875L91.7624 71.2637C92.8072 71.6449 93.3074 72.836 92.848 73.8501L92.7732 74.0168C92.3648 74.9119 91.3064 75.3066 90.4114 74.8914L66.1946 63.6883L66.8208 62.1875Z" fill="url(#paint35_linear_1990_218387)"/>
<path opacity="0.23" d="M55.3556 68.8234C62.1556 68.8234 67.6681 63.4099 67.6681 56.732C67.6681 50.0541 62.1556 44.6406 55.3556 44.6406C48.5555 44.6406 43.043 50.0541 43.043 56.732C43.043 63.4099 48.5555 68.8234 55.3556 68.8234Z" fill="white"/>
<path d="M41.658 56.73C41.658 64.1591 47.7904 70.1826 55.359 70.1826C62.9242 70.1826 69.0601 64.1591 69.0601 56.73C69.0601 49.3009 62.9276 43.2773 55.359 43.2773C47.7904 43.2773 41.658 49.2975 41.658 56.73ZM43.6692 56.73C43.6692 50.3933 48.9033 45.2546 55.3556 45.2546C61.808 45.2546 67.042 50.3933 67.042 56.73C67.042 63.0666 61.808 68.2054 55.3556 68.2054C48.9033 68.2054 43.6692 63.0666 43.6692 56.73Z" fill="url(#paint36_linear_1990_218387)"/>
<path d="M68.0151 58.3595C68.0117 58.3595 68.0117 58.3595 68.0083 58.3595C67.9777 58.3561 67.9539 58.3254 67.9573 58.2948C67.9981 57.9817 68.0253 57.6618 68.0424 57.3419C68.0424 57.3113 68.073 57.2841 68.1036 57.2875C68.1342 57.2875 68.1615 57.3147 68.1581 57.3487C68.1411 57.6686 68.1138 57.9953 68.073 58.3118C68.0696 58.3391 68.0424 58.3595 68.0151 58.3595ZM67.9198 54.599C67.8926 54.599 67.8688 54.5786 67.862 54.5514C67.7089 53.6972 67.4638 52.8566 67.1303 52.0534C65.1769 47.3197 60.5554 44.2602 55.352 44.2602C52.9256 44.2602 50.5672 44.9341 48.5321 46.2102C48.5049 46.2273 48.4709 46.2205 48.4504 46.1932C48.4334 46.166 48.4402 46.1286 48.4675 46.1116C50.523 44.8252 52.9018 44.1445 55.3486 44.1445C60.5997 44.1445 65.262 47.2312 67.2324 52.0092C67.5659 52.8192 67.8143 53.6699 67.9709 54.5309C67.9777 54.5616 67.9573 54.5922 67.9232 54.599C67.9266 54.599 67.9232 54.599 67.9198 54.599Z" fill="#BDD0FB"/>
<path d="M87.2394 68.8156L84.8811 68.625L83.8601 69.5677C83.8601 69.5677 84.1017 69.9012 84.8572 69.7106C85.6127 69.52 86.6473 69.4724 86.6473 69.4724C86.6473 69.4724 87.6887 69.942 87.7023 69.064L87.2394 68.8156Z" fill="url(#paint37_linear_1990_218387)"/>
<path d="M68.9783 65.1438C68.7741 65.3038 68.0764 64.9703 67.6476 64.7422C67.4401 64.6299 67.338 64.3849 67.4094 64.1603C67.5115 63.837 67.6851 63.4184 67.8961 63.364C68.2466 63.2755 69.8154 64.487 68.9783 65.1438Z" fill="url(#paint38_linear_1990_218387)"/>
<path d="M91.269 74.5129C91.2452 74.5129 91.2214 74.4992 91.2146 74.4754C91.2043 74.4448 91.2214 74.4108 91.252 74.4005C91.97 74.1521 92.3478 73.7471 92.3716 73.1992C92.3954 72.6445 92.0449 72.1272 91.5004 71.9163L88.5056 70.749C88.475 70.7388 88.4614 70.7047 88.4716 70.6741C88.4818 70.6435 88.5159 70.6299 88.5465 70.6401L91.5413 71.8074C92.1334 72.0388 92.5146 72.6003 92.4873 73.2026C92.4601 73.805 92.0585 74.244 91.2894 74.5094C91.2826 74.5129 91.2758 74.5129 91.269 74.5129Z" fill="#BDD0FB"/>
<path d="M87.6003 70.3906C87.5935 70.3906 87.5867 70.3906 87.5799 70.3872L87.1919 70.2374C87.1613 70.2272 87.1477 70.1932 87.1579 70.1626C87.1681 70.1319 87.2021 70.1183 87.2328 70.1285L87.6207 70.2783C87.6513 70.2885 87.665 70.3225 87.6547 70.3531C87.6445 70.377 87.6241 70.3906 87.6003 70.3906Z" fill="#BDD0FB"/>
<path d="M76.6829 48.6562C76.6829 48.6562 75.8764 50.5076 75.8219 51.4775C75.7675 52.4474 75.5599 53.0803 76.6829 53.2743C77.806 53.4683 78.752 52.9102 79.2659 51.9437C79.2659 51.9437 80.0691 50.4531 79.8887 49.8405C79.7083 49.2314 76.6829 48.6562 76.6829 48.6562Z" fill="url(#paint39_linear_1990_218387)"/>
<path d="M78.8814 51.2473H78.7385C78.7385 51.2473 79.3239 50.046 78.81 49.835C78.2961 49.624 76.261 49.2089 75.822 48.4874C75.4 47.7898 75.7778 46.8913 76.3427 46.6395C76.3801 46.6225 76.421 46.6395 76.438 46.6735L76.4856 46.762C76.5163 46.8233 76.6081 46.813 76.6252 46.7484C76.6422 46.6871 76.7273 46.6735 76.7613 46.728C76.8974 46.9424 77.2615 47.2963 78.2348 47.4767C79.6199 47.7319 80.5354 48.2934 80.5592 49.2497C80.5592 49.311 80.6238 49.345 80.6783 49.311C80.7804 49.2497 80.9437 49.2191 81.1615 49.4028C81.5427 49.7227 81.3862 50.5531 80.5524 51.2371C80.5115 51.2712 80.5116 51.3324 80.5558 51.3597C80.7055 51.4583 80.9335 51.6932 80.3482 52.0062C79.7492 52.3261 79.3987 52.2921 79.2626 52.2581C79.2252 52.2479 79.2013 52.2172 79.2047 52.1798L79.2558 51.3324C79.2592 51.2882 79.2252 51.2508 79.1809 51.2508H78.8814V51.2473Z" fill="url(#paint40_linear_1990_218387)"/>
<path d="M78.8474 51.4247C78.8474 51.4247 79.1537 50.2438 79.6846 50.5739C80.2155 50.904 79.4089 51.8977 78.9835 51.9419L78.8474 51.4247Z" fill="url(#paint41_linear_1990_218387)"/>
<path d="M48.7739 52.2929C50.8498 54.3314 52.6399 56.4482 54.2053 58.633C56.5365 53.3207 59.0208 48.3827 61.7093 43.9484L68.3046 41.75C63.7614 47.6715 58.9187 56.4992 54.7805 65.3508C51.7857 61.1309 48.7977 56.9212 46.6401 55.4272L48.7739 52.2929Z" fill="url(#paint42_linear_1990_218387)"/>
<defs>
<linearGradient id="paint0_linear_1990_218387" x1="107.265" y1="123.411" x2="22.4766" y2="18.1085" gradientUnits="userSpaceOnUse">
<stop stop-color="#DAE3FE"/>
<stop offset="1" stop-color="#E9EFFD"/>
</linearGradient>
<linearGradient id="paint1_linear_1990_218387" x1="55.1995" y1="73.5333" x2="41.4529" y2="108.161" gradientUnits="userSpaceOnUse">
<stop stop-color="#09005D"/>
<stop offset="1" stop-color="#1A0F91"/>
</linearGradient>
<linearGradient id="paint2_linear_1990_218387" x1="58.433" y1="21.203" x2="40.1623" y2="76.0152" gradientUnits="userSpaceOnUse">
<stop stop-color="#09005D"/>
<stop offset="1" stop-color="#1A0F91"/>
</linearGradient>
<linearGradient id="paint3_linear_1990_218387" x1="34.9034" y1="109.029" x2="56.1324" y2="86.5822" gradientUnits="userSpaceOnUse">
<stop stop-color="#09005D"/>
<stop offset="1" stop-color="#1A0F91"/>
</linearGradient>
<linearGradient id="paint4_linear_1990_218387" x1="26.6804" y1="37.0909" x2="35.0328" y2="13.5999" gradientUnits="userSpaceOnUse">
<stop stop-color="#4042E2"/>
<stop offset="1" stop-color="#4F52FF"/>
</linearGradient>
<linearGradient id="paint5_linear_1990_218387" x1="30.1632" y1="38.3259" x2="38.5155" y2="14.835" gradientUnits="userSpaceOnUse">
<stop stop-color="#4042E2"/>
<stop offset="1" stop-color="#4F52FF"/>
</linearGradient>
<linearGradient id="paint6_linear_1990_218387" x1="34.801" y1="39.975" x2="43.1533" y2="16.484" gradientUnits="userSpaceOnUse">
<stop stop-color="#4042E2"/>
<stop offset="1" stop-color="#4F52FF"/>
</linearGradient>
<linearGradient id="paint7_linear_1990_218387" x1="40.4082" y1="41.9685" x2="48.7605" y2="18.4776" gradientUnits="userSpaceOnUse">
<stop stop-color="#4042E2"/>
<stop offset="1" stop-color="#4F52FF"/>
</linearGradient>
<linearGradient id="paint8_linear_1990_218387" x1="45.4102" y1="43.7485" x2="53.7625" y2="20.2575" gradientUnits="userSpaceOnUse">
<stop stop-color="#4042E2"/>
<stop offset="1" stop-color="#4F52FF"/>
</linearGradient>
<linearGradient id="paint9_linear_1990_218387" x1="49.9229" y1="45.3521" x2="58.2753" y2="21.8611" gradientUnits="userSpaceOnUse">
<stop stop-color="#4042E2"/>
<stop offset="1" stop-color="#4F52FF"/>
</linearGradient>
<linearGradient id="paint10_linear_1990_218387" x1="55.3432" y1="47.2789" x2="63.6956" y2="23.7879" gradientUnits="userSpaceOnUse">
<stop stop-color="#4042E2"/>
<stop offset="1" stop-color="#4F52FF"/>
</linearGradient>
<linearGradient id="paint11_linear_1990_218387" x1="59.6685" y1="48.8172" x2="68.0208" y2="25.3263" gradientUnits="userSpaceOnUse">
<stop stop-color="#4042E2"/>
<stop offset="1" stop-color="#4F52FF"/>
</linearGradient>
<linearGradient id="paint12_linear_1990_218387" x1="36.0661" y1="54.8455" x2="-1.26516" y2="112.224" gradientUnits="userSpaceOnUse">
<stop stop-color="#4F52FF"/>
<stop offset="1" stop-color="#4042E2"/>
</linearGradient>
<linearGradient id="paint13_linear_1990_218387" x1="28.0409" y1="65.8424" x2="-5.45256" y2="118.454" gradientUnits="userSpaceOnUse">
<stop stop-color="#FF928E"/>
<stop offset="1" stop-color="#FEB3B1"/>
</linearGradient>
<linearGradient id="paint14_linear_1990_218387" x1="254.066" y1="-552.439" x2="268.482" y2="-589.864" gradientUnits="userSpaceOnUse">
<stop stop-color="#FE7062"/>
<stop offset="1" stop-color="#FF928E"/>
</linearGradient>
<linearGradient id="paint15_linear_1990_218387" x1="251.888" y1="-553.282" x2="266.305" y2="-590.707" gradientUnits="userSpaceOnUse">
<stop stop-color="#FE7062"/>
<stop offset="1" stop-color="#FF928E"/>
</linearGradient>
<linearGradient id="paint16_linear_1990_218387" x1="256.376" y1="-551.551" x2="270.792" y2="-588.976" gradientUnits="userSpaceOnUse">
<stop stop-color="#FE7062"/>
<stop offset="1" stop-color="#FF928E"/>
</linearGradient>
<linearGradient id="paint17_linear_1990_218387" x1="258.351" y1="-550.79" x2="272.767" y2="-588.215" gradientUnits="userSpaceOnUse">
<stop stop-color="#FE7062"/>
<stop offset="1" stop-color="#FF928E"/>
</linearGradient>
<linearGradient id="paint18_linear_1990_218387" x1="260.342" y1="-550.022" x2="274.759" y2="-587.448" gradientUnits="userSpaceOnUse">
<stop stop-color="#FE7062"/>
<stop offset="1" stop-color="#FF928E"/>
</linearGradient>
<linearGradient id="paint19_linear_1990_218387" x1="30.4459" y1="44.258" x2="12.3868" y2="52.3633" gradientUnits="userSpaceOnUse">
<stop stop-color="#09005D"/>
<stop offset="1" stop-color="#1A0F91"/>
</linearGradient>
<linearGradient id="paint20_linear_1990_218387" x1="29.7132" y1="42.4884" x2="17.212" y2="58.6532" gradientUnits="userSpaceOnUse">
<stop stop-color="#09005D"/>
<stop offset="1" stop-color="#1A0F91"/>
</linearGradient>
<linearGradient id="paint21_linear_1990_218387" x1="28.1466" y1="43.4692" x2="19.4777" y2="59.0772" gradientUnits="userSpaceOnUse">
<stop stop-color="#09005D"/>
<stop offset="1" stop-color="#1A0F91"/>
</linearGradient>
<linearGradient id="paint22_linear_1990_218387" x1="85.1455" y1="94.7824" x2="79.7175" y2="94.7824" gradientUnits="userSpaceOnUse">
<stop stop-color="#4F52FF"/>
<stop offset="1" stop-color="#4042E2"/>
</linearGradient>
<linearGradient id="paint23_linear_1990_218387" x1="85.1459" y1="93.7187" x2="79.8708" y2="93.7187" gradientUnits="userSpaceOnUse">
<stop stop-color="#09005D"/>
<stop offset="1" stop-color="#1A0F91"/>
</linearGradient>
<linearGradient id="paint24_linear_1990_218387" x1="84.6444" y1="92.2345" x2="83.1154" y2="92.2345" gradientUnits="userSpaceOnUse">
<stop stop-color="#FEBBBA"/>
<stop offset="1" stop-color="#FF928E"/>
</linearGradient>
<linearGradient id="paint25_linear_1990_218387" x1="95.9669" y1="94.6697" x2="93.8868" y2="94.6697" gradientUnits="userSpaceOnUse">
<stop stop-color="#4F52FF"/>
<stop offset="1" stop-color="#4042E2"/>
</linearGradient>
<linearGradient id="paint26_linear_1990_218387" x1="95.9518" y1="93.0674" x2="92.8985" y2="93.0674" gradientUnits="userSpaceOnUse">
<stop stop-color="#09005D"/>
<stop offset="1" stop-color="#1A0F91"/>
</linearGradient>
<linearGradient id="paint27_linear_1990_218387" x1="94.3647" y1="90.961" x2="92.5375" y2="90.961" gradientUnits="userSpaceOnUse">
<stop stop-color="#FEBBBA"/>
<stop offset="1" stop-color="#FF928E"/>
</linearGradient>
<linearGradient id="paint28_linear_1990_218387" x1="97.7824" y1="38.8547" x2="88.2062" y2="76.7034" gradientUnits="userSpaceOnUse">
<stop stop-color="#4F52FF"/>
<stop offset="1" stop-color="#4042E2"/>
</linearGradient>
<linearGradient id="paint29_linear_1990_218387" x1="85.488" y1="56.0918" x2="69.3053" y2="81.8448" gradientUnits="userSpaceOnUse">
<stop stop-color="#FE7062"/>
<stop offset="1" stop-color="#FF928E"/>
</linearGradient>
<linearGradient id="paint30_linear_1990_218387" x1="85.9931" y1="64.3234" x2="92.4979" y2="70.0834" gradientUnits="userSpaceOnUse">
<stop stop-color="#FEBBBA"/>
<stop offset="1" stop-color="#FF928E"/>
</linearGradient>
<linearGradient id="paint31_linear_1990_218387" x1="88.2852" y1="57.8483" x2="72.1026" y2="83.6013" gradientUnits="userSpaceOnUse">
<stop stop-color="#FE7062"/>
<stop offset="1" stop-color="#FF928E"/>
</linearGradient>
<linearGradient id="paint32_linear_1990_218387" x1="80.5976" y1="53.0208" x2="64.4149" y2="78.7738" gradientUnits="userSpaceOnUse">
<stop stop-color="#FE7062"/>
<stop offset="1" stop-color="#FF928E"/>
</linearGradient>
<linearGradient id="paint33_linear_1990_218387" x1="73.7993" y1="64.8721" x2="68.6765" y2="64.8721" gradientUnits="userSpaceOnUse">
<stop stop-color="#FEBBBA"/>
<stop offset="1" stop-color="#FF928E"/>
</linearGradient>
<linearGradient id="paint34_linear_1990_218387" x1="78.7786" y1="51.1805" x2="78.8346" y2="60.7469" gradientUnits="userSpaceOnUse">
<stop stop-color="#FEBBBA"/>
<stop offset="1" stop-color="#FF928E"/>
</linearGradient>
<linearGradient id="paint35_linear_1990_218387" x1="93.0176" y1="68.6226" x2="66.1918" y2="68.6226" gradientUnits="userSpaceOnUse">
<stop stop-color="#09005D"/>
<stop offset="1" stop-color="#1A0F91"/>
</linearGradient>
<linearGradient id="paint36_linear_1990_218387" x1="69.0561" y1="56.7287" x2="41.6566" y2="56.7287" gradientUnits="userSpaceOnUse">
<stop stop-color="#09005D"/>
<stop offset="1" stop-color="#1A0F91"/>
</linearGradient>
<linearGradient id="paint37_linear_1990_218387" x1="83.4244" y1="67.2281" x2="89.9292" y2="72.9883" gradientUnits="userSpaceOnUse">
<stop stop-color="#FEBBBA"/>
<stop offset="1" stop-color="#FF928E"/>
</linearGradient>
<linearGradient id="paint38_linear_1990_218387" x1="69.2208" y1="64.2707" x2="67.3863" y2="64.2707" gradientUnits="userSpaceOnUse">
<stop stop-color="#FEBBBA"/>
<stop offset="1" stop-color="#FF928E"/>
</linearGradient>
<linearGradient id="paint39_linear_1990_218387" x1="76.5141" y1="50.286" x2="81.1195" y2="53.8099" gradientUnits="userSpaceOnUse">
<stop stop-color="#FEBBBA"/>
<stop offset="1" stop-color="#FF928E"/>
</linearGradient>
<linearGradient id="paint40_linear_1990_218387" x1="79.7497" y1="47.5021" x2="75.5794" y2="52.8714" gradientUnits="userSpaceOnUse">
<stop stop-color="#09005D"/>
<stop offset="1" stop-color="#1A0F91"/>
</linearGradient>
<linearGradient id="paint41_linear_1990_218387" x1="77.0854" y1="49.5376" x2="81.6909" y2="53.0615" gradientUnits="userSpaceOnUse">
<stop stop-color="#FEBBBA"/>
<stop offset="1" stop-color="#FF928E"/>
</linearGradient>
<linearGradient id="paint42_linear_1990_218387" x1="49.2433" y1="64.6239" x2="72.9082" y2="18.5118" gradientUnits="userSpaceOnUse">
<stop stop-color="#FE7062"/>
<stop offset="1" stop-color="#FF928E"/>
</linearGradient>
</defs>
</svg>
