<svg width="18" height="18" viewBox="0 0 18 18" fill="none" xmlns="http://www.w3.org/2000/svg">
<path d="M17.8701 1.00113C18.0802 0.730185 18.0309 0.340312 17.7601 0.130238C17.4891 -0.0798513 17.0992 -0.0305124 16.8892 0.240315L8.84745 10.6102C8.61845 10.9056 8.18226 10.9329 7.91812 10.6688L4.87939 7.63006C4.63693 7.38761 4.24402 7.38761 4.00158 7.63006C3.75924 7.8724 3.75924 8.26544 4.00158 8.50775L7.04031 11.5465C7.83302 12.3393 9.14145 12.2569 9.82846 11.3709L17.8701 1.00113Z" fill="url(#paint0_linear_2132_225910)"/>
<path d="M1.24139 4.34541C1.24139 3.31701 2.07507 2.48333 3.10347 2.48333H11.7932C12.136 2.48333 12.4139 2.20547 12.4139 1.86264C12.4139 1.5198 12.136 1.24194 11.7932 1.24194H3.10347C1.38951 1.24194 0 2.63146 0 4.34541V14.2765C0 15.9905 1.38951 17.38 3.10347 17.38H13.0346C14.7485 17.38 16.138 15.9905 16.138 14.2765V9.31096C16.138 8.96812 15.8602 8.69026 15.5173 8.69026C15.1745 8.69026 14.8966 8.96812 14.8966 9.31096V14.2765C14.8966 15.3049 14.063 16.1386 13.0346 16.1386H3.10347C2.07507 16.1386 1.24139 15.3049 1.24139 14.2765V4.34541Z" fill="url(#paint1_linear_2132_225910)"/>
<defs>
<linearGradient id="paint0_linear_2132_225910" x1="10.9101" y1="0" x2="10.9101" y2="12.092" gradientUnits="userSpaceOnUse">
<stop stop-color="#00A3FF"/>
<stop offset="1" stop-color="#22A7F2"/>
</linearGradient>
<linearGradient id="paint1_linear_2132_225910" x1="8.06901" y1="1.24194" x2="8.06901" y2="17.38" gradientUnits="userSpaceOnUse">
<stop stop-color="#00A3FF"/>
<stop offset="1" stop-color="#22A7F2"/>
</linearGradient>
</defs>
</svg>
