<svg width="48" height="48" viewBox="0 0 48 48" fill="none" xmlns="http://www.w3.org/2000/svg">
<circle cx="24" cy="24" r="24" fill="#045299"/>
<path d="M24.7832 21.6389C24.1933 21.5807 23.5999 21.7062 23.0841 21.9982C22.5683 22.2903 22.1553 22.7346 21.9018 23.2704C21.6483 23.8062 21.5666 24.4073 21.6679 24.9913C21.7692 25.5754 22.0486 26.1138 22.4677 26.5329C22.8868 26.9521 23.4253 27.2314 24.0093 27.3327C24.5933 27.434 25.1944 27.3523 25.7302 27.0988C26.266 26.8453 26.7104 26.4324 27.0024 25.9166C27.2945 25.4008 27.42 24.8073 27.3617 24.2174C27.2953 23.5562 27.0023 22.9382 26.5324 22.4683C26.0624 21.9983 25.4445 21.7053 24.7832 21.6389V21.6389ZM31.7057 24.5C31.7038 24.8125 31.6809 25.1245 31.6369 25.4339L33.6678 27.0269C33.7563 27.1002 33.8159 27.2024 33.836 27.3155C33.8562 27.4286 33.8356 27.5452 33.7779 27.6445L31.8566 30.9687C31.7982 31.0671 31.707 31.1418 31.5991 31.1795C31.4911 31.2172 31.3732 31.2156 31.2663 31.1749L29.2493 30.3628C29.1381 30.3185 29.0176 30.3025 28.8987 30.3162C28.7798 30.3299 28.6661 30.3729 28.5679 30.4414C28.26 30.6533 27.9366 30.8417 27.6002 31.0047C27.4945 31.0561 27.4031 31.1327 27.334 31.2278C27.2649 31.3229 27.2202 31.4336 27.204 31.55L26.9017 33.7013C26.8819 33.815 26.8232 33.9182 26.7357 33.9933C26.6481 34.0684 26.5373 34.1108 26.4219 34.1133H22.5793C22.4659 34.1113 22.3566 34.0708 22.2693 33.9984C22.182 33.9259 22.122 33.8259 22.0991 33.7148L21.7972 31.5667C21.7803 31.4489 21.7345 31.3372 21.664 31.2415C21.5934 31.1457 21.5003 31.0688 21.3929 31.0177C21.057 30.8556 20.7346 30.6667 20.4289 30.453C20.331 30.3849 20.2177 30.3423 20.0992 30.3288C19.9808 30.3154 19.8608 30.3317 19.7502 30.3762L17.7336 31.188C17.6267 31.2287 17.5089 31.2303 17.401 31.1927C17.293 31.1551 17.2018 31.0805 17.1433 30.9822L15.222 27.658C15.1643 27.5587 15.1436 27.4421 15.1638 27.329C15.1839 27.2159 15.2436 27.1136 15.3321 27.0403L17.0485 25.6927C17.1426 25.618 17.2165 25.5211 17.2636 25.4106C17.3106 25.3002 17.3294 25.1797 17.3181 25.0602C17.3019 24.8729 17.292 24.686 17.292 24.4987C17.292 24.3113 17.3015 24.1271 17.3181 23.9439C17.3281 23.8251 17.3085 23.7056 17.2609 23.5963C17.2133 23.487 17.1392 23.3912 17.0454 23.3177L15.3298 21.97C15.2428 21.8964 15.1844 21.7944 15.1649 21.6821C15.1454 21.5697 15.1661 21.4541 15.2234 21.3555L17.1447 18.0312C17.203 17.9329 17.2942 17.8582 17.4022 17.8205C17.5102 17.7828 17.628 17.7844 17.735 17.8251L19.7519 18.6372C19.8632 18.6815 19.9837 18.6975 20.1026 18.6838C20.2215 18.6701 20.3352 18.6271 20.4334 18.5586C20.7412 18.3467 21.0647 18.1583 21.401 17.9953C21.5068 17.9439 21.5982 17.8673 21.6673 17.7722C21.7364 17.6771 21.781 17.5664 21.7972 17.45L22.0996 15.2987C22.1194 15.185 22.1781 15.0818 22.2656 15.0067C22.3531 14.9316 22.464 14.8892 22.5793 14.8867H26.4219C26.5354 14.8887 26.6447 14.9292 26.732 15.0016C26.8193 15.0741 26.8793 15.1741 26.9022 15.2852L27.204 17.4333C27.221 17.5511 27.2668 17.6628 27.3373 17.7585C27.4078 17.8543 27.5009 17.9312 27.6083 17.9823C27.9443 18.1444 28.2666 18.3333 28.5724 18.547C28.6702 18.6151 28.7835 18.6577 28.902 18.6712C29.0205 18.6846 29.1405 18.6683 29.2511 18.6238L31.2677 17.812C31.3745 17.7713 31.4923 17.7697 31.6003 17.8073C31.7083 17.8449 31.7995 17.9195 31.8579 18.0178L33.7793 21.342C33.837 21.4413 33.8577 21.5579 33.8375 21.671C33.8173 21.7841 33.7577 21.8864 33.6692 21.9597L31.9527 23.3073C31.8583 23.3817 31.7839 23.4786 31.7365 23.589C31.689 23.6995 31.6699 23.8201 31.681 23.9398C31.6958 24.1258 31.7057 24.3127 31.7057 24.5Z" stroke="white" stroke-width="1.13802" stroke-linecap="round" stroke-linejoin="round"/>
</svg>
