<svg width="18" height="18" viewBox="0 0 18 18" fill="none" xmlns="http://www.w3.org/2000/svg">
<path d="M7.33366 3.16667H10.667C10.667 2.72464 10.4914 2.30072 10.1788 1.98816C9.86628 1.67559 9.44235 1.5 9.00033 1.5C8.5583 1.5 8.13438 1.67559 7.82181 1.98816C7.50925 2.30072 7.33366 2.72464 7.33366 3.16667ZM6.08366 3.16667C6.08366 2.78364 6.1591 2.40437 6.30568 2.05051C6.45225 1.69664 6.66709 1.37511 6.93793 1.10427C7.20877 0.833434 7.5303 0.618594 7.88417 0.472018C8.23803 0.325442 8.6173 0.25 9.00033 0.25C9.38335 0.25 9.76262 0.325442 10.1165 0.472018C10.4704 0.618594 10.7919 0.833434 11.0627 1.10427C11.3336 1.37511 11.5484 1.69664 11.695 2.05051C11.8416 2.40437 11.917 2.78364 11.917 3.16667H16.7087C16.8744 3.16667 17.0334 3.23251 17.1506 3.34973C17.2678 3.46694 17.3337 3.62591 17.3337 3.79167C17.3337 3.95743 17.2678 4.1164 17.1506 4.23361C17.0334 4.35082 16.8744 4.41667 16.7087 4.41667H15.6087L14.6337 14.5092C14.5589 15.2825 14.1987 16.0002 13.6234 16.5224C13.0481 17.0445 12.2989 17.3336 11.522 17.3333H6.47866C5.70188 17.3334 4.95291 17.0442 4.37778 16.5221C3.80266 15.9999 3.4426 15.2823 3.36783 14.5092L2.39199 4.41667H1.29199C1.12623 4.41667 0.967261 4.35082 0.85005 4.23361C0.73284 4.1164 0.666992 3.95743 0.666992 3.79167C0.666992 3.62591 0.73284 3.46694 0.85005 3.34973C0.967261 3.23251 1.12623 3.16667 1.29199 3.16667H6.08366ZM7.75033 7.125C7.75033 6.95924 7.68448 6.80027 7.56727 6.68306C7.45006 6.56585 7.29109 6.5 7.12533 6.5C6.95957 6.5 6.80059 6.56585 6.68338 6.68306C6.56617 6.80027 6.50033 6.95924 6.50033 7.125V13.375C6.50033 13.5408 6.56617 13.6997 6.68338 13.8169C6.80059 13.9342 6.95957 14 7.12533 14C7.29109 14 7.45006 13.9342 7.56727 13.8169C7.68448 13.6997 7.75033 13.5408 7.75033 13.375V7.125ZM10.8753 6.5C11.0411 6.5 11.2001 6.56585 11.3173 6.68306C11.4345 6.80027 11.5003 6.95924 11.5003 7.125V13.375C11.5003 13.5408 11.4345 13.6997 11.3173 13.8169C11.2001 13.9342 11.0411 14 10.8753 14C10.7096 14 10.5506 13.9342 10.4334 13.8169C10.3162 13.6997 10.2503 13.5408 10.2503 13.375V7.125C10.2503 6.95924 10.3162 6.80027 10.4334 6.68306C10.5506 6.56585 10.7096 6.5 10.8753 6.5ZM4.61199 14.3892C4.65694 14.853 4.87303 15.2835 5.21813 15.5968C5.56324 15.91 6.01261 16.0834 6.47866 16.0833H11.522C11.988 16.0834 12.4374 15.91 12.7825 15.5968C13.1276 15.2835 13.3437 14.853 13.3887 14.3892L14.3537 4.41667H3.64699L4.61199 14.3892Z" fill="url(#paint0_linear_1216_24040)"/>
<defs>
<linearGradient id="paint0_linear_1216_24040" x1="9.00033" y1="0.25" x2="9.00033" y2="17.3333" gradientUnits="userSpaceOnUse">
<stop stop-color="#00A3FF"/>
<stop offset="1" stop-color="#22A7F2"/>
</linearGradient>
</defs>
</svg>
