<svg width="118" height="113" viewBox="0 0 118 113" fill="none" xmlns="http://www.w3.org/2000/svg">
<path opacity="0.3" d="M98.9768 96.8539C96.047 99.8716 93.4269 101.646 91.422 102.986C71.8549 116.053 49.4876 112.286 42.5732 110.997C31.4147 108.921 21.9973 107.456 13.9068 100.144C-4.48424 83.5315 -3.58854 48.8799 10.4621 27.4125C12.128 24.8677 26.1577 4.07002 48.571 1.14018C49.1193 1.06903 49.5295 1.02717 49.8852 0.989504C53.355 0.621181 74.8433 -1.3167 92.3638 13.366C94.8709 15.4671 98.9099 19.2592 102.652 25.0393C116.338 46.176 116.384 78.9107 98.9768 96.8539Z" fill="url(#paint0_linear_2822_403266)"/>
<path d="M108.977 106.024C108.977 107.028 108.153 107.853 107.148 107.853H8.23661C7.23209 107.853 6.40755 107.033 6.40755 106.024L5.58301 49.1849C5.58301 48.1804 6.7675 46.2174 8.93558 46.3639L105.599 43.861C106.863 43.8275 108.081 44.313 108.977 45.2045C109.873 46.096 110.358 47.314 110.329 48.5739L108.977 106.024Z" fill="url(#paint1_linear_2822_403266)"/>
<path d="M107.168 104.274C107.168 105.224 106.389 106.002 105.439 106.002H10.6214C9.67126 106.002 8.89276 105.224 8.89276 104.274L8.11426 52.6749C8.20634 49.5693 10.9269 48.4517 12.5802 48.5187L105.226 46.0325C106.113 46.0074 106.971 46.3506 107.599 46.9785C108.227 47.6063 108.57 48.4643 108.549 49.3474L107.168 104.274Z" fill="url(#paint2_linear_2822_403266)"/>
<path d="M9.91352 79.6684C9.82562 79.6684 9.75028 79.5972 9.75028 79.5093L9.6875 75.3238C9.6875 75.2318 9.75865 75.1606 9.84655 75.1564C9.93444 75.1522 10.0098 75.2276 10.014 75.3155L10.0767 79.501C10.0809 79.593 10.0098 79.6684 9.91352 79.6684C9.9177 79.6684 9.9177 79.6684 9.91352 79.6684Z" fill="white"/>
<path d="M9.76286 69.411C9.67496 69.411 9.59962 69.3399 9.59962 69.252L9.36523 53.2258C9.36942 52.1501 9.70426 51.2879 10.353 50.6642C11.5333 49.5342 13.3833 49.5886 13.4586 49.5928L43.0417 48.7975C43.1296 48.7891 43.2049 48.8645 43.2091 48.9566C43.2133 49.0486 43.1421 49.1198 43.05 49.124L13.4545 49.9192C13.3707 49.915 11.6589 49.8648 10.5748 50.9028C9.98887 51.4637 9.6917 52.2422 9.68752 53.2258L9.9219 69.252C9.93027 69.3357 9.85912 69.4069 9.76286 69.411C9.76704 69.411 9.76704 69.411 9.76286 69.411Z" fill="white"/>
<path opacity="0.23" d="M13.0724 101.408C13.1728 97.1431 13.1352 59.3774 12.8882 56.1169C12.6455 52.8564 17.7225 52.2454 25.5242 51.877C33.3218 51.5087 99.126 50.0563 100.821 49.9182C104.63 49.6085 105.417 55.3008 105.036 67.6605C104.751 76.9439 104.274 92.2377 104.057 99.2735C103.99 101.366 102.282 103.028 100.185 103.036C84.3512 103.078 23.6575 103.254 19.6185 103.375C14.9684 103.509 13.0305 103.099 13.0724 101.408Z" fill="white"/>
<path d="M114.503 112.568H2.88839C1.51555 112.568 0.389648 111.446 0.389648 110.069C0.389648 108.696 1.51136 107.57 2.88839 107.57H114.503C115.876 107.57 117.002 108.692 117.002 110.069C117.002 111.446 115.876 112.568 114.503 112.568Z" fill="url(#paint3_linear_2822_403266)"/>
<path d="M92.404 9.31231L26.0515 8.90631C23.8708 8.89376 22.1255 10.7144 22.2343 12.8909L26.8007 107.156H100.637L104.734 22.9361L92.404 9.31231Z" fill="#07B4FF"/>
<path d="M95.1626 22.5339C93.0029 22.4586 91.3413 20.596 91.5087 18.4405L92.2202 9.4375L104.747 22.8813L95.1626 22.5339Z" fill="url(#paint4_linear_2822_403266)"/>
<path opacity="0.78" d="M60.2763 27.4119C65.73 27.3867 86.6658 27.2444 91.9521 27.211C92.6176 27.2068 93.1449 27.9016 93.1156 28.7428C93.0863 29.5423 92.5632 30.1827 91.9311 30.191L60.2721 30.5845C59.661 30.5928 59.1546 30.011 59.1044 29.2451L59.0918 29.0526C59.029 28.1736 59.5773 27.4119 60.2763 27.4119Z" fill="white"/>
<path opacity="0.78" d="M60.0058 34.0212C65.4595 33.9961 86.3953 33.8538 91.6816 33.8203C92.3471 33.8161 92.8744 34.5109 92.8451 35.3522C92.8158 36.1517 92.2927 36.792 91.6607 36.8004L60.0016 37.1938C59.3905 37.2022 58.8841 36.6204 58.8339 35.8545L58.8213 35.6619C58.7585 34.7872 59.3068 34.0254 60.0058 34.0212Z" fill="white"/>
<path opacity="0.78" d="M36.3154 43.3443C45.5151 43.3527 80.828 43.3401 89.7431 43.3359C90.869 43.3359 91.7815 44.0307 91.7605 44.872C91.7396 45.6714 90.8774 46.3118 89.8101 46.316L36.4117 46.5211C35.382 46.5253 34.5073 45.9435 34.3942 45.1734L34.3649 44.9808C34.2352 44.1019 35.1393 43.3443 36.3154 43.3443Z" fill="white"/>
<path opacity="0.78" d="M35.892 50.2807C43.0533 50.2514 70.5394 50.0924 77.479 50.0547C78.3537 50.0505 79.0611 50.7411 79.0401 51.5824C79.0192 52.3818 78.3454 53.0264 77.5124 53.0348L35.9464 53.4575C35.1469 53.4659 34.4689 52.8841 34.3852 52.1182L34.3642 51.9256C34.268 51.0467 34.9753 50.2849 35.892 50.2807Z" fill="white"/>
<path opacity="0.78" d="M36.2275 59.3677C45.4272 59.3761 80.7402 59.3636 89.6553 59.3594C90.7811 59.3594 91.6936 60.0542 91.6727 60.8954C91.6517 61.6949 90.7895 62.3353 89.7222 62.3394L36.3238 62.5445C35.2941 62.5487 34.4194 61.9669 34.3064 61.1968L34.2771 61.0043C34.1473 60.1253 35.0514 59.3636 36.2275 59.3677Z" fill="white"/>
<path opacity="0.78" d="M35.4277 66.4219C42.6225 66.4344 70.2384 66.447 77.2114 66.4512C78.0903 66.4512 78.7977 67.1502 78.7684 67.9914C78.7433 68.7909 78.061 69.4271 77.2239 69.4312L35.4612 69.5945C34.6575 69.5987 33.9795 69.0127 33.9 68.2467L33.879 68.0542C33.787 67.1795 34.5069 66.4219 35.4277 66.4219Z" fill="white"/>
<path opacity="0.78" d="M35.7724 75.7193C44.9721 75.7277 80.2851 75.7151 89.2002 75.7109C90.3261 75.7109 91.2385 76.4057 91.2176 77.247C91.1966 78.0464 90.3344 78.6868 89.2671 78.691L35.8687 78.8961C34.8391 78.9003 33.9643 78.3185 33.8513 77.5484L33.822 77.3558C33.6922 76.4769 34.5963 75.7151 35.7724 75.7193Z" fill="white"/>
<g opacity="0.74">
<path opacity="0.78" d="M35.2161 82.6875C42.411 82.7001 70.0268 82.7126 76.9998 82.7168C77.8788 82.7168 78.5861 83.4158 78.5568 84.2571C78.5317 85.0565 77.8495 85.6927 77.0124 85.6969L35.2496 85.8601C34.446 85.8643 33.7679 85.2783 33.6884 84.5124L33.6675 84.3198C33.5796 83.4451 34.2953 82.6875 35.2161 82.6875Z" fill="white"/>
</g>
<path opacity="0.48" d="M36.3134 91.8834C45.5131 91.8917 80.8261 91.8792 89.7412 91.875C90.8671 91.875 91.7795 92.5698 91.7586 93.4111C91.7377 94.2105 90.8755 94.8509 89.8082 94.8551L36.4097 95.0602C35.3801 95.0643 34.5053 94.4826 34.3923 93.7124L34.363 93.5199C34.2332 92.6409 35.1373 91.8834 36.3134 91.8834Z" fill="white"/>
<path opacity="0.36" d="M35.7953 99.6085C42.898 99.6085 70.1665 99.5751 77.0516 99.5625C77.9222 99.5625 78.617 100.257 78.5919 101.099C78.5668 101.898 77.8929 102.538 77.0683 102.543L35.8329 102.781C35.0377 102.785 34.3722 102.204 34.2927 101.438L34.2717 101.245C34.1797 100.37 34.887 99.6085 35.7953 99.6085Z" fill="white"/>
<g opacity="0.78">
<path d="M42.5257 30.0719L40.2948 36.8273H37.4277L44.723 15.3516H48.0672L55.396 36.8273H52.4327L50.1391 30.0719H42.5257ZM49.5656 27.9038L47.4645 21.7219C46.9874 20.3197 46.6693 19.0432 46.3512 17.8043H46.2884C45.9703 19.0808 45.6187 20.3867 45.2044 21.6926L43.1033 27.908H49.5656V27.9038Z" fill="white"/>
</g>
<defs>
<linearGradient id="paint0_linear_2822_403266" x1="122.798" y1="130.734" x2="43.4644" y2="46.2826" gradientUnits="userSpaceOnUse">
<stop stop-color="#B37CFF"/>
<stop offset="1" stop-color="#F895E7"/>
</linearGradient>
<linearGradient id="paint1_linear_2822_403266" x1="48.6579" y1="103.482" x2="72.0182" y2="33.4011" gradientUnits="userSpaceOnUse">
<stop stop-color="#2B3582"/>
<stop offset="1" stop-color="#150E42"/>
</linearGradient>
<linearGradient id="paint2_linear_2822_403266" x1="121.78" y1="42.467" x2="-171.221" y2="203.808" gradientUnits="userSpaceOnUse">
<stop stop-color="#FDF53F"/>
<stop offset="1" stop-color="#D93C65"/>
</linearGradient>
<linearGradient id="paint3_linear_2822_403266" x1="54.3353" y1="133.912" x2="63.1384" y2="85.7795" gradientUnits="userSpaceOnUse">
<stop stop-color="#2B3582"/>
<stop offset="1" stop-color="#150E42"/>
</linearGradient>
<linearGradient id="paint4_linear_2822_403266" x1="99.8513" y1="14.619" x2="83.5009" y2="33.0596" gradientUnits="userSpaceOnUse">
<stop stop-color="#53D8FF"/>
<stop offset="0.2057" stop-color="#4DB9FD"/>
<stop offset="1" stop-color="#3840F7"/>
</linearGradient>
</defs>
</svg>
