<svg width="182" height="124" viewBox="0 0 182 124" fill="none" xmlns="http://www.w3.org/2000/svg">
<g opacity="0.41">
<path d="M0 41.794C0 32.1367 8.39761 24.2925 18.7611 24.2925H22.6736C20.8414 22.8229 19.6772 20.6281 19.6772 18.2042C19.6772 13.7572 23.5516 10.1501 28.323 10.1501H41.3584C40.0415 9.10035 39.2017 7.53536 39.2017 5.77948C39.2017 2.59219 41.9691 0.015625 45.3855 0.015625H78.0982C81.5145 0.015625 84.2819 2.59219 84.2819 5.77948C84.2819 8.96677 81.5145 11.5433 78.0982 11.5433H65.8452C63.555 12.9938 62.0663 15.4368 62.0663 18.2042C62.0663 20.6471 63.2305 22.8229 65.0627 24.2925H85.2171C95.5806 24.2925 103.978 32.1367 103.978 41.794C103.978 51.4513 95.5806 59.2954 85.2171 59.2954H111.918C116.689 59.2954 120.564 62.9026 120.564 67.3495C120.564 71.7965 116.689 75.4036 111.918 75.4036H122.797C134.687 75.4036 144.535 83.4387 146.501 93.993H150.318C157.723 93.993 163.735 99.5851 163.735 106.494V107.754C163.735 114.663 157.723 120.255 150.318 120.255H122.797H32.7508H24.0669C10.7833 120.255 0 110.216 0 97.8101C0 85.4236 10.7642 75.3655 24.0669 75.3655H66.1887C61.4173 75.3655 57.543 71.7583 57.543 67.3114C57.543 62.8644 61.4173 59.2573 66.1887 59.2573H18.7611C8.39761 59.2954 0 51.4513 0 41.794Z" fill="#ABE9FF"/>
<path d="M95.6375 11.5277C92.5266 11.5277 90.0264 8.95113 90.0264 5.76383C90.0264 2.57654 92.5456 0 95.6375 0C98.7485 0 101.249 2.57654 101.249 5.76383C101.249 8.95113 98.7485 11.5277 95.6375 11.5277Z" fill="#ABE9FF"/>
</g>
<path opacity="0.15" d="M163.716 120.62C163.716 122.757 126.251 123.196 81.0373 123.196C35.8236 123.196 0 122.757 0 120.62C0 118.482 36.6443 118.539 81.8389 118.539C127.053 118.539 163.716 118.463 163.716 120.62Z" fill="#231F20"/>
<path d="M124.38 45.8828H19.8292C16.661 45.8828 14.1035 48.4403 14.1035 51.6085V112.854C14.1035 113.045 14.2562 113.198 14.4471 113.198H128.999C129.19 113.198 129.342 113.045 129.342 112.854V50.826C129.323 48.0967 127.109 45.8828 124.38 45.8828Z" fill="#92BFF7"/>
<path d="M122.376 51.1719H21.0312V111.12H122.376V51.1719Z" fill="#29478C"/>
<path opacity="0.06" d="M122.376 51.1719H119.971C120.124 61.7644 118.654 75.7159 111.459 86.1367C99.9888 102.741 37.598 107.799 21.0508 108.868V111.12H122.395V51.1719H122.376Z" fill="white"/>
<path d="M14.7721 51.6276C14.7721 48.822 17.1196 46.5508 20.0206 46.5508H125.316C126.594 46.5508 127.759 46.9898 128.675 47.715C127.701 46.589 126.251 45.8828 124.629 45.8828H19.3335C16.4325 45.8828 14.085 48.154 14.085 50.9596V113.198H14.7721V51.6276Z" fill="#426388"/>
<path d="M6.79395 113.233V114.913C6.79395 117.814 9.14149 120.181 12.0616 120.181H131.327C134.266 120.181 136.633 117.795 136.633 114.875V113.214C136.633 113.214 136.633 113.195 136.614 113.195H6.85121C6.81304 113.195 6.79395 113.214 6.79395 113.233Z" fill="#8CAED9"/>
<path d="M89.3002 113.828H54.1064C54.1064 114.534 55.2134 115.107 56.5494 115.107H86.8382C88.1933 115.107 89.3002 114.534 89.3002 113.828Z" fill="#305C8F"/>
<path d="M6.96582 116.688C7.5193 118.52 9.31332 119.894 11.5654 120.142C11.6418 120.142 11.7181 120.161 11.7944 120.161C11.8517 120.161 11.909 120.161 11.9662 120.161C12.0998 120.161 12.2334 120.18 12.367 120.18H131.06C131.194 120.18 131.327 120.18 131.461 120.161C131.518 120.161 131.576 120.161 131.633 120.161C131.709 120.161 131.785 120.142 131.862 120.142C134.095 119.894 135.908 118.52 136.461 116.688H6.96582Z" fill="#5E8CCF"/>
<path d="M82.9319 68.228C83.4926 66.8743 82.8498 65.3224 81.4962 64.7617C80.1425 64.201 78.5906 64.8438 78.0299 66.1974C77.4692 67.5511 78.112 69.103 79.4656 69.6637C80.8193 70.2244 82.3712 69.5816 82.9319 68.228Z" fill="#9B9AF3"/>
<path d="M68.631 66.817C68.631 68.2866 67.4477 69.4699 65.9781 69.4699C64.5085 69.4699 63.3252 68.2866 63.3252 66.817C63.3252 65.3474 64.5085 64.1641 65.9781 64.1641C67.4477 64.1641 68.631 65.3474 68.631 66.817Z" fill="#C6C4F9"/>
<path d="M73.5452 87.2102C74.9711 86.8735 75.8541 85.4447 75.5174 84.0188C75.1807 82.5929 73.7519 81.7099 72.326 82.0466C70.9001 82.3833 70.0171 83.8122 70.3538 85.2381C70.6905 86.6639 72.1194 87.5469 73.5452 87.2102Z" fill="#E6E9FC"/>
<path d="M82.8507 82.0125C82.8507 83.4821 81.6674 84.6845 80.1978 84.6845C78.7283 84.6845 77.5449 83.5011 77.5449 82.0125C77.5449 80.5429 78.7283 79.3596 80.1978 79.3596C81.6483 79.3405 82.8507 80.5429 82.8507 82.0125Z" fill="white"/>
<path d="M68.0637 82.1063C68.2984 80.6601 67.3163 79.2974 65.87 79.0626C64.4238 78.8279 63.0611 79.8101 62.8264 81.2563C62.5916 82.7026 63.5738 84.0653 65.02 84.3C66.4663 84.5347 67.829 83.5526 68.0637 82.1063Z" fill="#D3D6FC"/>
<path d="M76.0574 64.8094C76.3941 63.3835 75.5111 61.9546 74.0852 61.6179C72.6593 61.2813 71.2305 62.1642 70.8938 63.5901C70.5571 65.016 71.4401 66.4448 72.866 66.7815C74.2918 67.1182 75.7207 66.2353 76.0574 64.8094Z" fill="#BCB6F7"/>
<path d="M65.2531 74.2388C65.2531 75.7084 64.0698 76.8917 62.6002 76.8917C61.1306 76.8917 59.9473 75.7084 59.9473 74.2388C59.9473 72.7692 61.1306 71.5859 62.6002 71.5859C64.0698 71.5859 65.2531 72.7692 65.2531 74.2388Z" fill="#C6C4F9"/>
<path d="M63.5166 95.9609H63.9747V97.755C63.9747 98.0603 64.0319 98.2894 64.1274 98.423C64.2228 98.5566 64.3946 98.6329 64.6045 98.6329C64.8335 98.6329 65.0053 98.5566 65.1007 98.423C65.1961 98.2894 65.2534 98.0603 65.2534 97.7359V95.9609H65.6542V97.6595C65.6542 98.0222 65.616 98.2894 65.5206 98.4611C65.3297 98.8047 65.0244 98.9764 64.6045 98.9764C64.2419 98.9764 63.9556 98.881 63.7838 98.6711C63.6121 98.4611 63.5166 98.1558 63.5166 97.7359V95.9609Z" fill="#E8EAF9"/>
<path d="M66.5127 98.9001V95.9609H67.467C67.8105 95.9609 68.0586 95.9991 68.1922 96.0564C68.4976 96.19 68.6312 96.4381 68.6312 96.8007C68.6312 97.1061 68.5167 97.3542 68.2686 97.5259C68.0204 97.6977 67.696 97.7931 67.2761 97.7931H66.9516V98.9001H66.5127ZM66.9707 97.4496H67.257C67.8678 97.4496 68.1731 97.2397 68.1731 96.8007C68.1731 96.6289 68.1158 96.4953 68.0013 96.419C67.8868 96.3426 67.696 96.3045 67.4288 96.3045H66.9707V97.4496Z" fill="#E8EAF9"/>
<path d="M69.1279 98.9001V95.9609H70.0058C70.9792 95.9609 71.4755 96.4381 71.4755 97.3733C71.4755 97.8122 71.3609 98.1558 71.151 98.423C71.0174 98.5947 70.8456 98.7092 70.6548 98.7856C70.4639 98.8619 70.1967 98.9001 69.8722 98.9001H69.1279ZM69.5669 98.5757H69.7959C70.2349 98.5757 70.5403 98.4993 70.712 98.3275C70.9029 98.1558 70.9792 97.8695 70.9792 97.4687C70.9792 97.0679 70.9029 96.7625 70.7311 96.5907C70.5593 96.419 70.2921 96.3235 69.9104 96.3235H69.5669V98.5757Z" fill="#E8EAF9"/>
<path d="M71.6855 98.9001L72.8498 95.9609H73.3078L74.4721 98.9001H73.9949L73.7086 98.1558H72.3726L72.0864 98.9001H71.6855ZM72.4871 97.8313H73.5559L73.0215 96.419L72.4871 97.8313Z" fill="#E8EAF9"/>
<path d="M75.6739 98.9001V96.3045H74.5479V95.9609H77.258V96.3045H76.132V98.9001H75.6739Z" fill="#E8EAF9"/>
<path d="M77.8115 98.9001V95.9609H79.7964V96.3045H78.2696V97.2015H79.5674V97.545H78.2696V98.5757H79.9109V98.9192H77.8115V98.9001Z" fill="#E8EAF9"/>
<path d="M90.6747 101.328H47.9422C47.1597 101.328 46.5107 101.958 46.5107 102.76C46.5107 103.542 47.1406 104.191 47.9422 104.191H90.6747C91.4573 104.191 92.1062 103.561 92.1062 102.76C92.1062 101.977 91.4763 101.328 90.6747 101.328Z" fill="#E8EAF9"/>
<path d="M72.9252 101.328H47.9422C47.1597 101.328 46.5107 101.958 46.5107 102.76C46.5107 103.542 47.1406 104.191 47.9422 104.191H72.9252V101.328Z" fill="#FC6E3C"/>
<path d="M78.0759 75.8257C78.8885 73.1422 77.3717 70.308 74.6882 69.4955C72.0046 68.683 69.1705 70.1997 68.358 72.8832C67.5454 75.5667 69.0621 78.4009 71.7457 79.2134C74.4292 80.026 77.2634 78.5092 78.0759 75.8257Z" fill="#4597ED"/>
<path d="M71.8593 76.5381C71.6303 76.5381 71.4013 76.4427 71.2486 76.2518L69.7408 74.3624C69.55 74.1142 69.5881 73.7707 69.8362 73.5798C70.0844 73.389 70.4279 73.4271 70.6188 73.6753L71.9357 75.3166L75.9436 72.3011C76.1917 72.1103 76.5353 72.1675 76.7262 72.4156C76.917 72.6637 76.8597 73.0073 76.6116 73.1981L72.3174 76.4236C72.1838 76.4999 72.012 76.5381 71.8593 76.5381Z" fill="white"/>
<path d="M172.748 90.1098V51.2812H136.229V99.7523H164.066L172.748 90.1098Z" fill="#D4D4D4" stroke="#C6C6C6" stroke-width="0.652013" stroke-miterlimit="10"/>
<path d="M169.94 54.6641H139.886V55.4768H169.94V54.6641Z" fill="#C6C6C6"/>
<path d="M169.94 57.2344H139.886V58.0472H169.94V57.2344Z" fill="#C6C6C6"/>
<path d="M169.94 59.7969H139.886V60.6096H169.94V59.7969Z" fill="#C6C6C6"/>
<path d="M169.94 62.3672H139.886V63.18H169.94V62.3672Z" fill="#C6C6C6"/>
<path d="M169.94 64.9375H139.886V65.7503H169.94V64.9375Z" fill="#C6C6C6"/>
<path d="M169.94 67.5H139.886V68.3128H169.94V67.5Z" fill="#C6C6C6"/>
<path d="M169.867 70.7109H153.39V71.5237H169.867V70.7109Z" fill="#C6C6C6"/>
<path d="M169.867 73.2812H153.39V74.094H169.867V73.2812Z" fill="#C6C6C6"/>
<path d="M169.867 75.8438H153.39V76.6565H169.867V75.8438Z" fill="#C6C6C6"/>
<path d="M169.867 78.4141H153.39V79.2268H169.867V78.4141Z" fill="#C6C6C6"/>
<path d="M169.867 80.9844H153.39V81.7971H169.867V80.9844Z" fill="#C6C6C6"/>
<path d="M152.318 71.6406H139.886V82.8348H152.318V71.6406Z" fill="#00B1C3"/>
<path d="M166.892 85.4766H153.426V86.2893H166.892V85.4766Z" fill="#C6C6C6"/>
<path d="M166.892 88.0469H153.426V88.8596H166.892V88.0469Z" fill="#C6C6C6"/>
<path d="M166.892 90.6094H153.426V91.4221H166.892V90.6094Z" fill="#C6C6C6"/>
<path d="M166.892 93.1797H153.426V93.9925H166.892V93.1797Z" fill="#C6C6C6"/>
<path d="M166.892 95.75H153.426V96.5628H166.892V95.75Z" fill="#C6C6C6"/>
<path d="M152.355 85.4766H139.923V96.6707H152.355V85.4766Z" fill="#00B1C3"/>
<path d="M164.065 99.756L172.747 90.1135C172.747 90.1135 171.454 85.3477 164.065 84.2578C164.065 84.2394 168.628 92.2378 164.065 99.756Z" fill="#929292"/>
<path d="M181.005 94.5054V55.6953H144.485V104.166H172.323L181.005 94.5054Z" fill="white" stroke="#C6C6C6" stroke-width="0.652013" stroke-miterlimit="10"/>
<path d="M178.197 59.0781H148.143V59.8909H178.197V59.0781Z" fill="#C6C6C6"/>
<path d="M178.197 61.6484H148.143V62.4612H178.197V61.6484Z" fill="#C6C6C6"/>
<path d="M178.197 64.2109H148.143V65.0237H178.197V64.2109Z" fill="#C6C6C6"/>
<path d="M178.197 66.7812H148.143V67.594H178.197V66.7812Z" fill="#C6C6C6"/>
<path d="M178.197 69.3516H148.143V70.1643H178.197V69.3516Z" fill="#C6C6C6"/>
<path d="M178.197 71.9141H148.143V72.7268H178.197V71.9141Z" fill="#C6C6C6"/>
<path d="M178.104 75.1094H161.627V75.9222H178.104V75.1094Z" fill="#C6C6C6"/>
<path d="M178.104 77.6797H161.627V78.4925H178.104V77.6797Z" fill="#C6C6C6"/>
<path d="M178.104 80.2422H161.627V81.055H178.104V80.2422Z" fill="#C6C6C6"/>
<path d="M178.104 82.8281H161.627V83.6409H178.104V82.8281Z" fill="#C6C6C6"/>
<path d="M178.104 85.3984H161.627V86.2112H178.104V85.3984Z" fill="#C6C6C6"/>
<path d="M160.594 76.0312H148.144V87.2254H160.594V76.0312Z" fill="#E56B63"/>
<path d="M175.15 89.8906H161.684V90.7034H175.15V89.8906Z" fill="#C6C6C6"/>
<path d="M175.15 92.4609H161.684V93.2737H175.15V92.4609Z" fill="#C6C6C6"/>
<path d="M175.15 95.0234H161.684V95.8362H175.15V95.0234Z" fill="#C6C6C6"/>
<path d="M175.15 97.5938H161.684V98.4065H175.15V97.5938Z" fill="#C6C6C6"/>
<path d="M175.15 100.164H161.684V100.977H175.15V100.164Z" fill="#C6C6C6"/>
<path d="M160.611 89.8906H148.18V101.085H160.611V89.8906Z" fill="#E56B63"/>
<path d="M172.323 104.17L181.005 94.5276C181.005 94.5276 179.712 89.7618 172.323 88.6719C172.323 88.6534 176.886 96.6519 172.323 104.17Z" fill="#929292"/>
</svg>
