<svg width="87" height="88" viewBox="0 0 87 88" fill="none" xmlns="http://www.w3.org/2000/svg">
<path d="M16.3127 21.7497H21.5194C22.9038 21.7772 24.2494 21.2908 25.2964 20.3852C26.3432 19.4786 27.0165 18.2165 27.1881 16.8425C27.3379 15.3111 26.8325 13.7872 25.7951 12.6502C24.7587 11.5123 23.289 10.8675 21.7499 10.8751H16.3128C11.986 10.8751 7.83743 12.5933 4.7783 15.6524C1.71843 18.7123 0 22.8609 0 27.1879V70.6888C0 75.0155 1.71821 79.1641 4.7783 82.2233C7.83743 85.2831 11.9858 87.0016 16.3128 87.0016H59.8137C64.1405 87.0016 68.2891 85.2834 71.3492 82.2233C74.4083 79.1641 76.1265 75.0158 76.1265 70.6888V65.482C76.154 64.0976 75.6676 62.752 74.762 61.705C73.8554 60.6582 72.5933 59.9849 71.2193 59.8133C69.6879 59.6635 68.164 60.1689 67.027 61.2063C65.8891 62.2427 65.2443 63.7124 65.2519 65.2515V70.6886C65.2519 72.1309 64.6782 73.5135 63.6588 74.5337C62.6395 75.5531 61.256 76.1258 59.8137 76.1258H16.3128C14.8705 76.1258 13.4879 75.5531 12.4676 74.5337C11.4483 73.5134 10.8755 72.1309 10.8755 70.6886V27.1877C10.8755 25.7454 11.4483 24.3619 12.4676 23.3426C13.4879 22.3232 14.8705 21.7495 16.3128 21.7495L16.3127 21.7497Z" fill="#EDAD51"/>
<path d="M65.2512 0.000729703C62.3656 -0.00211509 59.5978 1.14241 57.5563 3.18124L27.7174 33.0201C23.8807 36.8378 21.7321 42.0312 21.7491 47.4429V54.3763C21.7491 57.2609 22.8956 60.0268 24.9352 62.0657C26.9739 64.1053 29.74 65.2518 32.6246 65.2518H39.558C44.9697 65.2688 50.1633 63.1201 53.9808 59.2835L83.8197 29.4446C85.8584 27.4031 87.0028 24.6353 87.0002 21.7497C87.0002 15.9815 84.7092 10.4494 80.6299 6.37025C76.5505 2.29084 71.0185 0 65.2505 0L65.2512 0.000729703ZM46.2873 51.59C44.5027 53.3746 42.0819 54.3768 39.5585 54.3768H32.6251V47.4434C32.6251 44.92 33.6274 42.4993 35.4118 40.7146L65.2507 10.8757C68.1343 10.8757 70.9002 12.0212 72.9401 14.0608C74.9799 16.1005 76.1252 18.8666 76.1252 21.7502L46.2873 51.59Z" fill="#EDAD51"/>
</svg>
