<svg width="19" height="18" viewBox="0 0 19 18" fill="none" xmlns="http://www.w3.org/2000/svg">
<path d="M17.8165 3.62036L14.5553 0.342583C14.3398 0.128175 14.0482 0.0078125 13.7442 0.0078125C13.4402 0.0078125 13.1486 0.128175 12.9331 0.342583L1.37201 11.887L0.316454 16.4426C0.280041 16.6091 0.281289 16.7817 0.320108 16.9477C0.358926 17.1136 0.434334 17.2689 0.540823 17.402C0.647311 17.5351 0.782191 17.6427 0.935608 17.717C1.08902 17.7913 1.2571 17.8304 1.42757 17.8315C1.50699 17.8395 1.58703 17.8395 1.66645 17.8315L6.27201 16.7759L17.8165 5.24258C18.0309 5.02709 18.1512 4.73546 18.1512 4.43147C18.1512 4.12748 18.0309 3.83586 17.8165 3.62036ZM5.71645 15.7759L1.39979 16.6815L2.38312 12.4481L11.0331 3.83147L14.3665 7.16481L5.71645 15.7759ZM15.1109 6.35925L11.7776 3.02592L13.7109 1.10369L16.9887 4.43703L15.1109 6.35925Z" fill="url(#paint0_linear_2132_226356)"/>
<defs>
<linearGradient id="paint0_linear_2132_226356" x1="9.22063" y1="0.0078125" x2="9.22063" y2="17.8375" gradientUnits="userSpaceOnUse">
<stop stop-color="#00A3FF"/>
<stop offset="1" stop-color="#22A7F2"/>
</linearGradient>
</defs>
</svg>
