<svg width="21" height="21" viewBox="0 0 21 21" fill="none" xmlns="http://www.w3.org/2000/svg">
<path d="M9.82479 18.5561C5.00807 18.5561 1.09347 14.6415 1.09347 9.82479C1.09347 5.00807 5.00807 1.09347 9.82479 1.09347C14.6415 1.09347 18.5561 5.00807 18.5561 9.82479C18.5561 10.3059 18.5178 10.7761 18.4413 11.2135L19.5184 11.3994C19.6058 10.9018 19.6441 10.3715 19.6441 9.82479C19.6441 4.40666 15.2374 0 9.81932 0C4.4012 0 0 4.40666 0 9.82479C0 15.2429 4.40667 19.6496 9.82479 19.6496C10.3715 19.6496 10.9018 19.6058 11.3994 19.5238L11.2135 18.4468C10.7761 18.5178 10.3114 18.5561 9.82479 18.5561Z" fill="url(#paint0_linear_1826_47706)"/>
<g clip-path="url(#clip0_1826_47706)">
<path d="M9.69327 17.0228C8.20279 17.0228 6.74577 16.5808 5.50647 15.7527C4.26718 14.9247 3.30126 13.7477 2.73088 12.3707C2.16049 10.9936 2.01125 9.47837 2.30203 8.01652C2.59281 6.55467 3.31055 5.21188 4.36449 4.15794C5.41842 3.10401 6.76122 2.38627 8.22307 2.09549C9.68491 1.80471 11.2002 1.95395 12.5772 2.52433C13.9542 3.09472 15.1312 4.06063 15.9593 5.29993C16.7873 6.53923 17.2293 7.99624 17.2293 9.48673C17.2271 11.4847 16.4324 13.4002 15.0196 14.813C13.6068 16.2258 11.6913 17.0205 9.69327 17.0228ZM9.69327 2.95549C8.40152 2.95549 7.13877 3.33854 6.06471 4.05621C4.99066 4.77387 4.15353 5.79391 3.6592 6.98733C3.16486 8.18076 3.03552 9.49398 3.28753 10.7609C3.53954 12.0279 4.16158 13.1916 5.07499 14.105C5.9884 15.0184 7.15216 15.6405 8.41909 15.8925C9.68603 16.1445 10.9992 16.0151 12.1927 15.5208C13.3861 15.0265 14.4061 14.1894 15.1238 13.1153C15.8415 12.0412 16.2245 10.7785 16.2245 9.48673C16.2226 7.75514 15.5338 6.09502 14.3094 4.87059C13.085 3.64617 11.4249 2.95743 9.69327 2.95549ZM6.31539 9.11701V11.2979H5.42285V5.83811H6.96523C7.66983 5.83811 8.19142 5.97006 8.52999 6.23397C8.70349 6.37849 8.84007 6.56228 8.9284 6.7701C9.01672 6.97792 9.05426 7.2038 9.03789 7.42901C9.03789 8.1087 8.68436 8.59294 7.97729 8.88174L9.51967 11.298H8.50384L7.19676 9.11701H6.31539ZM6.31539 8.37758H6.93533C7.25409 8.40474 7.57265 8.32313 7.83908 8.14604C7.93527 8.0606 8.01055 7.9542 8.05911 7.83506C8.10767 7.71592 8.12822 7.58722 8.11917 7.45888C8.13061 7.33139 8.10876 7.20311 8.05576 7.08659C8.00276 6.97007 7.92042 6.86931 7.8168 6.79415C7.53863 6.6411 7.22237 6.57111 6.90559 6.59249H6.31552L6.31539 8.37758ZM12.313 11.3727C12.0796 11.384 11.847 11.3386 11.635 11.2404C11.423 11.1422 11.2379 10.9941 11.0956 10.8088H11.0433C11.0782 11.1573 11.0956 11.3689 11.0956 11.4436V13.1354H10.218V7.16759H10.9275C10.9474 7.24477 10.9885 7.42899 11.0508 7.72023H11.0956C11.2273 7.51611 11.4107 7.35051 11.6272 7.24031C11.8436 7.1301 12.0854 7.07922 12.328 7.09283C12.559 7.08211 12.7892 7.12746 12.999 7.22501C13.2087 7.32255 13.3917 7.4694 13.5324 7.65301C13.846 8.11502 13.9977 8.66794 13.9637 9.22531C13.997 9.786 13.8426 10.3418 13.5249 10.805C13.3835 10.9902 13.1995 11.1386 12.9885 11.2374C12.7776 11.3362 12.5458 11.3826 12.313 11.3727ZM12.1002 7.80994C11.9578 7.79759 11.8145 7.81887 11.6819 7.87206C11.5492 7.92525 11.4309 8.00886 11.3365 8.11615C11.1521 8.40748 11.0675 8.75095 11.0956 9.09461V9.22523C11.0659 9.60495 11.149 9.98499 11.3347 10.3176C11.4261 10.4347 11.5455 10.5269 11.6819 10.586C11.8182 10.645 11.9672 10.6689 12.1152 10.6556C12.2547 10.6607 12.3932 10.6289 12.5164 10.5633C12.6397 10.4977 12.7435 10.4007 12.8172 10.2821C13.0003 9.95851 13.0859 9.58889 13.0637 9.21777C13.0878 8.85088 13.0027 8.48506 12.8191 8.16649C12.7402 8.05015 12.6325 7.95619 12.5065 7.89371C12.3805 7.83124 12.2406 7.80238 12.1002 7.80994Z" fill="url(#paint1_linear_1826_47706)"/>
</g>
<path d="M16.3859 11.771C13.8436 11.771 11.7715 13.8431 11.7715 16.3854C11.7715 18.9277 13.8436 20.9998 16.3859 20.9998C18.9282 20.9998 21.0003 18.9277 21.0003 16.3854C21.0003 13.8431 18.9282 11.771 16.3859 11.771ZM16.3859 19.9064C14.445 19.9064 12.8649 18.3263 12.8649 16.3854C12.8649 14.4445 14.445 12.8645 16.3859 12.8645C18.3268 12.8645 19.9069 14.4445 19.9069 16.3854C19.9069 18.3263 18.3268 19.9064 16.3859 19.9064Z" fill="url(#paint2_linear_1826_47706)"/>
<path d="M18.578 15.7734H16.998V14.1878C16.998 13.8871 16.7519 13.6411 16.4512 13.6411H16.32C16.0193 13.6411 15.7733 13.8871 15.7733 14.1878V15.7734H14.1932C13.8925 15.7734 13.6465 16.0194 13.6465 16.3201V16.4568C13.6465 16.7575 13.8925 17.0035 14.1932 17.0035H15.7733V18.5781C15.7733 18.8788 16.0193 19.1248 16.32 19.1248H16.4512C16.7519 19.1248 16.998 18.8788 16.998 18.5781V17.0035H18.578C18.8787 17.0035 19.1247 16.7575 19.1247 16.4568V16.3201C19.1247 16.0194 18.8842 15.7734 18.578 15.7734Z" fill="url(#paint3_linear_1826_47706)"/>
<defs>
<linearGradient id="paint0_linear_1826_47706" x1="9.82205" y1="0" x2="9.82205" y2="19.6496" gradientUnits="userSpaceOnUse">
<stop stop-color="#00A3FF"/>
<stop offset="1" stop-color="#22A7F2"/>
</linearGradient>
<linearGradient id="paint1_linear_1826_47706" x1="9.69327" y1="1.95068" x2="9.69327" y2="17.0228" gradientUnits="userSpaceOnUse">
<stop stop-color="#00A3FF"/>
<stop offset="1" stop-color="#22A7F2"/>
</linearGradient>
<linearGradient id="paint2_linear_1826_47706" x1="16.3859" y1="11.771" x2="16.3859" y2="20.9998" gradientUnits="userSpaceOnUse">
<stop stop-color="#00A3FF"/>
<stop offset="1" stop-color="#22A7F2"/>
</linearGradient>
<linearGradient id="paint3_linear_1826_47706" x1="16.3856" y1="13.6411" x2="16.3856" y2="19.1248" gradientUnits="userSpaceOnUse">
<stop stop-color="#00A3FF"/>
<stop offset="1" stop-color="#22A7F2"/>
</linearGradient>
<clipPath id="clip0_1826_47706">
<rect width="9.29446" height="7.78725" fill="white" transform="translate(4.9209 5.46729)"/>
</clipPath>
</defs>
</svg>
