<svg width="18" height="18" viewBox="0 0 18 18" fill="none" xmlns="http://www.w3.org/2000/svg">
<path d="M8.98808 3.9375C6.248 3.9375 3.43726 5.5234 1.22453 8.6952C1.16137 8.78673 1.12675 8.89493 1.12506 9.00612C1.12338 9.11731 1.15468 9.22651 1.21503 9.31992C2.91519 11.9813 5.68832 14.0625 8.98808 14.0625C12.252 14.0625 15.0821 11.9749 16.7854 9.30762C16.8443 9.21604 16.8757 9.10943 16.8757 9.00053C16.8757 8.89162 16.8443 8.78502 16.7854 8.69344C15.0782 6.05672 12.2274 3.9375 8.98808 3.9375Z" stroke="url(#paint0_linear_2132_226358)" stroke-width="1.125" stroke-linecap="round" stroke-linejoin="round"/>
<path d="M9 11.8125C10.5533 11.8125 11.8125 10.5533 11.8125 9C11.8125 7.4467 10.5533 6.1875 9 6.1875C7.4467 6.1875 6.1875 7.4467 6.1875 9C6.1875 10.5533 7.4467 11.8125 9 11.8125Z" stroke="url(#paint1_linear_2132_226358)" stroke-width="1.125" stroke-miterlimit="10"/>
<defs>
<linearGradient id="paint0_linear_2132_226358" x1="9.00033" y1="3.9375" x2="9.00033" y2="14.0625" gradientUnits="userSpaceOnUse">
<stop stop-color="#00A3FF"/>
<stop offset="1" stop-color="#22A7F2"/>
</linearGradient>
<linearGradient id="paint1_linear_2132_226358" x1="9" y1="6.1875" x2="9" y2="11.8125" gradientUnits="userSpaceOnUse">
<stop stop-color="#00A3FF"/>
<stop offset="1" stop-color="#22A7F2"/>
</linearGradient>
</defs>
</svg>
