<svg width="82" height="82" viewBox="0 0 82 82" fill="none" xmlns="http://www.w3.org/2000/svg">
<circle cx="41" cy="41" r="39.5" stroke="#FF0000" stroke-width="3"/>
<path d="M43.6383 58.0555L45.182 58.6949L43.6383 58.0555C43.4443 58.5237 43.1159 58.9239 42.6945 59.2055L43.6436 60.6259L42.6945 59.2055C42.2731 59.4871 41.7777 59.6374 41.2708 59.6374C40.5912 59.6374 39.9394 59.3674 39.4589 58.8868C38.9783 58.4063 38.7083 57.7545 38.7083 57.0749C38.7083 56.5681 38.8586 56.0726 39.1402 55.6512C39.4218 55.2298 39.822 54.9014 40.2902 54.7074C40.7584 54.5135 41.2737 54.4627 41.7708 54.5616C42.2678 54.6605 42.7244 54.9045 43.0828 55.2629C43.4412 55.6213 43.6852 56.0779 43.7841 56.575C43.883 57.072 43.8322 57.5873 43.6383 58.0555ZM42.4788 45.4703C42.1584 45.7907 41.7239 45.9707 41.2708 45.9707C40.8178 45.9707 40.3832 45.7907 40.0629 45.4703C39.7425 45.15 39.5625 44.7154 39.5625 44.2624V23.7624C39.5625 23.3093 39.7425 22.8748 40.0629 22.5544C40.3832 22.234 40.8178 22.054 41.2708 22.054C41.7239 22.054 42.1584 22.234 42.4788 22.5544C42.7992 22.8748 42.9792 23.3093 42.9792 23.7624V44.2624C42.9792 44.7154 42.7992 45.15 42.4788 45.4703Z" fill="#FF0000" stroke="#FF0000" stroke-width="3.41667"/>
</svg>
