<svg width="27" height="27" viewBox="0 0 27 27" fill="none" xmlns="http://www.w3.org/2000/svg">
<path fill-rule="evenodd" clip-rule="evenodd" d="M13.6222 0.59375C10.1459 0.59375 9.70967 0.60895 8.34432 0.671084C6.98164 0.733485 6.0515 0.94922 5.23762 1.26576C4.39575 1.59269 3.68161 2.03003 2.97013 2.74177C2.25813 3.45325 1.82079 4.16739 1.49279 5.009C1.17545 5.82314 0.959446 6.75355 0.898112 8.11569C0.837045 9.48104 0.821045 9.91758 0.821045 13.3939C0.821045 16.8702 0.836512 17.3051 0.898379 18.6705C0.961046 20.0331 1.17678 20.9633 1.49305 21.7772C1.82026 22.619 2.25759 23.3332 2.96933 24.0447C3.68054 24.7567 4.39468 25.1951 5.23602 25.522C6.05043 25.8385 6.98084 26.0543 8.34326 26.1167C9.7086 26.1788 10.1446 26.194 13.6206 26.194C17.0972 26.194 17.5322 26.1788 18.8975 26.1167C20.2602 26.0543 21.1914 25.8385 22.0058 25.522C22.8474 25.1951 23.5605 24.7567 24.2717 24.0447C24.9837 23.3332 25.421 22.619 25.749 21.7774C26.0637 20.9633 26.2797 20.0329 26.3437 18.6707C26.405 17.3054 26.421 16.8702 26.421 13.3939C26.421 9.91758 26.405 9.48131 26.3437 8.11596C26.2797 6.75328 26.0637 5.82314 25.749 5.00926C25.421 4.16739 24.9837 3.45325 24.2717 2.74177C23.5597 2.02977 22.8477 1.59243 22.005 1.26576C21.189 0.94922 20.2583 0.733485 18.8956 0.671084C17.5303 0.60895 17.0956 0.59375 13.6182 0.59375H13.6222ZM12.4739 2.9004C12.8147 2.89987 13.195 2.9004 13.6222 2.9004C17.0398 2.9004 17.4449 2.91267 18.7945 2.97401C20.0425 3.03107 20.7199 3.23961 21.1711 3.41481C21.7684 3.64681 22.1943 3.92415 22.642 4.37215C23.09 4.82016 23.3674 5.24683 23.5999 5.84417C23.7751 6.29484 23.9839 6.97218 24.0407 8.22019C24.102 9.56954 24.1154 9.97488 24.1154 13.3909C24.1154 16.807 24.102 17.2123 24.0407 18.5616C23.9836 19.8096 23.7751 20.487 23.5999 20.9377C23.3679 21.535 23.09 21.9603 22.642 22.4081C22.194 22.8561 21.7687 23.1334 21.1711 23.3654C20.7204 23.5414 20.0425 23.7494 18.7945 23.8065C17.4452 23.8678 17.0398 23.8812 13.6222 23.8812C10.2043 23.8812 9.79922 23.8678 8.44987 23.8065C7.20186 23.7489 6.52452 23.5404 6.07304 23.3652C5.47571 23.1331 5.04903 22.8558 4.60103 22.4078C4.15302 21.9598 3.87569 21.5342 3.64315 20.9366C3.46795 20.4859 3.25915 19.8086 3.20235 18.5606C3.14101 17.2112 3.12875 16.8059 3.12875 13.3877C3.12875 9.96954 3.14101 9.56634 3.20235 8.21699C3.25942 6.96898 3.46795 6.29164 3.64315 5.84044C3.87516 5.2431 4.15302 4.81642 4.60103 4.36842C5.04903 3.92042 5.47571 3.64308 6.07304 3.41054C6.52425 3.23454 7.20186 3.02654 8.44987 2.96921C9.63068 2.91587 10.0883 2.89987 12.4739 2.8972V2.9004ZM20.4548 5.02577C19.6068 5.02577 18.9188 5.71297 18.9188 6.56125C18.9188 7.40926 19.6068 8.09726 20.4548 8.09726C21.3028 8.09726 21.9908 7.40926 21.9908 6.56125C21.9908 5.71324 21.3028 5.02577 20.4548 5.02577ZM13.6223 6.82045C9.9921 6.82045 7.04886 9.76368 7.04886 13.3938C7.04886 17.024 9.9921 19.9659 13.6223 19.9659C17.2524 19.9659 20.1946 17.024 20.1946 13.3938C20.1946 9.76368 17.2524 6.82045 13.6223 6.82045ZM13.6222 9.12714C15.9785 9.12714 17.8889 11.0373 17.8889 13.3938C17.8889 15.7501 15.9785 17.6606 13.6222 17.6606C11.2657 17.6606 9.35551 15.7501 9.35551 13.3938C9.35551 11.0373 11.2657 9.12714 13.6222 9.12714Z" fill="white"/>
</svg>
