<svg width="168" height="129" viewBox="0 0 168 129" fill="none" xmlns="http://www.w3.org/2000/svg">
<g opacity="0.35">
<path d="M0 43.2633C0 33.3477 8.62985 25.3023 19.2662 25.3023H23.2792C21.4091 23.7828 20.2013 21.5425 20.2013 19.049C20.2013 14.4906 24.1753 10.7698 29.0649 10.7698H42.4286C41.0844 9.67888 40.2078 8.08148 40.2078 6.28927C40.2078 3.01654 43.052 0.367188 46.5584 0.367188H80.1234C83.6299 0.367188 86.474 3.01654 86.474 6.28927C86.474 9.562 83.6299 12.2114 80.1234 12.2114H67.5584C65.2208 13.6919 63.6818 16.2049 63.6818 19.049C63.6818 21.5425 64.8701 23.7828 66.7597 25.3023H87.4286C98.0649 25.3023 106.695 33.3477 106.695 43.2633C106.695 53.1789 98.0649 61.2243 87.4286 61.2243H114.818C119.708 61.2243 123.682 64.9256 123.682 69.5036C123.682 74.062 119.708 77.7828 114.818 77.7828H125.981C138.175 77.7828 148.286 86.023 150.312 96.8542H154.227C161.825 96.8542 168 102.601 168 109.692V110.997C168 118.088 161.844 123.835 154.227 123.835H126H33.6234H24.7013C11.0649 123.835 0.0194758 113.53 0.0194758 100.809C0.0194758 88.088 11.0649 77.7828 24.7013 77.7828H67.9286C63.039 77.7828 59.0649 74.0815 59.0649 69.5036C59.0649 64.9451 63.039 61.2243 67.9286 61.2243H19.2662C8.62985 61.2243 0 53.1984 0 43.2633Z" fill="#ABE9FF"/>
<path d="M98.1432 12.227C94.9679 12.227 92.377 9.57762 92.377 6.3049C92.377 3.03217 94.9679 0.382812 98.1432 0.382812C101.319 0.382812 103.909 3.03217 103.909 6.3049C103.909 9.57762 101.338 12.227 98.1432 12.227Z" fill="#ABE9FF"/>
</g>
<path opacity="0.15" d="M84.0002 128.026C130.145 128.026 167.552 126.256 167.552 124.072C167.552 121.888 130.145 120.117 84.0002 120.117C37.8557 120.117 0.448242 121.888 0.448242 124.072C0.448242 126.256 37.8557 128.026 84.0002 128.026Z" fill="#231F20"/>
<path d="M123.78 123.834H49.131C47.2803 123.834 45.7998 122.334 45.7998 120.503V24.5812C45.7998 22.7305 47.2998 21.25 49.131 21.25H123.78C125.631 21.25 127.112 22.75 127.112 24.5812V120.503C127.112 122.354 125.631 123.834 123.78 123.834Z" fill="#1A90E8"/>
<path d="M120.819 27.4219L122.573 27.4414L120.819 85.0063V27.4219Z" fill="#1378D1"/>
<path d="M47.4167 118.282V26.724C47.4167 24.1331 49.131 21.9513 51.4881 21.25H49.131C47.2803 21.25 45.7998 22.75 45.7998 24.5812V120.503C45.7998 122.354 47.2998 123.834 49.131 123.834H51.8582C49.3063 123.25 47.4167 120.99 47.4167 118.282Z" fill="#3BA9DD"/>
<path d="M126.975 93.0921L127.111 90.248V24.5597C127.111 23.5077 126.624 22.5726 125.864 21.9688L126.975 93.0921Z" fill="#1378D1"/>
<path d="M120.78 116.039H52.1112C52.0918 116.039 52.0723 116.019 52.0723 116V27.4608C52.0723 27.4413 52.0918 27.4219 52.1112 27.4219H120.78C120.8 27.4219 120.819 27.4413 120.819 27.4608V116C120.839 116.019 120.819 116.039 120.78 116.039Z" fill="url(#paint0_linear_2822_403717)"/>
<path d="M120.819 33.5816H52.0917C52.0917 33.5816 52.0723 33.5816 52.0723 33.5621V27.4257C52.0723 27.4257 52.0723 27.4063 52.0917 27.4063H120.819C120.819 27.4063 120.839 27.4062 120.839 27.4257L120.819 33.5816C120.839 33.5816 120.819 33.5816 120.819 33.5816Z" fill="#8AC80E"/>
<path d="M78.8569 102.664H110.415C111.136 102.664 111.721 102.022 111.721 101.223C111.721 100.424 111.136 99.7812 110.415 99.7812H78.8569C78.1362 99.7812 77.5518 100.424 77.5518 101.223C77.5518 102.022 78.1362 102.664 78.8569 102.664Z" fill="#80D3FB"/>
<path d="M96.0396 96.8753H110.416C111.137 96.8753 111.721 96.2325 111.721 95.4338C111.721 94.635 111.137 93.9922 110.416 93.9922H96.0396C95.3188 93.9922 94.7344 94.635 94.7344 95.4338C94.7344 96.2325 95.3188 96.8753 96.0396 96.8753Z" fill="#80D3FB"/>
<path d="M111.566 68.9984H71.8453C71.7674 68.9984 71.6895 68.9399 71.6895 68.8425V67.0309C71.6895 66.9529 71.7479 66.875 71.8453 66.875H111.566C111.644 66.875 111.722 66.9335 111.722 67.0309V68.8425C111.722 68.9399 111.644 68.9984 111.566 68.9984Z" fill="#80D3FB"/>
<path d="M66.5649 70.8481H60.5065C60.4286 70.8481 60.3701 70.7897 60.3701 70.7117V65.1598C60.3701 65.0819 60.4286 65.0234 60.5065 65.0234H66.5649C66.6429 65.0234 66.7013 65.0819 66.7013 65.1598V70.7117C66.6818 70.7897 66.6234 70.8481 66.5649 70.8481Z" fill="#80D3FB"/>
<path d="M111.566 60.1781H71.8453C71.7674 60.1781 71.6895 60.1196 71.6895 60.0222V58.2105C71.6895 58.1326 71.7479 58.0547 71.8453 58.0547H111.566C111.644 58.0547 111.722 58.1131 111.722 58.2105V60.0222C111.722 60.1196 111.644 60.1781 111.566 60.1781Z" fill="#80D3FB"/>
<path d="M66.5649 62.0278H60.5065C60.4286 62.0278 60.3701 61.9694 60.3701 61.8915V56.3395C60.3701 56.2616 60.4286 56.2031 60.5065 56.2031H66.5649C66.6429 56.2031 66.7013 56.2616 66.7013 56.3395V61.8915C66.6818 61.9694 66.6234 62.0278 66.5649 62.0278Z" fill="#80D3FB"/>
<path d="M111.566 77.4515H71.8453C71.7674 77.4515 71.6895 77.3931 71.6895 77.2957V75.484C71.6895 75.406 71.7479 75.3281 71.8453 75.3281H111.566C111.644 75.3281 111.722 75.3866 111.722 75.484V77.2957C111.722 77.3931 111.644 77.4515 111.566 77.4515Z" fill="#80D3FB"/>
<path d="M66.5649 79.3012H60.5065C60.4286 79.3012 60.3701 79.2428 60.3701 79.1649V73.6129C60.3701 73.535 60.4286 73.4766 60.5065 73.4766H66.5649C66.6429 73.4766 66.7013 73.535 66.7013 73.6129V79.1649C66.6818 79.2428 66.6234 79.3012 66.5649 79.3012Z" fill="#80D3FB"/>
<path d="M111.566 85.9124H71.8453C71.7674 85.9124 71.6895 85.854 71.6895 85.7566V83.9449C71.6895 83.867 71.7479 83.7891 71.8453 83.7891H111.566C111.644 83.7891 111.722 83.8475 111.722 83.9449V85.7566C111.722 85.854 111.644 85.9124 111.566 85.9124Z" fill="#80D3FB"/>
<path d="M66.5649 87.7622H60.5065C60.4286 87.7622 60.3701 87.7037 60.3701 87.6258V82.0739C60.3701 81.9959 60.4286 81.9375 60.5065 81.9375H66.5649C66.6429 81.9375 66.7013 81.9959 66.7013 82.0739V87.6258C66.6818 87.7037 66.6234 87.7622 66.5649 87.7622Z" fill="#80D3FB"/>
<path d="M111.156 50.5519H59.4939C59.455 50.5519 59.416 50.513 59.416 50.474V49.5779C59.416 49.5389 59.455 49.5 59.4939 49.5H111.156C111.195 49.5 111.234 49.5389 111.234 49.5779V50.474C111.234 50.5325 111.215 50.5519 111.156 50.5519Z" fill="#80D3FB"/>
<path d="M88.2082 43.3828H59.416V46.1685H88.2082V43.3828Z" fill="#80D3FB"/>
<path d="M62.3802 60.5431C62.1075 60.5431 61.8542 60.4262 61.6789 60.212L59.9451 58.0496C59.7308 57.7769 59.7698 57.3678 60.0425 57.1535C60.3152 56.9392 60.7243 56.9782 60.9386 57.2509L62.4386 59.121L67.036 55.6535C67.3282 55.4392 67.7178 55.4977 67.9321 55.7704C68.1464 56.0626 68.088 56.4522 67.8153 56.6665L62.8867 60.3678C62.7308 60.4847 62.5555 60.5431 62.3802 60.5431Z" fill="#FF0000"/>
<path d="M62.3802 69.7775C62.1075 69.7775 61.8542 69.6606 61.6789 69.4463L59.9451 67.284C59.7308 67.0112 59.7698 66.6022 60.0425 66.3879C60.3152 66.1736 60.7243 66.2125 60.9386 66.4853L62.4386 68.3554L67.036 64.8879C67.3282 64.6736 67.7178 64.732 67.9321 65.0048C68.1464 65.297 68.088 65.6866 67.8153 65.9009L62.8867 69.6022C62.7308 69.719 62.5555 69.7775 62.3802 69.7775Z" fill="#FF0000"/>
<path d="M62.3802 78.1134C62.1075 78.1134 61.8542 77.9965 61.6789 77.7823L59.9451 75.6199C59.7308 75.3472 59.7698 74.9381 60.0425 74.7238C60.3152 74.5095 60.7243 74.5485 60.9386 74.8212L62.4386 76.6914L67.036 73.2238C67.3282 73.0095 67.7178 73.068 67.9321 73.3407C68.1464 73.6329 68.088 74.0225 67.8153 74.2368L62.8867 77.9381C62.7308 78.0745 62.5555 78.1134 62.3802 78.1134Z" fill="#FF0000"/>
<path d="M62.3802 86.7619C62.1075 86.7619 61.8542 86.645 61.6789 86.4307L59.9451 84.2684C59.7308 83.9956 59.7698 83.5865 60.0425 83.3722C60.3152 83.158 60.7243 83.1969 60.9386 83.4696L62.4386 85.3398L67.036 81.8723C67.3282 81.658 67.7178 81.7164 67.9321 81.9891C68.1464 82.2813 68.088 82.6709 67.8153 82.8852L62.8867 86.5865C62.7308 86.7034 62.5555 86.7619 62.3802 86.7619Z" fill="#FF0000"/>
<path d="M98.5129 19.6556H92.5129C92.5713 19.5387 92.6103 19.4219 92.6103 19.2855V16.1491C92.6103 15.4673 92.0648 14.9219 91.383 14.9219H82.8505C82.1687 14.9219 81.6233 15.4673 81.6233 16.1491V19.2855C81.6233 19.4219 81.6622 19.5387 81.7207 19.6556H75.7207C74.883 19.6556 74.2012 20.3375 74.2012 21.1751V25.792C74.2012 27.1361 75.2921 28.2465 76.6557 28.2465H97.6168C98.9609 28.2465 100.071 27.1556 100.071 25.792V21.1751C100.052 20.3375 99.37 19.6556 98.5129 19.6556Z" fill="#F5D420"/>
<path d="M98.5129 19.6556H92.5129C92.5713 19.5387 92.6103 19.4219 92.6103 19.2855V16.1491C92.6103 15.4673 92.0649 14.9219 91.383 14.9219H89.5908C90.3506 15.4284 91.2077 16.2271 91.2662 17.279C91.3636 19.2076 90.6233 21.4478 91.4804 21.779C92.3376 22.0907 98.1233 20.7076 98.0064 23.4933C97.948 25.1686 97.7532 27.0387 97.6363 28.2465C98.961 28.2271 100.052 27.1361 100.052 25.792V21.1751C100.052 20.3375 99.3701 19.6556 98.5129 19.6556Z" fill="#EAC00F"/>
<defs>
<linearGradient id="paint0_linear_2822_403717" x1="86.4539" y1="27.4131" x2="86.4539" y2="116.044" gradientUnits="userSpaceOnUse">
<stop stop-color="#FDFDFD"/>
<stop offset="0.4791" stop-color="#FBFDFD"/>
<stop offset="0.6517" stop-color="#F4FBFD"/>
<stop offset="0.7747" stop-color="#E9F8FE"/>
<stop offset="0.8741" stop-color="#D8F4FE"/>
<stop offset="0.9583" stop-color="#C2EFFF"/>
<stop offset="1" stop-color="#B4ECFF"/>
</linearGradient>
</defs>
</svg>
