<svg width="22" height="18" viewBox="0 0 22 18" fill="none" xmlns="http://www.w3.org/2000/svg">
<path d="M20.8681 12.7194V15.0987C20.8692 15.3196 20.8122 15.5382 20.7006 15.7406C20.589 15.943 20.4254 16.1247 20.2202 16.274C20.015 16.4233 19.7727 16.537 19.5088 16.6078C19.245 16.6785 18.9655 16.7048 18.6881 16.6849C15.6109 16.4197 12.6551 15.5858 10.0581 14.2501C7.64193 13.0324 5.59343 11.4078 4.0581 9.49148C2.36808 7.42243 1.31634 5.06675 0.988097 2.61527C0.963108 2.39595 0.995972 2.17491 1.0846 1.96622C1.17322 1.75752 1.31567 1.56575 1.50286 1.40311C1.69006 1.24047 1.9179 1.11053 2.17189 1.02155C2.42587 0.932573 2.70044 0.886515 2.9781 0.886307H5.9781C6.4634 0.882519 6.93389 1.01882 7.30186 1.2698C7.66983 1.52078 7.91017 1.86932 7.9781 2.25045C8.10472 3.01188 8.33955 3.7595 8.6781 4.47907C8.81264 4.76294 8.84176 5.07145 8.762 5.36804C8.68225 5.66463 8.49696 5.93688 8.2281 6.15251L6.9581 7.15975C8.38165 9.14533 10.4546 10.7893 12.9581 11.9184L14.2281 10.9111C14.5 10.6979 14.8433 10.5509 15.2172 10.4877C15.5912 10.4244 15.9802 10.4475 16.3381 10.5542C17.2454 10.8227 18.188 11.009 19.1481 11.1094C19.6339 11.1638 20.0775 11.3578 20.3946 11.6547C20.7118 11.9515 20.8803 12.3305 20.8681 12.7194Z" stroke="white" stroke-width="1.5" stroke-linecap="round" stroke-linejoin="round"/>
</svg>
