<svg width="153" height="127" viewBox="0 0 153 127" fill="none" xmlns="http://www.w3.org/2000/svg">
<path d="M146.195 126.531C137.92 126.531 13.6484 126.562 13.5803 126.345L13.5679 126.32C13.5679 126.32 13.5555 126.296 13.5555 126.283C13.5121 126.178 -10.3722 116.552 5.36693 95.0342C13.6236 83.7548 -1.10587 66.4858 16.4295 51.2484C43.9126 27.3765 70.1382 56.7797 81.2504 51.2484C90.5972 46.5966 105.612 39.938 120.849 45.9091C125.036 47.5505 134.104 55.7886 126.572 69.6324C122.806 76.5511 139.506 77.3563 145.613 84.7087C158.924 100.727 151.15 126.531 146.195 126.531Z" fill="#EBF3FA"/>
<path d="M105.827 120.837H23.3251C21.2798 120.837 19.6436 119.179 19.6436 117.155V11.1425C19.6436 9.0972 21.3013 7.46094 23.3251 7.46094H105.827C107.873 7.46094 109.509 9.11873 109.509 11.1425V117.155C109.509 119.201 107.873 120.837 105.827 120.837Z" fill="#045299"/>
<path d="M102.555 14.2891L104.492 14.3106L102.555 77.9311V14.2891Z" fill="#045299"/>
<path d="M21.4305 114.701V13.5108C21.4305 10.6473 23.3251 8.23601 25.9302 7.46094H23.3251C21.2798 7.46094 19.6436 9.11873 19.6436 11.1425V117.155C19.6436 119.201 21.3013 120.837 23.3251 120.837H26.3393C23.5189 120.191 21.4305 117.693 21.4305 114.701Z" fill="#045299"/>
<path d="M109.358 86.8631L109.509 83.7197V11.1213C109.509 9.95868 108.971 8.92524 108.131 8.25781L109.358 86.8631Z" fill="#045299"/>
<path d="M102.513 112.22H26.6202C26.5987 112.22 26.5771 112.199 26.5771 112.177V14.3243C26.5771 14.3028 26.5987 14.2812 26.6202 14.2812H102.513C102.534 14.2812 102.556 14.3028 102.556 14.3243V112.177C102.577 112.199 102.556 112.22 102.513 112.22Z" fill="url(#paint0_linear_2822_403342)"/>
<path d="M102.556 21.0827H26.5987C26.5987 21.0827 26.5771 21.0828 26.5771 21.0612V14.2793C26.5771 14.2793 26.5771 14.2578 26.5987 14.2578H102.556C102.556 14.2578 102.577 14.2578 102.577 14.2793L102.556 21.0827C102.577 21.0827 102.556 21.0827 102.556 21.0827Z" fill="#FF0000"/>
<path d="M56.1808 97.4286H91.059C91.8556 97.4286 92.5015 96.7181 92.5015 95.8354C92.5015 94.9527 91.8556 94.2422 91.059 94.2422H56.1808C55.3842 94.2422 54.7383 94.9527 54.7383 95.8354C54.7383 96.7181 55.3842 97.4286 56.1808 97.4286Z" fill="#80D3FB"/>
<path d="M75.1701 91.038H91.059C91.8556 91.038 92.5015 90.3275 92.5015 89.4448C92.5015 88.5621 91.8556 87.8516 91.059 87.8516H75.1701C74.3734 87.8516 73.7275 88.5621 73.7275 89.4448C73.7275 90.3275 74.3734 91.038 75.1701 91.038Z" fill="#80D3FB"/>
<path d="M92.3293 60.2296H48.43C48.3439 60.2296 48.2578 60.165 48.2578 60.0573V58.0551C48.2578 57.9689 48.3224 57.8828 48.43 57.8828H92.3293C92.4154 57.8828 92.5015 57.9474 92.5015 58.0551V60.0573C92.5015 60.165 92.4154 60.2296 92.3293 60.2296Z" fill="#80D3FB"/>
<path d="M42.5955 62.2734H35.8997C35.8136 62.2734 35.749 62.2087 35.749 62.1226V55.9866C35.749 55.9005 35.8136 55.8359 35.8997 55.8359H42.5955C42.6816 55.8359 42.7462 55.9005 42.7462 55.9866V62.1226C42.7247 62.2087 42.6601 62.2734 42.5955 62.2734Z" fill="#80D3FB"/>
<path d="M92.3293 50.4718H48.43C48.3439 50.4718 48.2578 50.4072 48.2578 50.2995V48.2972C48.2578 48.2111 48.3224 48.125 48.43 48.125H92.3293C92.4154 48.125 92.5015 48.1896 92.5015 48.2972V50.2995C92.5015 50.4072 92.4154 50.4718 92.3293 50.4718Z" fill="#80D3FB"/>
<path d="M42.5955 52.5155H35.8997C35.8136 52.5155 35.749 52.451 35.749 52.3648V46.2288C35.749 46.1427 35.8136 46.0781 35.8997 46.0781H42.5955C42.6816 46.0781 42.7462 46.1427 42.7462 46.2288V52.3648C42.7247 52.451 42.6601 52.5155 42.5955 52.5155Z" fill="#80D3FB"/>
<g clip-path="url(#clip0_2822_403342)">
<path d="M39.9698 49.2386L41.7567 47.4517C41.8415 47.367 41.8892 47.2521 41.8893 47.1323C41.8894 47.0125 41.8419 46.8975 41.7573 46.8127C41.6726 46.7279 41.5577 46.6802 41.4379 46.6801C41.3181 46.68 41.2031 46.7275 41.1183 46.8121L39.3314 48.5991L37.5444 46.8121C37.4596 46.7273 37.3446 46.6797 37.2247 46.6797C37.1047 46.6797 36.9897 46.7273 36.9049 46.8121C36.8201 46.8969 36.7725 47.012 36.7725 47.1319C36.7725 47.2518 36.8201 47.3669 36.9049 47.4517L38.6918 49.2386L36.9049 51.0255C36.8201 51.1103 36.7725 51.2254 36.7725 51.3453C36.7725 51.4652 36.8201 51.5803 36.9049 51.6651C36.9897 51.7499 37.1047 51.7975 37.2247 51.7975C37.3446 51.7975 37.4596 51.7499 37.5444 51.6651L39.3314 49.8781L41.1183 51.6651C41.2031 51.7499 41.3181 51.7975 41.4381 51.7975C41.558 51.7975 41.673 51.7499 41.7578 51.6651C41.8427 51.5803 41.8903 51.4652 41.8903 51.3453C41.8903 51.2254 41.8427 51.1103 41.7578 51.0255L39.9698 49.2386Z" fill="#FF0000"/>
</g>
<g clip-path="url(#clip1_2822_403342)">
<path d="M39.9698 58.8636L41.7567 57.0767C41.8415 56.992 41.8892 56.8771 41.8893 56.7573C41.8894 56.6375 41.8419 56.5225 41.7573 56.4377C41.6726 56.3529 41.5577 56.3052 41.4379 56.3051C41.3181 56.305 41.2031 56.3525 41.1183 56.4371L39.3314 58.2241L37.5444 56.4371C37.4596 56.3523 37.3446 56.3047 37.2247 56.3047C37.1047 56.3047 36.9897 56.3523 36.9049 56.4371C36.8201 56.5219 36.7725 56.637 36.7725 56.7569C36.7725 56.8768 36.8201 56.9919 36.9049 57.0767L38.6918 58.8636L36.9049 60.6505C36.8201 60.7353 36.7725 60.8504 36.7725 60.9703C36.7725 61.0902 36.8201 61.2053 36.9049 61.2901C36.9897 61.3749 37.1047 61.4225 37.2247 61.4225C37.3446 61.4225 37.4596 61.3749 37.5444 61.2901L39.3314 59.5031L41.1183 61.2901C41.2031 61.3749 41.3181 61.4225 41.4381 61.4225C41.558 61.4225 41.673 61.3749 41.7578 61.2901C41.8427 61.2053 41.8903 61.0902 41.8903 60.9703C41.8903 60.8504 41.8427 60.7353 41.7578 60.6505L39.9698 58.8636Z" fill="#FF0000"/>
</g>
<path d="M92.3293 69.5733H48.43C48.3439 69.5733 48.2578 69.5087 48.2578 69.4011V67.3988C48.2578 67.3127 48.3224 67.2266 48.43 67.2266H92.3293C92.4154 67.2266 92.5015 67.2911 92.5015 67.3988V69.4011C92.5015 69.5087 92.4154 69.5733 92.3293 69.5733Z" fill="#80D3FB"/>
<path d="M42.5955 71.6171H35.8997C35.8136 71.6171 35.749 71.5525 35.749 71.4664V65.3304C35.749 65.2443 35.8136 65.1797 35.8997 65.1797H42.5955C42.6816 65.1797 42.7462 65.2443 42.7462 65.3304V71.4664C42.7247 71.5525 42.6601 71.6171 42.5955 71.6171Z" fill="#80D3FB"/>
<g clip-path="url(#clip2_2822_403342)">
<path d="M39.9698 68.4964L41.7567 66.7095C41.8415 66.6248 41.8892 66.5099 41.8893 66.3901C41.8894 66.2703 41.8419 66.1553 41.7573 66.0705C41.6726 65.9857 41.5577 65.938 41.4379 65.9379C41.3181 65.9378 41.2031 65.9853 41.1183 66.07L39.3314 67.8569L37.5444 66.07C37.4596 65.9851 37.3446 65.9375 37.2247 65.9375C37.1047 65.9375 36.9897 65.9851 36.9049 66.07C36.8201 66.1548 36.7725 66.2698 36.7725 66.3897C36.7725 66.5097 36.8201 66.6247 36.9049 66.7095L38.6918 68.4964L36.9049 70.2833C36.8201 70.3682 36.7725 70.4832 36.7725 70.6031C36.7725 70.7231 36.8201 70.8381 36.9049 70.9229C36.9897 71.0077 37.1047 71.0553 37.2247 71.0553C37.3446 71.0553 37.4596 71.0077 37.5444 70.9229L39.3314 69.136L41.1183 70.9229C41.2031 71.0077 41.3181 71.0553 41.4381 71.0553C41.558 71.0553 41.673 71.0077 41.7578 70.9229C41.8427 70.8381 41.8903 70.7231 41.8903 70.6031C41.8903 70.4832 41.8427 70.3682 41.7578 70.2833L39.9698 68.4964Z" fill="#FF0000"/>
</g>
<path d="M92.3293 78.917H48.43C48.3439 78.917 48.2578 78.8525 48.2578 78.7448V76.7425C48.2578 76.6564 48.3224 76.5703 48.43 76.5703H92.3293C92.4154 76.5703 92.5015 76.6349 92.5015 76.7425V78.7448C92.5015 78.8525 92.4154 78.917 92.3293 78.917Z" fill="#80D3FB"/>
<path d="M42.5955 80.9608H35.8997C35.8136 80.9608 35.749 80.8962 35.749 80.8101V74.6741C35.749 74.588 35.8136 74.5234 35.8997 74.5234H42.5955C42.6816 74.5234 42.7462 74.588 42.7462 74.6741V80.8101C42.7247 80.8962 42.6601 80.9608 42.5955 80.9608Z" fill="#80D3FB"/>
<g clip-path="url(#clip3_2822_403342)">
<path d="M39.9698 77.4886L41.7567 75.7017C41.8415 75.617 41.8892 75.5021 41.8893 75.3823C41.8894 75.2625 41.8419 75.1475 41.7573 75.0627C41.6726 74.9779 41.5577 74.9302 41.4379 74.9301C41.3181 74.93 41.2031 74.9775 41.1183 75.0621L39.3314 76.8491L37.5444 75.0621C37.4596 74.9773 37.3446 74.9297 37.2247 74.9297C37.1047 74.9297 36.9897 74.9773 36.9049 75.0621C36.8201 75.1469 36.7725 75.262 36.7725 75.3819C36.7725 75.5018 36.8201 75.6169 36.9049 75.7017L38.6918 77.4886L36.9049 79.2755C36.8201 79.3603 36.7725 79.4754 36.7725 79.5953C36.7725 79.7152 36.8201 79.8303 36.9049 79.9151C36.9897 79.9999 37.1047 80.0475 37.2247 80.0475C37.3446 80.0475 37.4596 79.9999 37.5444 79.9151L39.3314 78.1281L41.1183 79.9151C41.2031 79.9999 41.3181 80.0475 41.4381 80.0475C41.558 80.0475 41.673 79.9999 41.7578 79.9151C41.8427 79.8303 41.8903 79.7152 41.8903 79.5953C41.8903 79.4754 41.8427 79.3603 41.7578 79.2755L39.9698 77.4886Z" fill="#FF0000"/>
</g>
<path d="M91.8775 39.8345H34.7804C34.7374 39.8345 34.6943 39.7914 34.6943 39.7484V38.758C34.6943 38.7149 34.7374 38.6719 34.7804 38.6719H91.8775C91.9205 38.6719 91.9636 38.7149 91.9636 38.758V39.7484C91.9636 39.813 91.9421 39.8345 91.8775 39.8345Z" fill="#80D3FB"/>
<path d="M66.5154 31.9141H34.6943V34.9928H66.5154V31.9141Z" fill="#80D3FB"/>
<path d="M77.9034 5.69266H71.2722C71.3368 5.56348 71.3798 5.4343 71.3798 5.28359V1.8173C71.3798 1.06376 70.777 0.460938 70.0235 0.460938H60.5934C59.8399 0.460938 59.2371 1.06376 59.2371 1.8173V5.28359C59.2371 5.4343 59.2801 5.56348 59.3447 5.69266H52.7135C51.7877 5.69266 51.0342 6.44622 51.0342 7.372V12.4745C51.0342 13.9601 52.2399 15.1873 53.747 15.1873H76.913C78.3986 15.1873 79.6258 13.9816 79.6258 12.4745V7.372C79.6042 6.44622 78.8507 5.69266 77.9034 5.69266Z" fill="black"/>
<path d="M77.9036 5.69266H71.2724C71.337 5.56348 71.3801 5.4343 71.3801 5.28359V1.8173C71.3801 1.06376 70.7773 0.460938 70.0237 0.460938H68.043C68.8826 1.02071 69.83 1.90343 69.8946 3.06604C70.0022 5.19749 69.1841 7.67341 70.1314 8.03941C71.0787 8.38389 77.473 6.85529 77.3439 9.93405C77.2793 11.7856 77.064 13.8524 76.9348 15.1873C78.3988 15.1658 79.6045 13.9601 79.6045 12.4745V7.372C79.6045 6.44622 78.8509 5.69266 77.9036 5.69266Z" fill="black"/>
<path d="M91.2741 59.7684L53.1897 79.7165C51.943 80.3788 50.3845 79.8918 49.7222 78.6256L45.8261 71.1645C45.1637 69.9177 45.6508 68.3593 46.917 67.697L85.0014 47.7489C86.2482 47.0866 87.8066 47.5736 88.4689 48.8398L92.365 56.3009C93.0079 57.5671 92.5209 59.1255 91.2741 59.7684ZM47.1118 68.1255C46.0793 68.671 45.6702 69.9567 46.2157 70.9892L50.1118 78.4502C50.6572 79.4827 51.943 79.8918 52.9754 79.3463L91.0598 59.3983C92.0923 58.8528 92.5014 57.5671 91.9559 56.5346L88.0598 49.0736C87.5144 48.0411 86.2287 47.632 85.1962 48.1775L47.1118 68.1255Z" fill="#E84A6B"/>
<defs>
<linearGradient id="paint0_linear_2822_403342" x1="64.5756" y1="14.2716" x2="64.5756" y2="112.226" gradientUnits="userSpaceOnUse">
<stop stop-color="#FDFDFD"/>
<stop offset="0.4791" stop-color="#FBFDFD"/>
<stop offset="0.6517" stop-color="#F4FBFD"/>
<stop offset="0.7747" stop-color="#E9F8FE"/>
<stop offset="0.8741" stop-color="#D8F4FE"/>
<stop offset="0.9583" stop-color="#C2EFFF"/>
<stop offset="1" stop-color="#B4ECFF"/>
</linearGradient>
<clipPath id="clip0_2822_403342">
<rect width="5.77837" height="5.77837" fill="white" transform="translate(36.4424 46.3516)"/>
</clipPath>
<clipPath id="clip1_2822_403342">
<rect width="5.77837" height="5.77837" fill="white" transform="translate(36.4424 55.9766)"/>
</clipPath>
<clipPath id="clip2_2822_403342">
<rect width="5.77837" height="5.77837" fill="white" transform="translate(36.4424 65.6094)"/>
</clipPath>
<clipPath id="clip3_2822_403342">
<rect width="5.77837" height="5.77837" fill="white" transform="translate(36.4424 74.6016)"/>
</clipPath>
</defs>
</svg>
