<svg width="130" height="73" viewBox="0 0 130 73" fill="none" xmlns="http://www.w3.org/2000/svg">
<path d="M124.234 71.8272C117.222 71.8272 11.9182 71.8535 11.8605 71.6698L11.85 71.6488C11.85 71.6488 11.8395 71.6278 11.8395 71.6173C11.8027 71.5281 -8.436 63.3717 4.90078 45.1379C11.8972 35.5802 -0.584045 20.947 14.2748 8.03536C37.563 -12.1929 59.7857 12.7224 69.2018 8.03536C77.122 4.09364 89.8447 -1.54864 102.756 3.51104C106.304 4.90193 113.988 11.8826 107.606 23.6133C104.415 29.476 118.565 30.1584 123.74 36.3885C135.02 49.9614 128.433 71.8272 124.234 71.8272Z" fill="#EBF3FA"/>
<g opacity="0.5">
<g opacity="0.5">
<path d="M84.9383 29.6594C84.9383 29.6594 83.5841 18.9469 87.3684 11.4099C87.8722 10.4074 89.3576 10.5963 89.6043 11.688C89.6095 11.7038 89.6148 11.7248 89.6148 11.7458C90.0137 13.6195 85.9985 22.9359 84.9383 29.6594Z" fill="#AEC3FF"/>
</g>
<g opacity="0.5">
<path d="M85.0327 32.7958C85.0327 32.7958 87.1007 18.4723 94.7374 10.4576C95.2046 9.96947 95.9866 9.91173 96.4905 10.3579C96.8211 10.6465 97.0626 11.1714 97.0101 12.0952C96.8579 14.562 88.6595 24.7864 85.0327 32.7958Z" fill="#AEC3FF"/>
</g>
</g>
<g opacity="0.4">
<path d="M16.5952 36.6028H21.1247C21.5236 36.6028 21.849 36.2774 21.849 35.8785V16.8102C21.849 16.4113 21.5236 16.0859 21.1247 16.0859H16.5952C16.1963 16.0859 15.8708 16.4113 15.8708 16.8102V35.8837C15.8761 36.2826 16.1963 36.6028 16.5952 36.6028Z" fill="#8C9DF4"/>
<path d="M20.2652 32.1787C20.2652 31.4071 19.6406 30.7773 18.8638 30.7773C18.0922 30.7773 17.4624 31.4019 17.4624 32.1787C17.4624 32.9502 18.087 33.5801 18.8638 33.5801C19.6353 33.5801 20.2652 32.9555 20.2652 32.1787Z" fill="#505ABA"/>
<path d="M18.8638 33.7412C18.0082 33.7412 17.3154 33.0483 17.3154 32.1928C17.3154 31.3373 18.0082 30.6445 18.8638 30.6445C19.7193 30.6445 20.4121 31.3373 20.4121 32.1928C20.4121 33.0431 19.7193 33.7412 18.8638 33.7412ZM18.8638 30.9384C18.171 30.9384 17.6094 31.5 17.6094 32.1928C17.6094 32.8856 18.171 33.4472 18.8638 33.4472C19.5566 33.4472 20.1182 32.8856 20.1182 32.1928C20.1182 31.5 19.5513 30.9384 18.8638 30.9384Z" fill="white"/>
<path d="M17.3788 28.5586H20.3442C20.4912 28.5586 20.6119 28.4379 20.6119 28.2909V17.2951C20.6119 17.1481 20.4912 17.0274 20.3442 17.0274H17.3788C17.2318 17.0274 17.1111 17.1481 17.1111 17.2951V28.2909C17.1111 28.4432 17.2318 28.5586 17.3788 28.5586Z" fill="#AEC3FF"/>
<path d="M17.7339 17.9058H19.9173C20.0328 17.9058 20.1272 17.8113 20.1272 17.6958V17.6591C20.1272 17.5436 20.0328 17.4492 19.9173 17.4492H17.7339C17.6184 17.4492 17.5239 17.5436 17.5239 17.6591V17.6958C17.5239 17.8113 17.6184 17.9058 17.7339 17.9058Z" fill="#F99746"/>
<path d="M19.3091 24.8107V27.1884C19.3091 27.2513 19.3616 27.3038 19.4245 27.3038C19.4875 27.3038 19.54 27.2513 19.54 27.1884V24.8107C19.54 24.7477 19.4875 24.6953 19.4245 24.6953C19.3616 24.6953 19.3091 24.7477 19.3091 24.8107Z" fill="#505ABA"/>
<path d="M19.3091 21.5412V23.9188C19.3091 23.9818 19.3616 24.0343 19.4245 24.0343C19.4875 24.0343 19.54 23.9818 19.54 23.9188V21.5412C19.54 21.4782 19.4875 21.4257 19.4245 21.4257C19.3616 21.4257 19.3091 21.4782 19.3091 21.5412Z" fill="#505ABA"/>
<path d="M17.9807 24.8107V27.1884C17.9807 27.2513 18.0332 27.3038 18.0962 27.3038C18.1592 27.3038 18.2117 27.2513 18.2117 27.1884V24.8107C18.2117 24.7477 18.1592 24.6953 18.0962 24.6953C18.0332 24.6953 17.9807 24.7477 17.9807 24.8107Z" fill="#505ABA"/>
<path d="M17.9807 21.5412V23.9188C17.9807 23.9818 18.0332 24.0343 18.0962 24.0343C18.1592 24.0343 18.2117 23.9818 18.2117 23.9188V21.5412C18.2117 21.4782 18.1592 21.4257 18.0962 21.4257C18.0332 21.4257 17.9807 21.4782 17.9807 21.5412Z" fill="#505ABA"/>
<path d="M18.6729 24.1428V27.1922C18.6729 27.2552 18.7253 27.3077 18.7883 27.3077C18.8513 27.3077 18.9038 27.2552 18.9038 27.1922V24.1428C18.9038 24.0798 18.8513 24.0273 18.7883 24.0273C18.7253 24.0273 18.6729 24.0798 18.6729 24.1428Z" fill="#505ABA"/>
<path d="M18.6729 20.0295V23.0789C18.6729 23.1419 18.7253 23.1944 18.7883 23.1944C18.8513 23.1944 18.9038 23.1419 18.9038 23.0789V20.0295C18.9038 19.9665 18.8513 19.914 18.7883 19.914C18.7253 19.914 18.6729 19.9665 18.6729 20.0295Z" fill="#505ABA"/>
<path d="M24.0498 36.6028H28.5793C28.9782 36.6028 29.3036 36.2774 29.3036 35.8785V16.8102C29.3036 16.4113 28.9782 16.0859 28.5793 16.0859H24.0498C23.6509 16.0859 23.3254 16.4113 23.3254 16.8102V35.8837C23.3307 36.2826 23.6509 36.6028 24.0498 36.6028Z" fill="#8C9DF4"/>
<path d="M27.7185 32.1787C27.7185 31.4071 27.094 30.7773 26.3172 30.7773C25.5456 30.7773 24.9158 31.4019 24.9158 32.1787C24.9158 32.9502 25.5404 33.5801 26.3172 33.5801C27.0887 33.5801 27.7185 32.9555 27.7185 32.1787Z" fill="#505ABA"/>
<path d="M26.3171 33.7412C25.4616 33.7412 24.7688 33.0483 24.7688 32.1928C24.7688 31.3373 25.4616 30.6445 26.3171 30.6445C27.1727 30.6445 27.8655 31.3373 27.8655 32.1928C27.8655 33.0431 27.1674 33.7412 26.3171 33.7412ZM26.3171 30.9384C25.6243 30.9384 25.0627 31.5 25.0627 32.1928C25.0627 32.8856 25.6243 33.4472 26.3171 33.4472C27.01 33.4472 27.5716 32.8856 27.5716 32.1928C27.5663 31.5 27.0047 30.9384 26.3171 30.9384Z" fill="white"/>
<path d="M24.8321 28.5586H27.7976C27.9446 28.5586 28.0653 28.4379 28.0653 28.2909V17.2951C28.0653 17.1481 27.9446 17.0274 27.7976 17.0274H24.8321C24.6852 17.0274 24.5645 17.1481 24.5645 17.2951V28.2909C24.5645 28.4432 24.6852 28.5586 24.8321 28.5586Z" fill="#AEC3FF"/>
<path d="M25.1874 17.9058H27.3709C27.4863 17.9058 27.5808 17.8113 27.5808 17.6958V17.6591C27.5808 17.5436 27.4863 17.4492 27.3709 17.4492H25.1874C25.072 17.4492 24.9775 17.5436 24.9775 17.6591V17.6958C24.9723 17.8113 25.0667 17.9058 25.1874 17.9058Z" fill="#F99746"/>
<path d="M26.7612 24.8107V27.1884C26.7612 27.2513 26.8137 27.3038 26.8767 27.3038C26.9397 27.3038 26.9922 27.2513 26.9922 27.1884V24.8107C26.9922 24.7477 26.9397 24.6953 26.8767 24.6953C26.8137 24.6953 26.7612 24.7477 26.7612 24.8107Z" fill="#505ABA"/>
<path d="M26.7612 21.5412V23.9188C26.7612 23.9818 26.8137 24.0343 26.8767 24.0343C26.9397 24.0343 26.9922 23.9818 26.9922 23.9188V21.5412C26.9922 21.4782 26.9397 21.4257 26.8767 21.4257C26.8137 21.4257 26.7612 21.4782 26.7612 21.5412Z" fill="#505ABA"/>
<path d="M25.4338 24.8107V27.1884C25.4338 27.2513 25.4863 27.3038 25.5493 27.3038C25.6123 27.3038 25.6648 27.2513 25.6648 27.1884V24.8107C25.6648 24.7477 25.6123 24.6953 25.5493 24.6953C25.4863 24.6953 25.4338 24.7477 25.4338 24.8107Z" fill="#505ABA"/>
<path d="M25.4338 21.5412V23.9188C25.4338 23.9818 25.4863 24.0343 25.5493 24.0343C25.6123 24.0343 25.6648 23.9818 25.6648 23.9188V21.5412C25.6648 21.4782 25.6123 21.4257 25.5493 21.4257C25.4863 21.4257 25.4338 21.4782 25.4338 21.5412Z" fill="#505ABA"/>
<path d="M26.126 24.1428V27.1922C26.126 27.2552 26.1785 27.3077 26.2414 27.3077C26.3044 27.3077 26.3569 27.2552 26.3569 27.1922V24.1428C26.3569 24.0798 26.3044 24.0273 26.2414 24.0273C26.1732 24.0273 26.126 24.0798 26.126 24.1428Z" fill="#505ABA"/>
<path d="M26.1248 20.0295V23.0789C26.1248 23.1419 26.1772 23.1944 26.2402 23.1944C26.3032 23.1944 26.3557 23.1419 26.3557 23.0789V20.0295C26.3557 19.9665 26.3032 19.914 26.2402 19.914C26.172 19.914 26.1248 19.9665 26.1248 20.0295Z" fill="#505ABA"/>
<path d="M31.6428 36.6028H36.1723C36.5712 36.6028 36.8967 36.2774 36.8967 35.8785V16.8102C36.8967 16.4113 36.5712 16.0859 36.1723 16.0859H31.6428C31.2439 16.0859 30.9185 16.4113 30.9185 16.8102V35.8837C30.9185 36.2826 31.2439 36.6028 31.6428 36.6028Z" fill="#8C9DF4"/>
<path d="M35.3116 32.1787C35.3116 31.4071 34.687 30.7773 33.9102 30.7773C33.1386 30.7773 32.5088 31.4019 32.5088 32.1787C32.5088 32.9502 33.1334 33.5801 33.9102 33.5801C34.6817 33.5801 35.3116 32.9555 35.3116 32.1787Z" fill="#505ABA"/>
<path d="M33.9111 33.7412C33.0556 33.7412 32.3628 33.0483 32.3628 32.1928C32.3628 31.3373 33.0556 30.6445 33.9111 30.6445C34.7667 30.6445 35.4595 31.3373 35.4595 32.1928C35.4595 33.0431 34.7614 33.7412 33.9111 33.7412ZM33.9111 30.9384C33.2183 30.9384 32.6567 31.5 32.6567 32.1928C32.6567 32.8856 33.2183 33.4472 33.9111 33.4472C34.604 33.4472 35.1656 32.8856 35.1656 32.1928C35.1603 31.5 34.5987 30.9384 33.9111 30.9384Z" fill="white"/>
<path d="M32.4264 28.5586H35.3918C35.5388 28.5586 35.6595 28.4379 35.6595 28.2909V17.2951C35.6595 17.1481 35.5388 17.0274 35.3918 17.0274H32.4264C32.2794 17.0274 32.1587 17.1481 32.1587 17.2951V28.2909C32.1587 28.4432 32.2794 28.5586 32.4264 28.5586Z" fill="#AEC3FF"/>
<path d="M32.7814 17.9058H34.9649C35.0803 17.9058 35.1748 17.8113 35.1748 17.6958V17.6591C35.1748 17.5436 35.0803 17.4492 34.9649 17.4492H32.7814C32.666 17.4492 32.5715 17.5436 32.5715 17.6591V17.6958C32.5662 17.8113 32.6607 17.9058 32.7814 17.9058Z" fill="#F99746"/>
<path d="M34.3572 24.8107V27.1884C34.3572 27.2513 34.4097 27.3038 34.4726 27.3038C34.5356 27.3038 34.5881 27.2513 34.5881 27.1884V24.8107C34.5881 24.7477 34.5356 24.6953 34.4726 24.6953C34.4097 24.6953 34.3572 24.7477 34.3572 24.8107Z" fill="#505ABA"/>
<path d="M34.3572 21.5412V23.9188C34.3572 23.9818 34.4097 24.0343 34.4726 24.0343C34.5356 24.0343 34.5881 23.9818 34.5881 23.9188V21.5412C34.5881 21.4782 34.5356 21.4257 34.4726 21.4257C34.4097 21.4257 34.3572 21.4782 34.3572 21.5412Z" fill="#505ABA"/>
<path d="M33.031 24.8107V27.1884C33.031 27.2513 33.0835 27.3038 33.1465 27.3038C33.2095 27.3038 33.2619 27.2513 33.2619 27.1884V24.8107C33.2619 24.7477 33.2095 24.6953 33.1465 24.6953C33.0835 24.6953 33.031 24.7477 33.031 24.8107Z" fill="#505ABA"/>
<path d="M33.031 21.5412V23.9188C33.031 23.9818 33.0835 24.0343 33.1465 24.0343C33.2095 24.0343 33.2619 23.9818 33.2619 23.9188V21.5412C33.2619 21.4782 33.2095 21.4257 33.1465 21.4257C33.0835 21.4257 33.031 21.4782 33.031 21.5412Z" fill="#505ABA"/>
<path d="M33.7219 24.1428V27.1922C33.7219 27.2552 33.7744 27.3077 33.8374 27.3077C33.9004 27.3077 33.9529 27.2552 33.9529 27.1922V24.1428C33.9529 24.0798 33.9004 24.0273 33.8374 24.0273C33.7692 24.0273 33.7219 24.0798 33.7219 24.1428Z" fill="#505ABA"/>
<path d="M33.7219 20.0295V23.0789C33.7219 23.1419 33.7744 23.1944 33.8374 23.1944C33.9004 23.1944 33.9529 23.1419 33.9529 23.0789V20.0295C33.9529 19.9665 33.9004 19.914 33.8374 19.914C33.7692 19.914 33.7219 19.9665 33.7219 20.0295Z" fill="#505ABA"/>
<path d="M39.4636 36.6028H43.9931C44.392 36.6028 44.7175 36.2774 44.7175 35.8785V16.8102C44.7175 16.4113 44.392 16.0859 43.9931 16.0859H39.4636C39.0647 16.0859 38.7393 16.4113 38.7393 16.8102V35.8837C38.7445 36.2826 39.0647 36.6028 39.4636 36.6028Z" fill="#8C9DF4"/>
<path d="M40.2484 28.5586H43.2139C43.3608 28.5586 43.4816 28.4379 43.4816 28.2909V17.2951C43.4816 17.1481 43.3608 17.0274 43.2139 17.0274H40.2484C40.1014 17.0274 39.9807 17.1481 39.9807 17.2951V28.2909C39.9807 28.4432 40.1014 28.5586 40.2484 28.5586Z" fill="#AEC3FF"/>
<path d="M40.6022 17.9058H42.7857C42.9011 17.9058 42.9956 17.8113 42.9956 17.6958V17.6591C42.9956 17.5436 42.9011 17.4492 42.7857 17.4492H40.6022C40.4868 17.4492 40.3923 17.5436 40.3923 17.6591V17.6958C40.387 17.8113 40.4815 17.9058 40.6022 17.9058Z" fill="#F99746"/>
<path d="M47.0109 36.6028H51.5405C51.9394 36.6028 52.2648 36.2774 52.2648 35.8785V16.8102C52.2648 16.4113 51.9394 16.0859 51.5405 16.0859H47.0109C46.612 16.0859 46.2866 16.4113 46.2866 16.8102V35.8837C46.2919 36.2826 46.612 36.6028 47.0109 36.6028Z" fill="#8C9DF4"/>
<path d="M47.7945 28.5586H50.76C50.907 28.5586 51.0277 28.4379 51.0277 28.2909V17.2951C51.0277 17.1481 50.907 17.0274 50.76 17.0274H47.7945C47.6476 17.0274 47.5269 17.1481 47.5269 17.2951V28.2909C47.5269 28.4432 47.6476 28.5586 47.7945 28.5586Z" fill="#AEC3FF"/>
<path d="M48.1486 17.9058H50.3321C50.4475 17.9058 50.542 17.8113 50.542 17.6958V17.6591C50.542 17.5436 50.4475 17.4492 50.3321 17.4492H48.1486C48.0332 17.4492 47.9387 17.5436 47.9387 17.6591V17.6958C47.9334 17.8113 48.0279 17.9058 48.1486 17.9058Z" fill="#F99746"/>
<path d="M16.5954 59.8097H21.125C21.5239 59.8097 21.8493 59.4843 21.8493 59.0854V40.0171C21.8493 39.6182 21.5239 39.2928 21.125 39.2928H16.5954C16.1965 39.2928 15.8711 39.6182 15.8711 40.0171V59.0907C15.8763 59.4896 16.1965 59.8097 16.5954 59.8097Z" fill="#8C9DF4"/>
<path d="M18.864 56.7869C19.638 56.7869 20.2654 56.1595 20.2654 55.3855C20.2654 54.6115 19.638 53.9841 18.864 53.9841C18.0901 53.9841 17.4626 54.6115 17.4626 55.3855C17.4626 56.1595 18.0901 56.7869 18.864 56.7869Z" fill="#505ABA"/>
<path d="M18.8638 56.9442C18.0082 56.9442 17.3154 56.2514 17.3154 55.3959C17.3154 54.5403 18.0082 53.8475 18.8638 53.8475C19.7193 53.8475 20.4121 54.5403 20.4121 55.3959C20.4121 56.2461 19.7193 56.9442 18.8638 56.9442ZM18.8638 54.1414C18.171 54.1414 17.6094 54.703 17.6094 55.3959C17.6094 56.0887 18.171 56.6503 18.8638 56.6503C19.5566 56.6503 20.1182 56.0887 20.1182 55.3959C20.1182 54.703 19.5513 54.1414 18.8638 54.1414Z" fill="white"/>
<path d="M17.3788 51.7616H20.3442C20.4912 51.7616 20.6119 51.6408 20.6119 51.4939V40.498C20.6119 40.351 20.4912 40.2303 20.3442 40.2303H17.3788C17.2318 40.2303 17.1111 40.351 17.1111 40.498V51.4939C17.1111 51.6461 17.2318 51.7616 17.3788 51.7616Z" fill="#AEC3FF"/>
<path d="M17.7339 41.1088H19.9173C20.0328 41.1088 20.1272 41.0143 20.1272 40.8989V40.8621C20.1272 40.7467 20.0328 40.6522 19.9173 40.6522H17.7339C17.6184 40.6522 17.5239 40.7467 17.5239 40.8621V40.8989C17.5239 41.0143 17.6184 41.1088 17.7339 41.1088Z" fill="#F99746"/>
<path d="M19.3088 48.0216V50.3992C19.3088 50.4622 19.3613 50.5147 19.4243 50.5147C19.4873 50.5147 19.5398 50.4622 19.5398 50.3992V48.0216C19.5398 47.9586 19.4873 47.9061 19.4243 47.9061C19.3613 47.9061 19.3088 47.9586 19.3088 48.0216Z" fill="#505ABA"/>
<path d="M19.3088 44.7481V47.1258C19.3088 47.1887 19.3613 47.2412 19.4243 47.2412C19.4873 47.2412 19.5398 47.1887 19.5398 47.1258V44.7481C19.5398 44.6852 19.4873 44.6327 19.4243 44.6327C19.3613 44.6327 19.3088 44.6852 19.3088 44.7481Z" fill="#505ABA"/>
<path d="M17.9814 48.0216V50.3992C17.9814 50.4622 18.0339 50.5147 18.0969 50.5147C18.1599 50.5147 18.2124 50.4622 18.2124 50.3992V48.0216C18.2124 47.9586 18.1599 47.9061 18.0969 47.9061C18.0339 47.9061 17.9814 47.9586 17.9814 48.0216Z" fill="#505ABA"/>
<path d="M17.9817 44.7481V47.1258C17.9817 47.1887 18.0342 47.2412 18.0972 47.2412C18.1601 47.2412 18.2126 47.1887 18.2126 47.1258V44.7481C18.2126 44.6852 18.1601 44.6327 18.0972 44.6327C18.0342 44.6327 17.9817 44.6852 17.9817 44.7481Z" fill="#505ABA"/>
<path d="M18.6726 47.3497V50.3992C18.6726 50.4621 18.7251 50.5146 18.7881 50.5146C18.8511 50.5146 18.9035 50.4621 18.9035 50.3992V47.3497C18.9035 47.2867 18.8511 47.2342 18.7881 47.2342C18.7251 47.2342 18.6726 47.2867 18.6726 47.3497Z" fill="#505ABA"/>
<path d="M18.6726 43.2403V46.2898C18.6726 46.3528 18.7251 46.4052 18.7881 46.4052C18.8511 46.4052 18.9035 46.3528 18.9035 46.2898V43.2403C18.9035 43.1773 18.8511 43.1248 18.7881 43.1248C18.7251 43.1248 18.6726 43.1773 18.6726 43.2403Z" fill="#505ABA"/>
<path d="M24.0495 59.8097H28.5791C28.978 59.8097 29.3034 59.4843 29.3034 59.0854V40.0171C29.3034 39.6182 28.978 39.2928 28.5791 39.2928H24.0495C23.6506 39.2928 23.3252 39.6182 23.3252 40.0171V59.0907C23.3304 59.4896 23.6506 59.8097 24.0495 59.8097Z" fill="#8C9DF4"/>
<path d="M27.7185 55.3855C27.7185 54.6139 27.094 53.9841 26.3172 53.9841C25.5456 53.9841 24.9158 54.6087 24.9158 55.3855C24.9158 56.157 25.5404 56.7869 26.3172 56.7869C27.0887 56.7869 27.7185 56.1623 27.7185 55.3855Z" fill="#505ABA"/>
<path d="M26.3169 56.9442C25.4614 56.9442 24.7686 56.2514 24.7686 55.3959C24.7686 54.5403 25.4614 53.8475 26.3169 53.8475C27.1724 53.8475 27.8652 54.5403 27.8652 55.3959C27.8652 56.2461 27.1672 56.9442 26.3169 56.9442ZM26.3169 54.1414C25.6241 54.1414 25.0625 54.703 25.0625 55.3959C25.0625 56.0887 25.6241 56.6503 26.3169 56.6503C27.0097 56.6503 27.5713 56.0887 27.5713 55.3959C27.5661 54.703 27.0045 54.1414 26.3169 54.1414Z" fill="white"/>
<path d="M24.8321 51.7654H27.7976C27.9446 51.7654 28.0653 51.6446 28.0653 51.4977V40.5018C28.0653 40.3548 27.9446 40.2341 27.7976 40.2341H24.8321C24.6852 40.2341 24.5645 40.3548 24.5645 40.5018V51.4977C24.5645 51.6499 24.6852 51.7654 24.8321 51.7654Z" fill="#AEC3FF"/>
<path d="M25.1872 41.1088H27.3706C27.4861 41.1088 27.5806 41.0143 27.5806 40.8989V40.8621C27.5806 40.7467 27.4861 40.6522 27.3706 40.6522H25.1872C25.0717 40.6522 24.9773 40.7467 24.9773 40.8621V40.8989C24.972 41.0143 25.0665 41.1088 25.1872 41.1088Z" fill="#F99746"/>
<path d="M26.7607 48.0216V50.3992C26.7607 50.4622 26.8132 50.5147 26.8762 50.5147C26.9392 50.5147 26.9917 50.4622 26.9917 50.3992V48.0216C26.9917 47.9586 26.9392 47.9061 26.8762 47.9061C26.8132 47.9061 26.7607 47.9586 26.7607 48.0216Z" fill="#505ABA"/>
<path d="M26.7607 44.752V47.1297C26.7607 47.1927 26.8132 47.2451 26.8762 47.2451C26.9392 47.2451 26.9917 47.1927 26.9917 47.1297V44.752C26.9917 44.6891 26.9392 44.6366 26.8762 44.6366C26.8132 44.6366 26.7607 44.6891 26.7607 44.752Z" fill="#505ABA"/>
<path d="M25.4333 48.0216V50.3992C25.4333 50.4622 25.4858 50.5147 25.5488 50.5147C25.6118 50.5147 25.6643 50.4622 25.6643 50.3992V48.0216C25.6643 47.9586 25.6118 47.9061 25.5488 47.9061C25.4858 47.9061 25.4333 47.9586 25.4333 48.0216Z" fill="#505ABA"/>
<path d="M25.4333 44.752V47.1297C25.4333 47.1927 25.4858 47.2451 25.5488 47.2451C25.6118 47.2451 25.6643 47.1927 25.6643 47.1297V44.752C25.6643 44.6891 25.6118 44.6366 25.5488 44.6366C25.4858 44.6366 25.4333 44.6891 25.4333 44.752Z" fill="#505ABA"/>
<path d="M26.1245 47.3497V50.3992C26.1245 50.4621 26.177 50.5146 26.24 50.5146C26.303 50.5146 26.3555 50.4621 26.3555 50.3992V47.3497C26.3555 47.2867 26.303 47.2342 26.24 47.2342C26.1718 47.2342 26.1245 47.2867 26.1245 47.3497Z" fill="#505ABA"/>
<path d="M26.1245 43.2403V46.2898C26.1245 46.3528 26.177 46.4052 26.24 46.4052C26.303 46.4052 26.3555 46.3528 26.3555 46.2898V43.2403C26.3555 43.1773 26.303 43.1248 26.24 43.1248C26.1718 43.1248 26.1245 43.1773 26.1245 43.2403Z" fill="#505ABA"/>
<path d="M31.6425 59.8097H36.1721C36.571 59.8097 36.8964 59.4843 36.8964 59.0854V40.0171C36.8964 39.6182 36.571 39.2928 36.1721 39.2928H31.6425C31.2436 39.2928 30.9182 39.6182 30.9182 40.0171V59.0907C30.9182 59.4896 31.2436 59.8097 31.6425 59.8097Z" fill="#8C9DF4"/>
<path d="M39.4633 59.8097H43.9929C44.3918 59.8097 44.7172 59.4843 44.7172 59.0854V40.0171C44.7172 39.6182 44.3918 39.2928 43.9929 39.2928H39.4633C39.0644 39.2928 38.739 39.6182 38.739 40.0171V59.0907C38.7443 59.4896 39.0644 59.8097 39.4633 59.8097Z" fill="#8C9DF4"/>
<path d="M47.0109 59.8097H51.5405C51.9394 59.8097 52.2648 59.4843 52.2648 59.0854V40.0171C52.2648 39.6182 51.9394 39.2928 51.5405 39.2928H47.0109C46.612 39.2928 46.2866 39.6182 46.2866 40.0171V59.0907C46.2919 59.4896 46.612 59.8097 47.0109 59.8097Z" fill="#8C9DF4"/>
<path d="M14.2772 71.83C13.8783 71.83 13.5581 71.5098 13.5581 71.1109V13.9691C13.5581 13.5702 13.8783 13.25 14.2772 13.25C14.6761 13.25 14.9962 13.5702 14.9962 13.9691V71.1109C14.9962 71.5098 14.6761 71.83 14.2772 71.83Z" fill="#BDD1F9"/>
<path d="M13.5622 37.1875L55.0684 37.1875V36.6102L13.5622 36.6102V37.1875Z" fill="#BDD1F9"/>
<path d="M13.5622 60.3828L57.6455 60.3828V59.8055L13.5622 59.8055V60.3828Z" fill="#BDD1F9"/>
</g>
<path d="M101.768 33.0386C101.768 33.0386 97.8212 36.4659 98.5036 37.1588C99.1859 37.8516 102.624 33.0228 102.624 33.0228C102.624 33.0228 107.788 34.188 109.148 35.4897C109.148 35.4897 103.715 37.5839 104.545 38.0878C105.379 38.5916 111.132 36.6759 111.132 36.6759C111.132 36.6759 115.53 39.0063 114.344 41.7671C113.158 44.5278 111.263 44.8795 110.581 44.5698C109.898 44.2602 106.293 41.3262 106.009 41.8773C105.731 42.4284 107.589 45.1367 109.3 45.798C109.3 45.798 104.823 48.3383 102.981 46.5748C101.144 44.8113 101.501 43.0897 100.346 42.019C99.1911 40.9483 98.0259 40.5704 98.3776 41.3892C98.7292 42.2079 100.991 43.6356 101.317 45.2679C101.642 46.9002 102.036 48.0602 99.8892 46.9737C97.7425 45.8872 94.6143 43.0267 95.0762 41.0795C95.0972 40.9955 95.1182 40.9115 95.1339 40.8381C95.0814 40.985 95.0762 41.0795 95.0762 41.0795C94.5776 41.006 93.3179 41.5519 92.3836 41.998C92.2367 42.082 92.0215 42.1922 91.7171 42.3287C91.5859 42.3969 91.4809 42.4494 91.4074 42.4914C89.4654 43.6041 87.5811 46.6903 87.5811 46.6903L87.1035 46.4856C88.4734 42.9585 91.8535 41.8405 91.8535 41.8405C94.3099 40.7803 95.5381 39.1322 95.5381 39.1322C95.5381 39.1322 93.5593 34.3297 97.3593 32.9441C97.3698 32.9494 100.01 32.3405 101.768 33.0386Z" fill="#D2E2F9"/>
<path d="M116.064 61.2773H119.459V50.3287H116.064V61.2773Z" fill="#35488B"/>
<path d="M107.88 61.2773H116.068V50.3287H107.88V61.2773Z" fill="#2C3A64"/>
<path d="M118.329 51.6918C118.329 51.3769 118.077 51.125 117.762 51.125C117.447 51.125 117.195 51.3769 117.195 51.6918C117.195 52.0068 117.447 52.2587 117.762 52.2587C118.077 52.2587 118.329 52.0068 118.329 51.6918Z" fill="#DDE7FE"/>
<path d="M118.16 51.6919C118.16 51.4714 117.981 51.293 117.761 51.293C117.54 51.293 117.362 51.4714 117.362 51.6919C117.362 51.9123 117.54 52.0908 117.761 52.0908C117.981 52.0908 118.16 51.9123 118.16 51.6919Z" fill="#6C7AFF"/>
<path d="M116.954 55.9414H118.549V53.0599H116.954V55.9414Z" fill="#8FADEF"/>
<path d="M109.738 61.2773H113.134V50.3287H109.738V61.2773Z" fill="#35488B"/>
<path d="M101.546 61.2773H109.733V50.3287H101.546V61.2773Z" fill="#2C3A64"/>
<path d="M112.001 51.6918C112.001 51.3769 111.749 51.125 111.434 51.125C111.119 51.125 110.867 51.3769 110.867 51.6918C110.867 52.0068 111.119 52.2587 111.434 52.2587C111.744 52.2587 112.001 52.0068 112.001 51.6918Z" fill="#DDE7FE"/>
<path d="M111.832 51.6919C111.832 51.4714 111.654 51.293 111.434 51.293C111.213 51.293 111.035 51.4714 111.035 51.6919C111.035 51.9123 111.213 52.0908 111.434 52.0908C111.654 52.0908 111.832 51.9123 111.832 51.6919Z" fill="#6C7AFF"/>
<path d="M110.624 55.9414H112.219V53.0599H110.624V55.9414Z" fill="#8FADEF"/>
<path d="M103.946 61.2773H107.342V50.3287H103.946V61.2773Z" fill="#35488B"/>
<path d="M95.7545 61.2774H103.942V50.3288H95.7545V61.2774Z" fill="#2C3A64"/>
<path d="M106.208 51.6918C106.208 51.3769 105.956 51.125 105.642 51.125C105.327 51.125 105.075 51.3769 105.075 51.6918C105.075 52.0068 105.327 52.2587 105.642 52.2587C105.951 52.2587 106.208 52.0068 106.208 51.6918Z" fill="#DDE7FE"/>
<path d="M106.042 51.6919C106.042 51.4714 105.864 51.293 105.644 51.293C105.423 51.293 105.245 51.4714 105.245 51.6919C105.245 51.9123 105.423 52.0908 105.644 52.0908C105.864 52.0908 106.042 51.9123 106.042 51.6919Z" fill="#6C7AFF"/>
<path d="M104.834 55.9414H106.429V53.0599H104.834V55.9414Z" fill="#8FADEF"/>
<path d="M95.2448 71.625H114.423V57.4589H95.2448V71.625Z" fill="#F77D48"/>
<path d="M105.523 71.625H120.728V57.4589H105.523V71.625Z" fill="#FF8C64"/>
<path d="M112.024 59.7676H115.961C116.202 59.7676 116.402 59.5682 116.402 59.3267V59.269C116.402 59.0276 116.202 58.8281 115.961 58.8281H112.024C111.783 58.8281 111.583 59.0276 111.583 59.269V59.3267C111.583 59.5682 111.783 59.7676 112.024 59.7676Z" fill="#2C3A64"/>
<path d="M66.3611 38.9371L63.7683 69.7728C63.7683 69.7728 63.4953 71.6414 64.8862 71.6466C67.1746 71.6519 76.2653 71.6466 76.2653 71.6466C76.2653 71.6466 74.5437 71.2582 74.5647 70.3817C74.5909 69.3477 77.5932 38.6484 77.5932 38.6484L66.3611 38.9371Z" fill="#798EE8"/>
<path d="M77.1209 71.0842C76.6695 71.0842 67.8676 71.1 65.6421 71.0737C64.6711 71.0632 64.5032 70.2129 64.4927 69.6618C64.4875 69.3994 64.5242 69.2052 64.5242 69.2052L64.5924 68.4022L64.7656 66.3605L64.9178 64.5549L65.112 62.235L65.2747 60.2773L67.117 38.3642L78.3543 38.0703C78.3543 38.0703 77.0894 50.919 76.1919 60.272C76.0922 61.3165 75.9977 62.3138 75.9085 63.248C75.8822 63.5472 75.8507 63.8359 75.8245 64.1193C75.7405 65.0063 75.667 65.8146 75.5988 66.5337C75.5621 66.9116 75.5306 67.2632 75.5043 67.5834C75.3889 68.8431 75.3206 69.6513 75.3206 69.8036C75.3206 69.8928 75.3259 69.9768 75.3416 70.0555C75.5253 71.037 76.953 71.0842 77.1209 71.0842Z" fill="#AEC3FF"/>
<path d="M39.0784 22.1367L45.3925 47.5139L46.2585 50.9885L49.1977 62.8084H103.862L93.0133 22.1367H39.0784Z" fill="#AEC3FF"/>
<path d="M39.0779 22.1367L38.2014 22.4306L48.0374 63.6902L49.1973 62.8084L39.0779 22.1367Z" fill="#798EE8"/>
<path d="M48.0376 63.6943H102.361L103.862 62.8125H49.1975L48.0376 63.6943Z" fill="#849DEF"/>
<path d="M67.1152 71.6406H78.8774V71.0843H67.1152V71.6406Z" fill="#AEC3FF"/>
<path d="M75.8885 63.6914L75.8255 64.1165L64.7666 66.3525L64.9136 64.5469L64.987 63.6914H75.8885Z" fill="#8C9DF4"/>
<g opacity="0.5">
<path d="M77.1204 71.0854C76.669 71.0854 67.8671 71.1012 65.6416 71.0749C64.6706 71.0644 64.5027 70.2142 64.4922 69.6631L75.5038 67.5898C75.3883 68.8495 75.3201 69.6578 75.3201 69.81C75.3201 69.8992 75.3254 69.9832 75.3411 70.0619C75.5248 71.0382 76.9524 71.0854 77.1204 71.0854Z" fill="#8C9DF4"/>
</g>
<path d="M39.0784 22.1367H93.0133L101.768 54.82H47.2138L39.0784 22.1367Z" fill="#8C9DF4"/>
<path d="M99.2232 53.409H48.7209L46.9154 46.2184L46.2173 43.4366L45.9339 42.3029L44.0758 34.9128L43.9814 34.5297L42.9999 30.6247L42.5642 28.8769L42.1863 27.3863L41.8819 26.1686L41.3098 23.8907H91.0879L91.7177 26.1686L92.0484 27.3863L92.463 28.8769L92.9406 30.6247L96.1161 42.135L96.3837 43.1112L96.5097 43.5626L98.7036 51.509L99.2232 53.409Z" fill="#505ABA"/>
<path d="M36.0674 39.6998C36.0674 39.6998 36.1986 38.2617 34.5926 38.2617C34.5926 38.2617 35.0807 38.3929 35.3274 38.6554C35.3274 38.6554 34.3039 38.057 33.1912 38.9755C32.0785 39.8993 32.7713 42.2139 32.4301 42.6548C32.089 43.0957 30.7716 43.1797 30.9343 44.6021C31.097 46.0244 35.1174 47.8037 34.8602 48.9794C34.8602 48.9794 36.4348 46.6595 35.3116 45.6046C35.3116 45.6046 35.8627 46.1242 35.9152 46.7383C35.9152 46.7383 36.0622 45.5363 35.3011 45.1532C34.6241 44.812 34.0729 43.5681 34.1307 43.3476C34.1937 43.1272 36.0674 39.6998 36.0674 39.6998Z" fill="#2C3A64"/>
<path d="M34.4853 46.5898C34.4853 46.5898 35.682 51.5498 36.8577 52.5365C37.5663 53.1296 39.6657 54.4995 39.6657 54.4995L38.7892 54.8145C38.7892 54.8145 35.871 53.8277 35.2202 53.0614C34.5693 52.2951 32.7795 48.4479 32.7795 48.4479L34.4853 46.5898Z" fill="#FFB27D"/>
<path d="M41.4034 56.3117L41.12 55.6137C40.8155 54.8684 40.0912 54.375 39.2882 54.375H34.092V57.6711V71.7427H55.58V57.6711H43.4241C42.5371 57.6764 41.7341 57.1358 41.4034 56.3117Z" fill="#F99746"/>
<path d="M23.2225 55.3003C23.233 55.3213 23.2435 55.3371 23.254 55.358C23.5164 55.8147 24.12 56.9326 24.7813 58.1503C25.0962 58.7277 25.4216 59.3313 25.7366 59.9034C26.2719 60.8849 26.76 61.7561 27.0435 62.218C27.3321 62.6851 27.5473 63.0158 27.6313 63.147C27.6576 63.189 27.6628 63.2362 27.6576 63.2835C27.6261 63.6981 27.6366 64.1075 27.6786 64.5117C28.0775 68.4901 30.7595 70.6211 30.7595 70.6211L31.5573 70.7365C31.5573 70.7365 30.4288 66.5586 30.0982 64.1967C30.0404 63.7979 30.0194 63.4724 30.0352 63.2625C30.0929 62.6484 29.9827 61.7456 29.778 60.7064C29.4106 58.8641 28.7335 56.5967 28.1457 54.7859C28.1089 54.6705 26.9857 50.6133 26.9857 50.6133C26.0462 51.4373 22.6136 51.7732 22.6136 51.7732C22.6136 51.7732 22.0363 53.1904 23.2225 55.3003Z" fill="#2F539B"/>
<path d="M33.2329 71.7512H29.9053C29.9053 71.7512 29.8266 71.2421 29.9998 70.8589C30.1677 70.4915 30.4039 70.4758 30.0313 69.8984C30.2412 70.1136 30.9235 70.2081 31.4012 70.1399C31.4589 70.2343 31.7791 70.8747 31.9785 71.0164C32.199 71.1791 33.1647 71.1214 33.2329 71.7512Z" fill="#233862"/>
<path d="M23.2234 55.3028C23.2339 55.3238 23.2444 55.3396 23.2549 55.3606C23.5173 55.8172 24.9344 58.4363 25.5958 59.6592C24.8295 56.4995 25.3596 53.3398 25.3596 53.3398L23.2234 55.3028Z" fill="#233862"/>
<path d="M35.6102 39.4959C35.6312 39.4067 33.7102 40.3672 33.6104 40.4722C32.7077 41.4694 32.9649 42.7763 33.4845 42.7868C33.8151 42.7973 33.7522 43.3432 33.7522 43.3432L37.4367 41.7843C37.4367 41.7896 36.9958 39.202 35.6102 39.4959Z" fill="#2C3A64"/>
<path d="M34.3702 45.8438C34.3702 45.8438 34.9318 46.9617 34.8583 47.875C34.8583 47.875 34.1813 48.9404 32.4282 49.2134C32.4335 49.2134 33.9398 45.8438 34.3702 45.8438Z" fill="#6385DB"/>
<path d="M25.8158 52.0227L25.8263 51.3981C24.5876 51.5555 21.5539 49.918 21.5539 49.918C21.5539 49.918 20.2575 50.7787 20.079 53.2456C19.9898 54.4475 19.4439 59.5335 19.3809 61.0503C19.3599 61.6014 19.3494 61.9951 19.3494 62.1525C19.3494 62.1998 19.3285 62.2418 19.297 62.2785C19.0398 62.6039 18.8193 62.9503 18.6251 63.3072C16.7356 66.8291 17.7224 71.6106 17.7224 71.6106L18.1633 71.5004C18.1633 71.5004 19.7641 66.5404 20.8086 64.399C20.987 64.0368 21.1497 63.7534 21.2809 63.5907C21.6746 63.113 22.0892 62.3047 22.4986 61.3285C23.2702 59.481 25.8158 52.0227 25.8158 52.0227Z" fill="#2F539B"/>
<path d="M20.3731 71.7527H17.0454C17.0454 71.7527 16.9667 71.2436 17.1399 70.8604C17.3079 70.493 17.5651 70.325 17.5073 69.8789C17.7173 70.0941 18.0637 70.3408 18.5465 70.2778C18.6043 70.3723 18.9245 70.8866 19.1239 71.0284C19.3338 71.1806 20.3048 71.1228 20.3731 71.7527Z" fill="#233862"/>
<path d="M32.2099 49.9341C31.7638 50.0129 32.2834 50.3645 31.6693 50.4328C30.7928 50.5272 29.89 50.5955 29.4176 50.7844C29.2444 50.8526 29.1289 50.9366 29.0922 51.0468C28.8875 51.6662 27.5858 52.7212 27.5858 52.7212C21.7914 52.4587 21.4187 49.8764 21.4187 49.8764C25.1767 46.2233 28.3784 44.2341 31.0237 43.9874C31.6693 43.9297 32.5353 44.0084 32.9395 44.1869C33.8632 44.5963 34.3723 45.8507 34.3723 45.8507C34.3723 45.8507 33.9105 49.6455 32.2099 49.9341Z" fill="#739AF0"/>
<path d="M31.6683 50.4281C30.7918 50.5226 29.889 50.5908 29.4166 50.7798C29.2224 47.893 30.5871 45.7148 30.5871 45.7148C30.5871 45.7148 31.4741 49.3311 31.6683 50.4281Z" fill="#6385DB"/>
<path d="M32.4237 45.2253C32.4237 45.2253 30.2246 45.1046 29.8309 46.485C29.4425 47.8654 30.5657 53.3817 30.8072 53.9486C31.248 54.9825 33.4735 58.0687 33.4735 58.0687L34.1873 57.7013C34.1873 57.7013 32.7544 53.1823 32.4342 52.7361C31.9304 52.0328 33.0798 45.8237 32.4237 45.2253Z" fill="#FFB27D"/>
<path d="M34.1857 57.7038C34.1857 57.7038 34.3694 57.8613 34.5164 58.045C34.6633 58.2235 34.5321 58.2917 34.9573 59.1105C34.9573 59.1105 34.9363 59.226 34.8418 59.205C34.7473 59.184 34.4271 58.869 34.2644 58.89C34.2644 58.89 34.149 58.9845 34.1332 59.3099C34.1227 59.6091 34.1227 60.2757 34.0702 60.3964C34.0178 60.5224 33.6346 59.8715 33.4509 59.4044C33.2882 58.995 33.4456 57.6094 33.4456 57.6094L34.1857 57.7038Z" fill="#FFB27D"/>
<path d="M29.3965 48.3347C29.4017 48.3662 31.4802 48.7179 32.7766 48.0566C32.7766 48.0566 33.8631 44.6554 32.3095 44.8182C30.7611 44.9809 29.8426 45.469 29.8006 46.209C29.7691 46.9544 29.3965 48.3347 29.3965 48.3347Z" fill="#739AF0"/>
<path d="M32.8905 44.4217C32.9115 44.6946 32.9483 45.02 33.3104 45.3874C33.5886 45.6708 33.9822 45.8913 34.2657 45.6131C34.4074 45.4714 34.6016 45.2562 34.6961 45.0882C34.9375 44.6736 35.2262 44.2484 35.2262 44.2484L33.9822 43.1567L33.9088 43.0938C33.5833 43.6659 33.2632 43.9388 32.9798 44.1487C32.8958 44.2117 32.8853 44.3167 32.8905 44.4217Z" fill="#FFB27D"/>
<path d="M35.2247 44.248C35.2247 44.248 34.936 44.6731 34.6946 45.0877C33.923 44.6101 33.9178 43.6549 33.9808 43.1562L35.2247 44.248Z" fill="#ED985F"/>
<path d="M35.264 44.7963C35.264 44.7963 33.3849 43.7519 34.0515 42.5919C34.7181 41.432 34.928 40.5135 36.1562 41.1328C37.3844 41.7521 37.3582 42.3295 37.2322 42.7704C37.101 43.2112 35.7678 45.0378 35.264 44.7963Z" fill="#FFB27D"/>
<path d="M37.5465 42.097C37.4625 41.5826 37.2001 41.5301 37.0164 41.5669C36.3235 40.4174 35.1898 40.8688 35.1898 40.8688C34.5862 41.6299 33.7097 41.7611 33.7097 41.7611C33.7097 41.7611 33.9302 42.1652 34.8277 42.4172C35.1006 42.4959 35.4155 42.4486 35.7147 42.3437C35.0901 42.6901 34.4393 42.8265 34.4393 42.8265C35.6255 42.9368 36.7487 41.8503 36.8641 41.7348C36.9166 41.9028 37.0164 42.2544 36.9586 42.5116C36.8799 42.858 36.5702 43.4931 36.7592 43.5719C36.7592 43.5719 37.6777 42.8685 37.5465 42.097Z" fill="#2C3A64"/>
<path d="M40.013 54.509C40.013 54.509 39.4881 54.9026 39.8817 55.1598C40.2754 55.417 40.984 55.4852 40.984 55.3173C40.9997 54.7504 40.7163 54.3463 40.013 54.509Z" fill="#FFB27D"/>
<path d="M128.55 72.0014H6.19408C6.11535 72.0014 6.04712 71.9385 6.04712 71.8545V71.7915C6.04712 71.7128 6.1101 71.6445 6.19408 71.6445H128.545C128.624 71.6445 128.692 71.7075 128.692 71.7915V71.8545C128.692 71.9385 128.629 72.0014 128.55 72.0014Z" fill="#233862"/>
<path d="M52.5745 32.5888L52.1074 31.9013C51.6088 31.1612 50.7585 30.6836 49.9659 30.6836H44.8433L45.7303 33.9325L49.2574 46.8336C49.4148 47.411 49.9397 47.8151 50.538 47.8151H68.9765C69.853 47.8151 70.4933 46.9806 70.2571 46.1356L66.919 33.9377H54.9259C54.0546 33.9272 53.1204 33.3971 52.5745 32.5888Z" fill="#F99746"/>
<g opacity="0.5">
<path d="M83.0724 31.6624L81.5556 29.7204L81.4821 29.6311L81.3981 29.6154L74.3859 28.3242L72.0293 41.1466L81.1147 42.8209L83.1354 31.8513L83.1512 31.7621L83.0724 31.6624Z" fill="#8C9DF4"/>
</g>
<path d="M78.514 27.6811L78.5192 27.7704L78.9496 38.9185L69.7173 39.2754L69.2134 26.2483L76.3358 25.9701L76.4198 25.9648L76.5142 26.0383L78.4195 27.6024L78.514 27.6811Z" fill="#8C9DF4"/>
<path d="M72.442 30.8711L57.032 31.7319C57.0005 31.7319 56.9795 31.7581 56.9795 31.7896L58.1027 51.9706C58.1027 52.0021 58.1289 52.0231 58.1604 52.0231L73.5494 51.1676C73.5809 51.1676 73.6019 51.1413 73.6019 51.1098L72.4787 30.9026C72.4787 30.8868 72.463 30.8711 72.442 30.8711Z" fill="#233862"/>
<path d="M72.4142 50.5276L59.3608 51.3464C58.9672 51.3727 58.6313 51.0735 58.605 50.6799L57.4923 32.9395C57.4661 32.5458 57.7653 32.2099 58.1589 32.1837L71.2123 31.3649C71.6059 31.3386 71.9418 31.6378 71.9681 32.0315L73.0808 49.7718C73.1018 50.1655 72.8026 50.5067 72.4142 50.5276Z" fill="#EBF3FA"/>
<path d="M67.261 34.2947L59.0469 34.809C59.0416 34.809 59.0416 34.8038 59.0364 34.8038L59.0259 34.5991C59.0259 34.5938 59.0311 34.5938 59.0311 34.5886L67.2452 34.0742C67.2505 34.0742 67.2505 34.0795 67.2557 34.0795L67.2662 34.2842C67.2662 34.2894 67.2662 34.2947 67.261 34.2947Z" fill="#BDD1F9"/>
<path d="M67.3718 36.0603L59.1577 36.5747C59.1525 36.5747 59.1525 36.5694 59.1472 36.5694L59.1367 36.3647C59.1367 36.3595 59.142 36.3595 59.142 36.3542L67.3561 35.8398C67.3613 35.8398 67.3613 35.8451 67.3666 35.8451L67.3771 36.0498C67.3823 36.055 67.3771 36.0603 67.3718 36.0603Z" fill="#BDD1F9"/>
<path d="M70.4525 34.9822L59.105 35.696C59.0997 35.696 59.0997 35.6907 59.0945 35.6907L59.084 35.486C59.084 35.4808 59.0892 35.4808 59.0892 35.4755L70.4368 34.7617C70.442 34.7617 70.442 34.767 70.4473 34.767L70.4578 34.9717C70.463 34.9769 70.4578 34.9769 70.4525 34.9822Z" fill="#BDD1F9"/>
<path d="M65.3887 41.6657L59.799 42.0174C59.7937 42.0174 59.7937 42.0173 59.7937 42.0121L59.7832 41.8022C59.7832 41.7969 59.7832 41.7969 59.7885 41.7969L65.373 41.4453C65.3782 41.4453 65.3782 41.4453 65.3782 41.4505L65.3887 41.6604C65.394 41.6604 65.394 41.6657 65.3887 41.6657Z" fill="#BDD1F9"/>
<path d="M67.464 40.6464L59.7433 41.1293C59.738 41.1293 59.738 41.1293 59.738 41.124L59.7275 40.9141C59.7275 40.9088 59.7275 40.9088 59.7328 40.9088L67.4535 40.426C67.4588 40.426 67.4588 40.426 67.4588 40.4312L67.4693 40.6412C67.4693 40.6464 67.4693 40.6464 67.464 40.6464Z" fill="#BDD1F9"/>
<path d="M68.0393 42.4861L59.8252 43.0004C59.8199 43.0004 59.8199 42.9952 59.8147 42.9952L59.8042 42.7905C59.8042 42.7852 59.8094 42.7852 59.8094 42.78L68.0236 42.2656C68.0288 42.2656 68.0288 42.2709 68.0341 42.2709L68.0446 42.4756C68.0446 42.4808 68.0446 42.4861 68.0393 42.4861Z" fill="#BDD1F9"/>
<path d="M69.0092 43.305L59.8766 43.8771C59.8713 43.8771 59.8713 43.8771 59.8713 43.8719L59.8608 43.6672C59.8608 43.6619 59.8661 43.6619 59.8661 43.6619L68.9987 43.0898C69.004 43.0898 69.004 43.0951 69.004 43.0951L69.0145 43.2998C69.0197 43.2998 69.0145 43.305 69.0092 43.305Z" fill="#BDD1F9"/>
<path d="M65.902 45.0564L60.0236 45.4238C60.0183 45.4238 60.0183 45.4238 60.0183 45.4185L60.0078 45.2086C60.0078 45.2033 60.0078 45.2033 60.0131 45.2033L65.8915 44.8359C65.8968 44.8359 65.8968 44.8359 65.8968 44.8412L65.9073 45.0511C65.9073 45.0511 65.9073 45.0564 65.902 45.0564Z" fill="#BDD1F9"/>
<path d="M66.0109 46.8181L60.1324 47.1855C60.1272 47.1855 60.1272 47.1855 60.1272 47.1803L60.1167 46.9703C60.1167 46.9651 60.1167 46.9651 60.1219 46.9651L66.0004 46.5977C66.0057 46.5977 66.0057 46.5977 66.0057 46.6029L66.0162 46.8128C66.0214 46.8128 66.0162 46.8181 66.0109 46.8181Z" fill="#BDD1F9"/>
<path d="M68.2061 45.7947L60.0812 46.3038C60.0759 46.3038 60.0759 46.3038 60.0759 46.2985L60.0654 46.0886C60.0654 46.0833 60.0654 46.0833 60.0707 46.0833L68.1956 45.5742C68.2008 45.5742 68.2008 45.5742 68.2008 45.5795L68.2113 45.7894C68.2113 45.7947 68.2061 45.7947 68.2061 45.7947Z" fill="#BDD1F9"/>
<path d="M68.2424 29.9858L61.057 30.3847C60.5847 30.411 60.2173 30.7889 60.2435 31.2297L60.3065 32.3162C60.3117 32.4159 60.4062 32.4947 60.5164 32.4894L69.0245 32.017C69.1347 32.0118 69.2187 31.9226 69.2134 31.8228L69.1504 30.7364C69.1189 30.2955 68.7148 29.9596 68.2424 29.9858Z" fill="#FF8C64"/>
<path d="M81.227 38.7157C81.227 38.7157 81.0801 38.3798 80.9804 38.2223C80.8859 38.0649 80.4712 37.5977 80.3978 37.7027C80.3295 37.8077 80.0461 38.5162 80.1931 38.7157C80.34 38.9151 80.1826 39.2616 80.9279 39.4715L81.227 38.7157Z" fill="#FFB27D"/>
<path d="M89.4884 36.5938C89.4884 36.5938 85.6831 39.7692 84.1978 39.4752C83.0378 39.2443 81.2008 38.6617 81.2008 38.6617C81.2008 38.6617 80.7179 39.1236 80.8544 39.6747C80.8544 39.6747 83.19 41.8739 84.8591 41.8896C87.4624 41.9106 88.6906 40.5985 88.6906 40.5985L89.4884 36.5938Z" fill="#ED7D2B"/>
<path d="M96.164 70.1043C96.164 70.1043 96.0538 71.8888 95.7073 71.9098C95.6601 71.9151 93.9596 71.9151 93.9596 71.9151L91.7866 71.9046C91.7866 71.9046 91.8024 71.3797 92.4374 71.2695C93.0725 71.1593 94.138 70.7131 94.5212 69.8733C94.9253 68.9863 96.164 70.1043 96.164 70.1043Z" fill="#113C68"/>
<path d="M96.2903 70.2302C96.2903 70.2302 95.629 70.4506 95.1147 70.4506C94.5373 70.4506 94.0177 70.2932 94.0177 70.2932C94.0177 70.2932 93.8917 69.0912 93.2094 66.4407C92.8525 65.0498 92.3381 63.2652 91.6086 61.0451C89.5931 54.9094 88.979 51.3194 88.9213 50.9782C88.916 50.9624 88.916 50.9519 88.916 50.9519L88.9213 50.9467L95.1199 48.2227C95.1199 48.2227 94.3536 56.6782 95.3298 59.9271C95.4663 60.3785 95.5818 60.9086 95.6868 61.4807C96.3061 65.0078 96.2903 70.2302 96.2903 70.2302Z" fill="#2A4E96"/>
<path d="M93.2042 66.4368C92.8472 65.0459 92.3329 63.2613 91.6033 61.0412C89.5878 54.9055 88.9738 51.3154 88.916 50.9743C88.916 50.9638 88.916 50.9533 88.916 50.9428L95.1147 48.2188C95.1147 48.2188 94.3484 56.6743 95.3246 59.9232C95.4663 60.3798 93.2042 66.4368 93.2042 66.4368Z" fill="#233862"/>
<path d="M91.3212 70.1043C91.3212 70.1043 91.211 71.8888 90.8646 71.9098C90.8173 71.9151 89.1168 71.9151 89.1168 71.9151L86.9438 71.9046C86.9438 71.9046 86.9596 71.3797 87.5947 71.2695C88.2298 71.1593 89.2952 70.7131 89.6784 69.8733C90.0825 68.9863 91.3212 70.1043 91.3212 70.1043Z" fill="#15447C"/>
<path d="M87.8082 48.4297C87.8082 48.4297 87.7295 53.9093 88.6743 60.638C89.6243 67.3668 89.2989 70.222 89.2989 70.222C89.2989 70.222 89.9497 70.432 90.2121 70.453C90.8839 70.5054 91.5663 70.2955 91.5663 70.2955C91.5663 70.2955 92.9257 63.5667 92.532 60.1971C92.1436 56.8275 94.39 48.6396 94.39 48.6396L87.8082 48.4297Z" fill="#2A4E96"/>
<path d="M92.2007 35.6026L90.9882 36.3951L89.886 36.0855C89.6866 35.7968 89.6288 35.2457 89.6288 34.7628C89.6236 34.2852 89.6708 33.881 89.6708 33.881L91.3031 33.162L91.912 32.8943C91.912 32.9048 91.8647 33.3929 91.8595 33.4664C91.7493 34.7366 92.2007 35.6026 92.2007 35.6026Z" fill="#FFB27D"/>
<path d="M87.7777 49.9492C89.2841 51.4031 94.9841 51.1564 95.3358 49.5556C95.6874 47.9548 94.9526 35.9144 92.3808 35.1586C91.8454 35.0011 88.9902 35.9249 88.9902 35.9249C88.9902 35.9249 88.544 37.0953 88.2501 38.586C88.1924 38.8746 88.0244 41.9503 87.9037 44.8318C87.846 46.1755 87.7987 47.4824 87.7725 48.4324C87.7462 49.3352 87.7462 49.9178 87.7777 49.9492Z" fill="#F99746"/>
<path d="M91.7388 33.4858C91.4081 34.0474 90.2429 34.5355 89.6288 34.7612C89.6236 34.2836 89.6708 33.8795 89.6708 33.8795L91.3031 33.1604C91.6705 33.1552 91.8857 33.2339 91.7388 33.4858Z" fill="#FCA56B"/>
<path d="M89.0584 33.7827C89.0584 33.7827 91.688 34.6015 92.1761 32.9587C92.6643 31.3106 93.3308 30.3081 91.667 29.715C90.0084 29.1219 89.4941 29.652 89.2002 30.1611C88.9062 30.6703 88.3866 33.5255 89.0584 33.7827Z" fill="#FFB27D"/>
<path d="M89.3042 30.0044C89.3042 30.0044 89.4722 31.9202 89.8658 31.8362C90.2595 31.7522 90.7004 31.5738 90.6426 32.1511C90.5849 32.7285 91.0258 33.7205 91.5979 33.7152C92.8208 33.71 94.154 30.566 93.8181 29.9677C92.8523 28.2566 87.9081 27.905 89.3042 30.0044Z" fill="#163560"/>
<path d="M89.6931 35.1981C89.7246 35.1824 91.6508 34.3216 91.8765 34.3951C92.1022 34.4686 92.3804 35.1561 92.3804 35.1561L88.9897 35.9224C88.995 35.9224 89.2574 35.3766 89.6931 35.1981Z" fill="#ED7D2B"/>
<path d="M77.7092 44.5245L88.4951 54.6806C88.7051 54.88 88.9727 54.943 89.0882 54.8223L89.4504 54.4339C89.5658 54.3132 89.4871 54.0507 89.2719 53.8513L78.486 43.6952C78.276 43.4957 78.0083 43.4328 77.8929 43.5535L77.5307 43.9419C77.4205 44.0626 77.4992 44.325 77.7092 44.5245Z" fill="#1F4D84"/>
<path d="M83.7671 50.2238L88.5014 54.6799C88.7113 54.8794 88.979 54.9423 89.0945 54.8216L89.4566 54.4332C89.5721 54.3125 89.4933 54.0501 89.2782 53.8506L84.5439 49.3945L83.7671 50.2238Z" fill="#739AF0"/>
<path d="M78.2596 32.4267C75.0579 29.0255 69.7096 28.8628 66.3085 32.0645C66.2612 32.1065 66.2192 32.1485 66.1773 32.1905C62.9021 35.4026 62.7866 40.6565 65.9463 44.0156C69.148 47.4168 74.4963 47.5795 77.8974 44.3778C79.0102 43.3281 79.7765 42.0527 80.1911 40.688C81.0414 37.8852 80.4115 34.7151 78.2596 32.4267ZM77.4356 43.8949C75.4568 45.7582 72.759 46.3828 70.2974 45.8002C68.8646 45.459 67.5104 44.7137 66.4239 43.559C63.4742 40.4256 63.6264 35.4971 66.7598 32.5526C67.9145 31.4662 69.3107 30.8048 70.7593 30.5529C73.2524 30.1225 75.903 30.9098 77.7662 32.8885C80.7212 36.0167 80.569 40.9452 77.4356 43.8949Z" fill="#1F4D84"/>
<g opacity="0.5">
<path d="M66.4298 43.5578C67.5163 44.7125 68.8704 45.4579 70.3033 45.799C72.7649 46.3816 75.4627 45.757 77.4414 43.8938C80.5749 40.944 80.7218 36.0156 77.7773 32.8874C75.9141 30.9086 73.2635 30.1213 70.7704 30.5517C69.3166 30.8037 67.9204 31.4702 66.771 32.5515C63.6323 35.496 63.4801 40.4244 66.4298 43.5578Z" fill="#B3CFF9"/>
</g>
<path d="M87.771 48.4392C93.7177 44.2036 93.2191 38.5508 93.2191 38.5508C91.0461 39.7737 88.889 42.4873 87.9022 44.8334C87.8445 46.1823 87.7972 47.4892 87.771 48.4392Z" fill="#ED7D2B"/>
<path d="M81.9053 46.5061C81.4854 46.4116 81.2072 46.0914 81.1443 46.0389C81.1443 46.0389 80.9658 46.0494 81.1757 46.4326C81.1915 46.4641 81.2335 46.5481 81.2597 46.6058C81.2702 46.632 81.2545 46.6583 81.2282 46.6583C80.9868 46.6793 80.7454 46.5795 80.2782 46.6793C80.2152 46.695 80.1943 46.8472 80.1995 46.9102C80.2048 47.0204 80.1943 47.1464 80.3255 47.3144C80.399 47.4141 80.6089 47.5191 81.076 47.708C81.2545 47.7815 81.7636 47.7238 82.236 47.561L82.6191 47.3826L82.5037 46.674L82.4092 46.695C82.2517 46.7265 82.0628 46.5428 81.9053 46.5061Z" fill="#FFB27D"/>
<path d="M91.3789 35.9258C91.3789 35.9258 96.7221 36.944 89.8096 44.6753C88.7021 45.914 82.7292 47.5253 82.7292 47.5253C82.7292 47.5253 82.1256 47.0109 82.43 46.591C82.43 46.591 86.545 43.6046 87.4477 43.1322C87.8571 42.917 89.0276 38.3664 89.6889 37.2695C90.3502 36.1725 91.3789 35.9258 91.3789 35.9258Z" fill="#F99746"/>
<path d="M81.0784 38.8108C81.0784 38.8108 80.9052 38.4749 80.8685 38.3017C80.8317 38.1232 80.6165 37.6141 80.522 37.5196C80.4853 37.4829 80.3646 37.5301 80.3541 37.6876C80.3488 37.7558 80.3803 37.8765 80.4381 38.0235C80.5325 38.2649 80.5168 38.5851 80.5535 38.6953C80.6375 38.9682 81.0784 38.8108 81.0784 38.8108Z" fill="#FFB27D"/>
</svg>
