<svg width="130" height="107" viewBox="0 0 130 107" fill="none" xmlns="http://www.w3.org/2000/svg">
<path d="M124.234 106.827C117.222 106.827 11.9182 106.853 11.8605 106.67L11.85 106.649C11.85 106.649 11.8395 106.628 11.8395 106.617C11.8027 106.528 -8.436 98.3717 4.90078 80.138C11.8972 70.5802 -0.584045 55.947 14.2748 43.0354C37.563 22.8071 59.7857 47.7224 69.2018 43.0354C77.122 39.0936 89.8447 33.4514 102.756 38.511C106.304 39.9019 113.988 46.8826 107.606 58.6133C104.415 64.476 118.565 65.1584 123.74 71.3885C135.02 84.9614 128.433 106.827 124.234 106.827Z" fill="#EBF3FA"/>
<path d="M90.0291 102.001H20.1197C18.3865 102.001 17 100.596 17 98.8809V9.04934C17 7.3162 18.4048 5.92969 20.1197 5.92969H90.0291C91.7623 5.92969 93.1488 7.33444 93.1488 9.04934V98.8809C93.1488 100.614 91.7623 102.001 90.0291 102.001Z" fill="#045299"/>
<path d="M87.2559 11.7109L88.8978 11.7292L87.2559 65.639V11.7109Z" fill="#045299"/>
<path d="M18.5142 96.8011V11.0561C18.5142 8.62974 20.1196 6.58646 22.3271 5.92969H20.1197C18.3865 5.92969 17 7.33444 17 9.04934V98.8809C17 100.614 18.4048 102.001 20.1197 102.001H22.6738C20.2838 101.453 18.5142 99.337 18.5142 96.8011Z" fill="#045299"/>
<path d="M93.0213 73.209L93.149 70.5454V9.02797C93.149 8.04282 92.6929 7.16711 91.9814 6.60156L93.0213 73.209Z" fill="#045299"/>
<path d="M87.2202 94.7011H22.9115C22.8933 94.7011 22.875 94.6828 22.875 94.6646V11.7474C22.875 11.7292 22.8933 11.7109 22.9115 11.7109H87.2202C87.2384 11.7109 87.2567 11.7292 87.2567 11.7474V94.6646C87.2749 94.6828 87.2567 94.7011 87.2202 94.7011Z" fill="url(#paint0_linear_1990_218321)"/>
<path d="M87.2567 17.4785H22.8932C22.8932 17.4785 22.875 17.4785 22.875 17.4603V11.7136C22.875 11.7136 22.875 11.6953 22.8932 11.6953H87.2567C87.2567 11.6953 87.2749 11.6953 87.2749 11.7136L87.2567 17.4785C87.2749 17.4785 87.2567 17.4785 87.2567 17.4785Z" fill="#FF0000"/>
<path d="M47.9606 82.1729H77.5152C78.1902 82.1729 78.7376 81.5709 78.7376 80.8229C78.7376 80.0749 78.1902 79.4729 77.5152 79.4729H47.9606C47.2856 79.4729 46.7383 80.0749 46.7383 80.8229C46.7383 81.5709 47.2856 82.1729 47.9606 82.1729Z" fill="#80D3FB"/>
<path d="M64.0514 76.7548H77.5152C78.1902 76.7548 78.7375 76.1528 78.7375 75.4048C78.7375 74.6568 78.1902 74.0548 77.5152 74.0548H64.0514C63.3764 74.0548 62.8291 74.6568 62.8291 75.4048C62.8291 76.1528 63.3764 76.7548 64.0514 76.7548Z" fill="#80D3FB"/>
<path d="M78.5907 50.6448H41.392C41.3191 50.6448 41.2461 50.5901 41.2461 50.4988V48.8022C41.2461 48.7292 41.3008 48.6562 41.392 48.6562H78.5907C78.6637 48.6562 78.7367 48.711 78.7367 48.8022V50.4988C78.7367 50.5901 78.6637 50.6448 78.5907 50.6448Z" fill="#80D3FB"/>
<path d="M36.448 52.3806H30.7742C30.7012 52.3806 30.6465 52.3259 30.6465 52.2529V47.0535C30.6465 46.9805 30.7012 46.9258 30.7742 46.9258H36.448C36.5209 46.9258 36.5757 46.9805 36.5757 47.0535V52.2529C36.5574 52.3259 36.5027 52.3806 36.448 52.3806Z" fill="#80D3FB"/>
<path d="M78.5907 42.3792H41.392C41.3191 42.3792 41.2461 42.3245 41.2461 42.2332V40.5366C41.2461 40.4636 41.3008 40.3906 41.392 40.3906H78.5907C78.6637 40.3906 78.7367 40.4454 78.7367 40.5366V42.2332C78.7367 42.3245 78.6637 42.3792 78.5907 42.3792Z" fill="#80D3FB"/>
<path d="M36.448 44.1151H30.7742C30.7012 44.1151 30.6465 44.0604 30.6465 43.9874V38.788C30.6465 38.715 30.7012 38.6603 30.7742 38.6603H36.448C36.5209 38.6603 36.5757 38.715 36.5757 38.788V43.9874C36.5574 44.0604 36.5027 44.1151 36.448 44.1151Z" fill="#80D3FB"/>
<g clip-path="url(#clip0_1990_218321)">
<path d="M34.223 41.3363L35.7372 39.8221C35.809 39.7504 35.8494 39.653 35.8495 39.5515C35.8496 39.45 35.8094 39.3525 35.7376 39.2807C35.6659 39.2088 35.5686 39.1684 35.467 39.1683C35.3655 39.1682 35.2681 39.2085 35.1962 39.2802L33.682 40.7944L32.1678 39.2802C32.096 39.2083 31.9985 39.168 31.8969 39.168C31.7952 39.168 31.6978 39.2083 31.6259 39.2802C31.554 39.3521 31.5137 39.4495 31.5137 39.5512C31.5137 39.6528 31.554 39.7503 31.6259 39.8221L33.1401 41.3363L31.6259 42.8505C31.554 42.9224 31.5137 43.0198 31.5137 43.1215C31.5137 43.2231 31.554 43.3205 31.6259 43.3924C31.6978 43.4643 31.7952 43.5046 31.8969 43.5046C31.9985 43.5046 32.096 43.4643 32.1678 43.3924L33.682 41.8782L35.1962 43.3924C35.2681 43.4643 35.3655 43.5046 35.4672 43.5046C35.5688 43.5046 35.6663 43.4643 35.7381 43.3924C35.81 43.3205 35.8503 43.2231 35.8503 43.1215C35.8503 43.0198 35.81 42.9224 35.7381 42.8505L34.223 41.3363Z" fill="#E84A6B"/>
</g>
<g clip-path="url(#clip1_1990_218321)">
<path d="M34.223 49.4965L35.7372 47.9823C35.809 47.9105 35.8494 47.8132 35.8495 47.7117C35.8496 47.6101 35.8094 47.5127 35.7376 47.4408C35.6659 47.369 35.5686 47.3286 35.467 47.3285C35.3655 47.3284 35.2681 47.3686 35.1962 47.4404L33.682 48.9545L32.1678 47.4404C32.096 47.3685 31.9985 47.3281 31.8969 47.3281C31.7952 47.3281 31.6978 47.3685 31.6259 47.4404C31.554 47.5122 31.5137 47.6097 31.5137 47.7113C31.5137 47.8129 31.554 47.9104 31.6259 47.9823L33.1401 49.4965L31.6259 51.0106C31.554 51.0825 31.5137 51.18 31.5137 51.2816C31.5137 51.3832 31.554 51.4807 31.6259 51.5526C31.6978 51.6244 31.7952 51.6648 31.8969 51.6648C31.9985 51.6648 32.096 51.6244 32.1678 51.5526L33.682 50.0384L35.1962 51.5526C35.2681 51.6244 35.3655 51.6648 35.4672 51.6648C35.5688 51.6648 35.6663 51.6244 35.7381 51.5526C35.81 51.4807 35.8503 51.3832 35.8503 51.2816C35.8503 51.18 35.81 51.0825 35.7381 51.0106L34.223 49.4965Z" fill="#E84A6B"/>
</g>
<path d="M78.5907 58.5667H41.392C41.3191 58.5667 41.2461 58.5119 41.2461 58.4207V56.7241C41.2461 56.6511 41.3008 56.5781 41.392 56.5781H78.5907C78.6637 56.5781 78.7367 56.6328 78.7367 56.7241V58.4207C78.7367 58.5119 78.6637 58.5667 78.5907 58.5667Z" fill="#80D3FB"/>
<path d="M36.448 60.2986H30.7742C30.7012 60.2986 30.6465 60.2438 30.6465 60.1709V54.9714C30.6465 54.8985 30.7012 54.8438 30.7742 54.8438H36.448C36.5209 54.8438 36.5757 54.8985 36.5757 54.9714V60.1709C36.5574 60.2438 36.5027 60.2986 36.448 60.2986Z" fill="#80D3FB"/>
<g clip-path="url(#clip2_1990_218321)">
<path d="M34.223 57.6566L35.7372 56.1424C35.809 56.0707 35.8494 55.9734 35.8495 55.8718C35.8496 55.7703 35.8094 55.6729 35.7376 55.601C35.6659 55.5291 35.5686 55.4887 35.467 55.4886C35.3655 55.4885 35.2681 55.5288 35.1962 55.6005L33.682 57.1147L32.1678 55.6005C32.096 55.5287 31.9985 55.4883 31.8969 55.4883C31.7952 55.4883 31.6978 55.5287 31.6259 55.6005C31.554 55.6724 31.5137 55.7698 31.5137 55.8715C31.5137 55.9731 31.554 56.0706 31.6259 56.1424L33.1401 57.6566L31.6259 59.1708C31.554 59.2427 31.5137 59.3401 31.5137 59.4418C31.5137 59.5434 31.554 59.6409 31.6259 59.7127C31.6978 59.7846 31.7952 59.825 31.8969 59.825C31.9985 59.825 32.096 59.7846 32.1678 59.7127L33.682 58.1985L35.1962 59.7127C35.2681 59.7846 35.3655 59.825 35.4672 59.825C35.5688 59.825 35.6663 59.7846 35.7381 59.7127C35.81 59.6409 35.8503 59.5434 35.8503 59.4418C35.8503 59.3401 35.81 59.2427 35.7381 59.1708L34.223 57.6566Z" fill="#E84A6B"/>
</g>
<path d="M78.5907 66.4807H41.392C41.3191 66.4807 41.2461 66.426 41.2461 66.3348V64.6381C41.2461 64.5651 41.3008 64.4922 41.392 64.4922H78.5907C78.6637 64.4922 78.7367 64.5469 78.7367 64.6381V66.3348C78.7367 66.426 78.6637 66.4807 78.5907 66.4807Z" fill="#80D3FB"/>
<path d="M36.448 68.2165H30.7742C30.7012 68.2165 30.6465 68.1618 30.6465 68.0888V62.8894C30.6465 62.8164 30.7012 62.7617 30.7742 62.7617H36.448C36.5209 62.7617 36.5757 62.8164 36.5757 62.8894V68.0888C36.5574 68.1618 36.5027 68.2165 36.448 68.2165Z" fill="#80D3FB"/>
<g clip-path="url(#clip3_1990_218321)">
<path d="M34.223 65.2777L35.7372 63.7635C35.809 63.6918 35.8494 63.5944 35.8495 63.4929C35.8496 63.3914 35.8094 63.294 35.7376 63.2221C35.6659 63.1502 35.5686 63.1098 35.467 63.1097C35.3655 63.1096 35.2681 63.1499 35.1962 63.2216L33.682 64.7358L32.1678 63.2216C32.096 63.1497 31.9985 63.1094 31.8969 63.1094C31.7952 63.1094 31.6978 63.1497 31.6259 63.2216C31.554 63.2935 31.5137 63.3909 31.5137 63.4926C31.5137 63.5942 31.554 63.6917 31.6259 63.7635L33.1401 65.2777L31.6259 66.7919C31.554 66.8638 31.5137 66.9612 31.5137 67.0629C31.5137 67.1645 31.554 67.262 31.6259 67.3338C31.6978 67.4057 31.7952 67.4461 31.8969 67.4461C31.9985 67.4461 32.096 67.4057 32.1678 67.3338L33.682 65.8196L35.1962 67.3338C35.2681 67.4057 35.3655 67.4461 35.4672 67.4461C35.5688 67.4461 35.6663 67.4057 35.7381 67.3338C35.81 67.262 35.8503 67.1645 35.8503 67.0629C35.8503 66.9612 35.81 66.8638 35.7381 66.7919L34.223 65.2777Z" fill="#E84A6B"/>
</g>
<path d="M78.2079 33.3679H29.8259C29.7894 33.3679 29.7529 33.3315 29.7529 33.295V32.4558C29.7529 32.4193 29.7894 32.3828 29.8259 32.3828H78.2079C78.2444 32.3828 78.2809 32.4193 78.2809 32.4558V33.295C78.2809 33.3497 78.2627 33.3679 78.2079 33.3679Z" fill="#80D3FB"/>
<path d="M56.717 26.6562H29.7529V29.2651H56.717V26.6562Z" fill="#80D3FB"/>
<path d="M66.3667 4.43318H60.7476C60.8024 4.32372 60.8388 4.21426 60.8388 4.08655V1.14933C60.8388 0.510808 60.328 0 59.6895 0H51.6988C51.0603 0 50.5495 0.510808 50.5495 1.14933V4.08655C50.5495 4.21426 50.586 4.32372 50.6407 4.43318H45.0216C44.2372 4.43318 43.5986 5.07172 43.5986 5.85619V10.1799C43.5986 11.4387 44.6203 12.4786 45.8973 12.4786H65.5275C66.7863 12.4786 67.8262 11.457 67.8262 10.1799V5.85619C67.8079 5.07172 67.1694 4.43318 66.3667 4.43318Z" fill="black"/>
<path d="M66.3663 4.43318H60.7473C60.802 4.32372 60.8385 4.21426 60.8385 4.08655V1.14933C60.8385 0.510808 60.3277 0 59.6892 0H58.0107C58.7222 0.474334 59.525 1.22232 59.5797 2.20747C59.6709 4.01359 58.9777 6.1116 59.7804 6.42174C60.5831 6.71364 66.0015 5.41835 65.892 8.02719C65.8373 9.59614 65.6548 11.3475 65.5454 12.4786C66.7859 12.4604 67.8076 11.4387 67.8076 10.1799V5.85619C67.8076 5.07172 67.169 4.43318 66.3663 4.43318Z" fill="black"/>
<path d="M48.0591 73.0991L44.4444 72.0978L43.8844 72.6578L46.1924 74.9658L45.0044 76.1538L39.0817 70.2311L41.3049 68.0079C41.7631 67.5497 42.2354 67.2414 42.7219 67.083C43.2027 66.919 43.6609 66.8963 44.0965 67.0151C44.5321 67.1226 44.9196 67.3461 45.259 67.6855C45.6493 68.0758 45.8897 68.5425 45.9802 69.0855C46.0651 69.6229 45.9435 70.1745 45.6154 70.7402L49.4338 71.7245L48.0591 73.0991ZM42.9934 71.7669L43.9862 70.7741C44.3086 70.4517 44.4727 70.1349 44.4783 69.8238C44.4783 69.507 44.3398 69.21 44.0626 68.9328C43.791 68.6613 43.5025 68.5312 43.1971 68.5425C42.8859 68.5481 42.5692 68.7122 42.2467 69.0346L41.2539 70.0274L42.9934 71.7669ZM46.7492 64.4812L48.2341 65.9661L50.2282 63.9721L51.1701 64.914L49.176 66.908L50.7458 68.4778L52.9944 66.2292L53.9617 67.1965L50.5252 70.633L44.594 64.7018L48.0305 61.2653L48.9978 62.2326L46.7492 64.4812ZM53.2339 56.0789L54.1927 57.0377L52.6145 58.616L57.5784 63.5799L56.3904 64.7678L51.4265 59.8039L49.8483 61.3822L48.8894 60.4233L53.2339 56.0789ZM55.3565 53.9563L59.0221 57.6219C59.4238 58.0236 59.8367 58.2272 60.261 58.2329C60.6796 58.2329 61.0784 58.0434 61.4574 57.6644C61.8421 57.2797 62.0344 56.878 62.0344 56.4594C62.0287 56.0352 61.8251 55.6222 61.4235 55.2206L57.7578 51.5549L58.9542 50.3585L62.6114 54.0157C63.1149 54.5191 63.4316 55.0565 63.5617 55.6279C63.6919 56.1879 63.6607 56.7395 63.4684 57.2825C63.2817 57.8199 62.9649 58.3121 62.5181 58.759C62.0768 59.2002 61.5875 59.5141 61.0501 59.7008C60.5184 59.8818 59.9753 59.9045 59.4209 59.7687C58.8609 59.6273 58.3292 59.3048 57.8257 58.8014L54.1685 55.1442L55.3565 53.9563ZM69.1643 51.9939L65.5496 50.9927L64.9895 51.5527L67.2975 53.8607L66.1096 55.0486L60.1869 49.1259L62.41 46.9028C62.8682 46.4446 63.3406 46.1363 63.827 45.9779C64.3079 45.8138 64.7661 45.7912 65.2017 45.91C65.6372 46.0175 66.0247 46.2409 66.3641 46.5803C66.7545 46.9706 66.9949 47.4373 67.0854 47.9804C67.1702 48.5178 67.0486 49.0693 66.7205 49.635L70.5389 50.6193L69.1643 51.9939ZM64.0986 50.6617L65.0913 49.669C65.4138 49.3465 65.5778 49.0297 65.5835 48.7186C65.5835 48.4018 65.4449 48.1048 65.1677 47.8277C64.8962 47.5561 64.6077 47.426 64.3022 47.4373C63.9911 47.443 63.6743 47.607 63.3519 47.9295L62.3591 48.9223L64.0986 50.6617ZM76.696 44.4622L75.5081 45.6501L68.7538 44.2755L72.8183 48.34L71.6303 49.5279L65.6991 43.5967L66.887 42.4087L73.6498 43.7918L69.5769 39.7189L70.7648 38.531L76.696 44.4622Z" fill="#FF0000"/>
<defs>
<linearGradient id="paint0_linear_1990_218321" x1="55.0736" y1="11.7027" x2="55.0736" y2="94.7058" gradientUnits="userSpaceOnUse">
<stop stop-color="#FDFDFD"/>
<stop offset="0.4791" stop-color="#FBFDFD"/>
<stop offset="0.6517" stop-color="#F4FBFD"/>
<stop offset="0.7747" stop-color="#E9F8FE"/>
<stop offset="0.8741" stop-color="#D8F4FE"/>
<stop offset="0.9583" stop-color="#C2EFFF"/>
<stop offset="1" stop-color="#B4ECFF"/>
</linearGradient>
<clipPath id="clip0_1990_218321">
<rect width="4.8964" height="4.8964" fill="white" transform="translate(31.2344 38.8906)"/>
</clipPath>
<clipPath id="clip1_1990_218321">
<rect width="4.8964" height="4.8964" fill="white" transform="translate(31.2344 47.0469)"/>
</clipPath>
<clipPath id="clip2_1990_218321">
<rect width="4.8964" height="4.8964" fill="white" transform="translate(31.2344 55.2109)"/>
</clipPath>
<clipPath id="clip3_1990_218321">
<rect width="4.8964" height="4.8964" fill="white" transform="translate(31.2344 62.8281)"/>
</clipPath>
</defs>
</svg>
