<svg width="21" height="21" viewBox="0 0 21 21" fill="none" xmlns="http://www.w3.org/2000/svg">
<path d="M20.7104 19.2914L17.0004 15.6114C18.4405 13.8158 19.1379 11.5367 18.9492 9.24267C18.7605 6.94867 17.7001 4.81415 15.9859 3.27801C14.2718 1.74188 12.0342 0.920879 9.73332 0.98384C7.43243 1.0468 5.24311 1.98893 3.61553 3.61651C1.98795 5.24409 1.04582 7.43341 0.982863 9.73429C0.919903 12.0352 1.7409 14.2727 3.27704 15.9869C4.81318 17.701 6.94769 18.7615 9.24169 18.9502C11.5357 19.1389 13.8148 18.4415 15.6104 17.0014L19.2904 20.6814C19.3834 20.7751 19.494 20.8495 19.6158 20.9003C19.7377 20.951 19.8684 20.9772 20.0004 20.9772C20.1324 20.9772 20.2631 20.951 20.385 20.9003C20.5068 20.8495 20.6174 20.7751 20.7104 20.6814C20.8906 20.4949 20.9914 20.2457 20.9914 19.9864C20.9914 19.727 20.8906 19.4778 20.7104 19.2914ZM10.0004 17.0014C8.61592 17.0014 7.26255 16.5908 6.1114 15.8217C4.96026 15.0525 4.06305 13.9592 3.53324 12.6802C3.00342 11.4011 2.8648 9.9936 3.1349 8.63574C3.40499 7.27787 4.07168 6.03059 5.05065 5.05162C6.02961 4.07265 7.27689 3.40597 8.63476 3.13587C9.99263 2.86578 11.4001 3.0044 12.6792 3.53421C13.9583 4.06403 15.0515 4.96123 15.8207 6.11238C16.5899 7.26352 17.0004 8.6169 17.0004 10.0014C17.0004 11.8579 16.2629 13.6384 14.9501 14.9511C13.6374 16.2639 11.8569 17.0014 10.0004 17.0014Z" fill="#C0C0C0"/>
</svg>
