<svg width="168" height="133" viewBox="0 0 168 133" fill="none" xmlns="http://www.w3.org/2000/svg">
<path d="M156.941 124.05C156.923 124.157 156.679 124.211 156.387 124.163L15.9909 103.047C15.7048 103.006 15.4782 102.881 15.4961 102.773L15.5975 102.1C15.6153 101.992 15.8598 101.939 16.1519 101.986L156.542 123.102C156.828 123.144 157.054 123.269 157.036 123.376L156.941 124.05Z" fill="#15878A"/>
<path d="M140.088 129.653C140.07 129.76 139.956 129.832 139.831 129.814L78.4148 120.58C78.2896 120.562 78.2002 120.46 78.2181 120.353L78.3194 119.679C78.3373 119.572 78.4506 119.5 78.5758 119.518L139.992 128.753C140.117 128.771 140.207 128.872 140.189 128.979L140.088 129.653Z" fill="#15878A"/>
<path d="M59.6302 118.679C59.6123 118.786 59.505 118.857 59.3798 118.84L0.193051 109.939C0.0738189 109.921 -0.0156021 109.82 0.00228267 109.712L0.103627 109.039C0.121512 108.931 0.228818 108.86 0.354011 108.878L59.5408 117.778C59.66 117.796 59.7494 117.898 59.7315 118.005L59.6302 118.679Z" fill="#15878A"/>
<path d="M64.6735 131.059C64.6556 131.167 64.5424 131.238 64.4172 131.22L3.00076 121.986C2.87556 121.968 2.78615 121.867 2.80404 121.759L2.90538 121.086C2.92327 120.978 3.03654 120.907 3.16173 120.925L64.5781 130.159C64.7033 130.177 64.7927 130.278 64.7749 130.386L64.6735 131.059Z" fill="#15878A"/>
<path d="M91.614 132.813C91.5961 132.92 91.5485 133.004 91.5067 132.998L70.0986 129.778C70.0569 129.772 70.033 129.677 70.0509 129.57L70.1523 128.896C70.1702 128.789 70.2179 128.705 70.2596 128.711L91.6677 131.931C91.7094 131.936 91.7333 132.032 91.7154 132.139L91.614 132.813Z" fill="#15878A"/>
<path d="M167.308 68.0952C166.211 63.5763 163.028 59.4151 159.582 56.5654C154.282 52.1836 148.303 47.7244 145.698 41.107C142.514 33.029 145.984 24.0687 143.051 15.9133C138.079 2.10025 114.876 -0.499005 104.276 7.418C97.9512 12.1455 93.0686 20.146 85.1397 22.3399C76.7636 24.6589 68.5724 19.83 61.0906 16.8075C56.8102 15.0787 51.5103 13.7552 46.8543 14.5361C38.1086 16.0027 30.8951 24.9093 30.4301 33.5835C29.8995 43.4141 36.4155 52.1777 36.1413 62.056C35.9088 70.6646 29.2437 75.3027 25.9529 82.6176C18.173 99.9003 39.1877 104.735 50.7711 109.826C55.5642 111.931 60.3812 114.274 65.6572 114.298H84.7164C88.4126 114.28 91.1072 113.534 94.4755 112.67C96.8781 112.056 99.7993 112.342 102.399 112.336C116.033 112.306 130.299 118.936 141.817 107.805C147.826 101.999 148.029 93.1637 153.43 87.2021C157.549 82.6534 164.93 81.6399 167.076 75.3087C167.881 72.8883 167.875 70.444 167.308 68.0952Z" fill="#8EDDE1"/>
<path d="M136.815 110.907L54.2352 101.005C52.6375 100.802 50.4913 101.071 49.454 101.607L16.1346 117.185C15.2403 117.614 16.0869 119.313 17.8396 119.57L109.034 132.685C111.043 132.977 113.416 132.518 114.4 131.749C121.094 126.521 136.75 114.371 136.75 114.371C137.507 113.763 137.668 110.961 136.815 110.907Z" fill="#15878A"/>
<path d="M136.929 111.774L113.44 130.78C112.48 131.555 110.054 131.954 108.062 131.668L17.3687 118.595C15.6279 118.344 15.2702 117.593 16.5698 116.925L38.1448 105.884L48.6373 100.513C49.5076 100.066 51.165 99.8095 52.6077 99.8572C52.876 99.8692 53.1383 99.887 53.3887 99.9168L68.1436 101.783L135.027 110.248L135.057 110.254C136.827 110.487 137.68 111.166 136.929 111.774Z" fill="#222221"/>
<path d="M109.415 131.586C108.95 131.586 108.503 131.556 108.086 131.497L17.3921 118.423C16.3905 118.28 15.9971 117.982 15.9613 117.779C15.9255 117.582 16.1819 117.32 16.6409 117.087L38.216 106.046L48.7084 100.675C49.4595 100.294 50.8784 100.031 52.2376 100.031C52.3569 100.031 52.4761 100.031 52.5894 100.037C52.8517 100.043 53.114 100.067 53.3525 100.097L134.997 110.428L135.026 110.434C136.284 110.595 136.934 110.959 137.018 111.257C137.053 111.376 136.982 111.507 136.815 111.638L113.326 130.644C112.629 131.204 111.061 131.586 109.415 131.586Z" fill="white"/>
<path d="M76.6684 125.991C76.0662 126.086 75.4939 126.098 75.017 126.027L50.0916 122.45C49.6027 122.378 49.251 122.223 49.1079 122.003C48.8992 121.681 49.1437 121.281 49.7875 120.9L58.6465 115.695C59.2188 115.361 60.0713 115.087 60.9417 114.968C61.514 114.884 62.0505 114.878 62.4976 114.938L86.4811 118.217C86.97 118.282 87.3396 118.437 87.5304 118.64C87.8106 118.95 87.6556 119.338 87.1071 119.707L79.0172 125.162C78.4509 125.538 77.5745 125.848 76.6684 125.991Z" fill="#15878A"/>
<path d="M42.4072 110.182C42.0912 110.349 41.2506 110.415 40.5471 110.319L37.7094 109.938C37.006 109.843 36.696 109.628 37.0179 109.461L38.0075 108.942C38.3235 108.775 39.1581 108.716 39.8556 108.811L42.6754 109.193C43.3789 109.288 43.6949 109.503 43.3849 109.67L42.4072 110.182Z" fill="#15878A"/>
<path d="M46.9375 110.792C46.6275 110.965 45.8704 111.037 45.2564 110.953L43.3665 110.697C42.7584 110.614 42.52 110.411 42.836 110.238L43.8136 109.713C44.1296 109.546 44.8748 109.475 45.4829 109.558L47.3608 109.809C47.9689 109.892 48.2133 110.095 47.9033 110.262L46.9375 110.792Z" fill="#15878A"/>
<path d="M51.5282 111.412C51.2182 111.585 50.4373 111.651 49.7874 111.567L47.7844 111.293C47.1405 111.203 46.8663 110.995 47.1822 110.822L48.148 110.297C48.458 110.13 49.233 110.059 49.8769 110.148L51.8681 110.416C52.5119 110.506 52.7921 110.715 52.4821 110.881L51.5282 111.412Z" fill="#15878A"/>
<path d="M88.5681 116.424C88.2938 116.609 87.6559 116.699 87.1552 116.633L52.2262 111.899C51.7492 111.834 51.6062 111.643 51.9162 111.47L52.87 110.94C53.1741 110.767 53.812 110.683 54.2889 110.749L88.9973 115.417C89.4981 115.482 89.6889 115.685 89.4146 115.87L88.5681 116.424Z" fill="#15878A"/>
<path d="M92.9969 117.019C92.7287 117.204 92.0908 117.299 91.584 117.228L89.3127 116.918C88.8059 116.852 88.6211 116.644 88.8953 116.459L89.7419 115.898C90.0161 115.72 90.6481 115.624 91.1488 115.696L93.4083 116C93.909 116.065 94.1058 116.274 93.8375 116.453L92.9969 117.019Z" fill="#15878A"/>
<path d="M97.4508 117.622C97.1825 117.807 96.5506 117.903 96.0379 117.831L93.7487 117.521C93.2419 117.45 93.0452 117.247 93.3135 117.062L94.1481 116.496C94.4164 116.311 95.0483 116.221 95.5491 116.287L97.8204 116.591C98.3272 116.657 98.5299 116.865 98.2616 117.05L97.4508 117.622Z" fill="#15878A"/>
<path d="M101.97 118.238C101.707 118.423 101.075 118.518 100.557 118.452L98.2555 118.142C97.7428 118.071 97.5461 117.862 97.8084 117.677L98.6251 117.105C98.8874 116.92 99.5194 116.831 100.026 116.896L102.315 117.206C102.828 117.278 103.031 117.481 102.774 117.665L101.97 118.238Z" fill="#15878A"/>
<path d="M106.482 118.84C106.226 119.025 105.594 119.126 105.075 119.055L102.756 118.739C102.243 118.667 102.035 118.458 102.297 118.274L103.102 117.701C103.358 117.516 103.99 117.421 104.503 117.493L106.804 117.803C107.317 117.874 107.531 118.077 107.275 118.268L106.482 118.84Z" fill="#15878A"/>
<path d="M47.6771 109.304C47.3671 109.471 46.7292 109.554 46.2582 109.495L39.6587 108.607C39.1937 108.547 39.0745 108.356 39.3905 108.195L40.3681 107.688C40.6841 107.527 41.316 107.444 41.7751 107.504L48.3388 108.38C48.8038 108.44 48.9409 108.63 48.6309 108.797L47.6771 109.304Z" fill="#15878A"/>
<path d="M51.8617 109.868C51.5576 110.035 50.9197 110.125 50.4488 110.059L48.3801 109.779C47.9091 109.713 47.778 109.528 48.088 109.361L49.0418 108.843C49.3459 108.676 49.9778 108.592 50.4488 108.652L52.5055 108.926C52.9765 108.992 53.1136 109.177 52.8096 109.344L51.8617 109.868Z" fill="#15878A"/>
<path d="M55.4336 110.345C55.1295 110.512 54.4976 110.602 54.0207 110.536L52.5481 110.339C52.0712 110.274 51.9341 110.083 52.2441 109.916L53.186 109.397C53.4901 109.231 54.122 109.147 54.593 109.207L56.0536 109.403C56.5245 109.469 56.6676 109.654 56.3695 109.821L55.4336 110.345Z" fill="#15878A"/>
<path d="M59.0283 110.822C58.7302 110.995 58.0923 111.079 57.6154 111.013L56.1369 110.817C55.66 110.751 55.5169 110.56 55.821 110.393L56.751 109.869C57.0491 109.702 57.681 109.612 58.1579 109.678L59.6304 109.875C60.1074 109.94 60.2504 110.125 59.9583 110.298L59.0283 110.822Z" fill="#15878A"/>
<path d="M62.6349 111.305C62.3368 111.478 61.7048 111.561 61.222 111.502L59.7375 111.299C59.2606 111.233 59.1116 111.043 59.4096 110.87L60.3337 110.345C60.6318 110.178 61.2577 110.089 61.7347 110.154L63.2131 110.351C63.6901 110.417 63.8451 110.607 63.547 110.774L62.6349 111.305Z" fill="#15878A"/>
<path d="M66.2655 111.795C65.9734 111.968 65.3355 112.058 64.8526 111.992L63.3562 111.789C62.8733 111.724 62.7243 111.533 63.0164 111.36L63.9285 110.83C64.2206 110.663 64.8526 110.573 65.3295 110.639L66.8139 110.836C67.2968 110.901 67.4518 111.092 67.1597 111.265L66.2655 111.795Z" fill="#15878A"/>
<path d="M69.9131 112.289C69.627 112.462 68.9891 112.551 68.5062 112.486L67.0039 112.283C66.521 112.218 66.366 112.021 66.6521 111.848L67.5523 111.317C67.8444 111.145 68.4704 111.061 68.9533 111.121L70.4497 111.317C70.9326 111.383 71.0935 111.574 70.8074 111.747L69.9131 112.289Z" fill="#15878A"/>
<path d="M73.5798 112.774C73.2937 112.947 72.6617 113.036 72.1729 112.971L70.6646 112.768C70.1757 112.703 70.0148 112.506 70.3069 112.333L71.1952 111.796C71.4813 111.624 72.1073 111.534 72.5962 111.6L74.0985 111.802C74.5814 111.868 74.7483 112.059 74.4681 112.232L73.5798 112.774Z" fill="#15878A"/>
<path d="M77.2707 113.266C76.9905 113.439 76.3527 113.529 75.8638 113.463L74.3436 113.26C73.8548 113.195 73.6878 112.998 73.974 112.825L74.8563 112.289C75.1365 112.116 75.7684 112.026 76.2513 112.092L77.7596 112.295C78.2484 112.36 78.4213 112.557 78.1411 112.73L77.2707 113.266Z" fill="#15878A"/>
<path d="M80.9786 113.772C80.6984 113.951 80.0665 114.041 79.5716 113.975L78.0455 113.772C77.5507 113.707 77.3837 113.51 77.6639 113.331L78.5343 112.789C78.8145 112.616 79.4405 112.526 79.9293 112.592L81.4495 112.795C81.9384 112.86 82.1172 113.057 81.8371 113.23L80.9786 113.772Z" fill="#15878A"/>
<path d="M84.7054 114.27C84.4312 114.449 83.7993 114.539 83.3044 114.473L81.7664 114.264C81.2716 114.199 81.0927 113.996 81.3729 113.823L82.2314 113.281C82.5056 113.108 83.1316 113.018 83.6264 113.084L85.1525 113.287C85.6474 113.352 85.8262 113.549 85.552 113.728L84.7054 114.27Z" fill="#15878A"/>
<path d="M88.4541 114.773C88.1799 114.951 87.5539 115.041 87.0532 114.975L85.5091 114.767C85.0143 114.701 84.8295 114.498 85.1037 114.32L85.9503 113.771C86.2245 113.592 86.8505 113.503 87.3453 113.568L88.8774 113.771C89.3722 113.837 89.557 114.033 89.2888 114.212L88.4541 114.773Z" fill="#15878A"/>
<path d="M92.2227 115.28C91.9544 115.459 91.3225 115.555 90.8217 115.483L89.2717 115.274C88.7709 115.209 88.5861 115.006 88.8544 114.827L89.689 114.279C89.9573 114.1 90.5833 114.011 91.0781 114.076L92.6221 114.279C93.1229 114.344 93.3137 114.547 93.0454 114.72L92.2227 115.28Z" fill="#15878A"/>
<path d="M96.0078 115.788C95.7455 115.967 95.1136 116.062 94.6068 115.997L93.0449 115.788C92.5441 115.723 92.3534 115.52 92.6157 115.341L93.4443 114.787C93.7066 114.608 94.3326 114.518 94.8334 114.584L96.3834 114.793C96.8842 114.858 97.0809 115.061 96.8186 115.24L96.0078 115.788Z" fill="#15878A"/>
<path d="M99.817 116.292C99.5547 116.471 98.9288 116.567 98.422 116.501L96.8541 116.292C96.3474 116.227 96.1507 116.018 96.4189 115.839L97.2357 115.279C97.498 115.1 98.1239 115.011 98.6247 115.076L100.187 115.285C100.693 115.35 100.89 115.553 100.634 115.732L99.817 116.292Z" fill="#15878A"/>
<path d="M108.319 117.433C108.068 117.617 107.436 117.713 106.924 117.641L100.646 116.795C100.139 116.729 99.9366 116.521 100.199 116.342L101.004 115.781C101.26 115.602 101.886 115.507 102.393 115.579L108.629 116.407C109.141 116.473 109.35 116.681 109.1 116.86L108.319 117.433Z" fill="#15878A"/>
<path d="M48.6671 107.883C48.363 108.05 47.7311 108.133 47.2661 108.067L42.0557 107.376C41.5907 107.316 41.4714 107.131 41.7814 106.97L42.7413 106.47C43.0513 106.309 43.6772 106.225 44.1363 106.285L49.3169 106.97C49.7819 107.03 49.9131 107.215 49.609 107.376L48.6671 107.883Z" fill="#15878A"/>
<path d="M52.1843 108.347C51.8802 108.514 51.2543 108.597 50.7833 108.532L49.3347 108.341C48.8696 108.281 48.7325 108.091 49.0425 107.93L49.9845 107.423C50.2885 107.262 50.9145 107.178 51.3795 107.238L52.8222 107.429C53.2872 107.488 53.4243 107.673 53.1262 107.84L52.1843 108.347Z" fill="#15878A"/>
<path d="M55.7249 108.814C55.4268 108.981 54.7949 109.064 54.3239 109.005L52.8634 108.808C52.3924 108.748 52.2553 108.557 52.5593 108.396L53.4893 107.884C53.7874 107.723 54.4134 107.639 54.8784 107.699L56.327 107.89C56.798 107.949 56.9351 108.134 56.643 108.301L55.7249 108.814Z" fill="#15878A"/>
<path d="M59.2845 109.284C58.9865 109.451 58.3605 109.534 57.8836 109.475L56.417 109.278C55.946 109.212 55.803 109.027 56.101 108.861L57.0251 108.348C57.3232 108.181 57.9491 108.097 58.4141 108.163L59.8688 108.354C60.3397 108.413 60.4828 108.604 60.1907 108.765L59.2845 109.284Z" fill="#15878A"/>
<path d="M62.8553 109.766C62.5632 109.933 61.9313 110.023 61.4603 109.957L59.9878 109.76C59.5109 109.695 59.3678 109.51 59.6599 109.343L60.5721 108.824C60.8642 108.657 61.4901 108.574 61.9611 108.64L63.4277 108.83C63.8986 108.89 64.0536 109.081 63.7615 109.248L62.8553 109.766Z" fill="#15878A"/>
<path d="M66.4506 110.244C66.1584 110.411 65.5325 110.5 65.0556 110.435L63.5771 110.238C63.1001 110.172 62.9511 109.981 63.2432 109.815L64.1434 109.296C64.4355 109.129 65.0556 109.046 65.5325 109.105L67.005 109.302C67.4819 109.367 67.6369 109.552 67.3508 109.719L66.4506 110.244Z" fill="#15878A"/>
<path d="M70.0632 110.726C69.7771 110.899 69.1511 110.983 68.6682 110.917L67.1778 110.72C66.7009 110.655 66.5459 110.464 66.8321 110.297L67.7263 109.772C68.0124 109.606 68.6384 109.522 69.1153 109.582L70.5938 109.778C71.0707 109.844 71.2317 110.029 70.9456 110.202L70.0632 110.726Z" fill="#15878A"/>
<path d="M73.6994 111.207C73.4192 111.38 72.7873 111.463 72.3044 111.404L70.8081 111.207C70.3252 111.142 70.1642 110.951 70.4504 110.784L71.3327 110.259C71.6129 110.092 72.2388 110.003 72.7158 110.068L74.2062 110.265C74.6891 110.331 74.85 110.522 74.5698 110.688L73.6994 111.207Z" fill="#15878A"/>
<path d="M77.3483 111.686C77.0681 111.859 76.4421 111.948 75.9533 111.883L74.451 111.68C73.9681 111.614 73.8012 111.424 74.0813 111.251L74.9517 110.72C75.2319 110.553 75.8519 110.464 76.3348 110.529L77.8312 110.726C78.3141 110.792 78.481 110.982 78.2068 111.149L77.3483 111.686Z" fill="#15878A"/>
<path d="M81.0211 112.179C80.7469 112.352 80.1209 112.441 79.6321 112.376L78.1178 112.173C77.629 112.107 77.4621 111.917 77.7423 111.744L78.6007 111.213C78.875 111.04 79.5009 110.957 79.9838 111.022L81.4861 111.219C81.969 111.285 82.1479 111.475 81.8736 111.648L81.0211 112.179Z" fill="#15878A"/>
<path d="M84.7112 112.67C84.4369 112.843 83.811 112.932 83.3221 112.867L81.8019 112.664C81.313 112.599 81.1402 112.402 81.4144 112.229L82.2669 111.692C82.5411 111.52 83.1611 111.436 83.65 111.496L85.1583 111.698C85.6471 111.764 85.826 111.955 85.5577 112.128L84.7112 112.67Z" fill="#15878A"/>
<path d="M88.4188 113.165C88.1505 113.338 87.5246 113.427 87.0297 113.361L85.5036 113.159C85.0088 113.093 84.8299 112.896 85.1042 112.724L85.9447 112.187C86.213 112.014 86.833 111.925 87.3219 111.99L88.8421 112.193C89.3309 112.259 89.5157 112.455 89.2475 112.628L88.4188 113.165Z" fill="#15878A"/>
<path d="M92.1501 113.655C91.8818 113.834 91.2618 113.923 90.7611 113.858L89.223 113.655C88.7281 113.589 88.5433 113.393 88.8116 113.214L89.6403 112.671C89.9085 112.499 90.5286 112.409 91.0174 112.475L92.5436 112.677C93.0384 112.743 93.2232 112.94 92.9609 113.113L92.1501 113.655Z" fill="#15878A"/>
<path d="M95.9008 114.155C95.6385 114.334 95.0126 114.423 94.5177 114.358L92.9737 114.155C92.4789 114.089 92.2881 113.893 92.5504 113.714L93.3672 113.171C93.6295 112.999 94.2495 112.909 94.7443 112.975L96.2824 113.177C96.7772 113.243 96.9739 113.44 96.7116 113.613L95.9008 114.155Z" fill="#15878A"/>
<path d="M99.6683 114.659C99.412 114.838 98.786 114.927 98.2852 114.862L96.7293 114.653C96.2285 114.588 96.0317 114.385 96.2941 114.212L97.0989 113.664C97.3612 113.491 97.9752 113.401 98.476 113.467L100.02 113.67C100.521 113.735 100.718 113.932 100.461 114.111L99.6683 114.659Z" fill="#15878A"/>
<path d="M112.032 119.556C111.782 119.747 111.15 119.842 110.626 119.771L109.016 119.55C108.497 119.479 108.283 119.27 108.539 119.079L109.326 118.501C109.576 118.316 110.208 118.221 110.721 118.286L112.325 118.501C112.843 118.572 113.064 118.781 112.813 118.966L112.032 119.556Z" fill="#15878A"/>
<path d="M115.973 120.088C115.723 120.279 115.091 120.374 114.572 120.303L112.951 120.082C112.426 120.01 112.205 119.796 112.456 119.611L113.231 119.027C113.481 118.842 114.107 118.741 114.626 118.812L116.235 119.027C116.754 119.098 116.981 119.307 116.736 119.498L115.973 120.088Z" fill="#15878A"/>
<path d="M119.926 120.626C119.681 120.817 119.049 120.918 118.525 120.846L116.897 120.626C116.373 120.554 116.146 120.34 116.39 120.149L117.153 119.559C117.398 119.368 118.024 119.273 118.549 119.344L120.17 119.565C120.695 119.636 120.921 119.845 120.683 120.036L119.926 120.626Z" fill="#15878A"/>
<path d="M117.499 115.421C117.261 115.6 116.647 115.695 116.14 115.624L114.56 115.415C114.054 115.349 113.833 115.147 114.077 114.968L114.823 114.419C115.061 114.241 115.669 114.151 116.176 114.217L117.744 114.419C118.251 114.485 118.471 114.688 118.233 114.861L117.499 115.421Z" fill="#15878A"/>
<path d="M121.35 115.935C121.118 116.114 120.504 116.209 119.991 116.137L118.405 115.929C117.893 115.863 117.672 115.661 117.911 115.482L118.644 114.927C118.882 114.748 119.49 114.659 119.997 114.725L121.571 114.933C122.078 114.999 122.304 115.202 122.072 115.38L121.35 115.935Z" fill="#15878A"/>
<path d="M125.22 116.443C124.987 116.621 124.379 116.717 123.861 116.651L122.269 116.443C121.756 116.377 121.53 116.168 121.762 115.99L122.484 115.435C122.716 115.256 123.324 115.167 123.831 115.232L125.417 115.441C125.929 115.507 126.162 115.709 125.929 115.888L125.22 116.443Z" fill="#15878A"/>
<path d="M119.282 114.085C119.049 114.264 118.441 114.353 117.934 114.287L116.366 114.085C115.86 114.019 115.645 113.822 115.883 113.644L116.617 113.101C116.855 112.928 117.457 112.839 117.958 112.904L119.514 113.107C120.015 113.173 120.235 113.369 120.003 113.542L119.282 114.085Z" fill="#15878A"/>
<path d="M123.103 114.583C122.871 114.762 122.269 114.851 121.756 114.786L120.182 114.577C119.675 114.511 119.455 114.309 119.687 114.136L120.409 113.593C120.641 113.42 121.243 113.331 121.744 113.397L123.306 113.599C123.813 113.665 124.039 113.862 123.807 114.04L123.103 114.583Z" fill="#15878A"/>
<path d="M126.948 115.085C126.721 115.264 126.113 115.353 125.607 115.288L124.027 115.079C123.514 115.014 123.288 114.811 123.52 114.632L124.229 114.084C124.456 113.905 125.058 113.815 125.565 113.881L127.139 114.084C127.645 114.149 127.878 114.346 127.651 114.525L126.948 115.085Z" fill="#15878A"/>
<path d="M117.845 118.621C117.601 118.806 116.975 118.902 116.456 118.836L114.846 118.621C114.328 118.55 114.107 118.341 114.352 118.156L115.115 117.584C115.359 117.399 115.979 117.304 116.492 117.375L118.089 117.59C118.608 117.662 118.835 117.864 118.59 118.049L117.845 118.621Z" fill="#15878A"/>
<path d="M103.46 115.163C103.204 115.342 102.584 115.431 102.077 115.366L100.515 115.157C100.015 115.092 99.8118 114.889 100.068 114.71L100.867 114.162C101.123 113.983 101.737 113.893 102.238 113.959L103.788 114.162C104.289 114.227 104.492 114.424 104.241 114.603L103.46 115.163Z" fill="#15878A"/>
<path d="M110.202 116.057C109.952 116.236 109.332 116.331 108.825 116.265L104.318 115.663C103.811 115.598 103.609 115.395 103.865 115.216L104.652 114.662C104.902 114.483 105.522 114.393 106.023 114.459L110.5 115.049C111.007 115.115 111.222 115.317 110.971 115.496L110.202 116.057Z" fill="#15878A"/>
<path d="M52.5064 106.863C52.2084 107.024 51.5824 107.107 51.1174 107.048L49.6806 106.857C49.2156 106.797 49.0845 106.612 49.3885 106.452L50.3185 105.957C50.6166 105.796 51.2366 105.718 51.6957 105.778L53.1264 105.963C53.5855 106.022 53.7226 106.201 53.4305 106.362L52.5064 106.863Z" fill="#15878A"/>
<path d="M49.0424 106.4C48.7383 106.561 48.1123 106.644 47.6533 106.585L44.4042 106.156C43.9452 106.096 43.82 105.917 44.124 105.756L45.066 105.261C45.37 105.1 45.99 105.023 46.4491 105.083L49.6802 105.506C50.1393 105.565 50.2705 105.744 49.9724 105.905L49.0424 106.4Z" fill="#15878A"/>
<path d="M56.0113 107.317C55.7132 107.478 55.0932 107.561 54.6223 107.501L53.1796 107.311C52.7145 107.251 52.5774 107.066 52.8755 106.905L53.7936 106.404C54.0917 106.243 54.7117 106.16 55.1707 106.226L56.6075 106.416C57.0725 106.476 57.2096 106.661 56.9175 106.822L56.0113 107.317Z" fill="#15878A"/>
<path d="M59.5341 107.786C59.242 107.947 58.616 108.031 58.151 107.971L56.7023 107.78C56.2373 107.721 56.0942 107.536 56.3923 107.369L57.3045 106.868C57.5966 106.707 58.2166 106.624 58.6816 106.683L60.1243 106.874C60.5893 106.934 60.7324 107.119 60.4462 107.279L59.5341 107.786Z" fill="#15878A"/>
<path d="M63.0758 108.253C62.7837 108.42 62.1637 108.504 61.6927 108.438L60.2321 108.247C59.7611 108.188 59.6181 108.003 59.9102 107.836L60.8104 107.329C61.1025 107.168 61.7165 107.085 62.1875 107.144L63.6362 107.335C64.1071 107.395 64.2562 107.579 63.97 107.74L63.0758 108.253Z" fill="#15878A"/>
<path d="M66.6346 108.722C66.3484 108.889 65.7284 108.972 65.2515 108.907L63.7849 108.716C63.314 108.656 63.1649 108.466 63.4511 108.305L64.3453 107.798C64.6315 107.637 65.2515 107.553 65.7225 107.613L67.1831 107.804C67.654 107.863 67.809 108.048 67.5229 108.215L66.6346 108.722Z" fill="#15878A"/>
<path d="M70.2124 109.19C69.9263 109.357 69.3063 109.44 68.8293 109.381L67.3568 109.184C66.8799 109.119 66.7308 108.934 67.011 108.767L67.8933 108.254C68.1795 108.087 68.7936 108.004 69.2645 108.069L70.7311 108.26C71.202 108.32 71.363 108.51 71.0828 108.671L70.2124 109.19Z" fill="#15878A"/>
<path d="M73.8123 109.667C73.5321 109.834 72.9121 109.917 72.4352 109.857L70.9507 109.661C70.4738 109.595 70.3129 109.41 70.599 109.243L71.4694 108.731C71.7496 108.564 72.3636 108.48 72.8406 108.546L74.3131 108.737C74.79 108.796 74.951 108.987 74.6767 109.154L73.8123 109.667Z" fill="#15878A"/>
<path d="M77.4254 110.142C77.1512 110.309 76.5252 110.399 76.0483 110.333L74.5579 110.136C74.075 110.071 73.914 109.886 74.1942 109.713L75.0586 109.194C75.3329 109.027 75.9529 108.944 76.4298 109.004L77.9083 109.2C78.3852 109.266 78.5521 109.451 78.2779 109.618L77.4254 110.142Z" fill="#15878A"/>
<path d="M81.0626 110.619C80.7884 110.786 80.1683 110.875 79.6855 110.81L78.1891 110.613C77.7062 110.547 77.5393 110.357 77.8135 110.19L78.666 109.671C78.9403 109.504 79.5543 109.421 80.0372 109.48L81.5276 109.677C82.0105 109.742 82.1834 109.927 81.9091 110.094L81.0626 110.619Z" fill="#15878A"/>
<path d="M84.7165 111.104C84.4482 111.277 83.8282 111.36 83.3394 111.295L81.8371 111.098C81.3542 111.032 81.1813 110.841 81.4496 110.674L82.2901 110.15C82.5584 109.983 83.1725 109.894 83.6553 109.959L85.1517 110.156C85.6346 110.221 85.8134 110.406 85.5452 110.579L84.7165 111.104Z" fill="#15878A"/>
<path d="M88.3891 111.586C88.1208 111.759 87.5068 111.843 87.0179 111.783L85.5037 111.58C85.0148 111.515 84.836 111.324 85.1102 111.151L85.9389 110.626C86.2072 110.46 86.8212 110.37 87.3041 110.436L88.8064 110.632C89.2953 110.698 89.4741 110.889 89.2118 111.056L88.3891 111.586Z" fill="#15878A"/>
<path d="M92.0851 112.077C91.8228 112.25 91.2028 112.34 90.714 112.274L89.1937 112.071C88.7049 112.006 88.5201 111.815 88.7884 111.642L89.6111 111.112C89.8734 110.939 90.4874 110.855 90.9763 110.921L92.4905 111.117C92.9794 111.183 93.1642 111.374 92.9078 111.547L92.0851 112.077Z" fill="#15878A"/>
<path d="M95.7933 112.563C95.5309 112.735 94.9169 112.825 94.4221 112.759L92.89 112.557C92.3951 112.491 92.2103 112.294 92.4726 112.121L93.2834 111.591C93.5457 111.418 94.1538 111.335 94.6486 111.394L96.1688 111.591C96.6577 111.656 96.8544 111.847 96.5921 112.02L95.7933 112.563Z" fill="#15878A"/>
<path d="M99.5256 113.055C99.2692 113.228 98.6552 113.318 98.1544 113.252L96.6163 113.049C96.1215 112.984 95.9308 112.787 96.1871 112.614L96.9859 112.078C97.2423 111.905 97.8563 111.815 98.3452 111.881L99.8714 112.084C100.366 112.149 100.563 112.34 100.307 112.513L99.5256 113.055Z" fill="#15878A"/>
<path d="M103.281 113.548C103.031 113.72 102.411 113.816 101.916 113.744L100.372 113.542C99.877 113.476 99.6743 113.279 99.9306 113.106L100.718 112.57C100.974 112.397 101.582 112.308 102.077 112.373L103.615 112.576C104.11 112.641 104.312 112.838 104.062 113.011L103.281 113.548Z" fill="#15878A"/>
<path d="M107.055 114.046C106.804 114.225 106.19 114.314 105.69 114.248L104.134 114.046C103.633 113.98 103.43 113.783 103.681 113.605L104.456 113.062C104.706 112.889 105.314 112.8 105.815 112.865L107.359 113.068C107.86 113.134 108.062 113.33 107.818 113.503L107.055 114.046Z" fill="#15878A"/>
<path d="M105.528 110.212C105.368 110.319 104.855 110.361 104.378 110.301L102.911 110.11C102.44 110.051 102.184 109.908 102.345 109.8L102.84 109.466C103.001 109.359 103.513 109.317 103.984 109.383L105.445 109.568C105.916 109.627 106.172 109.764 106.017 109.878L105.528 110.212Z" fill="#15878A"/>
<path d="M109.105 110.673C108.95 110.78 108.432 110.822 107.955 110.762L106.482 110.571C106.011 110.512 105.749 110.369 105.91 110.261L106.399 109.921C106.554 109.814 107.072 109.772 107.543 109.832L109.01 110.023C109.481 110.082 109.743 110.225 109.588 110.333L109.105 110.673Z" fill="#15878A"/>
<path d="M112.694 111.133C112.539 111.241 112.021 111.283 111.544 111.223L110.065 111.032C109.588 110.973 109.326 110.829 109.481 110.722L109.964 110.382C110.119 110.275 110.632 110.233 111.109 110.293L112.581 110.484C113.058 110.543 113.32 110.686 113.165 110.794L112.694 111.133Z" fill="#15878A"/>
<path d="M116.301 111.6C116.152 111.714 115.634 111.749 115.151 111.69L113.666 111.499C113.189 111.439 112.921 111.296 113.076 111.183L113.553 110.843C113.708 110.736 114.221 110.694 114.698 110.754L116.176 110.945C116.653 111.004 116.921 111.147 116.772 111.255L116.301 111.6Z" fill="#15878A"/>
<path d="M121.737 112.301C121.588 112.414 121.07 112.456 120.587 112.39L119.091 112.194C118.608 112.134 118.339 111.991 118.488 111.878L118.953 111.532C119.102 111.419 119.621 111.383 120.098 111.443L121.588 111.633C122.071 111.693 122.346 111.836 122.197 111.949L121.737 112.301Z" fill="#15878A"/>
<path d="M125.392 112.778C125.243 112.891 124.73 112.933 124.241 112.867L122.739 112.67C122.256 112.611 121.982 112.468 122.125 112.354L122.584 112.009C122.733 111.895 123.246 111.86 123.728 111.919L125.225 112.11C125.708 112.17 125.988 112.313 125.839 112.426L125.392 112.778Z" fill="#15878A"/>
<path d="M129.065 113.255C128.922 113.368 128.403 113.41 127.915 113.344L126.4 113.148C125.911 113.082 125.631 112.939 125.78 112.826L126.233 112.48C126.376 112.367 126.895 112.325 127.378 112.391L128.886 112.587C129.375 112.653 129.655 112.796 129.512 112.903L129.065 113.255Z" fill="#15878A"/>
<path d="M90.547 108.275C90.38 108.382 89.8614 108.418 89.4023 108.359L87.9716 108.174C87.5125 108.114 87.2741 107.977 87.441 107.87L87.9656 107.542C88.1325 107.435 88.6452 107.399 89.1102 107.458L90.535 107.643C90.9941 107.703 91.2385 107.84 91.0716 107.941L90.547 108.275Z" fill="#15878A"/>
<path d="M94.0404 108.728C93.8735 108.836 93.3608 108.871 92.8958 108.812L91.4531 108.627C90.988 108.567 90.7496 108.43 90.9165 108.323L91.4352 107.995C91.6021 107.888 92.1148 107.852 92.5798 107.912L94.0165 108.096C94.4815 108.156 94.726 108.293 94.559 108.4L94.0404 108.728Z" fill="#15878A"/>
<path d="M97.5575 109.18C97.3965 109.287 96.8778 109.329 96.4128 109.263L94.9642 109.078C94.4992 109.019 94.2547 108.881 94.4157 108.774L94.9284 108.44C95.0953 108.333 95.608 108.297 96.073 108.357L97.5157 108.542C97.9807 108.601 98.2311 108.738 98.0702 108.846L97.5575 109.18Z" fill="#15878A"/>
<path d="M101.087 109.633C100.926 109.74 100.407 109.782 99.9364 109.722L98.4818 109.531C98.0108 109.472 97.7664 109.335 97.9274 109.227L98.4341 108.893C98.5951 108.786 99.1078 108.75 99.5787 108.81L101.027 108.995C101.492 109.054 101.749 109.192 101.588 109.299L101.087 109.633Z" fill="#15878A"/>
<path d="M75.8759 106.38C75.6971 106.482 75.1844 106.523 74.7313 106.464L73.3303 106.285C72.8773 106.225 72.6567 106.094 72.8355 105.993L73.384 105.671C73.5628 105.569 74.0755 105.534 74.5227 105.587L75.9177 105.766C76.3707 105.826 76.5973 105.957 76.4184 106.058L75.8759 106.38Z" fill="#15878A"/>
<path d="M79.2971 106.817C79.1242 106.924 78.6055 106.96 78.1524 106.9L76.7396 106.715C76.2865 106.656 76.0599 106.525 76.2328 106.417L76.7753 106.095C76.9482 105.994 77.4609 105.952 77.914 106.012L79.3209 106.191C79.774 106.25 80.0065 106.381 79.8336 106.489L79.2971 106.817Z" fill="#15878A"/>
<path d="M82.7376 107.262C82.5647 107.369 82.0521 107.405 81.593 107.345L80.1741 107.161C79.7151 107.101 79.4886 106.97 79.6615 106.863L80.198 106.541C80.3709 106.439 80.8836 106.398 81.3367 106.457L82.7496 106.636C83.2027 106.696 83.4411 106.827 83.2682 106.934L82.7376 107.262Z" fill="#15878A"/>
<path d="M86.1951 107.715C86.0222 107.822 85.5095 107.858 85.0504 107.798L83.6256 107.613C83.1666 107.554 82.9341 107.416 83.107 107.315L83.6375 106.987C83.8104 106.88 84.3231 106.844 84.7762 106.904L86.1951 107.089C86.6541 107.148 86.8926 107.279 86.7197 107.387L86.1951 107.715Z" fill="#15878A"/>
<path d="M61.5082 104.517C61.3234 104.618 60.8107 104.654 60.3636 104.6L58.9865 104.421C58.5453 104.362 58.3366 104.237 58.5215 104.135L59.0938 103.825C59.2786 103.724 59.7913 103.688 60.2324 103.748L61.6036 103.927C62.0448 103.986 62.2594 104.111 62.0746 104.213L61.5082 104.517Z" fill="#15878A"/>
<path d="M64.8589 104.951C64.6741 105.052 64.1614 105.088 63.7143 105.034L62.3312 104.855C61.8841 104.796 61.6754 104.664 61.8602 104.563L62.4266 104.247C62.6114 104.146 63.1241 104.11 63.5653 104.17L64.9424 104.348C65.3835 104.408 65.6041 104.533 65.4193 104.635L64.8589 104.951Z" fill="#15878A"/>
<path d="M52.3566 103.337C52.1659 103.438 51.6532 103.474 51.218 103.415L49.8647 103.242C49.4295 103.188 49.2268 103.057 49.4176 102.955L50.0077 102.645C50.1985 102.544 50.7112 102.508 51.1464 102.568L52.4997 102.741C52.9349 102.795 53.1376 102.926 52.9528 103.027L52.3566 103.337Z" fill="#15878A"/>
<path d="M55.6654 103.765C55.4806 103.866 54.962 103.902 54.5268 103.842L53.1616 103.664C52.7204 103.604 52.5177 103.479 52.7085 103.377L53.2927 103.067C53.4835 102.966 53.9902 102.93 54.4314 102.99L55.7906 103.163C56.2318 103.216 56.4345 103.348 56.2497 103.449L55.6654 103.765Z" fill="#15878A"/>
<path d="M68.2329 105.39C68.0541 105.491 67.5354 105.527 67.0883 105.473L65.6992 105.294C65.2521 105.235 65.0375 105.104 65.2163 105.002L65.7767 104.686C65.9556 104.585 66.4683 104.549 66.9154 104.603L68.2985 104.782C68.7456 104.841 68.9662 104.973 68.7814 105.074L68.2329 105.39Z" fill="#15878A"/>
<path d="M71.619 105.827C71.4401 105.929 70.9274 105.97 70.4743 105.911L69.0793 105.732C68.6322 105.672 68.4116 105.541 68.5905 105.44L69.1449 105.124C69.3237 105.023 69.8364 104.987 70.2836 105.04L71.6726 105.219C72.1197 105.279 72.3463 105.41 72.1674 105.511L71.619 105.827Z" fill="#15878A"/>
<path d="M112.086 114.713C111.842 114.891 111.228 114.981 110.721 114.915L107.919 114.546C107.418 114.48 107.209 114.277 107.454 114.105L108.223 113.562C108.467 113.389 109.081 113.3 109.576 113.365L112.36 113.729C112.861 113.795 113.076 113.991 112.837 114.17L112.086 114.713Z" fill="#15878A"/>
<path d="M56.2922 105.85C56.0001 106.011 55.3801 106.089 54.9211 106.029L53.4903 105.844C53.0312 105.785 52.8941 105.606 53.1922 105.445L54.1043 104.956C54.3964 104.801 55.0105 104.718 55.4695 104.777L56.8943 104.962C57.3534 105.022 57.4905 105.2 57.2043 105.355L56.2922 105.85Z" fill="#15878A"/>
<path d="M59.7791 106.308C59.487 106.469 58.8729 106.553 58.4079 106.487L56.9712 106.296C56.5062 106.237 56.3691 106.058 56.6612 105.897L57.5614 105.402C57.8535 105.241 58.4616 105.164 58.9266 105.223L60.3574 105.408C60.8164 105.468 60.9654 105.646 60.6733 105.807L59.7791 106.308Z" fill="#15878A"/>
<path d="M49.4121 104.95C49.1141 105.105 48.4941 105.189 48.035 105.129L46.6161 104.944C46.1571 104.885 46.0319 104.706 46.336 104.551L47.266 104.068C47.564 103.913 48.1781 103.835 48.6312 103.895L50.0381 104.08C50.4912 104.14 50.6223 104.312 50.3302 104.473L49.4121 104.95Z" fill="#15878A"/>
<path d="M52.8641 105.405C52.566 105.566 51.952 105.643 51.4929 105.584L50.0681 105.399C49.6091 105.339 49.4779 105.16 49.776 105L50.6941 104.511C50.9921 104.356 51.6062 104.272 52.0593 104.332L53.4722 104.517C53.9312 104.576 54.0624 104.755 53.7703 104.91L52.8641 105.405Z" fill="#15878A"/>
<path d="M63.2909 106.761C63.0048 106.922 62.3907 107.006 61.9198 106.946L60.4771 106.755C60.0121 106.696 59.869 106.511 60.1551 106.35L61.0494 105.855C61.3355 105.694 61.9496 105.617 62.4086 105.676L63.8454 105.861C64.3104 105.921 64.4594 106.1 64.1732 106.261L63.2909 106.761Z" fill="#15878A"/>
<path d="M66.814 107.223C66.5279 107.384 65.9138 107.467 65.4428 107.408L63.9882 107.217C63.5232 107.157 63.3742 106.972 63.6603 106.811L64.5426 106.311C64.8288 106.15 65.4369 106.066 65.9019 106.132L67.3446 106.317C67.8096 106.376 67.9646 106.561 67.6844 106.722L66.814 107.223Z" fill="#15878A"/>
<path d="M70.3612 107.687C70.081 107.847 69.4669 107.931 68.996 107.871L67.5354 107.681C67.0644 107.621 66.9094 107.436 67.1956 107.275L68.066 106.774C68.3462 106.613 68.9602 106.53 69.4252 106.59L70.8739 106.78C71.3448 106.84 71.4998 107.025 71.2196 107.186L70.3612 107.687Z" fill="#15878A"/>
<path d="M73.9201 108.152C73.6459 108.318 73.0259 108.402 72.5549 108.336L71.0884 108.146C70.6174 108.086 70.4564 107.901 70.7366 107.734L71.6011 107.228C71.8753 107.067 72.4893 106.983 72.9603 107.043L74.4209 107.233C74.8919 107.293 75.0528 107.478 74.7786 107.639L73.9201 108.152Z" fill="#15878A"/>
<path d="M77.5031 108.628C77.2289 108.795 76.6148 108.879 76.1379 108.813L74.6654 108.622C74.1885 108.563 74.0275 108.372 74.3077 108.211L75.1602 107.704C75.4344 107.543 76.0425 107.46 76.5195 107.519L77.986 107.71C78.457 107.77 78.6239 107.954 78.3556 108.121L77.5031 108.628Z" fill="#15878A"/>
<path d="M81.1043 109.093C80.836 109.26 80.222 109.344 79.7391 109.284L78.2546 109.087C77.7777 109.028 77.6108 108.837 77.885 108.67L78.7316 108.157C78.9998 107.996 79.6139 107.913 80.0848 107.972L81.5574 108.163C82.0343 108.223 82.2072 108.408 81.9389 108.575L81.1043 109.093Z" fill="#15878A"/>
<path d="M84.7232 109.565C84.4549 109.732 83.8409 109.815 83.364 109.756L81.8736 109.559C81.3907 109.494 81.2238 109.309 81.492 109.142L82.3266 108.629C82.5949 108.462 83.203 108.379 83.6799 108.444L85.1644 108.635C85.6413 108.695 85.8201 108.885 85.5519 109.046L84.7232 109.565Z" fill="#15878A"/>
<path d="M88.3596 110.048C88.0973 110.215 87.4832 110.304 87.0004 110.238L85.504 110.042C85.0211 109.976 84.8482 109.791 85.1105 109.624L85.9332 109.106C86.1955 108.939 86.8036 108.855 87.2865 108.921L88.7769 109.112C89.2598 109.171 89.4386 109.362 89.1763 109.529L88.3596 110.048Z" fill="#15878A"/>
<path d="M92.0135 110.517C91.7512 110.684 91.1431 110.774 90.6542 110.708L89.146 110.511C88.6631 110.446 88.4783 110.255 88.7406 110.088L89.5513 109.569C89.8137 109.402 90.4217 109.319 90.9046 109.379L92.401 109.575C92.8839 109.641 93.0687 109.826 92.8123 109.993L92.0135 110.517Z" fill="#15878A"/>
<path d="M95.6922 111C95.4359 111.173 94.8218 111.256 94.333 111.191L92.8187 110.994C92.3299 110.928 92.1451 110.737 92.4074 110.571L93.2122 110.046C93.4686 109.879 94.0766 109.796 94.5595 109.855L96.0618 110.052C96.5507 110.117 96.7355 110.302 96.4851 110.475L95.6922 111Z" fill="#15878A"/>
<path d="M99.3883 111.488C99.132 111.661 98.5239 111.745 98.035 111.685L96.5148 111.488C96.026 111.423 95.8352 111.232 96.0916 111.065L96.8845 110.541C97.1408 110.374 97.7429 110.284 98.2318 110.35L99.746 110.546C100.235 110.612 100.432 110.803 100.175 110.97L99.3883 111.488Z" fill="#15878A"/>
<path d="M103.102 111.967C102.852 112.14 102.244 112.23 101.749 112.164L100.217 111.961C99.7222 111.896 99.5314 111.705 99.7818 111.532L100.563 111.001C100.813 110.835 101.421 110.745 101.91 110.811L103.43 111.007C103.919 111.073 104.122 111.264 103.871 111.431L103.102 111.967Z" fill="#15878A"/>
<path d="M106.835 112.46C106.59 112.633 105.976 112.722 105.481 112.657L103.943 112.454C103.448 112.389 103.246 112.198 103.496 112.025L104.265 111.494C104.516 111.321 105.118 111.238 105.612 111.304L107.139 111.5C107.633 111.566 107.836 111.757 107.592 111.93L106.835 112.46Z" fill="#15878A"/>
<path d="M113.91 113.379C113.672 113.552 113.064 113.641 112.563 113.576L107.698 112.938C107.198 112.872 106.995 112.675 107.239 112.502L108.002 111.966C108.247 111.793 108.849 111.71 109.344 111.769L114.179 112.395C114.679 112.461 114.894 112.657 114.655 112.83L113.91 113.379Z" fill="#15878A"/>
<path d="M136.035 54.3756L53.8546 43.4777C52.1674 43.2512 49.8066 44.6164 49.8066 46.4049L50.7784 95.8504C50.7784 97.6389 52.1615 99.2843 53.8486 99.5108L135.207 110.892C136.894 111.118 139.105 109.353 139.105 107.565V58.036C139.111 56.2415 137.728 54.5961 136.035 54.3756Z" fill="#15878A"/>
<path d="M137.949 58.4893V108.018C137.949 109.527 136.965 110.671 135.648 110.862C135.404 110.898 135.141 110.898 134.879 110.862L69.045 102.134L52.6923 99.9641C52.6684 99.9582 52.6446 99.9582 52.6267 99.9522C51.1721 99.7257 49.9619 98.4499 49.6817 96.9475C49.64 96.7389 49.6221 96.5183 49.6221 96.3037V46.7747C49.6221 44.9863 51.0052 43.7105 52.6923 43.931L97.7501 49.9046L130.324 54.2208L134.879 54.8229C136.566 55.0554 137.949 56.7068 137.949 58.4893Z" fill="black"/>
<path d="M135.26 110.721C135.141 110.721 135.022 110.715 134.903 110.697L69.0629 101.969L52.6983 99.7989C52.6804 99.7989 52.6685 99.793 52.6506 99.793H52.6447C51.2914 99.5843 50.111 98.3801 49.8427 96.9314C49.807 96.7287 49.7891 96.526 49.7891 96.3174V46.7884C49.7891 45.2503 50.8681 44.0938 52.3049 44.0938C52.4241 44.0938 52.5433 44.0997 52.6625 44.1176L97.7203 50.0911L130.294 54.4073L134.849 55.0094C136.459 55.2241 137.77 56.786 137.77 58.491V108.02C137.77 109.409 136.888 110.506 135.618 110.691C135.505 110.709 135.38 110.721 135.26 110.721Z" fill="#BEE0E1"/>
<path d="M136.327 60.3766V104.993C136.327 105.792 135.677 106.358 134.873 106.251L84.9145 99.6277L52.6861 95.3533C51.8872 95.246 51.2314 94.5067 51.2314 93.7079V49.0913C51.2314 48.2924 51.8813 47.7261 52.6861 47.8334L84.7476 52.084L131.534 58.29L134.873 58.7312C135.677 58.8385 136.327 59.5777 136.327 60.3766Z" fill="#63BFC2"/>
<path d="M95.0676 51.5198C95.0676 52.2709 94.4953 52.8015 93.7799 52.7061C93.0705 52.6108 92.4922 51.9252 92.4922 51.174C92.4922 50.4228 93.0645 49.8923 93.7799 49.9876C94.4953 50.083 95.0676 50.7686 95.0676 51.5198Z" fill="black"/>
<path d="M93.9466 52.545C93.8989 52.545 93.8572 52.539 93.8095 52.5331C93.1835 52.4496 92.6768 51.8415 92.6768 51.1738C92.6768 50.5896 93.0821 50.1484 93.6246 50.1484C93.6723 50.1484 93.7141 50.1544 93.7618 50.1604C94.3877 50.2438 94.8945 50.8519 94.8945 51.5196C94.8945 52.1038 94.4891 52.545 93.9466 52.545Z" fill="#63BFC2"/>
<path d="M116.897 102.729C116.897 103.176 116.539 103.492 116.104 103.432L71.5947 97.4168C71.1595 97.3571 70.8018 96.9458 70.8018 96.4987V23.0935C70.8018 22.6464 71.1595 22.3304 71.5947 22.39L116.104 28.4053C116.539 28.4649 116.897 28.8763 116.897 29.3234V102.729Z" fill="black"/>
<path d="M71.5945 97.2896C71.2248 97.242 70.9268 96.8902 70.9268 96.5146V23.1095C70.9268 22.7339 71.2248 22.4656 71.5945 22.5133L116.104 28.5286C116.473 28.5763 116.777 28.928 116.777 29.3036V102.709C116.777 103.084 116.479 103.353 116.104 103.305L71.5945 97.2896Z" fill="white"/>
<path d="M79.6963 36.957L77.2227 36.6309L76.5779 37.8596L76.0023 37.7837L78.6935 32.6778L79.308 32.7589L80.5762 38.3867L80.0006 38.3109L79.6963 36.957ZM79.5925 36.4843L78.9066 33.4024L77.4455 36.2013L79.5925 36.4843ZM82.4238 35.2589C82.5962 34.9915 82.8399 34.7835 83.1549 34.6351C83.4758 34.4822 83.8385 34.4324 84.243 34.4858C84.6268 34.5364 84.9597 34.6726 85.2417 34.8944C85.5296 35.1118 85.7373 35.3977 85.8647 35.7521C85.9979 36.1021 86.0358 36.4949 85.9784 36.9305C85.921 37.3661 85.7822 37.7382 85.5621 38.0469C85.3472 38.3562 85.0723 38.5811 84.7372 38.7216C84.4073 38.8628 84.0504 38.9081 83.6667 38.8575C83.2674 38.8048 82.9322 38.6657 82.6612 38.44C82.3909 38.2092 82.2072 37.9422 82.1099 37.6392L81.7223 40.5797L81.1856 40.5089L82.0101 34.2547L82.5468 34.3255L82.4238 35.2589ZM85.4261 36.8577C85.4726 36.505 85.4426 36.1924 85.336 35.9199C85.2354 35.6428 85.0747 35.4211 84.8539 35.2548C84.6331 35.0885 84.3724 34.9856 84.0716 34.9459C83.7812 34.9076 83.5049 34.9424 83.2427 35.0503C82.9857 35.1589 82.77 35.3336 82.5958 35.5744C82.4216 35.8153 82.312 36.1068 82.2669 36.4491C82.2217 36.7914 82.2521 37.1014 82.3579 37.3791C82.4638 37.6569 82.6267 37.8815 82.8468 38.053C83.0721 38.2251 83.3299 38.3303 83.6203 38.3686C83.9211 38.4083 84.1997 38.3764 84.456 38.273C84.713 38.1644 84.926 37.9894 85.0951 37.7479C85.2699 37.5019 85.3803 37.2051 85.4261 36.8577ZM87.673 35.9509C87.8454 35.6835 88.0891 35.4756 88.4041 35.3272C88.725 35.1743 89.0877 35.1245 89.4922 35.1778C89.876 35.2284 90.2089 35.3646 90.4909 35.5864C90.7788 35.8038 90.9865 36.0897 91.1139 36.4441C91.2471 36.7941 91.285 37.1869 91.2276 37.6225C91.1702 38.0581 91.0314 38.4303 90.8113 38.7389C90.5964 39.0482 90.3215 39.2732 89.9864 39.4136C89.6565 39.5548 89.2997 39.6001 88.9159 39.5495C88.5166 39.4969 88.1814 39.3577 87.9104 39.132C87.6401 38.9012 87.4564 38.6343 87.3592 38.3313L86.9715 41.2717L86.4348 41.2009L87.2593 34.9467L87.796 35.0175L87.673 35.9509ZM90.6753 37.5497C90.7218 37.1971 90.6918 36.8844 90.5852 36.6119C90.4846 36.3348 90.3239 36.1131 90.1031 35.9468C89.8823 35.7806 89.6216 35.6776 89.3208 35.6379C89.0304 35.5997 88.7541 35.6345 88.4919 35.7423C88.2349 35.8509 88.0192 36.0256 87.845 36.2665C87.6708 36.5073 87.5612 36.7988 87.5161 37.1411C87.4709 37.4834 87.5013 37.7934 87.6071 38.0711C87.713 38.3489 87.8759 38.5735 88.096 38.745C88.3213 38.9171 88.5791 39.0224 88.8695 39.0606C89.1703 39.1003 89.4489 39.0684 89.7052 38.965C89.9622 38.8565 90.1752 38.6814 90.3443 38.4399C90.5191 38.1939 90.6295 37.8971 90.6753 37.5497ZM92.9535 36.4651C93.1077 36.2163 93.3162 36.0354 93.5791 35.9223C93.8471 35.81 94.1601 35.7773 94.5179 35.8245L94.443 36.3924L94.2952 36.3729C93.9011 36.3209 93.5708 36.3855 93.3042 36.5667C93.0376 36.7479 92.8715 37.0874 92.8059 37.5852L92.4931 39.9578L91.9486 39.886L92.5085 35.6387L93.053 35.7105L92.9535 36.4651ZM96.6178 40.5649C96.2185 40.5122 95.8697 40.3766 95.5714 40.1579C95.279 39.9346 95.061 39.6474 94.9174 39.296C94.7796 38.9402 94.7398 38.5419 94.7979 38.1011C94.856 37.6603 95 37.2889 95.2297 36.9868C95.4602 36.6795 95.7478 36.4589 96.0925 36.3249C96.438 36.1858 96.8104 36.1426 97.2097 36.1952C97.609 36.2479 97.9575 36.3861 98.2551 36.61C98.5585 36.8294 98.7791 37.117 98.9169 37.4729C99.0605 37.8242 99.1033 38.2202 99.0452 38.661C98.9877 39.0967 98.8438 39.4681 98.6133 39.7754C98.3829 40.0827 98.0923 40.3055 97.7417 40.444C97.3918 40.5772 97.0171 40.6175 96.6178 40.5649ZM96.6804 40.0904C96.9604 40.1273 97.2279 40.0992 97.4829 40.0062C97.7385 39.908 97.9557 39.7414 98.1344 39.5065C98.319 39.267 98.4359 38.9606 98.4851 38.5872C98.5343 38.2138 98.5031 37.8905 98.3914 37.6172C98.2803 37.3388 98.1138 37.1216 97.8916 36.9657C97.6702 36.8046 97.4194 36.7056 97.1394 36.6687C96.8593 36.6318 96.5915 36.6624 96.3358 36.7606C96.0809 36.8536 95.8637 37.0202 95.6843 37.2604C95.5108 37.496 95.3994 37.8005 95.3502 38.1739C95.301 38.5473 95.3293 38.8729 95.4351 39.1506C95.5468 39.4239 95.7108 39.6407 95.9271 39.8011C96.1492 39.957 96.4003 40.0535 96.6804 40.0904ZM101.337 40.5855L103.258 37.0559L103.834 37.1318L101.57 41.1545L100.956 41.0735L99.8121 36.6016L100.396 36.6785L101.337 40.5855ZM108.163 39.6415C108.139 39.8282 108.115 39.9701 108.091 40.0673L104.567 39.6028C104.541 39.9263 104.582 40.2114 104.692 40.4581C104.802 40.7047 104.963 40.9027 105.176 41.0521C105.389 41.1962 105.63 41.2861 105.9 41.3217C106.253 41.3681 106.559 41.3215 106.821 41.1819C107.087 41.0429 107.278 40.8333 107.394 40.5531L107.97 40.629C107.811 41.0302 107.544 41.3405 107.166 41.5598C106.795 41.7747 106.353 41.8483 105.839 41.7806C105.44 41.728 105.094 41.5926 104.801 41.3746C104.508 41.1514 104.293 40.8645 104.155 40.5138C104.022 40.1587 103.985 39.7607 104.043 39.3199C104.101 38.8791 104.24 38.5044 104.46 38.1957C104.68 37.8871 104.96 37.6654 105.3 37.5308C105.639 37.3962 106.011 37.3556 106.416 37.4089C106.82 37.4622 107.161 37.5969 107.439 37.8128C107.722 38.0295 107.923 38.2988 108.045 38.6208C108.172 38.9383 108.211 39.2785 108.163 39.6415ZM107.613 39.5532C107.66 39.2375 107.631 38.9593 107.525 38.7185C107.425 38.4784 107.268 38.2863 107.055 38.1421C106.842 37.998 106.601 37.9081 106.331 37.8725C105.926 37.8192 105.564 37.9034 105.245 38.1251C104.926 38.3468 104.719 38.6915 104.626 39.1594L107.613 39.5532Z" fill="#15878A"/>
<path d="M112.432 52.7208C112.432 52.8579 112.271 52.9533 112.068 52.9235L88.4779 49.734C88.2752 49.7042 88.1143 49.573 88.1143 49.43V48.9113C88.1143 48.7742 88.2752 48.6788 88.4779 48.7086L112.068 51.8981C112.271 51.9279 112.432 52.059 112.432 52.2021V52.7208Z" fill="#BEE0E1"/>
<path d="M112.432 55.9786C112.432 56.1157 112.271 56.2111 112.068 56.1813L88.4779 52.9918C88.2752 52.962 88.1143 52.8308 88.1143 52.6878V52.1691C88.1143 52.032 88.2752 51.9366 88.4779 51.9664L112.068 55.1559C112.271 55.1857 112.432 55.3168 112.432 55.4599V55.9786Z" fill="#BEE0E1"/>
<path d="M112.432 59.2364C112.432 59.3735 112.271 59.4689 112.068 59.4391L88.4779 56.2496C88.2752 56.2198 88.1143 56.0887 88.1143 55.9456V55.4269C88.1143 55.2898 88.2752 55.1944 88.4779 55.2242L112.068 58.4137C112.271 58.4435 112.432 58.5746 112.432 58.7177V59.2364Z" fill="#BEE0E1"/>
<path d="M112.432 62.4942C112.432 62.6313 112.271 62.7267 112.068 62.6969L88.4779 59.5074C88.2752 59.4776 88.1143 59.3465 88.1143 59.2034V58.6847C88.1143 58.5476 88.2752 58.4522 88.4779 58.482L112.068 61.6715C112.271 61.7013 112.432 61.8325 112.432 61.9755V62.4942Z" fill="#BEE0E1"/>
<path d="M112.432 65.752C112.432 65.8891 112.271 65.9845 112.068 65.9547L88.4779 62.7652C88.2752 62.7354 88.1143 62.6043 88.1143 62.4612V61.9425C88.1143 61.8054 88.2752 61.71 88.4779 61.7398L112.068 64.9293C112.271 64.9591 112.432 65.0903 112.432 65.2333V65.752Z" fill="#BEE0E1"/>
<path d="M112.432 69.0098C112.432 69.1469 112.271 69.2423 112.068 69.2125L88.4779 66.0231C88.2752 65.9932 88.1143 65.8621 88.1143 65.719V65.2004C88.1143 65.0632 88.2752 64.9679 88.4779 64.9977L112.068 68.1871C112.271 68.2169 112.432 68.3481 112.432 68.4912V69.0098Z" fill="#BEE0E1"/>
<path d="M112.432 72.2754C112.432 72.4126 112.271 72.5079 112.068 72.4781L88.4779 69.2887C88.2752 69.2589 88.1143 69.1277 88.1143 68.9846V68.466C88.1143 68.3289 88.2752 68.2335 88.4779 68.2633L112.068 71.4527C112.271 71.4825 112.432 71.6137 112.432 71.7568V72.2754Z" fill="#BEE0E1"/>
<path d="M112.432 75.5332C112.432 75.6704 112.271 75.7658 112.068 75.7359L88.4779 72.5465C88.2752 72.5167 88.1143 72.3855 88.1143 72.2424V71.7238C88.1143 71.5867 88.2752 71.4913 88.4779 71.5211L112.068 74.7106C112.271 74.7404 112.432 74.8715 112.432 75.0146V75.5332Z" fill="#BEE0E1"/>
<path d="M112.432 78.7911C112.432 78.9282 112.271 79.0236 112.068 78.9938L88.4779 75.8043C88.2752 75.7745 88.1143 75.6433 88.1143 75.5003V74.9816C88.1143 74.8445 88.2752 74.7491 88.4779 74.7789L112.068 77.9684C112.271 77.9982 112.432 78.1293 112.432 78.2724V78.7911Z" fill="#BEE0E1"/>
<path d="M112.432 82.0489C112.432 82.186 112.271 82.2814 112.068 82.2516L88.4779 79.0621C88.2752 79.0323 88.1143 78.9012 88.1143 78.7581V78.2394C88.1143 78.1023 88.2752 78.0069 88.4779 78.0367L112.068 81.2262C112.271 81.256 112.432 81.3871 112.432 81.5302V82.0489Z" fill="#BEE0E1"/>
<path d="M112.432 85.3067C112.432 85.4438 112.271 85.5392 112.068 85.5094L88.4779 82.3199C88.2752 82.2901 88.1143 82.159 88.1143 82.0159V81.4972C88.1143 81.3601 88.2752 81.2647 88.4779 81.2945L112.068 84.484C112.271 84.5138 112.432 84.645 112.432 84.788V85.3067Z" fill="#BEE0E1"/>
<path d="M112.432 88.5645C112.432 88.7016 112.271 88.797 112.068 88.7672L88.4779 85.5777C88.2752 85.5479 88.1143 85.4168 88.1143 85.2737V84.755C88.1143 84.6179 88.2752 84.5225 88.4779 84.5523L112.068 87.7418C112.271 87.7716 112.432 87.9028 112.432 88.0458V88.5645Z" fill="#BEE0E1"/>
<path d="M80.8825 53.6608C80.8825 53.8694 80.7215 54.0125 80.5188 53.9827L74.9447 53.2315C74.742 53.2017 74.5811 53.0169 74.5811 52.8082V47.1149C74.5811 46.9063 74.742 46.7632 74.9447 46.793L80.5188 47.5441C80.7215 47.574 80.8825 47.7588 80.8825 47.9674V53.6608Z" fill="#BEE0E1"/>
<path d="M80.8825 62.9342C80.8825 63.1428 80.7215 63.2859 80.5188 63.2561L74.9447 62.505C74.742 62.4751 74.5811 62.2903 74.5811 62.0817V56.3884C74.5811 56.1797 74.742 56.0366 74.9447 56.0664L80.5188 56.8176C80.7215 56.8474 80.8825 57.0322 80.8825 57.2409V62.9342Z" fill="#BEE0E1"/>
<path d="M80.8825 72.2076C80.8825 72.4163 80.7215 72.5594 80.5188 72.5296L74.9447 71.7784C74.742 71.7486 74.5811 71.5638 74.5811 71.3551V65.6618C74.5811 65.4531 74.742 65.3101 74.9447 65.3399L80.5188 66.091C80.7215 66.1208 80.8825 66.3056 80.8825 66.5143V72.2076Z" fill="#BEE0E1"/>
<path d="M80.8825 81.4811C80.8825 81.6897 80.7215 81.8328 80.5188 81.803L74.9447 81.0518C74.742 81.022 74.5811 80.8372 74.5811 80.6286V74.9352C74.5811 74.7266 74.742 74.5835 74.9447 74.6133L80.5188 75.3645C80.7215 75.3943 80.8825 75.5791 80.8825 75.7877V81.4811Z" fill="#BEE0E1"/>
<path d="M77.0557 53.5188C76.9067 53.5009 76.7636 53.4055 76.6801 53.2743L74.2061 49.5543L74.9632 49.0774L77.0438 52.2072L80.4955 47.6406L81.2705 48.2964L77.4432 53.3638C77.3538 53.477 77.2167 53.5367 77.0617 53.5188C77.0617 53.5247 77.0557 53.5247 77.0557 53.5188Z" fill="#15878A"/>
<path d="M77.0557 62.3859C76.9067 62.3681 76.7636 62.2727 76.6801 62.1415L74.2061 58.4215L74.9632 57.9446L77.0438 61.0744L80.4955 56.5078L81.2705 57.1636L77.4432 62.2309C77.3538 62.3442 77.2167 62.4038 77.0617 62.3859H77.0557Z" fill="#15878A"/>
<path d="M77.4318 71.3938C77.2827 71.3759 77.1397 71.2805 77.0502 71.1493L74.5762 67.4293L75.3333 66.9524L77.4139 70.0822L80.8657 65.5156L81.6407 66.1714L77.8133 71.2388C77.7239 71.352 77.5868 71.4116 77.4318 71.3938C77.4377 71.3938 77.4377 71.3938 77.4318 71.3938Z" fill="#15878A"/>
<path d="M139.76 114.965C139.76 115.979 140.088 116.956 140.732 117.874C141.37 118.781 142.288 119.585 143.468 120.265C145.721 121.565 148.702 122.286 151.862 122.286C155.022 122.286 158.002 121.571 160.256 120.265C161.436 119.585 162.354 118.781 162.992 117.874C163.636 116.956 163.964 115.979 163.964 114.965C163.964 113.952 163.964 112.682 163.964 112.682C163.964 112.682 162.313 109.355 161.132 108.67C158.879 107.37 155.272 105.719 152.118 105.719C148.959 105.719 145.107 107.084 142.848 108.384C141.668 109.063 139.754 112.682 139.754 112.682C139.754 112.682 139.76 113.946 139.76 114.965ZM143.861 110.345C148.279 107.793 155.445 107.793 159.862 110.345C164.28 112.897 164.226 114.959 159.809 117.511C155.391 120.062 148.029 120.134 143.605 117.582C139.188 115.031 139.444 112.897 143.861 110.345Z" fill="#15878A"/>
<path d="M139.76 112.68C139.76 113.694 140.088 114.671 140.732 115.589C141.369 116.496 142.287 117.3 143.468 117.98C145.721 119.28 148.702 120.001 151.862 120.001C155.021 120.001 158.002 119.286 160.256 117.98C161.436 117.3 162.354 116.496 162.992 115.589C163.636 114.671 163.964 113.694 163.964 112.68C163.964 111.667 163.636 110.689 162.992 109.771C162.354 108.865 161.436 108.06 160.256 107.38C158.002 106.081 155.021 105.359 151.862 105.359C148.702 105.359 145.721 106.075 143.468 107.38C142.287 108.06 141.369 108.865 140.732 109.771C140.088 110.683 139.76 111.667 139.76 112.68ZM143.861 108.06C148.279 105.508 155.445 105.508 159.862 108.06C164.28 110.612 164.28 114.749 159.862 117.294C155.445 119.846 148.279 119.846 143.861 117.294C139.444 114.749 139.444 110.612 143.861 108.06Z" fill="black"/>
<path d="M151.862 119.876C148.726 119.876 145.763 119.166 143.527 117.873C142.365 117.199 141.453 116.406 140.833 115.518C140.201 114.623 139.885 113.664 139.885 112.68C139.885 111.69 140.207 110.737 140.833 109.842C141.459 108.954 142.365 108.161 143.527 107.487C145.763 106.194 148.72 105.484 151.862 105.484C154.997 105.484 157.96 106.194 160.196 107.487C161.358 108.161 162.271 108.954 162.891 109.842C163.523 110.737 163.838 111.696 163.838 112.68C163.838 113.67 163.517 114.623 162.891 115.518C162.265 116.406 161.358 117.199 160.196 117.873C157.96 119.166 154.997 119.876 151.862 119.876ZM151.862 106.021C148.821 106.021 145.954 106.706 143.802 107.952C141.626 109.21 140.427 110.886 140.427 112.68C140.427 114.469 141.626 116.15 143.802 117.408C145.96 118.654 148.821 119.339 151.862 119.339C154.902 119.339 157.77 118.654 159.922 117.408C162.098 116.15 163.296 114.474 163.296 112.68C163.296 110.892 162.098 109.21 159.922 107.952C157.77 106.706 154.908 106.021 151.862 106.021Z" fill="#BEE0E1"/>
<path d="M137.339 121.267L142.853 118.06C143.08 117.863 143.402 117.899 143.7 118.203C144.141 118.644 144.361 119.491 144.201 120.093C144.123 120.385 143.968 120.564 143.759 120.635L138.346 123.813C138.346 123.813 137.708 123.622 137.363 122.799C136.88 121.667 137.339 121.267 137.339 121.267Z" fill="black"/>
<path d="M138.334 123.674C138.185 123.615 137.744 123.382 137.476 122.75C137.076 121.802 137.374 121.421 137.422 121.367L142.931 118.166L142.937 118.16C143.008 118.1 143.086 118.07 143.175 118.07C143.318 118.07 143.467 118.148 143.616 118.297C144.028 118.708 144.236 119.507 144.087 120.067C144.022 120.312 143.896 120.461 143.724 120.526L143.712 120.532L138.334 123.674Z" fill="#BEE0E1"/>
<path d="M137.028 121.759C136.867 122.355 137.088 123.195 137.529 123.637C137.964 124.078 138.453 123.947 138.614 123.35C138.775 122.754 138.554 121.914 138.119 121.472C137.678 121.031 137.189 121.162 137.028 121.759Z" fill="#15878A"/>
<path d="M125.226 128.235L126.15 130.822L138.007 123.751L138.162 123.662C138.252 123.585 138.323 123.465 138.365 123.304C138.502 122.798 138.311 122.082 137.942 121.707C137.733 121.492 137.506 121.438 137.328 121.522L137.274 121.558L125.226 128.235Z" fill="black"/>
<path d="M125.375 128.285L137.322 121.655L137.376 121.625C137.411 121.608 137.447 121.602 137.489 121.602C137.602 121.602 137.727 121.667 137.847 121.786C138.192 122.132 138.365 122.794 138.24 123.265C138.204 123.39 138.151 123.491 138.085 123.557L137.942 123.64L126.216 130.633L125.375 128.285Z" fill="#15878A"/>
<path d="M124.932 128.702C124.771 129.304 124.992 130.15 125.433 130.598C125.874 131.039 126.363 130.913 126.524 130.305C126.685 129.703 126.465 128.857 126.023 128.41C125.588 127.968 125.093 128.1 124.932 128.702Z" fill="black"/>
<path d="M125.964 130.73C125.821 130.73 125.672 130.652 125.523 130.503C125.112 130.092 124.903 129.293 125.052 128.732C125.129 128.44 125.29 128.273 125.493 128.273C125.636 128.273 125.785 128.351 125.934 128.5C126.346 128.911 126.554 129.71 126.405 130.271C126.328 130.563 126.167 130.73 125.964 130.73Z" fill="#15878A"/>
<path d="M78.3079 6.47669C83.7508 2.74473 87.3755 -2.97245 90.6782 1.84453C93.9869 6.66746 92.252 13.5948 86.8151 17.3268C79.2796 22.4955 66.4145 18.066 64.7691 12.7066C61.52 2.10088 72.8649 10.2087 78.3079 6.47669Z" fill="#8EDDE1"/>
<path d="M157.156 39.4404C160.918 42.9518 165.479 45.1874 163.255 47.5601C161.037 49.9329 156.19 49.0148 152.429 45.4974C147.218 40.6328 146.753 31.8752 149.74 30.5934C155.654 28.0657 153.4 35.9291 157.156 39.4404Z" fill="#8EDDE1"/>
<path d="M157.365 71.8267C157.216 68.7982 155.803 66.0082 158.587 65.8651C161.377 65.728 163.756 68.0709 163.911 71.0934C164.119 75.2844 159.088 79.2668 156.501 78.6229C151.374 77.3531 157.514 74.8552 157.365 71.8267Z" fill="white"/>
<path d="M31.4437 42.0943C29.6672 36.8481 27.4435 31.7986 26.3525 26.3378C25.2675 20.9068 24.88 13.4786 30.5972 10.4442C35.1698 8.01186 40.9525 9.25187 45.686 10.5455C50.6401 11.9882 55.4213 14.0033 59.9998 16.3819C54.5986 14.3729 49.1616 12.334 43.4921 11.2013C40.1835 10.5455 36.4396 10.0328 33.107 10.9867C20.8917 14.4921 29.7864 34.0998 31.4437 42.0943Z" fill="#8EDDE1"/>
</svg>
