<svg width="119" height="79" viewBox="0 0 119 79" fill="none" xmlns="http://www.w3.org/2000/svg">
<path d="M105.553 34.8355C100.665 30.6667 94.7792 5.53415 74.5993 18.6247C64.1748 25.3896 46.596 12.8183 32.0476 17.1618C18.6875 21.1509 17.3995 34.2863 18.6925 38.565C21.3036 47.2121 13.1757 48.5002 5.63696 52.2146C-6.19042 58.041 2.57652 78.7401 13.7499 78.835C24.9232 78.9348 92.5176 78.835 92.5176 78.835C92.5176 78.835 108.768 78.4655 115.518 69.5039C122.778 59.8632 118.174 45.5995 105.553 34.8355Z" fill="#EBF2F9" fill-opacity="0.1"/>
<path d="M39.1212 76.5152C39.1212 76.5152 39.261 78.7968 39.7053 78.8318C39.7653 78.8368 41.947 78.8368 41.947 78.8368L44.7329 78.8218C44.7329 78.8218 44.7129 78.1528 43.8991 78.008C43.0853 77.8682 41.7223 77.2941 41.2281 76.2207C40.7089 75.0824 39.1212 76.5152 39.1212 76.5152Z" fill="#163560"/>
<path d="M38.1212 49.8828C38.1212 49.8828 39.3343 50.1924 40.1032 49.9627C40.8721 49.728 42.2001 50.1125 42.4148 50.3921C42.6294 50.6716 42.5496 50.7865 42.1701 50.8813C41.7907 50.9762 40.4377 51.5553 39.549 51.2208C38.6604 50.8863 37.5021 50.8763 37.5021 50.8763L38.1212 49.8828Z" fill="#E49963"/>
<path d="M27.6349 39.346C27.6349 39.346 28.9979 49.0315 31.2545 49.8953C32.3678 50.3246 37.2855 51.2932 38.7433 51.393C38.7433 51.393 39.0978 51.1035 39.0129 49.9252C39.0129 49.9252 33.8606 48.033 33.1267 47.0046C32.0383 45.4718 33.8057 40.7489 32.4377 39.311C31.0698 37.8682 28.7632 37.2491 27.6349 39.346Z" fill="#4A75CB"/>
<path d="M27.8094 76.6542V74.5424H24.4893C24.3995 74.5424 24.3246 74.4675 24.3246 74.3776V74.0381C24.3246 73.9483 24.3995 73.8734 24.4893 73.8734H27.8144V61.8563C27.8144 61.5168 28.089 61.2422 28.4285 61.2422H29.0825C29.422 61.2422 29.6966 61.5168 29.6966 61.8563V73.8734H33.0216C33.1115 73.8734 33.1864 73.9483 33.1864 74.0381V74.3776C33.1864 74.4675 33.1115 74.5424 33.0216 74.5424H29.6966V76.6542C32.103 76.834 34.0301 77.7027 34.5693 78.821H22.9366C23.4808 77.7027 25.408 76.834 27.8094 76.6542Z" fill="#A6C7F9"/>
<path d="M28.0926 59.7434C28.492 60.4174 28.9513 61.0515 29.4256 61.6456C30.8884 63.4929 32.486 65.0206 32.7606 66.4584C32.8155 66.748 32.9054 67.0526 33.0202 67.3821C33.1351 67.7116 33.2799 68.0611 33.4446 68.4155C34.0637 69.7635 34.9973 71.2763 35.9209 72.6542C37.5235 75.0307 39.0313 77.0127 39.0313 77.0127L41.7972 76.8929C41.6873 76.6133 40.4791 73.3332 38.8665 69.3242C38.2125 67.6966 37.5135 65.9642 36.8445 64.2967C36.7547 64.072 36.6648 63.8523 36.5749 63.6326C36.3702 63.1234 36.1656 62.6192 35.9708 62.1299C34.4531 58.3655 33.2499 55.365 33.2499 55.365C33.2499 55.365 27.1939 53.0684 26.5648 54.5562C26.0456 55.7843 26.47 56.9826 28.0926 59.7434Z" fill="#045299"/>
<path d="M32.7168 69.9922C32.7168 69.9922 30.7947 71.2303 30.9794 71.6298C31.0044 71.6847 32.0678 73.5868 32.0678 73.5868L33.4408 76.0082C33.4408 76.0082 34.0199 75.6637 33.7453 74.8849C33.4707 74.1061 33.306 72.6382 34.0049 71.6847C34.7388 70.6812 32.7168 69.9922 32.7168 69.9922Z" fill="#163560"/>
<path d="M35.3174 54.2812C35.3174 54.2812 42.921 59.0142 43.7698 62.1995C44.6185 65.3797 33.6598 72.1696 33.6598 72.1696C33.6598 72.1696 32.4566 71.1112 32.2469 70.3323C32.2469 70.3323 37.1996 64.3962 38.278 63.0682C38.937 62.2494 28.5175 60.2374 27.2444 58.2603C25.9713 56.2783 26.4256 54.6158 26.4256 54.6158L35.3174 54.2812Z" fill="#045299"/>
<path d="M20.9744 60.3594H36.5313C36.8408 60.3594 37.0954 60.614 37.0954 60.9235V64.0339C37.0954 64.3434 36.8408 64.5981 36.5313 64.5981H20.9744C20.6649 64.5981 20.4103 64.3434 20.4103 64.0339V60.9235C20.4103 60.614 20.6649 60.3594 20.9744 60.3594Z" fill="black"/>
<path d="M31.8027 37.6854C32.5516 38.1497 32.961 38.7339 32.961 38.7339C31.1387 39.2032 28.1232 37.5157 28.1232 37.5157C28.1232 37.5157 29.2964 36.7269 29.7308 34.9994C29.7507 34.9146 29.7707 34.8247 29.7907 34.7298C29.8456 34.4403 29.8806 34.1207 29.8905 33.7812L30.7293 34.5301L32.1222 35.7783C32.1222 35.7783 32.0923 36.2975 31.9175 37.1862C31.8776 37.341 31.8426 37.5107 31.8027 37.6854Z" fill="#E49963"/>
<path d="M26.2013 46.2756C26.461 49.7853 26.0216 55.1174 26.3212 56.041C26.5758 56.8398 29.5813 56.3655 30.7446 56.1009C31.1739 56.0011 31.6932 55.8613 32.2324 55.6965C33.7301 55.2322 35.3677 54.5682 35.5424 54.074C35.5474 54.054 35.5574 54.034 35.5574 54.019C35.5724 53.9491 35.5724 53.8792 35.5524 53.8143C35.4925 53.5647 35.2678 53.2901 35.2429 52.671C35.2129 51.9771 35.2179 51.1583 35.193 50.2796C35.193 50.1798 35.188 50.0749 35.178 49.9751V49.9401C35.178 49.9201 35.178 49.9052 35.178 49.8852C35.153 48.9066 35.1031 47.8732 35.0432 46.8547C35.0032 46.2107 34.9633 45.5766 34.9134 44.9675C34.7836 43.3949 34.6038 41.9969 34.3742 41.1133C33.9947 39.6754 33.151 38.7318 32.3871 38.0428L31.833 37.5685C31.2139 37.7033 30.485 37.6135 29.8259 37.2989C29.112 36.9594 28.8624 36.7148 28.7376 36.8097C27.08 38.0828 25.8968 41.987 26.2013 46.2756Z" fill="#739AF0"/>
<path d="M32.2233 55.6989C33.721 55.2346 35.3586 54.5706 35.5333 54.0763C35.5383 54.0564 35.5483 54.0364 35.5483 54.0214C35.5483 53.9515 35.5483 53.8816 35.5433 53.8167C35.4834 53.5671 35.2588 53.2925 35.2338 52.6734C35.2038 51.9795 35.2088 51.1607 35.1839 50.282C35.1839 50.1821 35.1789 50.0773 35.1689 49.9774V49.9425C35.1689 49.9225 35.1689 49.9075 35.1689 49.8876L29.5023 47.3164C29.5023 47.3164 29.1778 51.8846 32.2233 55.6989Z" fill="#4A75CB"/>
<path d="M32.1179 35.7755C32.1179 35.7755 32.088 36.2947 31.9132 37.1834C30.5553 36.744 29.9362 35.5159 29.7315 34.9966C29.6716 34.8519 29.6466 34.757 29.6466 34.757C29.6466 34.757 29.7015 34.747 29.7914 34.727C29.9811 34.6871 30.3406 34.6122 30.725 34.5273L32.1179 35.7755Z" fill="#D68D5D"/>
<path d="M32.6669 35.7638C32.6669 35.7638 29.6814 36.0983 29.5016 34.241C29.3219 32.3788 28.8127 31.1706 30.7098 30.876C32.607 30.5815 33.0464 31.2555 33.261 31.8646C33.4707 32.4637 33.4358 35.629 32.6669 35.7638Z" fill="#E49963"/>
<path d="M29.5113 34.3673C29.5113 34.3673 29.7011 31.896 32.417 31.6414C34.2792 31.4666 33.2408 29.864 33.0411 29.6094C33.0411 29.6094 31.6132 29.8041 30.1554 30.0487C27.0899 30.553 29.2118 33.9829 29.5113 34.3673Z" fill="#2B478B"/>
<path d="M43.9548 52.3019L44.2159 52.3867L46.439 45.5442L46.1778 45.4594L43.9548 52.3019Z" fill="#4A75CB"/>
<path d="M36.6726 52.2255L44.2198 52.3867L44.2294 51.9375L36.6822 51.7763L36.6726 52.2255Z" fill="#4A75CB"/>
<path d="M37.4955 51.3594C37.4955 51.3594 38.6688 51.8037 39.4576 51.6589C40.2514 51.5141 41.5245 52.0384 41.7093 52.3429C41.889 52.6475 41.7991 52.7473 41.4097 52.8022C41.0203 52.8571 39.6124 53.2815 38.7686 52.8522C37.9249 52.4228 36.7716 52.283 36.7716 52.283L37.4955 51.3594Z" fill="#E49963"/>
<path d="M28.2384 39.7374C28.2384 39.7374 28.523 49.5129 30.6698 50.6212C31.7282 51.1704 36.5111 52.6782 37.9489 52.9328C37.9489 52.9328 38.3334 52.6832 38.3783 51.5049C38.3783 51.5049 33.4656 49.0536 32.8515 47.9502C31.9379 46.3077 34.2145 41.8044 33.0113 40.2267C31.8131 38.6491 29.5914 37.7804 28.2384 39.7374Z" fill="#739AF0"/>
<path d="M55.5923 63.0861H94.5344C97.2503 63.0861 99.457 60.8843 99.457 58.1634V4.92267C99.457 2.20671 97.2553 0 94.5344 0H55.5923C52.8764 0 50.6697 2.20172 50.6697 4.92267V58.1634C50.6697 60.8843 52.8714 63.0861 55.5923 63.0861Z" fill="#D2E4FF"/>
<path d="M55.4637 56.7031L94.7402 56.7031V6.6177L55.4637 6.6177L55.4637 56.7031Z" fill="#F3F9FF"/>
<path d="M89.1676 54.4993C88.0243 54.4993 87.0957 53.5707 87.0957 52.4274V23.775C87.0957 22.6317 88.0243 21.7031 89.1676 21.7031C90.3109 21.7031 91.2395 22.6317 91.2395 23.775V52.4274C91.2395 53.5707 90.3159 54.4993 89.1676 54.4993Z" fill="#045299"/>
<path d="M82.3787 54.5C81.2354 54.5 80.3068 53.5714 80.3068 52.4281V14.6344C80.3068 13.4911 81.2354 12.5625 82.3787 12.5625C83.522 12.5625 84.4506 13.4911 84.4506 14.6344V52.4281C84.4506 53.5714 83.527 54.5 82.3787 54.5Z" fill="#045299"/>
<path d="M74.9674 54.5036C73.8241 54.5036 72.8955 53.575 72.8955 52.4317V31.7125C72.8955 30.5692 73.8241 29.6406 74.9674 29.6406C76.1107 29.6406 77.0393 30.5692 77.0393 31.7125V52.4317C77.0393 53.575 76.1157 54.5036 74.9674 54.5036Z" fill="#045299"/>
<path d="M67.7604 54.5C66.6171 54.5 65.6885 53.5713 65.6885 52.428V20.236C65.6885 19.0927 66.6171 18.1641 67.7604 18.1641C68.9037 18.1641 69.8323 19.0927 69.8323 20.236V52.428C69.8373 53.5713 68.9087 54.5 67.7604 54.5Z" fill="#045299"/>
<path d="M62.5872 36.5758V52.4272C62.5872 53.5705 61.6586 54.4991 60.5153 54.4991C59.372 54.4991 58.4434 53.5705 58.4434 52.4272V36.5758C58.4434 35.4325 59.372 34.5039 60.5153 34.5039C61.6586 34.5039 62.5872 35.4325 62.5872 36.5758Z" fill="#045299"/>
<path d="M65.8861 15.6056H69.3958C69.5955 15.6056 69.7603 15.7703 69.7603 15.97C69.7603 16.1698 69.5955 16.3345 69.3958 16.3345H65.8861C65.6864 16.3345 65.5216 16.1698 65.5216 15.97C65.5216 15.7703 65.6864 15.6056 65.8861 15.6056Z" fill="#A6C7F9"/>
<path d="M68.597 16.9219H69.3958C69.5955 16.9219 69.7603 17.0866 69.7603 17.2863C69.7603 17.486 69.5955 17.6508 69.3958 17.6508H68.597C68.3973 17.6508 68.2325 17.486 68.2325 17.2863C68.2325 17.0866 68.3973 16.9219 68.597 16.9219Z" fill="#A6C7F9"/>
<path d="M80.3499 10.0273H83.8597C84.0594 10.0273 84.2242 10.1921 84.2242 10.3918C84.2242 10.5915 84.0594 10.7563 83.8597 10.7563H80.3499C80.1502 10.7563 79.9855 10.5915 79.9855 10.3918C79.9855 10.1921 80.1502 10.0273 80.3499 10.0273Z" fill="#A6C7F9"/>
<path d="M83.0617 11.3516H83.8605C84.0602 11.3516 84.225 11.5163 84.225 11.716C84.225 11.9157 84.0602 12.0805 83.8605 12.0805H83.0617C82.862 12.0805 82.6973 11.9157 82.6973 11.716C82.6973 11.5163 82.862 11.3516 83.0617 11.3516Z" fill="#A6C7F9"/>
<path d="M87.3703 19.1641H90.8801C91.0798 19.1641 91.2446 19.3288 91.2446 19.5285C91.2446 19.7282 91.0798 19.893 90.8801 19.893H87.3703C87.1706 19.893 87.0059 19.7282 87.0059 19.5285C87.0059 19.3288 87.1706 19.1641 87.3703 19.1641Z" fill="#A6C7F9"/>
<path d="M90.0813 20.4883H90.8801C91.0798 20.4883 91.2445 20.653 91.2445 20.8527C91.2445 21.0524 91.0798 21.2172 90.8801 21.2172H90.0813C89.8816 21.2172 89.7168 21.0524 89.7168 20.8527C89.7168 20.648 89.8816 20.4883 90.0813 20.4883Z" fill="#A6C7F9"/>
<path d="M73.216 27.0977H76.7258C76.9255 27.0977 77.0903 27.2624 77.0903 27.4621C77.0903 27.6618 76.9255 27.8266 76.7258 27.8266H73.216C73.0163 27.8266 72.8516 27.6618 72.8516 27.4621C72.8516 27.2624 73.0163 27.0977 73.216 27.0977Z" fill="#A6C7F9"/>
<path d="M75.926 28.4219H76.7248C76.9245 28.4219 77.0892 28.5866 77.0892 28.7863C77.0892 28.986 76.9245 29.1508 76.7248 29.1508H75.926C75.7263 29.1508 75.5615 28.986 75.5615 28.7863C75.5615 28.5866 75.7263 28.4219 75.926 28.4219Z" fill="#A6C7F9"/>
<path d="M58.757 31.9493H62.2668C62.4665 31.9493 62.6313 32.1141 62.6313 32.3138C62.6313 32.5135 62.4665 32.6783 62.2668 32.6783H58.757C58.5573 32.6783 58.3926 32.5135 58.3926 32.3138C58.3976 32.1141 58.5573 31.9493 58.757 31.9493Z" fill="#A6C7F9"/>
<path d="M61.467 33.2734H62.2658C62.4655 33.2734 62.6303 33.4382 62.6303 33.6379C62.6303 33.8376 62.4655 34.0024 62.2658 34.0024H61.467C61.2673 34.0024 61.1025 33.8376 61.1025 33.6379C61.1075 33.4332 61.2673 33.2734 61.467 33.2734Z" fill="#A6C7F9"/>
<path d="M60.5166 30.916C59.8076 30.916 59.2285 30.3369 59.2285 29.6279C59.2285 28.919 59.8076 28.3398 60.5166 28.3398C61.2255 28.3398 61.8047 28.919 61.8047 29.6279C61.8047 30.3369 61.2255 30.916 60.5166 30.916ZM60.5166 28.8391C60.0822 28.8391 59.7278 29.1936 59.7278 29.6279C59.7278 30.0623 60.0822 30.4168 60.5166 30.4168C60.9509 30.4168 61.3054 30.0623 61.3054 29.6279C61.3054 29.1936 60.9509 28.8391 60.5166 28.8391Z" fill="#2B478B"/>
<path d="M59.9675 28.839C59.9026 28.839 59.8377 28.814 59.7928 28.7641L55.9185 24.8899H24.4254C24.2856 24.8899 24.1758 24.78 24.1758 24.6403C24.1758 24.5005 24.2856 24.3906 24.4254 24.3906H56.1182L60.1422 28.4146C60.2421 28.5145 60.2421 28.6693 60.1422 28.7691C60.0973 28.814 60.0324 28.839 59.9675 28.839Z" fill="#2B478B"/>
<path d="M67.9344 58.1073C67.2255 58.1073 66.6464 57.5282 66.6464 56.8192C66.6464 56.1103 67.2255 55.5311 67.9344 55.5311C68.6434 55.5311 69.2225 56.1103 69.2225 56.8192C69.2225 57.5331 68.6434 58.1073 67.9344 58.1073ZM67.9344 56.0304C67.5001 56.0304 67.1456 56.3849 67.1456 56.8192C67.1456 57.2536 67.5001 57.608 67.9344 57.608C68.3688 57.608 68.7233 57.2536 68.7233 56.8192C68.7233 56.3849 68.3688 56.0304 67.9344 56.0304Z" fill="#2B478B"/>
<path d="M103.522 62.0548H72.3283L68.3043 58.0308C68.2044 57.9309 68.2044 57.7762 68.3043 57.6763C68.4041 57.5765 68.5589 57.5765 68.6587 57.6763L72.533 61.5506H103.522C103.662 61.5506 103.771 61.6604 103.771 61.8002C103.771 61.94 103.662 62.0548 103.522 62.0548Z" fill="#2B478B"/>
<path d="M82.1953 9.02538C81.4864 9.02538 80.9072 8.44624 80.9072 7.7373C80.9072 7.02836 81.4864 6.44922 82.1953 6.44922C82.9043 6.44922 83.4834 7.02836 83.4834 7.7373C83.4834 8.44624 82.9092 9.02538 82.1953 9.02538ZM82.1953 6.94848C81.761 6.94848 81.4065 7.30295 81.4065 7.7373C81.4065 8.17165 81.761 8.52612 82.1953 8.52612C82.6297 8.52612 82.9841 8.17165 82.9841 7.7373C82.9841 7.30295 82.6297 6.94848 82.1953 6.94848Z" fill="#2B478B"/>
<path d="M81.6462 6.94838C81.5813 6.94838 81.5164 6.92341 81.4715 6.87349L77.5972 2.99926H46.1041C45.9643 2.99926 45.8545 2.88942 45.8545 2.74963C45.8545 2.60984 45.9643 2.5 46.1041 2.5H77.7969L81.8209 6.52401C81.9208 6.62386 81.9208 6.77863 81.8209 6.87848C81.776 6.92341 81.7111 6.94838 81.6462 6.94838Z" fill="#2B478B"/>
<path d="M45.4668 23.8111H24.7826C24.4331 23.8111 24.1486 23.5265 24.1486 23.177C24.1486 22.8275 24.4331 22.543 24.7826 22.543H45.4668C45.8163 22.543 46.1009 22.8275 46.1009 23.177C46.1009 23.5265 45.8163 23.8111 45.4668 23.8111Z" fill="#739AF0"/>
<path d="M45.4688 21.8111H32.7727C32.4232 21.8111 32.1387 21.5265 32.1387 21.177C32.1387 20.8275 32.4232 20.543 32.7727 20.543H45.4688C45.8183 20.543 46.1029 20.8275 46.1029 21.177C46.1029 21.5265 45.8183 21.8111 45.4688 21.8111Z" fill="#739AF0"/>
<path d="M45.4688 19.815H32.7727C32.4232 19.815 32.1387 19.5304 32.1387 19.1809C32.1387 18.8315 32.4232 18.5469 32.7727 18.5469H45.4688C45.8183 18.5469 46.1029 18.8315 46.1029 19.1809C46.1029 19.5304 45.8183 19.815 45.4688 19.815Z" fill="#739AF0"/>
<path d="M67.0116 1.79155H46.3274C45.9779 1.79155 45.6934 1.50697 45.6934 1.15749C45.6934 0.808014 45.9779 0.523438 46.3274 0.523438H67.0116C67.3611 0.523438 67.6457 0.808014 67.6457 1.15749C67.6407 1.50697 67.3611 1.79155 67.0116 1.79155Z" fill="#739AF0"/>
<path d="M85.506 71.4929C87.2646 69.7342 87.2646 66.8829 85.506 65.1243C83.7473 63.3657 80.896 63.3657 79.1374 65.1243C77.3788 66.8829 77.3788 69.7342 79.1374 71.4929C80.896 73.2515 83.7473 73.2515 85.506 71.4929Z" fill="#045299"/>
<path d="M82.3219 64.5078C84.4238 64.5078 86.1263 66.2103 86.1263 68.3121C86.1263 69.3506 85.7069 70.2942 85.0329 70.9832L82.3219 68.3121L78.7672 69.6701C78.6075 69.2508 78.5176 68.7914 78.5176 68.3121C78.5126 66.2103 80.2201 64.5078 82.3219 64.5078Z" fill="white"/>
<path d="M82.8766 66.3789H84.4941C84.559 66.3789 84.609 66.4288 84.609 66.4937C84.609 66.5586 84.559 66.6086 84.4941 66.6086H82.8766C82.8116 66.6086 82.7617 66.5586 82.7617 66.4937C82.7617 66.4338 82.8116 66.3789 82.8766 66.3789Z" fill="#045299"/>
<path d="M82.8766 66.75H84.4941C84.559 66.75 84.609 66.7999 84.609 66.8648C84.609 66.9297 84.559 66.9797 84.4941 66.9797H82.8766C82.8116 66.9797 82.7617 66.9297 82.7617 66.8648C82.7617 66.7999 82.8116 66.75 82.8766 66.75Z" fill="#045299"/>
<path d="M83.8248 67.1094H84.4938C84.5587 67.1094 84.6086 67.1593 84.6086 67.2242C84.6086 67.2891 84.5587 67.339 84.4938 67.339H83.8248C83.7599 67.339 83.71 67.2891 83.71 67.2242C83.71 67.1593 83.7649 67.1094 83.8248 67.1094Z" fill="#045299"/>
<path d="M78.3789 66.2003L80.1612 64.418H78.3789V66.2003Z" fill="#045299"/>
<path d="M102.021 68.5289C102.145 66.0448 100.231 63.9306 97.7473 63.8067C95.2632 63.6828 93.149 65.5961 93.0251 68.0802C92.9012 70.5644 94.8146 72.6786 97.2987 72.8025C99.7828 72.9263 101.897 71.013 102.021 68.5289Z" fill="#045299"/>
<path d="M93.7129 68.3081C93.7129 66.2062 95.4154 64.5038 97.5172 64.5038C99.6191 64.5038 101.322 66.2062 101.322 68.3081C101.322 70.41 99.6191 72.1125 97.5172 72.1125C96.6485 72.1125 95.8497 71.8229 95.2107 71.3336L97.5172 68.3081L93.9625 69.6661C93.8028 69.2417 93.7129 68.7874 93.7129 68.3081Z" fill="white"/>
<path d="M98.1051 66.3789H99.7227C99.7876 66.3789 99.8375 66.4288 99.8375 66.4937C99.8375 66.5586 99.7876 66.6086 99.7227 66.6086H98.1051C98.0402 66.6086 97.9902 66.5586 97.9902 66.4937C97.9902 66.4338 98.0402 66.3789 98.1051 66.3789Z" fill="#045299"/>
<path d="M98.1051 66.75H99.7227C99.7876 66.75 99.8375 66.7999 99.8375 66.8648C99.8375 66.9297 99.7876 66.9797 99.7227 66.9797H98.1051C98.0402 66.9797 97.9902 66.9297 97.9902 66.8648C97.9902 66.7999 98.0402 66.75 98.1051 66.75Z" fill="#045299"/>
<path d="M99.0584 67.1094H99.7274C99.7923 67.1094 99.8423 67.1593 99.8423 67.2242C99.8423 67.2891 99.7923 67.339 99.7274 67.339H99.0584C98.9935 67.339 98.9436 67.2891 98.9436 67.2242C98.9436 67.1593 98.9935 67.1094 99.0584 67.1094Z" fill="#045299"/>
<path d="M93.6035 66.1963L95.3859 64.4139H93.6035V66.1963Z" fill="#045299"/>
<path d="M114.006 78.9831H9.92614C9.84626 78.9831 9.77637 78.9182 9.77637 78.8334C9.77637 78.7535 9.84127 78.6836 9.92614 78.6836H114.006C114.086 78.6836 114.156 78.7485 114.156 78.8334C114.151 78.9182 114.086 78.9831 114.006 78.9831Z" fill="#202F4E"/>
</svg>
