<svg width="87" height="87" viewBox="0 0 87 87" fill="none" xmlns="http://www.w3.org/2000/svg">
<path d="M19.0312 19.0312L22.4297 73.4062C22.5911 76.5481 24.8766 78.8438 27.8672 78.8438H59.1328C62.1353 78.8438 64.3783 76.5481 64.5703 73.4062L67.9688 19.0312" stroke="#FF0000" stroke-width="5.4375" stroke-linecap="round" stroke-linejoin="round"/>
<path d="M13.5938 19.0312H73.4062H13.5938Z" fill="#FF0000"/>
<path d="M13.5938 19.0312H73.4062" stroke="#FF0000" stroke-width="5.4375" stroke-miterlimit="10" stroke-linecap="round"/>
<path d="M32.625 19.0313V12.2344C32.6234 11.6984 32.7278 11.1674 32.9322 10.6719C33.1366 10.1764 33.437 9.72622 33.816 9.34722C34.195 8.96822 34.6451 8.66789 35.1406 8.4635C35.6361 8.25911 36.1671 8.1547 36.7031 8.15627H50.2969C50.8329 8.1547 51.3639 8.25911 51.8594 8.4635C52.3548 8.66789 52.805 8.96822 53.184 9.34722C53.5631 9.72622 53.8634 10.1764 54.0678 10.6719C54.2722 11.1674 54.3766 11.6984 54.375 12.2344V19.0313M43.5 29.9063V67.9688M31.2656 29.9063L32.625 67.9688M55.7344 29.9063L54.375 67.9688" stroke="#FF0000" stroke-width="5.4375" stroke-linecap="round" stroke-linejoin="round"/>
</svg>
