<svg width="24" height="20" viewBox="0 0 24 20" fill="none" xmlns="http://www.w3.org/2000/svg">
<path fill-rule="evenodd" clip-rule="evenodd" d="M11.9011 5.90437L11.9514 6.73483L11.1121 6.63314C8.05674 6.24334 5.38752 4.92139 3.12121 2.7012L2.01324 1.59957L1.72785 2.41308C1.1235 4.22652 1.50961 6.14165 2.76867 7.4297C3.44017 8.14152 3.28909 8.2432 2.13075 7.8195C1.72785 7.68392 1.37531 7.58223 1.34174 7.63307C1.22422 7.75171 1.62712 9.29398 1.94609 9.90411C2.38256 10.7515 3.2723 11.582 4.24597 12.0735L5.06856 12.4633L4.09489 12.4802C3.15479 12.4802 3.12121 12.4972 3.22194 12.8531C3.55769 13.9547 4.8839 15.1241 6.3612 15.6326L7.40203 15.9885L6.4955 16.5308C5.1525 17.3104 3.57447 17.7511 1.99645 17.785C1.24101 17.8019 0.619873 17.8697 0.619873 17.9205C0.619873 18.09 2.66795 19.0391 3.85986 19.412C7.4356 20.5136 11.6828 20.039 14.8725 18.1578C17.1388 16.8189 19.4051 14.1581 20.4627 11.582C21.0335 10.2092 21.6043 7.70087 21.6043 6.49756C21.6043 5.71795 21.6546 5.61626 22.5947 4.68412C23.1487 4.14178 23.6691 3.5486 23.7698 3.37912C23.9377 3.0571 23.9209 3.0571 23.0648 3.34522C21.6378 3.85366 21.4364 3.78587 22.1415 3.02321C22.6619 2.48087 23.283 1.49788 23.283 1.20977C23.283 1.15892 23.0312 1.24366 22.7458 1.3962C22.4436 1.56568 21.7721 1.8199 21.2685 1.97243L20.362 2.26055L19.5394 1.70126C19.0861 1.3962 18.4482 1.05724 18.1125 0.955547C17.2563 0.718274 15.9469 0.75217 15.1746 1.02334C13.0762 1.786 11.75 3.75197 11.9011 5.90437Z" fill="white"/>
</svg>
