<svg width="48" height="48" viewBox="0 0 48 48" fill="none" xmlns="http://www.w3.org/2000/svg">
<circle cx="24" cy="24" r="24" fill="#045299"/>
<path d="M33.376 26.0129H34.0151V26.6231H33.376V26.0129Z" fill="white"/>
<path d="M33.376 24.1245H34.0151V24.7347H33.376V24.1245Z" fill="white"/>
<path d="M35.6123 26.0129H36.2514V26.6231H35.6123V26.0129Z" fill="white"/>
<path d="M35.6123 24.1245H36.2514V24.7347H35.6123V24.1245Z" fill="white"/>
<path d="M33.376 31.6196H34.0151V32.2298H33.376V31.6196Z" fill="white"/>
<path d="M33.376 29.7019H34.0151V30.3121H33.376V29.7019Z" fill="white"/>
<path d="M33.376 27.9009H34.0151V28.5111H33.376V27.9009Z" fill="white"/>
<path d="M35.6123 31.6196H36.2514V32.2298H35.6123V31.6196Z" fill="white"/>
<path d="M35.6123 29.7019H36.2514V30.3121H35.6123V29.7019Z" fill="white"/>
<path d="M35.6123 27.9009H36.2514V28.5111H35.6123V27.9009Z" fill="white"/>
<path d="M27.3035 28.8596C27.1874 28.8596 27.1 28.8015 27.0421 28.7143C26.9549 28.569 27.0131 28.3658 27.1582 28.2787L30.2376 26.5065L27.3034 24.8215L23.9044 26.7969C23.7591 26.884 23.5558 26.8259 23.4687 26.6808C23.3815 26.5355 23.4397 26.3322 23.5848 26.2451L27.1291 24.1823C27.2163 24.1241 27.3326 24.1241 27.4487 24.1823L31.022 26.2161C31.1092 26.2742 31.1673 26.3904 31.1673 26.4775C31.1673 26.5936 31.1092 26.681 31.022 26.7389L27.4487 28.8307C27.3905 28.8596 27.3324 28.8596 27.3034 28.8596L27.3035 28.8596Z" fill="white"/>
<path d="M27.3044 32.9864C27.2462 32.9864 27.1882 32.9864 27.1591 32.9574L23.5857 30.8946C23.4986 30.8364 23.4404 30.7203 23.4404 30.6332V26.5078C23.4404 26.3335 23.5857 26.1882 23.76 26.1882C23.9343 26.1882 24.0506 26.3335 24.0506 26.5078V30.4299L27.3044 32.3182L30.5581 30.4299V26.5078C30.5581 26.3335 30.7034 26.1882 30.8777 26.1882C31.052 26.1882 31.1973 26.3335 31.1973 26.5078V30.6332C31.1973 30.7493 31.1391 30.8366 31.052 30.8946L27.4787 32.9574C27.3915 32.9864 27.3333 32.9864 27.3044 32.9864Z" fill="white"/>
<path d="M27.304 31.5913C27.1297 31.5913 26.9844 31.446 26.9844 31.2717V28.5408C26.9844 28.3665 27.1297 28.2212 27.304 28.2212C27.4782 28.2212 27.6235 28.3665 27.6235 28.5408V31.2717C27.5946 31.4752 27.4782 31.5913 27.304 31.5913Z" fill="white"/>
<path d="M38.8382 35.3685H27.3046C27.1303 35.3685 26.985 35.2232 26.985 35.0489V33.9449C26.985 33.7706 27.1303 33.6253 27.3046 33.6253C27.4789 33.6253 27.6242 33.7706 27.6242 33.9449V34.7293H38.5477V22.1789C38.5477 21.8593 38.2863 21.5979 37.9667 21.5979L28.1762 21.5977C27.8566 21.5977 27.5952 21.8591 27.5952 22.1787V23.0792C27.5952 23.2535 27.4499 23.3988 27.2756 23.3988C27.1014 23.3988 26.9561 23.2535 26.9561 23.0792V22.1787C26.9561 21.5105 27.5081 20.9585 28.1762 20.9585H37.9377C38.6058 20.9585 39.1579 21.5105 39.1579 22.1787V35.0487C39.1579 35.2232 39.0126 35.3685 38.8383 35.3685H38.8382Z" fill="white"/>
<path d="M37.5888 21.3943C37.4146 21.3943 37.2693 21.249 37.2693 21.0747V20.1741C37.2693 18.6344 36.0201 17.385 34.4802 17.385H31.4878C29.9481 17.385 28.6987 18.6342 28.6987 20.1741V21.0747C28.6987 21.249 28.5534 21.3943 28.3792 21.3943C28.2049 21.3943 28.0596 21.249 28.0596 21.0747V20.1741C28.0596 18.2858 29.5993 16.7461 31.4876 16.7461H34.4509C36.3392 16.7461 37.879 18.2858 37.879 20.1741V21.0747C37.9083 21.249 37.763 21.3943 37.5888 21.3943H37.5888Z" fill="white"/>
<path d="M12.6621 26.0129H13.3013V26.6231H12.6621V26.0129Z" fill="white"/>
<path d="M12.6621 24.1245H13.3013V24.7347H12.6621V24.1245Z" fill="white"/>
<path d="M14.8984 26.0129H15.5376V26.6231H14.8984V26.0129Z" fill="white"/>
<path d="M14.8984 24.1245H15.5376V24.7347H14.8984V24.1245Z" fill="white"/>
<path d="M12.6621 31.6196H13.3013V32.2298H12.6621V31.6196Z" fill="white"/>
<path d="M12.6621 29.7019H13.3013V30.3121H12.6621V29.7019Z" fill="white"/>
<path d="M12.6621 27.9009H13.3013V28.5111H12.6621V27.9009Z" fill="white"/>
<path d="M14.8984 31.6196H15.5376V32.2298H14.8984V31.6196Z" fill="white"/>
<path d="M14.8984 29.7019H15.5376V30.3121H14.8984V29.7019Z" fill="white"/>
<path d="M14.8984 27.9009H15.5376V28.5111H14.8984V27.9009Z" fill="white"/>
<path d="M19.9835 21.5979C19.8092 21.5979 19.6639 21.4526 19.6639 21.2783V17.734H12.6043V21.2783C12.6043 21.4526 12.459 21.5979 12.2847 21.5979C12.1105 21.5979 11.9941 21.4528 11.9941 21.2783V17.4146C11.9941 17.2403 12.1394 17.095 12.3137 17.095H19.9834C20.1577 17.095 20.303 17.2403 20.303 17.4146V21.2783C20.303 21.4528 20.1579 21.5979 19.9834 21.5979H19.9835Z" fill="white"/>
<path d="M18.2108 17.7327C18.0365 17.7327 17.8912 17.5874 17.8912 17.4131C17.8912 16.4544 17.1068 15.6699 16.148 15.6699C15.1893 15.6699 14.4048 16.4544 14.4048 17.4131C14.4048 17.5874 14.2595 17.7327 14.0852 17.7327C13.9109 17.7327 13.7656 17.5874 13.7656 17.4131C13.7656 16.1058 14.8405 15.0308 16.148 15.0308C17.4553 15.0308 18.5303 16.1056 18.5303 17.4131C18.5303 17.5876 18.3853 17.7327 18.2108 17.7327Z" fill="white"/>
<path d="M16.1487 15.6708C15.9744 15.6708 15.8291 15.5255 15.8291 15.3512V10.9934C15.8291 10.8191 15.9744 10.6738 16.1487 10.6738C16.323 10.6738 16.4683 10.8191 16.4683 10.9934V15.3512C16.4683 15.5255 16.323 15.6708 16.1487 15.6708Z" fill="white"/>
<path d="M21.8715 35.2519H10.4251C10.2508 35.2519 10.1055 35.1066 10.1055 34.9323V21.2779C10.1055 21.1037 10.2508 20.9875 10.4251 20.9875H21.8715C22.0458 20.9875 22.1911 21.1328 22.1911 21.3071V26.9723C22.1911 27.4951 21.7554 27.931 21.2324 27.931H19.9251C19.7508 27.931 19.6055 27.7857 19.6055 27.6114V26.769L17.4556 28.5993L19.6055 30.4296V29.5872C19.6055 29.4129 19.7508 29.2676 19.9251 29.2676H21.2324C21.7552 29.2676 22.1911 29.7033 22.1911 30.2264V35.0198C22.1911 35.1357 22.0458 35.2521 21.8715 35.2521V35.2519ZM10.7446 34.6417H21.5519V30.1678C21.5519 29.9936 21.4066 29.8483 21.2324 29.8483H20.2446V31.0684C20.2446 31.1846 20.1865 31.3009 20.0704 31.359C19.9542 31.4172 19.8379 31.388 19.7218 31.3009L16.7585 28.8024C16.7003 28.7443 16.6423 28.6571 16.6423 28.57C16.6423 28.4828 16.6713 28.3957 16.7585 28.3375L19.7218 25.8391C19.8089 25.7519 19.9542 25.7519 20.0704 25.7809C20.1865 25.8391 20.2446 25.9552 20.2446 26.0715V27.2917H21.2324C21.4066 27.2917 21.5519 27.1464 21.5519 26.9721V21.5975H10.7446V34.6417Z" fill="white"/>
<path d="M34.4792 17.385C34.3049 17.385 34.1596 17.2397 34.1596 17.0654V15.9324C34.1596 15.8453 34.1015 15.7871 34.0143 15.7871H31.9808C31.8936 15.7871 31.8355 15.8453 31.8355 15.9324V17.0654C31.8355 17.2397 31.6902 17.385 31.5159 17.385C31.3416 17.385 31.1963 17.2397 31.1963 17.0654V15.9324C31.1963 15.4967 31.5448 15.1479 31.9807 15.1479H34.0143C34.45 15.1479 34.7988 15.4965 34.7988 15.9324V17.0654C34.7988 17.2397 34.6535 17.385 34.4792 17.385Z" fill="white"/>
<path d="M32.9973 15.7576C32.823 15.7576 32.6777 15.6123 32.6777 15.438V10.7317L33.2006 11.1674C33.3459 11.2835 33.5783 11.3417 33.8108 11.3127C34.0432 11.2837 34.2756 11.1966 34.5081 11.1092L34.5952 11.0802C34.8858 10.9641 35.2054 10.8768 35.5829 10.8768C35.8735 10.8768 36.1931 10.9639 36.5127 11.1092L36.687 11.1964V14.1306L36.2511 13.8693C35.9896 13.7532 35.7862 13.6951 35.5829 13.6951C35.3215 13.6951 35.0601 13.7822 34.8276 13.8693L34.7405 13.8983C34.5952 13.9565 34.4209 14.0144 34.2466 14.0726C34.0723 14.1308 33.8981 14.0144 33.8689 13.8402C33.8107 13.6659 33.927 13.4916 34.1013 13.4624C34.2466 13.4334 34.3919 13.3753 34.537 13.3171L34.6242 13.2881C34.9148 13.172 35.2344 13.0847 35.6119 13.0847C35.7862 13.0847 35.9315 13.1137 36.1057 13.1428V11.5741C35.9315 11.516 35.7572 11.458 35.6119 11.458C35.3505 11.458 35.089 11.5452 34.8566 11.6323L34.7694 11.6613C34.508 11.7484 34.2174 11.8647 33.927 11.8937C33.7236 11.9227 33.5203 11.9227 33.346 11.8647V15.4381C33.2877 15.6124 33.1716 15.7576 32.9973 15.7576Z" fill="white"/>
</svg>
