<svg width="27" height="19" viewBox="0 0 27 19" fill="none" xmlns="http://www.w3.org/2000/svg">
<path fill-rule="evenodd" clip-rule="evenodd" d="M23.6226 1.14308C24.7242 1.44534 25.5917 2.33596 25.8861 3.46697C26.421 5.51679 26.421 9.79375 26.421 9.79375C26.421 9.79375 26.421 14.0706 25.8861 16.1205C25.5917 17.2515 24.7242 18.1422 23.6226 18.4446C21.6264 18.9938 13.621 18.9938 13.621 18.9938C13.621 18.9938 5.61566 18.9938 3.6193 18.4446C2.51777 18.1422 1.65028 17.2515 1.35588 16.1205C0.821045 14.0706 0.821045 9.79375 0.821045 9.79375C0.821045 9.79375 0.821045 5.51679 1.35588 3.46697C1.65028 2.33596 2.51777 1.44534 3.6193 1.14308C5.61566 0.59375 13.621 0.59375 13.621 0.59375C13.621 0.59375 21.6264 0.59375 23.6226 1.14308ZM11.2211 6.19367V14.1937L17.6211 10.1938L11.2211 6.19367Z" fill="white"/>
</svg>
