<svg width="38" height="38" viewBox="0 0 38 38" fill="none" xmlns="http://www.w3.org/2000/svg">
<circle cx="19" cy="19" r="19" fill="#045299"/>
<path d="M26.843 24.2097L26.5463 24.4322C26.3264 24.5933 26.0727 24.7023 25.8044 24.7512V20.3424C26.1659 20.0728 26.4165 19.6805 26.5092 19.2392H26.9172C27.3148 19.2392 27.6821 19.0271 27.881 18.6828C28.0797 18.3385 28.0797 17.9143 27.881 17.57C27.6821 17.2257 27.3148 17.0136 26.9172 17.0136H26.1754V14.788H26.9172C27.0156 14.788 27.11 14.7489 27.1795 14.6794C27.2491 14.6098 27.2882 14.5154 27.2882 14.4171V13.3043C27.2882 13.2059 27.2491 13.1115 27.1795 13.042C27.11 12.9724 27.0156 12.9334 26.9172 12.9334H23.9498V12.1229C24.2824 12.0052 24.5396 11.7368 24.643 11.3995C24.7461 11.062 24.6834 10.6957 24.4736 10.412C24.2636 10.1284 23.9317 9.96094 23.5789 9.96094C23.226 9.96094 22.8942 10.1284 22.6842 10.412C22.4744 10.6957 22.4116 11.062 22.5148 11.3995C22.6181 11.7368 22.8753 12.0052 23.208 12.1229V12.9334H19.4987V12.1229C19.8313 12.0052 20.0885 11.7368 20.1919 11.3995C20.295 11.062 20.2323 10.6957 20.0225 10.412C19.8125 10.1284 19.4806 9.96094 19.1278 9.96094C18.7749 9.96094 18.443 10.1284 18.2331 10.412C18.0233 10.6957 17.9605 11.062 18.0637 11.3995C18.167 11.7368 18.4242 12.0052 18.7569 12.1229V12.9334H15.0476V12.1229C15.3802 12.0052 15.6374 11.7368 15.7408 11.3995C15.8439 11.062 15.7812 10.6957 15.5713 10.412C15.3614 10.1284 15.0295 9.96094 14.6767 9.96094C14.3238 9.96094 13.9919 10.1284 13.782 10.412C13.5722 10.6957 13.5094 11.062 13.6126 11.3995C13.7159 11.7368 13.9731 12.0052 14.3058 12.1229V12.9334H10.5964V12.1229C10.9291 12.0052 11.1863 11.7368 11.2896 11.3995C11.3928 11.062 11.33 10.6957 11.1202 10.412C10.9103 10.1284 10.5784 9.96094 10.2256 9.96094C9.87268 9.96094 9.54083 10.1284 9.33087 10.412C9.12106 10.6957 9.0583 11.062 9.16146 11.3995C9.26479 11.7368 9.52196 12.0052 9.85466 12.1229V12.9334H8.37093C8.16609 12.9334 8 13.0994 8 13.3043V14.4171C8 14.5154 8.03908 14.6098 8.10863 14.6794C8.17818 14.7489 8.27257 14.788 8.37093 14.788H9.1128V17.0136H8.37093C8.16609 17.0136 8 17.1797 8 17.3845V18.8683C8 18.9666 8.03908 19.061 8.10863 19.1306C8.17818 19.2001 8.27257 19.2392 8.37093 19.2392H9.52082C9.61355 19.6803 9.8641 20.0725 10.2256 20.3421V23.7358V23.7356C9.79603 23.7903 9.3875 23.9534 9.03861 24.2097L8.14837 24.8774L8.59349 25.4709L9.48373 24.8032C9.8078 24.5697 10.1971 24.444 10.5965 24.444C10.9959 24.444 11.3852 24.5697 11.7093 24.8032L12.0061 25.0258C12.4598 25.3525 13.0048 25.5282 13.564 25.5282C14.1232 25.5282 14.6682 25.3525 15.1219 25.0258L15.4186 24.8032C15.7427 24.5697 16.132 24.444 16.5314 24.444C16.9309 24.444 17.3201 24.5697 17.6442 24.8032L17.941 25.0258C18.3949 25.3523 18.9398 25.5279 19.4989 25.5279C20.058 25.5279 20.6029 25.3523 21.0568 25.0258L21.3535 24.8032C21.6776 24.5699 22.0669 24.4444 22.4663 24.4444C22.8658 24.4444 23.2551 24.5699 23.5791 24.8032L23.8759 25.0258C24.3253 25.3629 24.8719 25.5451 25.4338 25.5451C25.9957 25.5451 26.5423 25.3629 26.9917 25.0258L27.2885 24.8032C27.6125 24.5699 28.0018 24.4444 28.4013 24.4444C28.8007 24.4444 29.19 24.5699 29.5141 24.8032L30.4043 25.4709L30.8494 24.8774L29.9592 24.2097C29.5053 23.8833 28.9603 23.7078 28.4013 23.7078C27.8422 23.7078 27.2972 23.8833 26.8433 24.2097L26.843 24.2097ZM23.5788 10.7077C23.7289 10.7077 23.8642 10.7982 23.9214 10.9368C23.9789 11.0754 23.9473 11.2348 23.8411 11.341C23.735 11.4471 23.5755 11.4788 23.4369 11.4213C23.2983 11.364 23.2079 11.2287 23.2079 11.0787C23.2079 10.8738 23.374 10.7077 23.5788 10.7077ZM19.1277 10.7077C19.2777 10.7077 19.413 10.7982 19.4703 10.9368C19.5277 11.0754 19.4961 11.2348 19.39 11.341C19.2838 11.4471 19.1243 11.4788 18.9857 11.4213C18.8471 11.364 18.7567 11.2287 18.7567 11.0787C18.7567 10.8738 18.9228 10.7077 19.1277 10.7077ZM14.6765 10.7077C14.8265 10.7077 14.9618 10.7982 15.0191 10.9368C15.0765 11.0754 15.0449 11.2348 14.9388 11.341C14.8326 11.4471 14.6732 11.4788 14.5346 11.4213C14.396 11.364 14.3055 11.2287 14.3055 11.0787C14.3055 10.8738 14.4716 10.7077 14.6765 10.7077ZM10.2253 10.7077C10.3753 10.7077 10.5106 10.7982 10.5679 10.9368C10.6254 11.0754 10.5937 11.2348 10.4876 11.341C10.3814 11.4471 10.222 11.4788 10.0834 11.4213C9.94477 11.364 9.85435 11.2287 9.85435 11.0787C9.85435 10.8738 10.0204 10.7077 10.2253 10.7077ZM24.6916 19.981C24.4623 19.98 24.2389 19.9083 24.0519 19.7755C23.865 19.6427 23.7236 19.4554 23.6471 19.2392H25.7358C25.6593 19.4553 25.5181 19.6426 25.3311 19.7754C25.1442 19.9082 24.921 19.98 24.6916 19.981ZM25.4335 17.0136H24.6916V14.788H25.4335V17.0136ZM12.0799 14.788V17.0136H11.3381V14.788H12.0799ZM12.8218 14.788H13.5637V17.0136H12.8218V14.788ZM14.3055 14.788H15.0474V17.0136H14.3055V14.788ZM15.7893 14.788H16.5311V17.0136H15.7893V14.788ZM17.273 14.788H18.0149V17.0136H17.273V14.788ZM18.7567 14.788H19.4986V17.0136H18.7567V14.788ZM20.2404 14.788H20.9823V17.0136H20.2404V14.788ZM21.7242 14.788H22.466V17.0136H21.7242V14.788ZM23.2079 14.788H23.9498V17.0136H23.2079V14.788ZM8.74156 13.6752H26.5463V14.0461H8.74156V13.6752ZM9.85435 14.788H10.5962V17.0136H9.85435V14.788ZM8.74156 17.7554H26.9172C27.1221 17.7554 27.2882 17.9215 27.2882 18.1264C27.2882 18.3312 27.1221 18.4973 26.9172 18.4973H8.74156V17.7554ZM20.2404 19.981C20.0111 19.98 19.7877 19.9083 19.6007 19.7755C19.4138 19.6427 19.2724 19.4554 19.1959 19.2392H21.2847C21.2082 19.4553 21.0669 19.6426 20.8799 19.7754C20.693 19.9082 20.4698 19.98 20.2404 19.981ZM16.1602 23.7356C15.9035 23.771 15.6535 23.844 15.4183 23.9526V20.6858C15.6631 20.7358 15.9155 20.7358 16.1602 20.6858V23.7356ZM15.7893 19.981C15.5599 19.98 15.3365 19.9083 15.1496 19.7755C14.9626 19.6427 14.8212 19.4554 14.7447 19.2392H16.8335C16.757 19.4553 16.6157 19.6426 16.4288 19.7754C16.2418 19.9082 16.0186 19.98 15.7893 19.981ZM12.3823 19.2392C12.2808 19.53 12.0627 19.7653 11.7806 19.8885C11.4984 20.0116 11.1775 20.0117 10.8953 19.8885C10.6131 19.7653 10.395 19.5299 10.2935 19.2392H12.3823ZM10.9672 23.7353V20.6859C11.2119 20.7357 11.4643 20.7357 11.709 20.6859V23.9534C11.4737 23.8447 11.2238 23.7712 10.9672 23.7353ZM12.4509 24.4323V20.3424C12.8124 20.0728 13.0629 19.6805 13.1556 19.2392H13.9717C14.0644 19.6805 14.3151 20.0727 14.6765 20.3424V24.4323C14.3522 24.6654 13.9631 24.7909 13.5637 24.7909C13.1643 24.7909 12.7751 24.6654 12.4509 24.4323ZM18.089 24.2097C17.7401 23.9532 17.3316 23.7899 16.9021 23.7353V20.3424C17.2634 20.0727 17.5141 19.6806 17.6068 19.2393H18.4229C18.5156 19.6806 18.7663 20.0727 19.1277 20.3424V24.7512C18.8594 24.7025 18.6057 24.5934 18.3858 24.4323L18.089 24.2097ZM19.8695 24.7512V20.6859C20.1143 20.7359 20.3666 20.7359 20.6114 20.6859V24.4323C20.3915 24.5934 20.1378 24.7023 19.8695 24.7512ZM21.3532 23.9525V20.3424C21.7147 20.0728 21.9653 19.6805 22.058 19.2392H22.8741C22.9668 19.6805 23.2175 20.0727 23.5788 20.3424V23.9527C22.8714 23.6332 22.0607 23.6332 21.3532 23.9527V23.9525ZM24.3207 24.4322V20.6858C24.5654 20.7358 24.8178 20.7358 25.0626 20.6858V24.7511C24.7943 24.7025 24.5406 24.5933 24.3207 24.4322Z" fill="white"/>
<path d="M26.8428 26.4316L26.546 26.6542C26.2218 26.8873 25.8327 27.0128 25.4333 27.0128C25.0338 27.0128 24.6447 26.8873 24.3205 26.6542L24.0237 26.4316C23.5698 26.1052 23.0249 25.9297 22.4658 25.9297C21.9067 25.9297 21.3618 26.1052 20.9079 26.4316L20.6111 26.6542C20.2869 26.8873 19.8978 27.0128 19.4983 27.0128C19.0989 27.0128 18.7098 26.8873 18.3855 26.6542L18.0888 26.4316C17.6349 26.1052 17.09 25.9297 16.5309 25.9297C15.9718 25.9297 15.4269 26.1052 14.973 26.4316L14.6762 26.6542C14.352 26.8873 13.9629 27.0128 13.5634 27.0128C13.164 27.0128 12.7749 26.8873 12.4506 26.6542L12.1539 26.4316C11.7 26.1052 11.155 25.9297 10.596 25.9297C10.0369 25.9297 9.49196 26.1052 9.03806 26.4316L8.14783 27.0993L8.59295 27.6928L9.48318 27.0251C9.80725 26.7916 10.1966 26.6659 10.596 26.6659C10.9954 26.6659 11.3847 26.7916 11.7088 27.0251L12.0055 27.2477C12.4592 27.5744 13.0042 27.7501 13.5634 27.7501C14.1226 27.7501 14.6676 27.5744 15.1213 27.2477L15.4181 27.0251C15.7422 26.7916 16.1315 26.6659 16.5309 26.6659C16.9303 26.6659 17.3196 26.7916 17.6437 27.0251L17.9404 27.2477C18.3943 27.5742 18.9393 27.7498 19.4983 27.7498C20.0574 27.7498 20.6024 27.5742 21.0563 27.2477L21.353 27.0251C21.6771 26.7916 22.0664 26.6661 22.4658 26.6661C22.8652 26.6661 23.2545 26.7916 23.5786 27.0251L23.8753 27.2477C24.3248 27.5848 24.8714 27.767 25.4333 27.767C25.9951 27.767 26.5417 27.5848 26.9912 27.2477L27.2879 27.0251C27.612 26.7916 28.0013 26.6661 28.4007 26.6661C28.8001 26.6661 29.1894 26.7916 29.5135 27.0251L30.4037 27.6928L30.8489 27.0993L29.9586 26.4316C29.5047 26.1052 28.9598 25.9297 28.4007 25.9297C27.8416 25.9297 27.2967 26.1052 26.8428 26.4316Z" fill="white"/>
<path d="M26.8428 28.666L26.546 28.8885C26.2218 29.1217 25.8327 29.2472 25.4333 29.2472C25.0338 29.2472 24.6447 29.1217 24.3205 28.8885L24.0237 28.666C23.5698 28.3396 23.0249 28.1641 22.4658 28.1641C21.9067 28.1641 21.3618 28.3396 20.9079 28.666L20.6111 28.8885C20.2869 29.1217 19.8978 29.2472 19.4983 29.2472C19.0989 29.2472 18.7098 29.1217 18.3855 28.8885L18.0888 28.666C17.6349 28.3396 17.09 28.1641 16.5309 28.1641C15.9718 28.1641 15.4269 28.3396 14.973 28.666L14.6762 28.8885C14.352 29.1217 13.9629 29.2472 13.5634 29.2472C13.164 29.2472 12.7749 29.1217 12.4506 28.8885L12.1539 28.666C11.7 28.3396 11.155 28.1641 10.596 28.1641C10.0369 28.1641 9.49196 28.3396 9.03806 28.666L8.14783 29.3337L8.59295 29.9272L9.48318 29.2595C9.80725 29.026 10.1966 28.9003 10.596 28.9003C10.9954 28.9003 11.3847 29.026 11.7088 29.2595L12.0055 29.482C12.4592 29.8088 13.0042 29.9845 13.5634 29.9845C14.1226 29.9845 14.6676 29.8088 15.1213 29.482L15.4181 29.2595C15.7422 29.026 16.1315 28.9003 16.5309 28.9003C16.9303 28.9003 17.3196 29.026 17.6437 29.2595L17.9404 29.482C18.3943 29.8086 18.9393 29.9841 19.4983 29.9841C20.0574 29.9841 20.6024 29.8086 21.0563 29.482L21.353 29.2595C21.6771 29.026 22.0664 28.9005 22.4658 28.9005C22.8652 28.9005 23.2545 29.026 23.5786 29.2595L23.8753 29.482C24.3248 29.8192 24.8714 30.0013 25.4333 30.0013C25.9951 30.0013 26.5417 29.8192 26.9912 29.482L27.2879 29.2595C27.612 29.026 28.0013 28.9005 28.4007 28.9005C28.8001 28.9005 29.1894 29.026 29.5135 29.2595L30.4037 29.9272L30.8489 29.3337L29.9586 28.666C29.5047 28.3396 28.9598 28.1641 28.4007 28.1641C27.8416 28.1641 27.2967 28.3396 26.8428 28.666Z" fill="white"/>
<path d="M28.7728 11.4516C29.3632 11.4516 29.9292 11.2171 30.3468 10.7998C30.7641 10.3823 30.9986 9.81621 30.9986 9.2258C30.9986 8.63539 30.7641 8.06936 30.3468 7.65184C29.9292 7.2345 29.3632 7 28.7728 7C28.1824 7 27.6164 7.2345 27.1988 7.65184C26.7815 8.06935 26.547 8.63539 26.547 9.2258C26.5477 9.81587 26.7823 10.3818 27.1995 10.7991C27.6169 11.2162 28.1827 11.4509 28.7728 11.4516ZM28.7728 7.74193C29.1663 7.74193 29.5437 7.89827 29.8221 8.17649C30.1003 8.45488 30.2567 8.83232 30.2567 9.2258C30.2567 9.61928 30.1003 9.99673 29.8221 10.2751C29.5437 10.5533 29.1663 10.7097 28.7728 10.7097C28.3793 10.7097 28.0019 10.5533 27.7235 10.2751C27.4453 9.99671 27.2889 9.61928 27.2889 9.2258C27.2889 8.83232 27.4453 8.45487 27.7235 8.17649C28.0019 7.89827 28.3793 7.74193 28.7728 7.74193Z" fill="white"/>
</svg>
