<svg width="38" height="38" viewBox="0 0 38 38" fill="none" xmlns="http://www.w3.org/2000/svg">
<circle cx="19" cy="19" r="19" fill="#045299"/>
<path d="M10.1699 14.4399L18.9999 19.5499L27.7699 14.4699" stroke="white" stroke-width="1.5" stroke-linecap="round" stroke-linejoin="round"/>
<path d="M19 28.61V19.54" stroke="white" stroke-width="1.5" stroke-linecap="round" stroke-linejoin="round"/>
<path d="M16.9296 9.47979L11.5896 12.4398C10.3796 13.1098 9.38965 14.7898 9.38965 16.1698V21.8198C9.38965 23.1998 10.3796 24.8798 11.5896 25.5498L16.9296 28.5198C18.0696 29.1498 19.9396 29.1498 21.0796 28.5198L26.4196 25.5498C27.6296 24.8798 28.6196 23.1998 28.6196 21.8198V16.1698C28.6196 14.7898 27.6296 13.1098 26.4196 12.4398L21.0796 9.46979C19.9296 8.83979 18.0696 8.83979 16.9296 9.47979Z" stroke="white" stroke-width="1.5" stroke-linecap="round" stroke-linejoin="round"/>
</svg>
