<svg width="22" height="22" viewBox="0 0 22 22" fill="none" xmlns="http://www.w3.org/2000/svg">
<path d="M7.37775 0H2.10783C1.54883 0 1.01263 0.222277 0.617321 0.617571C0.222027 1.01287 0 1.54909 0 2.10808V7.378C0 7.937 0.222033 8.4732 0.617321 8.86851C1.01261 9.2638 1.54884 9.48608 2.10783 9.48608H7.37775C7.93699 9.48608 8.47295 9.2638 8.86851 8.86851C9.2638 8.47321 9.48583 7.93699 9.48583 7.378V2.10808C9.48583 1.54908 9.26379 1.01288 8.86851 0.617571C8.47297 0.222277 7.93699 0 7.37775 0ZM8.08034 7.37789C8.08034 7.56414 8.00633 7.74303 7.87473 7.87464C7.74288 8.00649 7.56423 8.08049 7.37773 8.08049H2.10782C1.71988 8.08049 1.40522 7.76583 1.40522 7.3779V2.10798C1.40522 1.71979 1.71989 1.40539 2.10782 1.40539H7.37773C7.56423 1.40539 7.74288 1.4794 7.87473 1.611C8.00634 1.74284 8.08034 1.92149 8.08034 2.10799V7.37789Z" fill="white"/>
<path d="M19.892 0H14.6221C14.0631 0 13.5269 0.222277 13.1315 0.617571C12.7363 1.01287 12.514 1.54909 12.514 2.10808V7.378C12.514 7.937 12.7363 8.4732 13.1315 8.86851C13.5268 9.2638 14.0631 9.48608 14.6221 9.48608H19.892C20.451 9.48608 20.9872 9.2638 21.3825 8.86851C21.7778 8.47321 22.0001 7.93699 22.0001 7.378V2.10808C22.0001 1.54908 21.7778 1.01288 21.3825 0.617571C20.9872 0.222265 20.451 0 19.892 0ZM20.5946 7.37789C20.5946 7.56414 20.5206 7.74303 20.389 7.87464C20.2571 8.00649 20.0785 8.08049 19.892 8.08049H14.622C14.2341 8.08049 13.9195 7.76583 13.9195 7.3779V2.10798C13.9195 1.71979 14.2341 1.40539 14.622 1.40539H19.892C20.0785 1.40539 20.2571 1.4794 20.389 1.611C20.5206 1.74284 20.5946 1.92149 20.5946 2.10799V7.37789Z" fill="white"/>
<path d="M7.37775 12.5142H2.10783C1.54883 12.5142 1.01263 12.7362 0.617321 13.1315C0.222027 13.527 0 14.063 0 14.6222V19.8922C0 20.4512 0.222033 20.9874 0.617321 21.3827C1.01261 21.778 1.54884 22 2.10783 22H7.37775C7.93699 22 8.47295 21.778 8.86851 21.3827C9.2638 20.9874 9.48583 20.4511 9.48583 19.8922V14.6222C9.48583 14.063 9.26379 13.527 8.86851 13.1315C8.47297 12.7362 7.93699 12.5142 7.37775 12.5142ZM8.08034 19.892C8.08034 20.0783 8.00633 20.257 7.87473 20.3888C7.74288 20.5206 7.56423 20.5947 7.37773 20.5947H2.10782C1.71988 20.5947 1.40522 20.28 1.40522 19.8921V14.6221C1.40522 14.234 1.71989 13.9195 2.10782 13.9195H7.37773C7.56423 13.9195 7.74288 13.9936 7.87473 14.1252C8.00634 14.257 8.08034 14.4357 8.08034 14.6222V19.892Z" fill="white"/>
<path d="M19.892 12.5142H14.6221C14.0631 12.5142 13.5269 12.7362 13.1315 13.1315C12.7363 13.527 12.514 14.063 12.514 14.6222V19.8922C12.514 20.4512 12.7363 20.9874 13.1315 21.3827C13.5268 21.778 14.0631 22 14.6221 22H19.892C20.451 22 20.9872 21.778 21.3825 21.3827C21.7778 20.9874 22.0001 20.4511 22.0001 19.8922V14.6222C22.0001 14.063 21.7778 13.527 21.3825 13.1315C20.9872 12.7362 20.451 12.5142 19.892 12.5142ZM20.5946 19.892C20.5946 20.0783 20.5206 20.257 20.389 20.3888C20.2571 20.5206 20.0785 20.5947 19.892 20.5947H14.622C14.2341 20.5947 13.9195 20.28 13.9195 19.8921V14.6221C13.9195 14.234 14.2341 13.9195 14.622 13.9195H19.892C20.0785 13.9195 20.2571 13.9936 20.389 14.1252C20.5206 14.257 20.5946 14.4357 20.5946 14.6222V19.892Z" fill="white"/>
</svg>
