<svg width="25" height="25" viewBox="0 0 25 25" fill="none" xmlns="http://www.w3.org/2000/svg">
<path d="M11.5002 20.0001H21.5002" stroke="#045299" stroke-width="1.5625" stroke-linecap="round" stroke-linejoin="round"/>
<path d="M11.5002 13.0002H21.5002" stroke="#045299" stroke-width="1.5625" stroke-linecap="round" stroke-linejoin="round"/>
<path d="M11.5002 6.00009H21.5002" stroke="#045299" stroke-width="1.5625" stroke-linecap="round" stroke-linejoin="round"/>
<path d="M7.49465 6.56413V4.43045C7.49465 3.76779 7.19386 3.49991 6.44661 3.49991H4.54792C3.80066 3.49991 3.49988 3.76779 3.49988 4.43045V6.55943C3.49988 7.22679 3.80066 7.48998 4.54792 7.48998H6.44661C7.19386 7.49468 7.49465 7.22679 7.49465 6.56413Z" stroke="#045299" stroke-width="1.04167" stroke-linecap="round" stroke-linejoin="round"/>
<path d="M7.49465 14.0546V11.9209C7.49465 11.2582 7.19386 10.9904 6.44661 10.9904H4.54792C3.80066 10.9904 3.49988 11.2582 3.49988 11.9209V14.0499C3.49988 14.7172 3.80066 14.9804 4.54792 14.9804H6.44661C7.19386 14.9851 7.49465 14.7172 7.49465 14.0546Z" stroke="#045299" stroke-width="1.04167" stroke-linecap="round" stroke-linejoin="round"/>
<path d="M7.49465 21.5448V19.4111C7.49465 18.7484 7.19386 18.4806 6.44661 18.4806H4.54792C3.80066 18.4806 3.49988 18.7484 3.49988 19.4111V21.5401C3.49988 22.2074 3.80066 22.4706 4.54792 22.4706H6.44661C7.19386 22.4753 7.49465 22.2074 7.49465 21.5448Z" stroke="#045299" stroke-width="1.04167" stroke-linecap="round" stroke-linejoin="round"/>
</svg>
