<svg width="38" height="38" viewBox="0 0 38 38" fill="none" xmlns="http://www.w3.org/2000/svg">
<circle cx="19" cy="19" r="19" fill="#045299"/>
<path d="M27.6959 15.087H27.4786V13.3478C27.4786 13.0019 27.3412 12.6701 27.0966 12.4255C26.8519 12.1808 26.5201 12.0434 26.1742 12.0434H25.9569V10.3044C25.9569 9.95832 25.8195 9.62654 25.5748 9.38199C25.3302 9.13742 24.9984 9 24.6525 9H13.3478C13.002 9 12.6702 9.13742 12.4256 9.38199C12.1809 9.62656 12.0435 9.95833 12.0435 10.3044V12.0436L11.8261 12.0434C11.4803 12.0434 11.1485 12.1808 10.9038 12.4255C10.6592 12.6701 10.5218 13.0019 10.5218 13.3478V15.087H10.3044C9.9584 15.087 9.62662 15.2244 9.38207 15.469C9.1375 15.7137 9.00008 16.0454 9.00008 16.3913V27.6956C9.00008 28.0417 9.1375 28.3735 9.38207 28.618C9.62663 28.8626 9.95841 29 10.3044 29H27.6956C28.0417 29 28.3735 28.8626 28.618 28.618C28.8626 28.3734 29 28.0417 29 27.6956V16.3913C29 16.0454 28.8626 15.7137 28.618 15.469C28.3734 15.2244 28.0417 15.087 27.6956 15.087L27.6959 15.087ZM12.9135 10.3044C12.9135 10.0642 13.1081 9.8696 13.3481 9.8696H24.6528C24.7681 9.8696 24.8786 9.91546 24.9603 9.99698C25.0418 10.0785 25.0875 10.1891 25.0875 10.3044V12.0436L12.9138 12.0435L12.9135 10.3044ZM11.3916 13.3478C11.3916 13.1078 11.5864 12.9132 11.8264 12.9132H26.1744C26.2897 12.9132 26.4003 12.9589 26.4818 13.0404C26.5634 13.1221 26.6092 13.2325 26.6092 13.3478V15.087H11.3915L11.3916 13.3478ZM28.131 27.6958C28.131 27.8111 28.0851 27.9217 28.0036 28.0032C27.9221 28.0848 27.8115 28.1306 27.6962 28.1306H10.305C10.0648 28.1306 9.87012 27.936 9.87012 27.6958V16.3915C9.87012 16.1514 10.0648 15.9566 10.305 15.9566H27.6962C27.8115 15.9566 27.9221 16.0025 28.0036 16.084C28.0851 16.1655 28.131 16.2762 28.131 16.3915V27.6958Z" fill="white"/>
<path d="M14.87 21.6091C15.3312 21.6091 15.7736 21.4258 16.0997 21.0997C16.4259 20.7735 16.609 20.3312 16.609 19.8699C16.609 19.4087 16.4259 18.9663 16.0997 18.6402C15.7736 18.314 15.3312 18.1308 14.87 18.1308C14.4087 18.1308 13.9664 18.314 13.6402 18.6402C13.3141 18.9663 13.1308 19.4087 13.1308 19.8699C13.1308 20.3312 13.3141 20.7735 13.6402 21.0997C13.9664 21.4258 14.4087 21.6091 14.87 21.6091ZM14.87 19.0004C15.1006 19.0004 15.3217 19.0919 15.4848 19.2551C15.6479 19.4182 15.7395 19.6393 15.7395 19.8699C15.7395 20.1006 15.6479 20.3217 15.4848 20.4848C15.3217 20.6478 15.1006 20.7395 14.87 20.7395C14.6393 20.7395 14.4181 20.6478 14.2551 20.4848C14.092 20.3217 14.0003 20.1006 14.0003 19.8699C14.0003 19.6393 14.092 19.4182 14.2551 19.2551C14.4181 19.0919 14.6393 19.0004 14.87 19.0004Z" fill="white"/>
<path d="M16.4546 21.3916H16.1329C16.0192 21.3915 15.9098 21.436 15.8285 21.5155L14.8981 22.422L13.9025 21.5067H13.9023C13.8224 21.4329 13.7178 21.3919 13.6089 21.3916H13.285C12.9608 21.3869 12.6479 21.5111 12.4151 21.7369C12.1825 21.9627 12.0489 22.2716 12.0436 22.5959V25.1786C12.046 25.3869 12.1308 25.5858 12.2796 25.7316C12.4282 25.8777 12.6288 25.9586 12.8372 25.9569H16.9023C17.1108 25.9586 17.3112 25.8777 17.46 25.7316C17.6088 25.5858 17.6935 25.3869 17.6958 25.1786V22.5959C17.6907 22.2716 17.5571 21.9627 17.3243 21.7369C17.0915 21.5111 16.7787 21.3869 16.4545 21.3916L16.4546 21.3916ZM16.8264 25.0872H12.9133V22.5959C12.9238 22.401 13.09 22.2512 13.285 22.2611H13.4393L14.611 23.3481H14.6112C14.779 23.5083 15.0431 23.5083 15.2111 23.3481L16.2981 22.2764H16.4438H16.4437C16.6373 22.2599 16.8079 22.4025 16.8264 22.5959L16.8264 25.0872Z" fill="white"/>
<path d="M25.5221 20.7393H19.6525C19.4125 20.7393 19.2177 20.934 19.2177 21.174C19.2177 21.4142 19.4125 21.6088 19.6525 21.6088H25.5221C25.7622 21.6088 25.957 21.4142 25.957 21.174C25.957 20.934 25.7622 20.7393 25.5221 20.7393Z" fill="white"/>
<path d="M25.5221 22.9132H19.6525C19.4125 22.9132 19.2177 23.1079 19.2177 23.3481C19.2177 23.5881 19.4125 23.7828 19.6525 23.7828H25.5221C25.7622 23.7828 25.957 23.5881 25.957 23.3481C25.957 23.1079 25.7622 22.9132 25.5221 22.9132Z" fill="white"/>
<path d="M25.5221 25.0872H19.6525C19.4125 25.0872 19.2177 25.282 19.2177 25.522C19.2177 25.7621 19.4125 25.9569 19.6525 25.9569H25.5221C25.7622 25.9569 25.957 25.7621 25.957 25.522C25.957 25.282 25.7622 25.0872 25.5221 25.0872Z" fill="white"/>
</svg>
