<svg width="24" height="24" viewBox="0 0 24 24" fill="none" xmlns="http://www.w3.org/2000/svg">
<path d="M12 0C8.7946 0 5.78119 1.24834 3.51514 3.51477C1.24834 5.78119 0 8.7946 0 11.9996C0 15.2046 1.24834 18.2181 3.51514 20.4841C5.78119 22.7509 8.7946 23.9993 12 23.9993C15.2054 23.9993 18.2188 22.7509 20.4849 20.4845C22.7517 18.2181 24 15.2046 24 11.9996C24 8.7946 22.7517 5.78119 20.4849 3.51514C18.2188 1.24834 15.2054 0 12 0ZM19.4244 19.4236C17.4415 21.407 14.8045 22.4993 12 22.4993C9.19546 22.4993 6.55855 21.407 4.57561 19.4236C2.59229 17.4407 1.49995 14.8042 1.49995 11.9996C1.49995 9.19509 2.59229 6.55855 4.57561 4.57561C6.55855 2.59229 9.19546 1.49995 12 1.49995C14.8045 1.49995 17.4415 2.59229 19.4244 4.57561C21.4077 6.55855 22.5 9.19509 22.5 11.9996C22.5 14.8042 21.4077 17.4407 19.4244 19.4236Z" fill="#045299"/>
<path d="M18.7496 11.25H5.24998C4.83599 11.25 4.5 11.586 4.5 12C4.5 12.414 4.83599 12.75 5.24998 12.75H18.7496C19.1635 12.75 19.4995 12.414 19.4995 12C19.4995 11.586 19.1635 11.25 18.7496 11.25Z" fill="#045299"/>
</svg>
