<svg width="24" height="24" viewBox="0 0 24 24" fill="none" xmlns="http://www.w3.org/2000/svg">
<path d="M12 0C5.3832 0 0 5.3832 0 12C0 18.6168 5.3832 24 12 24C18.6168 24 24 18.6168 24 12C24 5.3832 18.6168 0 12 0ZM12 22.6667C6.1184 22.6667 1.33333 17.8816 1.33333 12C1.33333 6.1184 6.1184 1.33333 12 1.33333C17.8816 1.33333 22.6667 6.1184 22.6667 12C22.6667 17.8816 17.8816 22.6667 12 22.6667Z" fill="#045299"/>
<path d="M15.9997 11.333H12.6663V7.99967C12.6663 7.63141 12.3679 7.33301 11.9997 7.33301C11.6314 7.33301 11.333 7.63141 11.333 7.99967V11.333H7.99967C7.63141 11.333 7.33301 11.6314 7.33301 11.9997C7.33301 12.3679 7.63141 12.6663 7.99967 12.6663H11.333V15.9997C11.333 16.3679 11.6314 16.6663 11.9997 16.6663C12.3679 16.6663 12.6663 16.3679 12.6663 15.9997V12.6663H15.9997C16.3679 12.6663 16.6663 12.3679 16.6663 11.9997C16.6663 11.6314 16.3679 11.333 15.9997 11.333Z" fill="#045299"/>
</svg>
