<svg width="80" height="79" viewBox="0 0 80 79" fill="none" xmlns="http://www.w3.org/2000/svg">
<path d="M69.5927 67.8869C67.9788 69.5854 66.4496 70.683 65.242 71.5492C51.0526 81.7291 34.2647 78.7637 30.6955 78.0386C25.4249 76.9693 15.2421 74.9011 7.87801 66.2391C-3.26128 53.1389 -1.52606 32.4996 7.11338 18.8745C8.69342 16.3832 17.0422 2.54934 34.0136 0.331636C44.2839 -1.0114 56.2555 1.69724 64.926 8.95979C83.1246 24.2044 81.8296 55.0067 69.5927 67.8869Z" fill="url(#paint0_linear_3668_427851)"/>
<path d="M34.8231 63.0073L33.3926 75.8395H49.9915L47.8302 63.0073H34.8231Z" fill="url(#paint1_linear_3668_427851)"/>
<path d="M0 25.0302V60.3328C0 63.2361 2.31363 65.6118 5.21696 65.6852C18.1112 66.0181 63.2073 66.8251 75.4808 66.6417C77.5913 66.6107 79.2983 64.9234 79.3604 62.8129C79.5974 54.6108 79.9811 34.8913 78.5591 25.7356C78.26 23.8085 76.632 22.3667 74.6823 22.3046C63.8788 21.9604 16.0741 20.8628 3.80621 21.1365C1.69008 21.1873 0 22.9141 0 25.0302Z" fill="url(#paint2_linear_3668_427851)"/>
<path d="M2.21484 24.8602V58.3994C2.21484 60.0951 3.57481 61.4776 5.27053 61.503L73.7145 62.3495C75.3961 62.3749 76.773 61.0234 76.7787 59.3418L76.8944 26.1017C76.9 24.8997 75.9407 23.915 74.7387 23.8868L4.66391 22.4704C3.32369 22.4337 2.21484 23.5143 2.21484 24.8602Z" fill="#7D97F4"/>
<path d="M4.1582 25.9241V57.4036C4.1582 58.9949 5.45327 60.2928 7.06717 60.3154L72.2382 61.1082C73.838 61.1308 75.15 59.8639 75.1556 58.2839L75.2657 27.0866C75.2713 25.958 74.3572 25.0353 73.2145 25.0071L6.49158 23.6782C5.21062 23.6471 4.1582 24.6629 4.1582 25.9241Z" fill="#91B3FA"/>
<path d="M77.2939 63.7297L2.21377 62.4516C2.15452 62.4516 2.10938 62.4036 2.10938 62.3444C2.10938 62.2851 2.16016 62.2372 2.21659 62.24L77.2968 63.5181C77.356 63.5181 77.4011 63.5661 77.4011 63.6253C77.3983 63.6846 77.3532 63.7297 77.2939 63.7297Z" fill="#91B3FA"/>
<path d="M40.4973 65.2925C40.0092 65.2925 39.6113 64.8947 39.6113 64.4066C39.6113 63.9185 40.0092 63.5206 40.4973 63.5206C40.9854 63.5206 41.3832 63.9185 41.3832 64.4066C41.3832 64.8947 40.9854 65.2925 40.4973 65.2925ZM40.4973 63.7294C40.1248 63.7294 39.8201 64.0341 39.8201 64.4066C39.8201 64.779 40.1248 65.0837 40.4973 65.0837C40.8697 65.0837 41.1744 64.779 41.1744 64.4066C41.1744 64.0341 40.8697 63.7294 40.4973 63.7294Z" fill="#91B3FA"/>
<path d="M53.5683 78.4657H29.2724C28.6121 78.4657 28.1155 77.9945 28.2453 77.4923L28.5557 76.2593C28.6488 75.8897 29.0579 75.616 29.5432 75.6019L52.9645 74.8711C53.4695 74.8542 53.9182 75.1251 54.0282 75.5088L54.5897 77.4725C54.7364 77.9804 54.237 78.4657 53.5683 78.4657Z" fill="url(#paint3_linear_3668_427851)"/>
<path d="M42.3505 75.9575C42.2941 75.9575 42.2461 75.9124 42.2461 75.8531C42.2461 75.7939 42.2912 75.7487 42.3505 75.7459L43.3549 75.7318C43.4114 75.7346 43.4593 75.777 43.4622 75.8362C43.4622 75.8955 43.417 75.9406 43.3578 75.9434L42.3505 75.9575Z" fill="#91B3FA"/>
<path d="M29.1426 77.8123C29.137 77.8123 29.1314 77.8123 29.1257 77.8123C29.0693 77.8038 29.0298 77.7502 29.0383 77.691L29.1822 76.7937C29.2612 76.3 29.6816 75.936 30.181 75.9275L40.8265 75.7723C40.8857 75.7723 40.9309 75.8175 40.9337 75.8767C40.9337 75.936 40.8886 75.9811 40.8293 75.984L30.1838 76.1391C29.786 76.1448 29.4502 76.4354 29.3881 76.8276L29.2442 77.7248C29.2386 77.7756 29.1934 77.8123 29.1426 77.8123Z" fill="#91B3FA"/>
<path d="M25.4612 26.0168L33.367 25.9576C34.4477 25.9491 35.3139 26.7843 35.2687 27.7859L34.4956 44.8729C34.4533 45.8097 33.6266 46.5517 32.6193 46.5574L25.6135 46.6082C24.5696 46.6166 23.7175 45.8351 23.709 44.8645L23.5821 27.7831C23.5764 26.8181 24.4172 26.0253 25.4612 26.0168Z" fill="#BDD0FB"/>
<path opacity="0.2" d="M31.5881 50.0157L6.57265 50.3119C5.61052 50.3232 4.84871 50.9468 4.89668 51.6888L5.31426 58.2403C5.3594 58.9401 6.1071 59.4874 7.01563 59.4874H31.6163C32.5587 59.4874 33.3205 58.9006 33.3205 58.1754V51.3277C33.3177 50.5941 32.5389 50.0044 31.5881 50.0157Z" fill="white"/>
<path d="M62.4748 48.1941L37.4594 48.558C36.4972 48.5721 35.7354 49.3339 35.7834 50.2425L36.201 58.2583C36.2461 59.1133 36.9938 59.7848 37.9023 59.7848H62.503C63.4454 59.7848 64.2072 59.0653 64.2072 58.1793V49.7995C64.2072 48.9022 63.4256 48.1799 62.4748 48.1941Z" fill="#BDD0FB"/>
<path d="M20.4652 25.2241H7.54275C6.49879 25.2241 5.65234 26.0762 5.65234 27.1286V45.649C5.65234 46.7014 6.49879 47.5535 7.54275 47.5535H20.4652C21.5092 47.5535 22.3556 46.7014 22.3556 45.649V27.1286C22.3556 26.0762 21.5092 25.2241 20.4652 25.2241Z" fill="#BDD0FB"/>
<path d="M52.3598 32.4055H39.4373C38.3933 32.4055 37.5469 32.8626 37.5469 33.4269V43.3529C37.5469 43.9172 38.3933 44.3743 39.4373 44.3743H52.3598C53.4037 44.3743 54.2502 43.9172 54.2502 43.3529V33.4269C54.2502 32.8626 53.4037 32.4055 52.3598 32.4055Z" fill="#BDD0FB"/>
<path d="M73.9076 31.5149H58.3865C57.1338 31.5149 56.1152 31.972 56.1152 32.5363V42.4623C56.1152 43.0266 57.131 43.4837 58.3865 43.4837H73.9076C75.1604 43.4837 76.1789 43.0266 76.1789 42.4623V32.5363C76.1789 31.972 75.1604 31.5149 73.9076 31.5149Z" fill="#BDD0FB"/>
<path d="M8.44025 41.9679L30.7301 42.1513C31.9603 42.1625 32.9647 43.1331 33.0183 44.3633L34.3981 76.6921C34.4404 77.6542 33.6758 78.4583 32.7136 78.4668L7.16493 78.7207C6.26205 78.7292 5.52564 77.9956 5.53128 77.0899L5.79932 44.5665C5.81061 43.1218 6.99282 41.9566 8.44025 41.9679Z" fill="url(#paint4_linear_3668_427851)"/>
<path d="M10.8984 78.2158L8.0402 78.1566C7.07807 78.1369 6.30215 77.3355 6.31062 76.3734L6.3473 72.0565C6.3473 72.017 6.38115 71.9832 6.42065 71.9832C6.46016 71.986 6.49401 72.017 6.49401 72.0565L6.45733 76.3734C6.44887 77.2565 7.16271 77.9901 8.04584 78.0099L10.904 78.0691C10.9435 78.0691 10.9774 78.103 10.9746 78.1425C10.9717 78.1848 10.9407 78.2158 10.8984 78.2158Z" fill="#BDD0FB"/>
<path d="M6.42991 70.7926C6.39041 70.7926 6.35938 70.7588 6.35938 70.7193L6.36502 70.0195C6.36502 69.98 6.39888 69.9462 6.43838 69.9462C6.47788 69.9462 6.51174 69.98 6.50891 70.0195L6.50327 70.7193C6.50327 70.7616 6.46941 70.7926 6.42991 70.7926Z" fill="#BDD0FB"/>
<path d="M8.51139 41.7087C11.553 42.1461 22.0066 43.5088 30.6686 42.9163C31.0637 42.8881 31.4022 43.19 31.422 43.5879L32.8779 76.0605C32.8976 76.5063 32.5562 76.8844 32.1104 76.907C28.4679 77.0932 13.4744 77.8014 8.13049 77.1976C7.80602 77.1609 7.56055 76.8844 7.56055 76.5571L7.64237 42.4621C7.64237 41.9965 8.05431 41.641 8.51139 41.7087Z" fill="url(#paint5_linear_3668_427851)"/>
<path opacity="0.6" d="M8.83018 42.5531C11.7561 42.9735 21.8176 44.2855 30.1523 43.7155C30.5332 43.6901 30.8605 43.9808 30.8774 44.3617L32.2797 75.6126C32.2994 76.0415 31.9693 76.4055 31.5404 76.4252C28.0361 76.603 13.6042 77.2858 8.46339 76.7045C8.1502 76.6679 7.91602 76.4026 7.91602 76.0895L7.99502 43.2782C7.99502 42.8324 8.39003 42.491 8.83018 42.5531Z" fill="white"/>
<g opacity="0.6">
<path d="M29.7238 46.4568C29.9354 46.4596 30.1019 46.358 30.0963 46.2339C30.0878 46.1097 29.91 46.0053 29.6984 46.0025L11.1132 45.7034C10.9016 45.7006 10.8339 45.8332 10.9665 45.9997C11.0963 46.1661 11.3756 46.3044 11.5872 46.3044L29.7238 46.4568Z" fill="white"/>
</g>
<g opacity="0.6">
<path d="M11.1034 46.9502C10.8918 46.9474 10.8241 47.08 10.9567 47.2465C11.0865 47.413 11.3658 47.5512 11.5774 47.5512L29.7141 47.7008C29.9257 47.7036 30.0921 47.602 30.0865 47.4779C30.078 47.3537 29.9003 47.2493 29.6887 47.2465L11.1034 46.9502Z" fill="white"/>
</g>
<path d="M14.1064 58.3209C14.1036 58.3209 14.1008 58.3209 14.1008 58.3209L11.5925 58.3576C11.2313 58.3632 10.9266 58.1206 10.8843 57.7961L10.6134 55.6969C10.5965 55.5728 10.6332 55.4486 10.715 55.347C10.8053 55.2342 10.9464 55.1608 11.0987 55.1467C11.3103 55.127 11.6009 55.0959 11.9198 55.0593C12.6167 54.9831 13.4067 54.8956 13.8694 54.8787C13.8723 54.8787 13.8751 54.8787 13.8807 54.8787C14.2137 54.8702 14.5043 55.0677 14.5917 55.3583C14.7356 55.838 14.7441 56.755 14.7441 57.7284C14.7385 58.05 14.4563 58.3124 14.1064 58.3209ZM11.1128 55.3499C11.0141 55.3583 10.9266 55.4035 10.8702 55.474C10.825 55.5304 10.8025 55.601 10.8137 55.6715L11.0846 57.7707C11.1128 57.9936 11.3301 58.1573 11.5868 58.1544L14.0952 58.1178C14.098 58.1178 14.098 58.1178 14.1008 58.1178C14.3406 58.1121 14.5353 57.9372 14.5353 57.7284C14.5353 56.7691 14.5268 55.869 14.3914 55.4148C14.3322 55.2144 14.1093 55.0677 13.8751 55.0818C13.418 55.0988 12.5969 55.189 11.9395 55.2596C11.6179 55.2991 11.3273 55.3301 11.1128 55.3499Z" fill="white"/>
<path opacity="0.6" d="M11.3895 55.5535C11.9143 55.5056 13.057 55.3617 13.6016 55.3419C13.8329 55.3335 14.0361 55.4689 14.0953 55.6664C14.2082 56.0501 14.2138 56.8232 14.2138 57.5371C14.2138 57.7515 14.022 57.9264 13.7821 57.9292L11.7789 57.9575C11.5334 57.9603 11.3246 57.7966 11.2964 57.5794L11.0791 55.9034C11.0537 55.7313 11.1948 55.5733 11.3895 55.5535Z" fill="white"/>
<g opacity="0.6">
<path d="M16.4339 56.0859C16.2223 56.0859 16.0981 56.2524 16.1574 56.4556L16.3041 56.9606C16.3633 57.1638 16.5834 57.3246 16.795 57.3218L29.0657 57.0255C29.2774 57.0199 29.441 56.8421 29.4325 56.6333L29.4241 56.4668C29.4156 56.2552 29.2322 56.0831 29.0206 56.0831L16.4339 56.0859Z" fill="white"/>
</g>
<path d="M11.5016 55.8814C11.685 55.7685 11.9277 55.8277 12.0349 56.014L12.5512 56.8886C12.602 56.9761 12.7318 56.9676 12.7713 56.8745L13.9309 54.1123C13.9902 53.974 14.1933 54.0163 14.1933 54.1659C14.2018 55.001 14.0184 56.5952 12.7149 57.958C12.7149 57.958 11.9728 57.6899 11.3493 56.4033C11.2618 56.2171 11.3267 55.9914 11.5016 55.8814Z" fill="url(#paint6_linear_3668_427851)"/>
<path d="M14.2021 52.6904C14.1993 52.6904 14.1965 52.6904 14.1965 52.6904L11.6882 52.7271C11.327 52.7327 11.0223 52.4901 10.98 52.1656L10.7091 50.0664C10.6922 49.9423 10.7289 49.8181 10.8107 49.7166C10.901 49.6037 11.0421 49.5303 11.1944 49.5162C11.406 49.4965 11.6966 49.4654 12.0155 49.4288C12.7124 49.3526 13.5024 49.2651 13.9651 49.2482C13.968 49.2482 13.9708 49.2482 13.9764 49.2482C14.3094 49.2397 14.6 49.4372 14.6874 49.7278C14.8313 50.2075 14.8398 51.1245 14.8398 52.0979C14.837 52.4167 14.552 52.682 14.2021 52.6904ZM11.2113 49.7166C11.1126 49.725 11.0251 49.7702 10.9687 49.8407C10.9236 49.8971 10.901 49.9677 10.9123 50.0382L11.1831 52.1374C11.2113 52.3603 11.4286 52.524 11.6854 52.5211L14.1937 52.4844C14.1965 52.4844 14.1965 52.4844 14.1993 52.4844C14.4391 52.4788 14.6338 52.3039 14.6338 52.0951C14.6338 51.1358 14.6254 50.2357 14.4899 49.7814C14.4307 49.5811 14.2078 49.4344 13.9736 49.4485C13.5165 49.4654 12.6955 49.5557 12.038 49.6263C11.7164 49.6658 11.423 49.6968 11.2113 49.7166Z" fill="white"/>
<path opacity="0.6" d="M11.4852 49.9216C12.01 49.8736 13.1527 49.7297 13.6973 49.71C13.9286 49.7015 14.1318 49.8369 14.191 50.0344C14.3039 50.4182 14.3095 51.1913 14.3095 51.9051C14.3095 52.1195 14.1177 52.2945 13.8778 52.2973L11.8746 52.3255C11.6291 52.3283 11.4203 52.1647 11.3921 51.9474L11.1748 50.2715C11.1494 50.0965 11.2905 49.9385 11.4852 49.9216Z" fill="white"/>
<g opacity="0.6">
<path d="M16.5296 50.4524C16.318 50.4524 16.1938 50.6189 16.2531 50.822L16.3998 51.3271C16.459 51.5302 16.6791 51.691 16.8907 51.6882L29.1614 51.392C29.3731 51.3863 29.5367 51.2086 29.5282 50.9998L29.5198 50.8333C29.5113 50.6217 29.3279 50.4496 29.1163 50.4496L16.5296 50.4524Z" fill="white"/>
</g>
<path d="M11.6012 50.2494C11.7846 50.1365 12.0273 50.1958 12.1345 50.382L12.6508 51.2567C12.7016 51.3441 12.8314 51.3357 12.8709 51.2426L14.0306 48.4803C14.0898 48.3421 14.293 48.3844 14.293 48.5339C14.3014 49.3691 14.118 50.9632 12.8145 52.326C12.8145 52.326 12.0724 52.058 11.4489 50.7714C11.3614 50.5823 11.4263 50.3566 11.6012 50.2494Z" fill="url(#paint7_linear_3668_427851)"/>
<path d="M14.2353 63.6971C14.2325 63.6971 14.2297 63.6971 14.2297 63.6971L11.7214 63.7338C11.3602 63.7394 11.0555 63.4968 11.0132 63.1723L10.7423 61.0731C10.7254 60.949 10.7621 60.8248 10.8439 60.7233C10.9342 60.6104 11.0753 60.5371 11.2276 60.5229C11.4392 60.5032 11.7298 60.4722 12.0487 60.4355C12.7456 60.3593 13.5356 60.2718 13.9983 60.2549C14.0012 60.2549 14.004 60.2549 14.0096 60.2549C14.3426 60.2464 14.6332 60.4439 14.7206 60.7346C14.8645 61.2142 14.873 62.1312 14.873 63.1046C14.8674 63.4263 14.5852 63.6887 14.2353 63.6971ZM11.2417 60.7261C11.143 60.7346 11.0555 60.7797 10.9991 60.8502C10.9539 60.9067 10.9314 60.9772 10.9398 61.0477L11.2107 63.1469C11.2389 63.3698 11.4562 63.5335 11.7129 63.5307L14.2212 63.494C14.2241 63.494 14.2241 63.494 14.2269 63.494C14.4667 63.4883 14.6614 63.3134 14.6614 63.1046C14.6614 62.1453 14.6529 61.2452 14.5175 60.791C14.4582 60.5907 14.2353 60.4468 14.0012 60.458C13.5441 60.475 12.723 60.5653 12.0656 60.6358C11.7468 60.6753 11.4562 60.7063 11.2417 60.7261Z" fill="white"/>
<path opacity="0.6" d="M11.5184 60.9296C12.0432 60.8817 13.1859 60.7378 13.7305 60.718C13.9618 60.7096 14.165 60.845 14.2242 61.0425C14.3371 61.4262 14.3427 62.1993 14.3427 62.9132C14.3427 63.1276 14.1509 63.3025 13.911 63.3053L11.9078 63.3336C11.6623 63.3364 11.4535 63.1727 11.4253 62.9555L11.208 61.2795C11.1826 61.1074 11.3237 60.9494 11.5184 60.9296Z" fill="white"/>
<g opacity="0.6">
<path d="M16.5608 61.4617C16.3492 61.4617 16.2251 61.6282 16.2843 61.8313L16.431 62.3364C16.4903 62.5395 16.7104 62.7003 16.922 62.6975L29.1927 62.4013C29.4043 62.3956 29.568 62.2179 29.5595 62.0062L29.551 61.8398C29.5426 61.6282 29.3592 61.4561 29.1475 61.4561L16.5608 61.4617Z" fill="white"/>
</g>
<path d="M11.6305 61.2561C11.8139 61.1433 12.0566 61.2025 12.1638 61.3887L12.6801 62.2634C12.7309 62.3509 12.8607 62.3424 12.9002 62.2493L14.0599 59.487C14.1191 59.3488 14.3223 59.3911 14.3223 59.5406C14.3307 60.3758 14.1473 61.97 12.8438 63.3327C12.8438 63.3327 12.1017 63.0647 11.4782 61.7781C11.3907 61.5919 11.4556 61.3662 11.6305 61.2561Z" fill="url(#paint8_linear_3668_427851)"/>
<path d="M14.1221 68.8658C14.1192 68.8658 14.1164 68.8658 14.1164 68.8658L11.6081 68.9025C11.247 68.9082 10.9422 68.6655 10.8999 68.341L10.629 66.2418C10.6121 66.1177 10.6488 65.9935 10.7306 65.892C10.8209 65.7791 10.962 65.7058 11.1143 65.6917C11.326 65.6719 11.6166 65.6409 11.9354 65.6042C12.5985 65.5308 13.4223 65.4405 13.8879 65.4236C14.218 65.4151 14.5199 65.607 14.6074 65.9033C14.7513 66.3829 14.7597 67.2999 14.7597 68.2733C14.7569 68.5922 14.4719 68.8574 14.1221 68.8658ZM11.1313 65.892C11.0325 65.9004 10.9451 65.9456 10.8886 66.0161C10.8435 66.0726 10.8209 66.1431 10.8322 66.2136L11.1031 68.3128C11.1313 68.5357 11.3485 68.6994 11.6053 68.6966L14.1136 68.6599C14.3506 68.6486 14.5538 68.4821 14.5538 68.2705C14.5538 67.3112 14.5453 66.414 14.4099 65.9569C14.3506 65.7565 14.1277 65.6155 13.8935 65.6239C13.4364 65.6409 12.6154 65.7311 11.958 65.8017C11.6363 65.8412 11.3429 65.8722 11.1313 65.892Z" fill="white"/>
<path opacity="0.6" d="M11.409 66.0985C11.9338 66.0505 13.0765 65.9066 13.6211 65.8869C13.8524 65.8784 14.0556 66.0138 14.1148 66.2113C14.2277 66.595 14.2333 67.3681 14.2333 68.082C14.2333 68.2964 14.0415 68.4713 13.8017 68.4742L11.7984 68.5024C11.5529 68.5052 11.3441 68.3416 11.3159 68.1243L11.0987 66.4483C11.0733 66.2734 11.2143 66.1154 11.409 66.0985Z" fill="white"/>
<g opacity="0.6">
<path d="M16.4495 66.6277C16.2379 66.6277 16.1137 66.7942 16.173 66.9973L16.3197 67.5024C16.379 67.7055 16.599 67.8663 16.8107 67.8635L29.0814 67.5673C29.293 67.5616 29.4566 67.3839 29.4482 67.1751L29.4397 67.0086C29.4312 66.797 29.2478 66.6249 29.0362 66.6249L16.4495 66.6277Z" fill="white"/>
</g>
<path d="M11.5212 66.4247C11.7046 66.3118 11.9472 66.3711 12.0544 66.5573L12.5708 67.432C12.6215 67.5194 12.7513 67.511 12.7908 67.4179L13.9505 64.6556C14.0097 64.5174 14.2129 64.5597 14.2129 64.7092C14.2213 65.5444 14.0379 67.1385 12.7344 68.5013C12.7344 68.5013 11.9924 68.2333 11.3688 66.9467C11.2813 66.7576 11.3462 66.5319 11.5212 66.4247Z" fill="url(#paint9_linear_3668_427851)"/>
<path d="M13.9697 74.1931C13.9669 74.1931 13.9641 74.1931 13.9641 74.1931L11.4558 74.2298C11.0946 74.2354 10.7899 73.9928 10.7476 73.6683L10.4767 71.5691C10.4598 71.445 10.4964 71.3208 10.5783 71.2193C10.6686 71.1064 10.8096 71.033 10.962 71.0189C11.1736 70.9992 11.4642 70.9681 11.7831 70.9315C12.48 70.8553 13.27 70.7678 13.7327 70.7509C14.0741 70.7481 14.3647 70.9343 14.4522 71.2305C14.5961 71.7102 14.6046 72.6272 14.6046 73.6006C14.6046 73.9223 14.3196 74.1847 13.9697 74.1931ZM10.9789 71.2221C10.8802 71.2305 10.7927 71.2757 10.7363 71.3462C10.6911 71.4026 10.6686 71.4732 10.677 71.5437L10.9479 73.6429C10.9761 73.8658 11.1934 74.0295 11.4501 74.0266L13.9584 73.99C13.9613 73.99 13.9613 73.99 13.9641 73.99C14.2039 73.9843 14.3986 73.8094 14.3986 73.6006C14.3986 72.6413 14.3901 71.7412 14.2547 71.287C14.1954 71.0866 13.9725 70.9484 13.7384 70.954C13.2813 70.971 12.4602 71.0613 11.8028 71.1318C11.484 71.1713 11.1905 71.2023 10.9789 71.2221Z" fill="white"/>
<path opacity="0.6" d="M11.2508 71.4244C11.7756 71.3764 12.9183 71.2325 13.4629 71.2128C13.6942 71.2043 13.8974 71.3397 13.9566 71.5373C14.0695 71.921 14.0751 72.6941 14.0751 73.4079C14.0751 73.6223 13.8833 73.7973 13.6435 73.8001L11.6402 73.8283C11.3947 73.8311 11.1859 73.6675 11.1577 73.4502L10.9405 71.7743C10.9151 71.6021 11.0561 71.4441 11.2508 71.4244Z" fill="white"/>
<g opacity="0.6">
<path d="M16.2952 71.9584C16.0836 71.9584 15.9594 72.1249 16.0187 72.328L16.1654 72.833C16.2247 73.0362 16.4447 73.197 16.6564 73.1942L28.9271 72.8979C29.1387 72.8923 29.3023 72.7146 29.2939 72.5058L29.2854 72.3393C29.2769 72.1277 29.0935 71.9556 28.8819 71.9556L16.2952 71.9584Z" fill="white"/>
</g>
<path d="M11.3669 71.7555C11.5503 71.6426 11.7929 71.7019 11.9001 71.8881L12.4165 72.7628C12.4673 72.8502 12.597 72.8418 12.6365 72.7487L13.7962 69.9864C13.8554 69.8482 14.0586 69.8905 14.0586 70.04C14.067 70.8752 13.8836 72.4693 12.5801 73.8321C12.5801 73.8321 11.8381 73.5641 11.2145 72.2775C11.127 72.0884 11.1919 71.8627 11.3669 71.7555Z" fill="url(#paint10_linear_3668_427851)"/>
<path d="M21.0045 37.6681C20.2032 37.101 19.5035 37.1066 19.0097 37.2477C18.5583 37.3775 18.2648 37.8092 18.3043 38.2747L18.499 40.5968L21.0271 40.8423C21.0243 40.8423 22.5733 38.777 21.0045 37.6681ZM19.8759 39.5303C19.5289 39.5275 19.2467 39.2425 19.2495 38.8955C19.2524 38.5484 19.5373 38.2663 19.8844 38.2691C20.2314 38.2719 20.5136 38.5569 20.5108 38.9039C20.5079 39.251 20.2258 39.5331 19.8759 39.5303Z" fill="url(#paint11_linear_3668_427851)"/>
<path d="M18.7129 39.6763C18.6678 39.6593 18.6367 39.6198 18.6311 39.5691L18.6 39.1994C18.5944 39.1317 18.6452 39.0696 18.7157 39.064C18.7834 39.0584 18.8455 39.1091 18.8512 39.1797L18.8822 39.5493C18.8878 39.617 18.837 39.6791 18.7665 39.6847C18.7468 39.6876 18.7298 39.6847 18.7129 39.6763ZM18.6508 38.954C18.6057 38.937 18.5746 38.8975 18.569 38.8467L18.5464 38.5674C18.5069 38.0906 18.8088 37.6533 19.2659 37.5206C19.5791 37.4304 19.9008 37.4219 20.2224 37.4896C20.2901 37.5037 20.3324 37.5714 20.3183 37.6391C20.3042 37.7069 20.2365 37.7492 20.1688 37.7351C19.8866 37.6758 19.6073 37.6843 19.3336 37.7633C18.9922 37.862 18.7637 38.1922 18.7947 38.5477L18.8173 38.827C18.8229 38.8947 18.7722 38.9568 18.7016 38.9624C18.6875 38.9624 18.6678 38.9596 18.6508 38.954Z" fill="#BDD0FB"/>
<path d="M15.0312 42.0659L15.0397 40.9006C15.0425 40.4971 15.3783 40.1783 15.7818 40.1952L23.8202 40.5366C24.1757 40.5507 24.4635 40.8357 24.4833 41.1912L24.5425 42.3114L15.0312 42.0659Z" fill="url(#paint12_linear_3668_427851)"/>
<path d="M17.6955 40.6619C17.656 40.6619 17.625 40.628 17.625 40.5885C17.625 40.549 17.6589 40.5151 17.6984 40.5151L18.0454 40.518C18.0877 40.518 18.1188 40.5518 18.1188 40.5913C18.1188 40.6308 18.0849 40.6647 18.0454 40.6647L17.6955 40.6619Z" fill="#BDD0FB"/>
<path d="M15.4256 41.7596C15.3776 41.7427 15.3438 41.6947 15.3438 41.6411L15.3466 41.1699C15.3494 40.9752 15.4256 40.7947 15.5638 40.6592C15.7021 40.5238 15.8855 40.4504 16.0773 40.4504L17.3498 40.4617C17.4176 40.4617 17.474 40.5182 17.474 40.5887C17.474 40.6592 17.4176 40.7128 17.347 40.7128L16.0745 40.7016C15.8121 40.6987 15.5977 40.9103 15.5949 41.1727L15.592 41.6439C15.592 41.7145 15.5356 41.7681 15.4651 41.7681C15.4538 41.7681 15.4397 41.7653 15.4256 41.7596Z" fill="#BDD0FB"/>
<path d="M12.515 41.6179L26.5773 41.7336C27.0824 41.7364 27.5113 42.1061 27.5931 42.6055L27.6044 42.6732C27.6947 43.2206 27.2714 43.7143 26.7156 43.7115L12.2893 43.593C11.9591 43.5902 11.6967 43.3108 11.7137 42.9807L11.7503 42.3346C11.7757 41.9311 12.1115 41.6151 12.515 41.6179Z" fill="url(#paint13_linear_3668_427851)"/>
<path d="M66.2176 78.3699C66.9879 78.4376 68.3253 78.5448 69.3805 78.59C70.0154 78.6182 70.3793 78.5561 70.5909 78.4714C70.5909 78.494 70.5909 78.5166 70.5881 78.5392C70.5825 78.6492 70.4922 78.7395 70.3822 78.7451C68.3902 78.8552 66.8045 78.7846 66.2402 78.748C66.1245 78.7395 66.054 78.6153 66.1132 78.5138C66.1414 78.4658 66.1781 78.4178 66.2176 78.3699Z" fill="url(#paint14_linear_3668_427851)"/>
<path d="M69.3817 78.5913C68.3264 78.5461 66.989 78.4361 66.2188 78.3712C66.9777 77.4401 69.3817 76.8137 69.3817 76.8137H70.0616C70.53 77.4881 70.5977 78.1285 70.5921 78.4728C70.3805 78.5546 70.0165 78.6167 69.3817 78.5913Z" fill="url(#paint15_linear_3668_427851)"/>
<path d="M70.174 75.7029L70.1091 76.9613C70.1034 77.0967 69.999 77.2124 69.8636 77.2321C69.7282 77.2519 69.5448 77.2547 69.3529 77.1898C69.2344 77.1503 69.1469 77.0516 69.1244 76.9274L68.9043 75.7029H70.174Z" fill="url(#paint16_linear_3668_427851)"/>
<path d="M79.0043 78.5787C79.3372 78.5307 79.4896 78.3586 79.5545 78.1724C79.5545 78.1752 79.5545 78.1752 79.5545 78.178C79.6024 78.3727 79.4896 78.5758 79.261 78.6746C78.9845 78.7903 78.6854 78.81 78.4512 78.8016C78.2001 78.7903 77.9688 78.6887 77.8446 78.5222L77.8418 78.5194C78.0929 78.6435 78.4456 78.6577 79.0043 78.5787Z" fill="url(#paint17_linear_3668_427851)"/>
<path d="M77.4255 75.6934H77.987C78.8419 75.6764 79.3751 77.4765 79.5529 78.1735C79.4908 78.3597 79.3385 78.5318 79.0027 78.5798C78.4441 78.6588 78.0914 78.6418 77.8402 78.5177C77.3803 77.9111 77.1518 77.0223 77.0418 76.5031C76.9148 75.9134 77.4255 75.6934 77.4255 75.6934Z" fill="url(#paint18_linear_3668_427851)"/>
<path d="M77.9122 74.5256L78.2226 75.7643C78.2621 75.9166 78.1888 76.0718 78.0477 76.1452C77.8727 76.2355 77.6273 76.3286 77.4044 76.3004C77.2972 76.2862 77.2097 76.2129 77.1758 76.1141L76.7188 74.8134L77.9122 74.5256Z" fill="url(#paint19_linear_3668_427851)"/>
<path d="M78.2835 74.883C77.8969 75.2272 76.6357 75.2723 76.6357 75.2723C72.0987 64.387 70.245 62.838 70.245 62.838C70.8996 66.9461 70.3494 76.0454 70.3494 76.0454C69.6017 76.3755 68.6368 76.0454 68.6368 76.0454C68.5747 69.319 67.542 63.4531 66.3203 58.8258C69.3873 58.7581 71.0153 57.7085 71.5485 57.2881C74.1077 61.4075 78.2835 74.883 78.2835 74.883Z" fill="url(#paint20_linear_3668_427851)"/>
<path d="M70.7694 44.7698C71.3506 47.6646 71.1419 52.8449 71.0064 55.2065C70.9669 55.8696 71.4325 56.7922 71.8077 57.4186C71.867 57.5173 71.8303 57.6443 71.7287 57.6951C71.1024 58.0167 68.9749 59.0155 66.5118 59.1425C66.3481 59.151 66.2014 59.0381 66.1591 58.8801C64.3308 52.0577 62.209 47.6985 62.209 47.6985C64.548 43.9544 70.7694 44.7698 70.7694 44.7698Z" fill="url(#paint21_linear_3668_427851)"/>
<path d="M69.9367 62.5832C69.9621 62.5832 69.9875 62.5775 70.0129 62.5606C70.0806 62.5183 70.1032 62.4308 70.0609 62.3603C70.0355 62.3208 69.4486 61.3727 68.2636 60.8C68.1902 60.7661 68.1056 60.7943 68.0689 60.8677C68.035 60.9411 68.0633 61.0257 68.1366 61.0624C69.2426 61.5956 69.8069 62.5042 69.8126 62.5126C69.8408 62.5578 69.8888 62.5832 69.9367 62.5832Z" fill="#91B3FA"/>
<path d="M74.4115 53.0774C74.2253 54.4261 73.6751 55.8961 72.5719 57.4592L72.1543 57.1178C72.1543 57.1178 72.6368 55.1568 72.3631 52.9307C73.0431 52.7952 73.8444 52.9335 74.4115 53.0774Z" fill="url(#paint22_linear_3668_427851)"/>
<path d="M70.123 48.3395L70.772 44.7675C70.772 44.7675 75.103 48.0771 74.4117 53.074C73.8446 52.9301 73.0433 52.7946 72.3633 52.9272C72.1658 51.3246 71.5733 49.5838 70.123 48.3395Z" fill="url(#paint23_linear_3668_427851)"/>
<path d="M62.2076 47.6985L63.878 51.2987C63.6071 53.4713 62.439 54.4108 61.1806 54.772C61.1016 53.7816 60.8505 52.9803 60.6191 52.4273C62.2302 50.7655 62.2076 47.6985 62.2076 47.6985Z" fill="url(#paint24_linear_3668_427851)"/>
<path d="M60.6224 52.4269C60.8537 52.9799 61.1049 53.7812 61.1839 54.7715C57.8263 56.0751 56.9375 53.547 56.9375 53.547L57.5582 53.437C58.9577 53.5837 59.9368 53.1323 60.6224 52.4269Z" fill="url(#paint25_linear_3668_427851)"/>
<path d="M63.748 43.2516L64.555 46.217C64.6453 46.55 65.0064 46.7305 65.3281 46.6007C65.6751 46.4625 66.1125 46.2735 66.4905 46.0703C66.894 45.853 67.021 45.3339 66.7642 44.953L65.0854 42.4503L63.748 43.2516Z" fill="url(#paint26_linear_3668_427851)"/>
<path d="M55.3981 51.5588L76.0768 59.0838C76.943 59.3998 77.3578 60.3873 76.9769 61.2281L76.9148 61.3664C76.5763 62.1084 75.6988 62.4357 74.9567 62.0915L54.8789 52.8031L55.3981 51.5588Z" fill="url(#paint27_linear_3668_427851)"/>
<path opacity="0.23" d="M45.8918 57.0591C51.5296 57.0591 56.1 52.5709 56.1 47.0343C56.1 41.4978 51.5296 37.0095 45.8918 37.0095C40.254 37.0095 35.6836 41.4978 35.6836 47.0343C35.6836 52.5709 40.254 57.0591 45.8918 57.0591Z" fill="white"/>
<path d="M34.5352 47.0341C34.5352 53.1935 39.6195 58.1875 45.8945 58.1875C52.1667 58.1875 57.2539 53.1935 57.2539 47.0341C57.2539 40.8748 52.1695 35.8807 45.8945 35.8807C39.6195 35.8807 34.5352 40.872 34.5352 47.0341ZM36.2027 47.0341C36.2027 41.7805 40.5421 37.52 45.8917 37.52C51.2413 37.52 55.5807 41.7805 55.5807 47.0341C55.5807 52.2878 51.2413 56.5482 45.8917 56.5482C40.5421 56.5482 36.2027 52.2878 36.2027 47.0341Z" fill="url(#paint28_linear_3668_427851)"/>
<path d="M56.3867 48.3851C56.3839 48.3851 56.3839 48.3851 56.3811 48.3851C56.3557 48.3823 56.3359 48.3569 56.3387 48.3315C56.3726 48.072 56.3952 47.8067 56.4093 47.5415C56.4093 47.5161 56.4347 47.4935 56.4601 47.4964C56.4855 47.4964 56.508 47.5189 56.5052 47.5472C56.4911 47.8124 56.4685 48.0832 56.4347 48.3456C56.4319 48.3682 56.4093 48.3851 56.3867 48.3851ZM56.3077 45.2674C56.2851 45.2674 56.2654 45.2505 56.2597 45.2279C56.1328 44.5197 55.9296 43.8228 55.6531 43.1569C54.0336 39.2322 50.202 36.6957 45.8879 36.6957C43.8762 36.6957 41.9209 37.2543 40.2336 38.3124C40.211 38.3265 40.1828 38.3208 40.1659 38.2983C40.1518 38.2757 40.1574 38.2447 40.18 38.2306C41.8842 37.164 43.8564 36.5997 45.8851 36.5997C50.2387 36.5997 54.1041 39.1588 55.7378 43.1202C56.0143 43.7917 56.2202 44.4971 56.35 45.211C56.3557 45.2363 56.3387 45.2617 56.3105 45.2674C56.3133 45.2674 56.3105 45.2674 56.3077 45.2674Z" fill="#BDD0FB"/>
<path d="M72.3252 57.0541L70.3699 56.8961L69.5234 57.6777C69.5234 57.6777 69.7238 57.9542 70.3501 57.7962C70.9765 57.6382 71.8343 57.5987 71.8343 57.5987C71.8343 57.5987 72.6976 57.988 72.7089 57.2601L72.3252 57.0541Z" fill="url(#paint29_linear_3668_427851)"/>
<path d="M57.1867 54.0083C57.0174 54.1409 56.439 53.8644 56.0835 53.6753C55.9114 53.5822 55.8268 53.3791 55.886 53.1929C55.9707 52.9248 56.1146 52.5778 56.2895 52.5326C56.5801 52.4593 57.8808 53.4637 57.1867 54.0083Z" fill="url(#paint30_linear_3668_427851)"/>
<path d="M75.6678 61.776C75.648 61.776 75.6283 61.7647 75.6226 61.745C75.6142 61.7196 75.6283 61.6914 75.6536 61.6829C76.249 61.4769 76.5622 61.1412 76.5819 60.6869C76.6017 60.227 76.3111 59.7982 75.8596 59.6232L73.3767 58.6554C73.3513 58.647 73.34 58.6188 73.3485 58.5934C73.3569 58.568 73.3852 58.5567 73.4106 58.5652L75.8935 59.5329C76.3844 59.7248 76.7004 60.1903 76.6779 60.6897C76.6553 61.1892 76.3223 61.5531 75.6847 61.7732C75.679 61.776 75.6734 61.776 75.6678 61.776Z" fill="#BDD0FB"/>
<path d="M72.6254 58.3599C72.6198 58.3599 72.6141 58.3599 72.6085 58.3571L72.2869 58.233C72.2615 58.2245 72.2502 58.1963 72.2586 58.1709C72.2671 58.1455 72.2953 58.1342 72.3207 58.1427L72.6424 58.2668C72.6678 58.2753 72.679 58.3035 72.6706 58.3289C72.6621 58.3486 72.6452 58.3599 72.6254 58.3599Z" fill="#BDD0FB"/>
<path d="M63.5742 40.3387C63.5742 40.3387 62.9055 41.8736 62.8604 42.6778C62.8152 43.4819 62.6431 44.0067 63.5742 44.1675C64.5053 44.3284 65.2897 43.8656 65.7158 43.0643C65.7158 43.0643 66.3816 41.8285 66.2321 41.3206C66.0825 40.8156 63.5742 40.3387 63.5742 40.3387Z" fill="url(#paint31_linear_3668_427851)"/>
<path d="M65.397 42.4886H65.2785C65.2785 42.4886 65.7638 41.4926 65.3378 41.3176C64.9117 41.1427 63.2245 40.7985 62.8605 40.2003C62.5106 39.6219 62.8238 38.877 63.2922 38.6683C63.3232 38.6541 63.3571 38.6683 63.3712 38.6965L63.4107 38.7698C63.4361 38.8206 63.5123 38.8121 63.5264 38.7585C63.5405 38.7078 63.611 38.6965 63.6392 38.7416C63.7521 38.9194 64.054 39.2128 64.861 39.3623C66.0093 39.574 66.7683 40.0395 66.788 40.8323C66.788 40.8831 66.8417 40.9113 66.8868 40.8831C66.9714 40.8323 67.1069 40.807 67.2874 40.9593C67.6035 41.2245 67.4737 41.913 66.7824 42.4801C66.7485 42.5083 66.7485 42.5591 66.7852 42.5817C66.9094 42.6635 67.0984 42.8582 66.6131 43.1178C66.1165 43.383 65.8259 43.3548 65.7131 43.3266C65.682 43.3181 65.6623 43.2927 65.6651 43.2617L65.7074 42.5591C65.7102 42.5224 65.682 42.4914 65.6453 42.4914H65.397V42.4886Z" fill="url(#paint32_linear_3668_427851)"/>
<path d="M65.3691 42.6356C65.3691 42.6356 65.6231 41.6566 66.0632 41.9302C66.5034 42.2039 65.8347 43.0278 65.482 43.0645L65.3691 42.6356Z" fill="url(#paint33_linear_3668_427851)"/>
<path d="M40.439 43.3537C42.1601 45.0438 43.6442 46.7987 44.9421 48.6101C46.8748 44.2058 48.9345 40.1118 51.1635 36.4354L56.6316 34.6127C52.8649 39.5221 48.8499 46.8411 45.419 54.1798C42.936 50.6811 40.4588 47.1909 38.6699 45.9523L40.439 43.3537Z" fill="url(#paint34_linear_3668_427851)"/>
<defs>
<linearGradient id="paint0_linear_3668_427851" x1="88.9324" y1="102.318" x2="18.6354" y2="15.0135" gradientUnits="userSpaceOnUse">
<stop stop-color="#DAE3FE"/>
<stop offset="1" stop-color="#E9EFFD"/>
</linearGradient>
<linearGradient id="paint1_linear_3668_427851" x1="45.7653" y1="60.9654" x2="34.3682" y2="89.6746" gradientUnits="userSpaceOnUse">
<stop stop-color="#09005D"/>
<stop offset="1" stop-color="#1A0F91"/>
</linearGradient>
<linearGradient id="paint2_linear_3668_427851" x1="48.446" y1="17.5791" x2="33.298" y2="63.0232" gradientUnits="userSpaceOnUse">
<stop stop-color="#09005D"/>
<stop offset="1" stop-color="#1A0F91"/>
</linearGradient>
<linearGradient id="paint3_linear_3668_427851" x1="28.9372" y1="90.3946" x2="46.5378" y2="71.7841" gradientUnits="userSpaceOnUse">
<stop stop-color="#09005D"/>
<stop offset="1" stop-color="#1A0F91"/>
</linearGradient>
<linearGradient id="paint4_linear_3668_427851" x1="29.903" y1="45.4702" x2="-1.04782" y2="93.0416" gradientUnits="userSpaceOnUse">
<stop stop-color="#4F52FF"/>
<stop offset="1" stop-color="#4042E2"/>
</linearGradient>
<linearGradient id="paint5_linear_3668_427851" x1="23.2501" y1="54.589" x2="-4.51882" y2="98.2088" gradientUnits="userSpaceOnUse">
<stop stop-color="#FF928E"/>
<stop offset="1" stop-color="#FEB3B1"/>
</linearGradient>
<linearGradient id="paint6_linear_3668_427851" x1="210.643" y1="-458.021" x2="222.596" y2="-489.05" gradientUnits="userSpaceOnUse">
<stop stop-color="#FE7062"/>
<stop offset="1" stop-color="#FF928E"/>
</linearGradient>
<linearGradient id="paint7_linear_3668_427851" x1="208.839" y1="-458.717" x2="220.792" y2="-489.745" gradientUnits="userSpaceOnUse">
<stop stop-color="#FE7062"/>
<stop offset="1" stop-color="#FF928E"/>
</linearGradient>
<linearGradient id="paint8_linear_3668_427851" x1="212.558" y1="-457.283" x2="224.511" y2="-488.312" gradientUnits="userSpaceOnUse">
<stop stop-color="#FE7062"/>
<stop offset="1" stop-color="#FF928E"/>
</linearGradient>
<linearGradient id="paint9_linear_3668_427851" x1="214.196" y1="-456.652" x2="226.148" y2="-487.681" gradientUnits="userSpaceOnUse">
<stop stop-color="#FE7062"/>
<stop offset="1" stop-color="#FF928E"/>
</linearGradient>
<linearGradient id="paint10_linear_3668_427851" x1="215.848" y1="-456.016" x2="227.801" y2="-487.045" gradientUnits="userSpaceOnUse">
<stop stop-color="#FE7062"/>
<stop offset="1" stop-color="#FF928E"/>
</linearGradient>
<linearGradient id="paint11_linear_3668_427851" x1="25.2435" y1="36.6922" x2="10.2709" y2="43.4122" gradientUnits="userSpaceOnUse">
<stop stop-color="#09005D"/>
<stop offset="1" stop-color="#1A0F91"/>
</linearGradient>
<linearGradient id="paint12_linear_3668_427851" x1="24.6358" y1="35.2234" x2="14.2712" y2="48.6254" gradientUnits="userSpaceOnUse">
<stop stop-color="#09005D"/>
<stop offset="1" stop-color="#1A0F91"/>
</linearGradient>
<linearGradient id="paint13_linear_3668_427851" x1="23.3376" y1="36.0382" x2="16.1503" y2="48.9786" gradientUnits="userSpaceOnUse">
<stop stop-color="#09005D"/>
<stop offset="1" stop-color="#1A0F91"/>
</linearGradient>
<linearGradient id="paint14_linear_3668_427851" x1="70.5902" y1="78.5878" x2="66.0899" y2="78.5878" gradientUnits="userSpaceOnUse">
<stop stop-color="#4F52FF"/>
<stop offset="1" stop-color="#4042E2"/>
</linearGradient>
<linearGradient id="paint15_linear_3668_427851" x1="70.5916" y1="77.7043" x2="66.2181" y2="77.7043" gradientUnits="userSpaceOnUse">
<stop stop-color="#09005D"/>
<stop offset="1" stop-color="#1A0F91"/>
</linearGradient>
<linearGradient id="paint16_linear_3668_427851" x1="70.1754" y1="76.4738" x2="68.9077" y2="76.4738" gradientUnits="userSpaceOnUse">
<stop stop-color="#FEBBBA"/>
<stop offset="1" stop-color="#FF928E"/>
</linearGradient>
<linearGradient id="paint17_linear_3668_427851" x1="79.5644" y1="78.488" x2="77.8398" y2="78.488" gradientUnits="userSpaceOnUse">
<stop stop-color="#4F52FF"/>
<stop offset="1" stop-color="#4042E2"/>
</linearGradient>
<linearGradient id="paint18_linear_3668_427851" x1="79.5503" y1="77.1612" x2="77.0189" y2="77.1612" gradientUnits="userSpaceOnUse">
<stop stop-color="#09005D"/>
<stop offset="1" stop-color="#1A0F91"/>
</linearGradient>
<linearGradient id="paint19_linear_3668_427851" x1="78.2332" y1="75.4163" x2="76.7182" y2="75.4163" gradientUnits="userSpaceOnUse">
<stop stop-color="#FEBBBA"/>
<stop offset="1" stop-color="#FF928E"/>
</linearGradient>
<linearGradient id="paint20_linear_3668_427851" x1="81.0684" y1="32.2141" x2="73.1288" y2="63.5939" gradientUnits="userSpaceOnUse">
<stop stop-color="#4F52FF"/>
<stop offset="1" stop-color="#4042E2"/>
</linearGradient>
<linearGradient id="paint21_linear_3668_427851" x1="70.872" y1="46.5067" x2="57.4552" y2="67.8582" gradientUnits="userSpaceOnUse">
<stop stop-color="#FE7062"/>
<stop offset="1" stop-color="#FF928E"/>
</linearGradient>
<linearGradient id="paint22_linear_3668_427851" x1="71.2932" y1="53.3345" x2="76.6862" y2="58.1101" gradientUnits="userSpaceOnUse">
<stop stop-color="#FEBBBA"/>
<stop offset="1" stop-color="#FF928E"/>
</linearGradient>
<linearGradient id="paint23_linear_3668_427851" x1="73.1937" y1="47.9645" x2="59.7769" y2="69.3159" gradientUnits="userSpaceOnUse">
<stop stop-color="#FE7062"/>
<stop offset="1" stop-color="#FF928E"/>
</linearGradient>
<linearGradient id="paint24_linear_3668_427851" x1="66.819" y1="43.9589" x2="53.4022" y2="65.3104" gradientUnits="userSpaceOnUse">
<stop stop-color="#FE7062"/>
<stop offset="1" stop-color="#FF928E"/>
</linearGradient>
<linearGradient id="paint25_linear_3668_427851" x1="61.1829" y1="53.7847" x2="56.9356" y2="53.7847" gradientUnits="userSpaceOnUse">
<stop stop-color="#FEBBBA"/>
<stop offset="1" stop-color="#FF928E"/>
</linearGradient>
<linearGradient id="paint26_linear_3668_427851" x1="65.3107" y1="42.4348" x2="65.3571" y2="50.3662" gradientUnits="userSpaceOnUse">
<stop stop-color="#FEBBBA"/>
<stop offset="1" stop-color="#FF928E"/>
</linearGradient>
<linearGradient id="paint27_linear_3668_427851" x1="77.1175" y1="56.8941" x2="54.8766" y2="56.8941" gradientUnits="userSpaceOnUse">
<stop stop-color="#09005D"/>
<stop offset="1" stop-color="#1A0F91"/>
</linearGradient>
<linearGradient id="paint28_linear_3668_427851" x1="57.2506" y1="47.0331" x2="34.5341" y2="47.0331" gradientUnits="userSpaceOnUse">
<stop stop-color="#09005D"/>
<stop offset="1" stop-color="#1A0F91"/>
</linearGradient>
<linearGradient id="paint29_linear_3668_427851" x1="69.1622" y1="55.738" x2="74.5553" y2="60.5136" gradientUnits="userSpaceOnUse">
<stop stop-color="#FEBBBA"/>
<stop offset="1" stop-color="#FF928E"/>
</linearGradient>
<linearGradient id="paint30_linear_3668_427851" x1="57.3878" y1="53.2844" x2="55.8668" y2="53.2844" gradientUnits="userSpaceOnUse">
<stop stop-color="#FEBBBA"/>
<stop offset="1" stop-color="#FF928E"/>
</linearGradient>
<linearGradient id="paint31_linear_3668_427851" x1="63.4342" y1="41.6899" x2="67.2526" y2="44.6115" gradientUnits="userSpaceOnUse">
<stop stop-color="#FEBBBA"/>
<stop offset="1" stop-color="#FF928E"/>
</linearGradient>
<linearGradient id="paint32_linear_3668_427851" x1="66.1169" y1="39.3835" x2="62.6593" y2="43.8351" gradientUnits="userSpaceOnUse">
<stop stop-color="#09005D"/>
<stop offset="1" stop-color="#1A0F91"/>
</linearGradient>
<linearGradient id="paint33_linear_3668_427851" x1="63.9083" y1="41.0711" x2="67.7266" y2="43.9927" gradientUnits="userSpaceOnUse">
<stop stop-color="#FEBBBA"/>
<stop offset="1" stop-color="#FF928E"/>
</linearGradient>
<linearGradient id="paint34_linear_3668_427851" x1="40.8281" y1="53.5771" x2="60.4484" y2="15.3462" gradientUnits="userSpaceOnUse">
<stop stop-color="#FE7062"/>
<stop offset="1" stop-color="#FF928E"/>
</linearGradient>
</defs>
</svg>
