<svg width="118" height="113" viewBox="0 0 118 113" fill="none" xmlns="http://www.w3.org/2000/svg">
<path opacity="0.3" d="M98.9768 96.8534C96.047 99.8712 93.4269 101.646 91.422 102.985C71.8549 116.052 49.4876 112.285 42.5732 110.996C31.4147 108.92 21.9973 107.455 13.9068 100.143C-4.48424 83.531 -3.58854 48.8794 10.4621 27.412C12.128 24.8672 26.1577 4.06953 48.571 1.13969C49.1193 1.06854 49.5295 1.02669 49.8852 0.989016C53.355 0.620693 74.8433 -1.31719 92.3638 13.3655C94.8709 15.4666 98.9099 19.2587 102.652 25.0388C116.338 46.1755 116.384 78.9102 98.9768 96.8534Z" fill="url(#paint0_linear_1770_159704)"/>
<path d="M108.977 106.02C108.977 107.024 108.153 107.849 107.148 107.849H8.23661C7.23209 107.849 6.40755 107.028 6.40755 106.02L5.58301 49.1808C5.58301 48.1763 6.7675 46.2133 8.93558 46.3598L105.599 43.8568C106.863 43.8234 108.081 44.3089 108.977 45.2004C109.873 46.0919 110.358 47.3099 110.329 48.5697L108.977 106.02Z" fill="url(#paint1_linear_1770_159704)"/>
<path d="M107.168 104.266C107.168 105.216 106.389 105.995 105.439 105.995H10.6214C9.67126 105.995 8.89276 105.216 8.89276 104.266L8.11426 52.6673C8.20634 49.5617 10.9269 48.4442 12.5802 48.5111L105.226 46.025C106.113 45.9999 106.971 46.3431 107.599 46.9709C108.227 47.5987 108.57 48.4567 108.549 49.3399L107.168 104.266Z" fill="url(#paint2_linear_1770_159704)"/>
<path d="M9.91352 79.6637C9.82562 79.6637 9.75028 79.5926 9.75028 79.5047L9.6875 75.3192C9.6875 75.2271 9.75865 75.156 9.84655 75.1518C9.93444 75.1476 10.0098 75.2229 10.014 75.3108L10.0767 79.4963C10.0809 79.5884 10.0098 79.6637 9.91352 79.6637C9.9177 79.6637 9.9177 79.6637 9.91352 79.6637Z" fill="white"/>
<path d="M9.76286 69.4093C9.67496 69.4093 9.59962 69.3382 9.59962 69.2503L9.36523 53.2241C9.36942 52.1484 9.70426 51.2862 10.353 50.6625C11.5333 49.5324 13.3833 49.5869 13.4586 49.591L43.0417 48.7958C43.1296 48.7874 43.2049 48.8628 43.2091 48.9549C43.2133 49.0469 43.1421 49.1181 43.05 49.1223L13.4545 49.9175C13.3707 49.9133 11.6589 49.8631 10.5748 50.9011C9.98887 51.462 9.6917 52.2405 9.68752 53.2241L9.9219 69.2503C9.93027 69.334 9.85912 69.4051 9.76286 69.4093C9.76704 69.4093 9.76704 69.4093 9.76286 69.4093Z" fill="white"/>
<path opacity="0.23" d="M13.0724 101.403C13.1728 97.1382 13.1352 59.3726 12.8882 56.1121C12.6455 52.8516 17.7225 52.2405 25.5242 51.8722C33.3218 51.5038 99.126 50.0515 100.821 49.9133C104.63 49.6036 105.417 55.2959 105.036 67.6556C104.751 76.939 104.274 92.2328 104.057 99.2686C103.99 101.361 102.282 103.023 100.185 103.031C84.3512 103.073 23.6575 103.249 19.6185 103.37C14.9684 103.504 13.0305 103.094 13.0724 101.403Z" fill="white"/>
<path d="M114.503 112.566H2.88839C1.51555 112.566 0.389648 111.444 0.389648 110.067C0.389648 108.694 1.51136 107.568 2.88839 107.568H114.503C115.876 107.568 117.002 108.69 117.002 110.067C117.002 111.444 115.876 112.566 114.503 112.566Z" fill="url(#paint3_linear_1770_159704)"/>
<path d="M92.404 9.31377L26.0515 8.90778C23.8708 8.89522 22.1255 10.7159 22.2343 12.8924L26.8007 107.158H100.637L104.734 22.9375L92.404 9.31377Z" fill="#07B4FF"/>
<path d="M95.1626 22.5317C93.0029 22.4564 91.3413 20.5938 91.5087 18.4383L92.2202 9.4353L104.747 22.8791L95.1626 22.5317Z" fill="url(#paint4_linear_1770_159704)"/>
<path opacity="0.78" d="M60.2763 27.4119C65.73 27.3867 86.6658 27.2444 91.9521 27.211C92.6176 27.2068 93.1449 27.9016 93.1156 28.7428C93.0863 29.5423 92.5632 30.1827 91.9311 30.191L60.2721 30.5845C59.661 30.5928 59.1546 30.011 59.1044 29.2451L59.0918 29.0526C59.029 28.1736 59.5773 27.4119 60.2763 27.4119Z" fill="white"/>
<path opacity="0.78" d="M60.0058 34.0207C65.4595 33.9956 86.3953 33.8533 91.6816 33.8198C92.3471 33.8157 92.8744 34.5105 92.8451 35.3517C92.8158 36.1512 92.2927 36.7915 91.6607 36.7999L60.0016 37.1934C59.3905 37.2017 58.8841 36.6199 58.8339 35.854L58.8213 35.6615C58.7585 34.7867 59.3068 34.0249 60.0058 34.0207Z" fill="white"/>
<path opacity="0.78" d="M36.3154 43.3419C45.5151 43.3502 80.828 43.3377 89.7431 43.3335C90.869 43.3335 91.7815 44.0283 91.7605 44.8696C91.7396 45.669 90.8774 46.3094 89.8101 46.3136L36.4117 46.5187C35.382 46.5228 34.5073 45.9411 34.3942 45.1709L34.3649 44.9784C34.2352 44.0994 35.1393 43.3419 36.3154 43.3419Z" fill="white"/>
<path opacity="0.78" d="M35.892 50.2815C43.0533 50.2522 70.5394 50.0931 77.479 50.0554C78.3537 50.0513 79.0611 50.7419 79.0401 51.5831C79.0192 52.3826 78.3454 53.0271 77.5124 53.0355L35.9464 53.4582C35.1469 53.4666 34.4689 52.8848 34.3852 52.1189L34.3642 51.9264C34.268 51.0474 34.9753 50.2856 35.892 50.2815Z" fill="white"/>
<path opacity="0.78" d="M36.2275 59.368C45.4272 59.3764 80.7402 59.3638 89.6553 59.3596C90.7811 59.3596 91.6936 60.0544 91.6727 60.8957C91.6517 61.6951 90.7895 62.3355 89.7222 62.3397L36.3238 62.5448C35.2941 62.549 34.4194 61.9672 34.3064 61.197L34.2771 61.0045C34.1473 60.1256 35.0514 59.3638 36.2275 59.368Z" fill="white"/>
<path opacity="0.78" d="M35.4277 66.4207C42.6225 66.4332 70.2384 66.4458 77.2114 66.45C78.0903 66.45 78.7977 67.1489 78.7684 67.9902C78.7433 68.7896 78.061 69.4258 77.2239 69.43L35.4612 69.5933C34.6575 69.5974 33.9795 69.0115 33.9 68.2455L33.879 68.053C33.787 67.1782 34.5069 66.4207 35.4277 66.4207Z" fill="white"/>
<path opacity="0.78" d="M35.7724 75.7208C44.9721 75.7291 80.2851 75.7166 89.2002 75.7124C90.3261 75.7124 91.2385 76.4072 91.2176 77.2485C91.1966 78.0479 90.3344 78.6883 89.2671 78.6925L35.8687 78.8976C34.8391 78.9017 33.9643 78.32 33.8513 77.5498L33.822 77.3573C33.6922 76.4783 34.5963 75.7166 35.7724 75.7208Z" fill="white"/>
<g opacity="0.74">
<path opacity="0.78" d="M35.2161 82.6897C42.411 82.7023 70.0268 82.7148 76.9998 82.719C77.8788 82.719 78.5861 83.418 78.5568 84.2593C78.5317 85.0587 77.8495 85.6949 77.0124 85.6991L35.2496 85.8623C34.446 85.8665 33.7679 85.2805 33.6884 84.5146L33.6675 84.322C33.5796 83.4473 34.2953 82.6897 35.2161 82.6897Z" fill="white"/>
</g>
<path opacity="0.48" d="M36.3134 91.8809C45.5131 91.8893 80.8261 91.8767 89.7412 91.8726C90.8671 91.8726 91.7795 92.5673 91.7586 93.4086C91.7377 94.2081 90.8755 94.8484 89.8082 94.8526L36.4097 95.0577C35.3801 95.0619 34.5053 94.4801 34.3923 93.71L34.363 93.5175C34.2332 92.6385 35.1373 91.8809 36.3134 91.8809Z" fill="white"/>
<path opacity="0.36" d="M35.7953 99.6073C42.898 99.6073 70.1665 99.5738 77.0516 99.5613C77.9222 99.5613 78.617 100.256 78.5919 101.097C78.5668 101.897 77.8929 102.537 77.0683 102.541L35.8329 102.78C35.0377 102.784 34.3722 102.202 34.2927 101.436L34.2717 101.244C34.1797 100.369 34.887 99.6073 35.7953 99.6073Z" fill="white"/>
<g opacity="0.78">
<path d="M42.5257 30.0697L40.2948 36.8251H37.4277L44.723 15.3494H48.0672L55.396 36.8251H52.4327L50.1391 30.0697H42.5257ZM49.5656 27.9016L47.4645 21.7197C46.9874 20.3175 46.6693 19.041 46.3512 17.8021H46.2884C45.9703 19.0786 45.6187 20.3845 45.2044 21.6904L43.1033 27.9058H49.5656V27.9016Z" fill="white"/>
</g>
<defs>
<linearGradient id="paint0_linear_1770_159704" x1="122.798" y1="130.734" x2="43.4644" y2="46.2821" gradientUnits="userSpaceOnUse">
<stop stop-color="#B37CFF"/>
<stop offset="1" stop-color="#F895E7"/>
</linearGradient>
<linearGradient id="paint1_linear_1770_159704" x1="48.6579" y1="103.478" x2="72.0182" y2="33.3969" gradientUnits="userSpaceOnUse">
<stop stop-color="#2B3582"/>
<stop offset="1" stop-color="#150E42"/>
</linearGradient>
<linearGradient id="paint2_linear_1770_159704" x1="121.78" y1="42.4595" x2="-171.221" y2="203.8" gradientUnits="userSpaceOnUse">
<stop stop-color="#FDF53F"/>
<stop offset="1" stop-color="#D93C65"/>
</linearGradient>
<linearGradient id="paint3_linear_1770_159704" x1="54.3353" y1="133.91" x2="63.1384" y2="85.7775" gradientUnits="userSpaceOnUse">
<stop stop-color="#2B3582"/>
<stop offset="1" stop-color="#150E42"/>
</linearGradient>
<linearGradient id="paint4_linear_1770_159704" x1="99.8513" y1="14.6168" x2="83.5009" y2="33.0574" gradientUnits="userSpaceOnUse">
<stop stop-color="#53D8FF"/>
<stop offset="0.2057" stop-color="#4DB9FD"/>
<stop offset="1" stop-color="#3840F7"/>
</linearGradient>
</defs>
</svg>
