<svg width="92" height="76" viewBox="0 0 92 76" fill="none" xmlns="http://www.w3.org/2000/svg">
<path d="M87.9082 75.8066C82.9322 75.8066 8.20687 75.8252 8.1659 75.6948L8.15845 75.6799C8.15845 75.6799 8.15101 75.665 8.15101 75.6576C8.12493 75.5943 -6.23687 69.8063 3.22717 56.8673C8.19198 50.0849 -0.664965 39.7009 9.87919 30.5386C26.4049 16.1843 42.1746 33.8646 48.8564 30.5386C54.4768 27.7415 63.505 23.7376 72.6674 27.3281C75.1852 28.3151 80.6379 33.2687 76.1088 41.593C73.8443 45.7533 83.8857 46.2375 87.5581 50.6585C95.5621 60.2902 90.8878 75.8066 87.9082 75.8066Z" fill="#EBF3FA"/>
<path d="M63.6335 72.383H14.0243C12.7944 72.383 11.8105 71.3861 11.8105 70.1692V6.423C11.8105 5.19312 12.8074 4.20923 14.0243 4.20923H63.6335C64.8633 4.20923 65.8472 5.20607 65.8472 6.423V70.1692C65.8472 71.3991 64.8633 72.383 63.6335 72.383Z" fill="#045299"/>
<path d="M61.666 8.31506L62.8312 8.32801L61.666 46.5835V8.31506Z" fill="#045299"/>
<path d="M12.8851 68.6934V7.84706C12.8851 6.12524 14.0243 4.67529 15.5908 4.20923H14.0243C12.7944 4.20923 11.8105 5.20607 11.8105 6.423V70.1692C11.8105 71.3991 12.8074 72.383 14.0243 72.383H15.8368C14.1408 71.9946 12.8851 70.4929 12.8851 68.6934Z" fill="#045299"/>
<path d="M65.7574 51.9544L65.8481 50.0643V6.4103C65.8481 5.71122 65.5244 5.0898 65.0195 4.68848L65.7574 51.9544Z" fill="#045299"/>
<path d="M61.6411 67.2018H16.0064C15.9934 67.2018 15.9805 67.1888 15.9805 67.1758V8.33619C15.9805 8.32324 15.9934 8.3103 16.0064 8.3103H61.6411C61.654 8.3103 61.667 8.32324 61.667 8.33619V67.1758C61.6799 67.1888 61.667 67.2018 61.6411 67.2018Z" fill="url(#paint0_linear_3669_428228)"/>
<path d="M61.667 12.4H15.9934C15.9934 12.4 15.9805 12.4 15.9805 12.3871V8.30909C15.9805 8.30909 15.9805 8.29614 15.9934 8.29614H61.667C61.667 8.29614 61.6799 8.29614 61.6799 8.30909L61.667 12.4C61.6799 12.4 61.667 12.4 61.667 12.4Z" fill="#FF0000"/>
<path d="M33.7814 58.3074H54.754C55.233 58.3074 55.6214 57.8802 55.6214 57.3494C55.6214 56.8186 55.233 56.3914 54.754 56.3914H33.7814C33.3024 56.3914 32.9141 56.8186 32.9141 57.3494C32.9141 57.8802 33.3024 58.3074 33.7814 58.3074Z" fill="#80D3FB"/>
<path d="M45.1994 54.4646H54.7536C55.2326 54.4646 55.621 54.0374 55.621 53.5066C55.621 52.9758 55.2326 52.5486 54.7536 52.5486H45.1994C44.7204 52.5486 44.332 52.9758 44.332 53.5066C44.332 54.0374 44.7204 54.4646 45.1994 54.4646Z" fill="#80D3FB"/>
<path d="M55.5181 35.9392H29.1211C29.0694 35.9392 29.0176 35.9004 29.0176 35.8356V34.6317C29.0176 34.5799 29.0564 34.5281 29.1211 34.5281H55.5181C55.5699 34.5281 55.6217 34.5669 55.6217 34.6317V35.8356C55.6217 35.9004 55.5699 35.9392 55.5181 35.9392Z" fill="#80D3FB"/>
<path d="M25.6129 37.1681H21.5867C21.5349 37.1681 21.4961 37.1293 21.4961 37.0775V33.3879C21.4961 33.3361 21.5349 33.2972 21.5867 33.2972H25.6129C25.6647 33.2972 25.7036 33.3361 25.7036 33.3879V37.0775C25.6906 37.1293 25.6518 37.1681 25.6129 37.1681Z" fill="#80D3FB"/>
<path d="M55.5181 30.0718H29.1211C29.0694 30.0718 29.0176 30.0329 29.0176 29.9682V28.7642C29.0176 28.7124 29.0564 28.6606 29.1211 28.6606H55.5181C55.5699 28.6606 55.6217 28.6995 55.6217 28.7642V29.9682C55.6217 30.0329 55.5699 30.0718 55.5181 30.0718Z" fill="#80D3FB"/>
<path d="M25.6129 31.3007H21.5867C21.5349 31.3007 21.4961 31.2618 21.4961 31.2101V27.5204C21.4961 27.4687 21.5349 27.4298 21.5867 27.4298H25.6129C25.6647 27.4298 25.7036 27.4687 25.7036 27.5204V31.2101C25.6906 31.2618 25.6518 31.3007 25.6129 31.3007Z" fill="#80D3FB"/>
<g clip-path="url(#clip0_3669_428228)">
<path d="M24.03 29.3304L25.1045 28.2559C25.1555 28.205 25.1842 28.136 25.1842 28.0639C25.1843 27.9919 25.1557 27.9227 25.1048 27.8717C25.0539 27.8207 24.9848 27.7921 24.9128 27.792C24.8407 27.7919 24.7716 27.8205 24.7206 27.8714L23.6461 28.9459L22.5716 27.8714C22.5206 27.8204 22.4515 27.7917 22.3793 27.7917C22.3072 27.7917 22.2381 27.8204 22.1871 27.8714C22.1361 27.9224 22.1074 27.9916 22.1074 28.0637C22.1074 28.1358 22.1361 28.205 22.1871 28.2559L23.2616 29.3304L22.1871 30.4049C22.1361 30.4559 22.1074 30.5251 22.1074 30.5972C22.1074 30.6693 22.1361 30.7385 22.1871 30.7895C22.2381 30.8405 22.3072 30.8691 22.3793 30.8691C22.4515 30.8691 22.5206 30.8405 22.5716 30.7895L23.6461 29.715L24.7206 30.7895C24.7716 30.8405 24.8408 30.8691 24.9129 30.8691C24.985 30.8691 25.0542 30.8405 25.1052 30.7895C25.1562 30.7385 25.1848 30.6693 25.1848 30.5972C25.1848 30.5251 25.1562 30.4559 25.1052 30.4049L24.03 29.3304Z" fill="#FF0000"/>
</g>
<g clip-path="url(#clip1_3669_428228)">
<path d="M24.03 35.1178L25.1045 34.0433C25.1555 33.9924 25.1842 33.9233 25.1842 33.8513C25.1843 33.7792 25.1557 33.7101 25.1048 33.6591C25.0539 33.6081 24.9848 33.5794 24.9128 33.5793C24.8407 33.5793 24.7716 33.6078 24.7206 33.6587L23.6461 34.7332L22.5716 33.6587C22.5206 33.6078 22.4515 33.5791 22.3793 33.5791C22.3072 33.5791 22.2381 33.6078 22.1871 33.6587C22.1361 33.7097 22.1074 33.7789 22.1074 33.851C22.1074 33.9231 22.1361 33.9923 22.1871 34.0433L23.2616 35.1178L22.1871 36.1923C22.1361 36.2433 22.1074 36.3125 22.1074 36.3846C22.1074 36.4567 22.1361 36.5259 22.1871 36.5768C22.2381 36.6278 22.3072 36.6565 22.3793 36.6565C22.4515 36.6565 22.5206 36.6278 22.5716 36.5768L23.6461 35.5024L24.7206 36.5768C24.7716 36.6278 24.8408 36.6565 24.9129 36.6565C24.985 36.6565 25.0542 36.6278 25.1052 36.5768C25.1562 36.5259 25.1848 36.4567 25.1848 36.3846C25.1848 36.3125 25.1562 36.2433 25.1052 36.1923L24.03 35.1178Z" fill="#FF0000"/>
</g>
<path d="M55.5181 41.5576H29.1211C29.0694 41.5576 29.0176 41.5188 29.0176 41.454V40.25C29.0176 40.1983 29.0564 40.1465 29.1211 40.1465H55.5181C55.5699 40.1465 55.6217 40.1853 55.6217 40.25V41.454C55.6217 41.5188 55.5699 41.5576 55.5181 41.5576Z" fill="#80D3FB"/>
<path d="M25.6129 42.7865H21.5867C21.5349 42.7865 21.4961 42.7477 21.4961 42.6959V39.0063C21.4961 38.9545 21.5349 38.9156 21.5867 38.9156H25.6129C25.6647 38.9156 25.7036 38.9545 25.7036 39.0063V42.6959C25.6906 42.7477 25.6518 42.7865 25.6129 42.7865Z" fill="#80D3FB"/>
<g clip-path="url(#clip2_3669_428228)">
<path d="M24.03 40.9102L25.1045 39.8357C25.1555 39.7848 25.1842 39.7157 25.1842 39.6436C25.1843 39.5716 25.1557 39.5024 25.1048 39.4514C25.0539 39.4004 24.9848 39.3718 24.9128 39.3717C24.8407 39.3716 24.7716 39.4002 24.7206 39.4511L23.6461 40.5256L22.5716 39.4511C22.5206 39.4001 22.4515 39.3715 22.3793 39.3715C22.3072 39.3715 22.2381 39.4001 22.1871 39.4511C22.1361 39.5021 22.1074 39.5713 22.1074 39.6434C22.1074 39.7155 22.1361 39.7847 22.1871 39.8357L23.2616 40.9102L22.1871 41.9847C22.1361 42.0356 22.1074 42.1048 22.1074 42.1769C22.1074 42.249 22.1361 42.3182 22.1871 42.3692C22.2381 42.4202 22.3072 42.4489 22.3793 42.4489C22.4515 42.4489 22.5206 42.4202 22.5716 42.3692L23.6461 41.2947L24.7206 42.3692C24.7716 42.4202 24.8408 42.4489 24.9129 42.4489C24.985 42.4489 25.0542 42.4202 25.1052 42.3692C25.1562 42.3182 25.1848 42.249 25.1848 42.1769C25.1848 42.1048 25.1562 42.0356 25.1052 41.9847L24.03 40.9102Z" fill="#FF0000"/>
</g>
<path d="M55.5181 47.1761H29.1211C29.0694 47.1761 29.0176 47.1373 29.0176 47.0726V45.8686C29.0176 45.8168 29.0564 45.765 29.1211 45.765H55.5181C55.5699 45.765 55.6217 45.8038 55.6217 45.8686V47.0726C55.6217 47.1373 55.5699 47.1761 55.5181 47.1761Z" fill="#80D3FB"/>
<path d="M25.6129 48.405H21.5867C21.5349 48.405 21.4961 48.3662 21.4961 48.3144V44.6248C21.4961 44.573 21.5349 44.5342 21.5867 44.5342H25.6129C25.6647 44.5342 25.7036 44.573 25.7036 44.6248V48.3144C25.6906 48.3662 25.6518 48.405 25.6129 48.405Z" fill="#80D3FB"/>
<g clip-path="url(#clip3_3669_428228)">
<path d="M24.03 46.3171L25.1045 45.2426C25.1555 45.1917 25.1842 45.1227 25.1842 45.0506C25.1843 44.9785 25.1557 44.9094 25.1048 44.8584C25.0539 44.8074 24.9848 44.7787 24.9128 44.7787C24.8407 44.7786 24.7716 44.8072 24.7206 44.8581L23.6461 45.9326L22.5716 44.8581C22.5206 44.8071 22.4515 44.7784 22.3793 44.7784C22.3072 44.7784 22.2381 44.8071 22.1871 44.8581C22.1361 44.9091 22.1074 44.9782 22.1074 45.0504C22.1074 45.1225 22.1361 45.1916 22.1871 45.2426L23.2616 46.3171L22.1871 47.3916C22.1361 47.4426 22.1074 47.5118 22.1074 47.5839C22.1074 47.656 22.1361 47.7252 22.1871 47.7762C22.2381 47.8272 22.3072 47.8558 22.3793 47.8558C22.4515 47.8558 22.5206 47.8272 22.5716 47.7762L23.6461 46.7017L24.7206 47.7762C24.7716 47.8272 24.8408 47.8558 24.9129 47.8558C24.985 47.8558 25.0542 47.8272 25.1052 47.7762C25.1562 47.7252 25.1848 47.656 25.1848 47.5839C25.1848 47.5118 25.1562 47.4426 25.1052 47.3916L24.03 46.3171Z" fill="#FF0000"/>
</g>
<path d="M55.246 23.6755H20.9131C20.8872 23.6755 20.8613 23.6496 20.8613 23.6237V23.0282C20.8613 23.0023 20.8872 22.9764 20.9131 22.9764H55.246C55.2718 22.9764 55.2977 23.0023 55.2977 23.0282V23.6237C55.2977 23.6626 55.2848 23.6755 55.246 23.6755Z" fill="#80D3FB"/>
<path d="M39.9955 18.9128H20.8613V20.7641H39.9955V18.9128Z" fill="#80D3FB"/>
<path d="M46.8461 3.14587H42.8587C42.8975 3.0682 42.9234 2.99052 42.9234 2.8999V0.81559C42.9234 0.362479 42.561 0 42.1079 0H36.4375C35.9844 0 35.6219 0.362479 35.6219 0.81559V2.8999C35.6219 2.99052 35.6478 3.0682 35.6866 3.14587H31.6992C31.1426 3.14587 30.6895 3.59899 30.6895 4.15567V7.22387C30.6895 8.11715 31.4144 8.85507 32.3207 8.85507H46.2506C47.1439 8.85507 47.8818 8.13009 47.8818 7.22387V4.15567C47.8688 3.59899 47.4157 3.14587 46.8461 3.14587Z" fill="black"/>
<path d="M46.8453 3.14587H42.8579C42.8968 3.0682 42.9226 2.99052 42.9226 2.8999V0.81559C42.9226 0.362479 42.5602 0 42.1071 0H40.916C41.4209 0.336597 41.9905 0.86738 42.0294 1.56647C42.0941 2.84812 41.6022 4.33691 42.1718 4.55699C42.7414 4.76413 46.5864 3.84497 46.5087 5.69625C46.4699 6.80961 46.3404 8.05241 46.2627 8.85507C47.1431 8.84212 47.868 8.11715 47.868 7.22387V4.15567C47.868 3.59899 47.4149 3.14587 46.8453 3.14587Z" fill="black"/>
<path d="M54.8811 35.6621L31.9807 47.657C31.231 48.0553 30.2939 47.7624 29.8956 47.001L27.5529 42.5147C27.1546 41.765 27.4475 40.8279 28.2088 40.4296L51.1093 28.4347C51.859 28.0364 52.7961 28.3293 53.1943 29.0907L55.5371 33.577C55.9236 34.3384 55.6308 35.2755 54.8811 35.6621ZM28.326 40.6873C27.7052 41.0153 27.4592 41.7884 27.7871 42.4092L30.1299 46.8956C30.4579 47.5164 31.231 47.7624 31.8518 47.4344L54.7523 35.4395C55.3731 35.1115 55.6191 34.3384 55.2911 33.7176L52.9483 29.2312C52.6204 28.6104 51.8472 28.3644 51.2264 28.6924L28.326 40.6873Z" fill="#E84A6B"/>
<path d="M39.85 41.5081L39.359 41.7639L35.8245 39.7979L37.3842 42.7924L36.8932 43.0482L34.9316 39.282L35.4226 39.0263L38.9543 40.9869L37.3974 37.9977L37.8884 37.742L39.85 41.5081ZM42.5557 38.0754C42.6044 38.1689 42.6506 38.2706 42.6941 38.3806L40.3308 39.6115C40.5006 39.8935 40.7185 40.0703 40.9845 40.1421C41.2522 40.2085 41.5156 40.1742 41.7746 40.0393C41.9868 39.9287 42.1378 39.7884 42.2275 39.6182C42.3189 39.4425 42.3503 39.257 42.3217 39.0616L42.8505 38.7861C42.9193 39.1115 42.8819 39.426 42.7382 39.7295C42.5926 40.0294 42.3435 40.2711 41.991 40.4547C41.7104 40.6009 41.4258 40.6691 41.1373 40.6593C40.8523 40.6477 40.5869 40.5596 40.3411 40.3949C40.0934 40.2267 39.8899 39.9897 39.7307 39.684C39.5714 39.3782 39.493 39.0784 39.4954 38.7845C39.4978 38.4906 39.5769 38.2253 39.7326 37.9887C39.89 37.7467 40.1126 37.5507 40.4004 37.4008C40.681 37.2547 40.961 37.1866 41.2405 37.1965C41.5201 37.2064 41.7736 37.2892 42.0011 37.4451C42.2303 37.5955 42.4152 37.8056 42.5557 38.0754ZM41.9951 38.237C41.8977 38.05 41.773 37.9115 41.6209 37.8215C41.467 37.7279 41.3003 37.6844 41.1208 37.691C40.9431 37.6921 40.7679 37.7376 40.5952 37.8275C40.347 37.9568 40.176 38.1465 40.0822 38.3965C39.992 38.6447 40.0073 38.9157 40.1283 39.2094L41.9951 38.237ZM45.576 38.5258L44.3013 37.7904L44.2001 39.2424L43.6875 39.5094L43.8782 37.5444L42.1475 36.5526L42.7033 36.2631L43.9752 36.9931L44.0738 35.5493L44.5863 35.2824L44.3983 37.2392L46.1317 38.2364L45.576 38.5258ZM45.8844 35.1207L46.7921 36.8635C46.867 37.0074 46.951 37.094 47.044 37.1233C47.1351 37.149 47.2562 37.1225 47.4073 37.0438L47.7688 36.8555L47.9852 37.271L47.5428 37.5014C47.2694 37.6438 47.0316 37.6877 46.8293 37.633C46.6271 37.5783 46.451 37.407 46.3011 37.1193L45.3934 35.3765L45.0103 35.576L44.7995 35.1713L45.1826 34.9718L44.7948 34.2272L45.2858 33.9715L45.6736 34.7161L46.4452 34.3142L46.656 34.7189L45.8844 35.1207Z" fill="#FF0000"/>
<defs>
<linearGradient id="paint0_linear_3669_428228" x1="38.8292" y1="8.30448" x2="38.8292" y2="67.2051" gradientUnits="userSpaceOnUse">
<stop stop-color="#FDFDFD"/>
<stop offset="0.4791" stop-color="#FBFDFD"/>
<stop offset="0.6517" stop-color="#F4FBFD"/>
<stop offset="0.7747" stop-color="#E9F8FE"/>
<stop offset="0.8741" stop-color="#D8F4FE"/>
<stop offset="0.9583" stop-color="#C2EFFF"/>
<stop offset="1" stop-color="#B4ECFF"/>
</linearGradient>
<clipPath id="clip0_3669_428228">
<rect width="3.47458" height="3.47458" fill="white" transform="translate(21.9102 27.5942)"/>
</clipPath>
<clipPath id="clip1_3669_428228">
<rect width="3.47458" height="3.47458" fill="white" transform="translate(21.9102 33.3817)"/>
</clipPath>
<clipPath id="clip2_3669_428228">
<rect width="3.47458" height="3.47458" fill="white" transform="translate(21.9102 39.1741)"/>
</clipPath>
<clipPath id="clip3_3669_428228">
<rect width="3.47458" height="3.47458" fill="white" transform="translate(21.9102 44.5812)"/>
</clipPath>
</defs>
</svg>
