<svg width="92" height="76" viewBox="0 0 92 76" fill="none" xmlns="http://www.w3.org/2000/svg">
<path d="M87.9082 75.8066C82.9322 75.8066 8.20687 75.8252 8.1659 75.6948L8.15845 75.6799C8.15845 75.6799 8.15101 75.665 8.15101 75.6576C8.12493 75.5943 -6.23687 69.8063 3.22717 56.8673C8.19198 50.0849 -0.664965 39.7009 9.87919 30.5386C26.4049 16.1843 42.1746 33.8646 48.8564 30.5386C54.4768 27.7415 63.505 23.7376 72.6674 27.3281C75.1852 28.3151 80.6379 33.2687 76.1088 41.593C73.8443 45.7533 83.8857 46.2375 87.5581 50.6585C95.5621 60.2902 90.8878 75.8066 87.9082 75.8066Z" fill="#EBF3FA"/>
<path d="M63.6335 72.383H14.0243C12.7944 72.383 11.8105 71.3861 11.8105 70.1692V6.423C11.8105 5.19312 12.8074 4.20923 14.0243 4.20923H63.6335C64.8633 4.20923 65.8472 5.20607 65.8472 6.423V70.1692C65.8472 71.3991 64.8633 72.383 63.6335 72.383Z" fill="#045299"/>
<path d="M61.666 8.31506L62.8312 8.32801L61.666 46.5835V8.31506Z" fill="#045299"/>
<path d="M12.8851 68.6934V7.84706C12.8851 6.12524 14.0243 4.67529 15.5908 4.20923H14.0243C12.7944 4.20923 11.8105 5.20607 11.8105 6.423V70.1692C11.8105 71.3991 12.8074 72.383 14.0243 72.383H15.8368C14.1408 71.9946 12.8851 70.4929 12.8851 68.6934Z" fill="#045299"/>
<path d="M65.7574 51.9544L65.8481 50.0643V6.4103C65.8481 5.71122 65.5244 5.0898 65.0195 4.68848L65.7574 51.9544Z" fill="#045299"/>
<path d="M61.6411 67.2018H16.0064C15.9934 67.2018 15.9805 67.1888 15.9805 67.1758V8.33619C15.9805 8.32324 15.9934 8.3103 16.0064 8.3103H61.6411C61.654 8.3103 61.667 8.32324 61.667 8.33619V67.1758C61.6799 67.1888 61.667 67.2018 61.6411 67.2018Z" fill="url(#paint0_linear_3669_428172)"/>
<path d="M61.667 12.4H15.9934C15.9934 12.4 15.9805 12.4 15.9805 12.3871V8.30909C15.9805 8.30909 15.9805 8.29614 15.9934 8.29614H61.667C61.667 8.29614 61.6799 8.29614 61.6799 8.30909L61.667 12.4C61.6799 12.4 61.667 12.4 61.667 12.4Z" fill="#FF0000"/>
<path d="M33.7814 58.3074H54.754C55.233 58.3074 55.6214 57.8802 55.6214 57.3494C55.6214 56.8186 55.233 56.3914 54.754 56.3914H33.7814C33.3024 56.3914 32.9141 56.8186 32.9141 57.3494C32.9141 57.8802 33.3024 58.3074 33.7814 58.3074Z" fill="#80D3FB"/>
<path d="M45.1994 54.4646H54.7536C55.2326 54.4646 55.621 54.0374 55.621 53.5066C55.621 52.9758 55.2326 52.5486 54.7536 52.5486H45.1994C44.7204 52.5486 44.332 52.9758 44.332 53.5066C44.332 54.0374 44.7204 54.4646 45.1994 54.4646Z" fill="#80D3FB"/>
<path d="M55.5181 35.9392H29.1211C29.0694 35.9392 29.0176 35.9004 29.0176 35.8356V34.6317C29.0176 34.5799 29.0564 34.5281 29.1211 34.5281H55.5181C55.5699 34.5281 55.6217 34.5669 55.6217 34.6317V35.8356C55.6217 35.9004 55.5699 35.9392 55.5181 35.9392Z" fill="#80D3FB"/>
<path d="M25.6129 37.1681H21.5867C21.5349 37.1681 21.4961 37.1293 21.4961 37.0775V33.3879C21.4961 33.3361 21.5349 33.2972 21.5867 33.2972H25.6129C25.6647 33.2972 25.7036 33.3361 25.7036 33.3879V37.0775C25.6906 37.1293 25.6518 37.1681 25.6129 37.1681Z" fill="#80D3FB"/>
<path d="M55.5181 30.0718H29.1211C29.0694 30.0718 29.0176 30.0329 29.0176 29.9682V28.7642C29.0176 28.7124 29.0564 28.6606 29.1211 28.6606H55.5181C55.5699 28.6606 55.6217 28.6995 55.6217 28.7642V29.9682C55.6217 30.0329 55.5699 30.0718 55.5181 30.0718Z" fill="#80D3FB"/>
<path d="M25.6129 31.3007H21.5867C21.5349 31.3007 21.4961 31.2618 21.4961 31.2101V27.5204C21.4961 27.4687 21.5349 27.4298 21.5867 27.4298H25.6129C25.6647 27.4298 25.7036 27.4687 25.7036 27.5204V31.2101C25.6906 31.2618 25.6518 31.3007 25.6129 31.3007Z" fill="#80D3FB"/>
<g clip-path="url(#clip0_3669_428172)">
<path d="M24.03 29.3304L25.1045 28.2559C25.1555 28.205 25.1842 28.136 25.1842 28.0639C25.1843 27.9919 25.1557 27.9227 25.1048 27.8717C25.0539 27.8207 24.9848 27.7921 24.9128 27.792C24.8407 27.7919 24.7716 27.8205 24.7206 27.8714L23.6461 28.9459L22.5716 27.8714C22.5206 27.8204 22.4515 27.7917 22.3793 27.7917C22.3072 27.7917 22.2381 27.8204 22.1871 27.8714C22.1361 27.9224 22.1074 27.9916 22.1074 28.0637C22.1074 28.1358 22.1361 28.205 22.1871 28.2559L23.2616 29.3304L22.1871 30.4049C22.1361 30.4559 22.1074 30.5251 22.1074 30.5972C22.1074 30.6693 22.1361 30.7385 22.1871 30.7895C22.2381 30.8405 22.3072 30.8691 22.3793 30.8691C22.4515 30.8691 22.5206 30.8405 22.5716 30.7895L23.6461 29.715L24.7206 30.7895C24.7716 30.8405 24.8408 30.8691 24.9129 30.8691C24.985 30.8691 25.0542 30.8405 25.1052 30.7895C25.1562 30.7385 25.1848 30.6693 25.1848 30.5972C25.1848 30.5251 25.1562 30.4559 25.1052 30.4049L24.03 29.3304Z" fill="#FF0000"/>
</g>
<g clip-path="url(#clip1_3669_428172)">
<path d="M24.03 35.1178L25.1045 34.0433C25.1555 33.9924 25.1842 33.9233 25.1842 33.8513C25.1843 33.7792 25.1557 33.7101 25.1048 33.6591C25.0539 33.6081 24.9848 33.5794 24.9128 33.5793C24.8407 33.5793 24.7716 33.6078 24.7206 33.6587L23.6461 34.7332L22.5716 33.6587C22.5206 33.6078 22.4515 33.5791 22.3793 33.5791C22.3072 33.5791 22.2381 33.6078 22.1871 33.6587C22.1361 33.7097 22.1074 33.7789 22.1074 33.851C22.1074 33.9231 22.1361 33.9923 22.1871 34.0433L23.2616 35.1178L22.1871 36.1923C22.1361 36.2433 22.1074 36.3125 22.1074 36.3846C22.1074 36.4567 22.1361 36.5259 22.1871 36.5768C22.2381 36.6278 22.3072 36.6565 22.3793 36.6565C22.4515 36.6565 22.5206 36.6278 22.5716 36.5768L23.6461 35.5024L24.7206 36.5768C24.7716 36.6278 24.8408 36.6565 24.9129 36.6565C24.985 36.6565 25.0542 36.6278 25.1052 36.5768C25.1562 36.5259 25.1848 36.4567 25.1848 36.3846C25.1848 36.3125 25.1562 36.2433 25.1052 36.1923L24.03 35.1178Z" fill="#FF0000"/>
</g>
<path d="M55.5181 41.5576H29.1211C29.0694 41.5576 29.0176 41.5188 29.0176 41.454V40.25C29.0176 40.1983 29.0564 40.1465 29.1211 40.1465H55.5181C55.5699 40.1465 55.6217 40.1853 55.6217 40.25V41.454C55.6217 41.5188 55.5699 41.5576 55.5181 41.5576Z" fill="#80D3FB"/>
<path d="M25.6129 42.7865H21.5867C21.5349 42.7865 21.4961 42.7477 21.4961 42.6959V39.0063C21.4961 38.9545 21.5349 38.9156 21.5867 38.9156H25.6129C25.6647 38.9156 25.7036 38.9545 25.7036 39.0063V42.6959C25.6906 42.7477 25.6518 42.7865 25.6129 42.7865Z" fill="#80D3FB"/>
<g clip-path="url(#clip2_3669_428172)">
<path d="M24.03 40.9102L25.1045 39.8357C25.1555 39.7848 25.1842 39.7157 25.1842 39.6436C25.1843 39.5716 25.1557 39.5024 25.1048 39.4514C25.0539 39.4004 24.9848 39.3718 24.9128 39.3717C24.8407 39.3716 24.7716 39.4002 24.7206 39.4511L23.6461 40.5256L22.5716 39.4511C22.5206 39.4001 22.4515 39.3715 22.3793 39.3715C22.3072 39.3715 22.2381 39.4001 22.1871 39.4511C22.1361 39.5021 22.1074 39.5713 22.1074 39.6434C22.1074 39.7155 22.1361 39.7847 22.1871 39.8357L23.2616 40.9102L22.1871 41.9847C22.1361 42.0356 22.1074 42.1048 22.1074 42.1769C22.1074 42.249 22.1361 42.3182 22.1871 42.3692C22.2381 42.4202 22.3072 42.4489 22.3793 42.4489C22.4515 42.4489 22.5206 42.4202 22.5716 42.3692L23.6461 41.2947L24.7206 42.3692C24.7716 42.4202 24.8408 42.4489 24.9129 42.4489C24.985 42.4489 25.0542 42.4202 25.1052 42.3692C25.1562 42.3182 25.1848 42.249 25.1848 42.1769C25.1848 42.1048 25.1562 42.0356 25.1052 41.9847L24.03 40.9102Z" fill="#FF0000"/>
</g>
<path d="M55.5181 47.1761H29.1211C29.0694 47.1761 29.0176 47.1373 29.0176 47.0726V45.8686C29.0176 45.8168 29.0564 45.765 29.1211 45.765H55.5181C55.5699 45.765 55.6217 45.8038 55.6217 45.8686V47.0726C55.6217 47.1373 55.5699 47.1761 55.5181 47.1761Z" fill="#80D3FB"/>
<path d="M25.6129 48.405H21.5867C21.5349 48.405 21.4961 48.3662 21.4961 48.3144V44.6248C21.4961 44.573 21.5349 44.5342 21.5867 44.5342H25.6129C25.6647 44.5342 25.7036 44.573 25.7036 44.6248V48.3144C25.6906 48.3662 25.6518 48.405 25.6129 48.405Z" fill="#80D3FB"/>
<g clip-path="url(#clip3_3669_428172)">
<path d="M24.03 46.3171L25.1045 45.2426C25.1555 45.1917 25.1842 45.1227 25.1842 45.0506C25.1843 44.9785 25.1557 44.9094 25.1048 44.8584C25.0539 44.8074 24.9848 44.7787 24.9128 44.7787C24.8407 44.7786 24.7716 44.8072 24.7206 44.8581L23.6461 45.9326L22.5716 44.8581C22.5206 44.8071 22.4515 44.7784 22.3793 44.7784C22.3072 44.7784 22.2381 44.8071 22.1871 44.8581C22.1361 44.9091 22.1074 44.9782 22.1074 45.0504C22.1074 45.1225 22.1361 45.1916 22.1871 45.2426L23.2616 46.3171L22.1871 47.3916C22.1361 47.4426 22.1074 47.5118 22.1074 47.5839C22.1074 47.656 22.1361 47.7252 22.1871 47.7762C22.2381 47.8272 22.3072 47.8558 22.3793 47.8558C22.4515 47.8558 22.5206 47.8272 22.5716 47.7762L23.6461 46.7017L24.7206 47.7762C24.7716 47.8272 24.8408 47.8558 24.9129 47.8558C24.985 47.8558 25.0542 47.8272 25.1052 47.7762C25.1562 47.7252 25.1848 47.656 25.1848 47.5839C25.1848 47.5118 25.1562 47.4426 25.1052 47.3916L24.03 46.3171Z" fill="#FF0000"/>
</g>
<path d="M55.246 23.6755H20.9131C20.8872 23.6755 20.8613 23.6496 20.8613 23.6237V23.0282C20.8613 23.0023 20.8872 22.9764 20.9131 22.9764H55.246C55.2718 22.9764 55.2977 23.0023 55.2977 23.0282V23.6237C55.2977 23.6626 55.2848 23.6755 55.246 23.6755Z" fill="#80D3FB"/>
<path d="M39.9955 18.9128H20.8613V20.7641H39.9955V18.9128Z" fill="#80D3FB"/>
<path d="M46.8461 3.14587H42.8587C42.8975 3.0682 42.9234 2.99052 42.9234 2.8999V0.81559C42.9234 0.362479 42.561 0 42.1079 0H36.4375C35.9844 0 35.6219 0.362479 35.6219 0.81559V2.8999C35.6219 2.99052 35.6478 3.0682 35.6866 3.14587H31.6992C31.1426 3.14587 30.6895 3.59899 30.6895 4.15567V7.22387C30.6895 8.11715 31.4144 8.85507 32.3207 8.85507H46.2506C47.1439 8.85507 47.8818 8.13009 47.8818 7.22387V4.15567C47.8688 3.59899 47.4157 3.14587 46.8461 3.14587Z" fill="black"/>
<path d="M46.8453 3.14587H42.8579C42.8968 3.0682 42.9226 2.99052 42.9226 2.8999V0.81559C42.9226 0.362479 42.5602 0 42.1071 0H40.916C41.4209 0.336597 41.9905 0.86738 42.0294 1.56647C42.0941 2.84812 41.6022 4.33691 42.1718 4.55699C42.7414 4.76413 46.5864 3.84497 46.5087 5.69625C46.4699 6.80961 46.3404 8.05241 46.2627 8.85507C47.1431 8.84212 47.868 8.11715 47.868 7.22387V4.15567C47.868 3.59899 47.4149 3.14587 46.8453 3.14587Z" fill="black"/>
<path d="M54.8811 35.6621L31.9807 47.657C31.231 48.0553 30.2939 47.7624 29.8956 47.001L27.5529 42.5147C27.1546 41.765 27.4475 40.8279 28.2088 40.4296L51.1093 28.4347C51.859 28.0364 52.7961 28.3293 53.1943 29.0907L55.5371 33.577C55.9236 34.3384 55.6308 35.2755 54.8811 35.6621ZM28.326 40.6873C27.7052 41.0153 27.4592 41.7884 27.7871 42.4092L30.1299 46.8956C30.4579 47.5164 31.231 47.7624 31.8518 47.4344L54.7523 35.4395C55.3731 35.1115 55.6191 34.3384 55.2911 33.7176L52.9483 29.2312C52.6204 28.6104 51.8472 28.3644 51.2264 28.6924L28.326 40.6873Z" fill="#E84A6B"/>
<path d="M36.8733 43.0168L35.1768 41.9455L34.5832 42.2547L35.3842 43.7924L34.8932 44.0482L32.9344 40.2874L34.1484 39.6551C34.4326 39.5071 34.6971 39.4311 34.9419 39.427C35.1904 39.4211 35.4062 39.4756 35.5895 39.5905C35.7728 39.7054 35.9197 39.8689 36.0303 40.0811C36.1652 40.3401 36.2086 40.6079 36.1606 40.8844C36.1161 41.1591 35.9615 41.4065 35.6967 41.6268L37.4615 42.7105L36.8733 43.0168ZM34.3781 41.8608L35.1011 41.4842C35.3673 41.3456 35.5332 41.1769 35.5989 40.978C35.6626 40.7756 35.6374 40.5647 35.5231 40.3453C35.4069 40.1223 35.2505 39.9843 35.0537 39.9313C34.8605 39.8764 34.629 39.9193 34.3592 40.0598L33.6362 40.4364L34.3781 41.8608ZM40.0446 39.3416C40.0933 39.4351 40.1395 39.5368 40.183 39.6468L37.8197 40.8777C37.9895 41.1597 38.2073 41.3366 38.4734 41.4083C38.7411 41.4747 39.0045 41.4404 39.2635 41.3055C39.4757 41.195 39.6267 41.0546 39.7164 40.8844C39.8078 40.7087 39.8392 40.5232 39.8106 40.3278L40.3394 40.0524C40.4082 40.3777 40.3708 40.6922 40.2271 40.9957C40.0815 41.2956 39.8324 41.5373 39.4799 41.7209C39.1993 41.8671 38.9147 41.9353 38.6261 41.9255C38.3412 41.9139 38.0758 41.8258 37.83 41.6612C37.5823 41.4929 37.3788 41.2559 37.2196 40.9502C37.0603 40.6444 36.9819 40.3446 36.9843 40.0507C36.9867 39.7568 37.0658 39.4915 37.2215 39.2549C37.3789 39.0129 37.6015 38.8169 37.8893 38.667C38.1699 38.5209 38.4499 38.4528 38.7294 38.4627C39.009 38.4726 39.2625 38.5554 39.49 38.7113C39.7192 38.8617 39.9041 39.0718 40.0446 39.3416ZM39.484 39.5032C39.3866 39.3162 39.2619 39.1777 39.1098 39.0877C38.9559 38.9941 38.7892 38.9506 38.6097 38.9572C38.432 38.9583 38.2568 39.0038 38.0841 39.0937C37.8359 39.223 37.6649 39.4127 37.5711 39.6628C37.4808 39.911 37.4962 40.1819 37.6172 40.4756L39.484 39.5032ZM39.996 37.021C39.9025 37.0698 39.8065 37.0786 39.708 37.0476C39.6131 37.0147 39.5414 36.9515 39.4926 36.8579C39.4439 36.7644 39.4333 36.6694 39.4607 36.5728C39.4917 36.4743 39.554 36.4007 39.6475 36.352C39.7411 36.3033 39.8353 36.2954 39.9301 36.3283C40.0286 36.3593 40.1022 36.4216 40.1509 36.5151C40.1996 36.6086 40.2085 36.7046 40.1774 36.8031C40.15 36.8997 40.0895 36.9723 39.996 37.021ZM42.3633 40.9737C42.5001 41.2362 42.5338 41.4633 42.4644 41.655C42.395 41.8466 42.2326 42.0089 41.9772 42.1419L41.6913 42.2909L41.4749 41.8754L41.6799 41.7686C41.8166 41.6974 41.8979 41.6208 41.9237 41.5387C41.9532 41.4548 41.9342 41.3481 41.8667 41.2186L39.9979 37.6305L40.4889 37.3748L42.3633 40.9737ZM44.7289 36.9019C44.7776 36.9954 44.8237 37.0971 44.8673 37.207L42.504 38.4379C42.6737 38.7199 42.8916 38.8968 43.1576 38.9686C43.4254 39.0349 43.6888 39.0006 43.9478 38.8657C44.16 38.7552 44.311 38.6148 44.4007 38.4447C44.4921 38.269 44.5235 38.0835 44.4949 37.888L45.0236 37.6126C45.0925 37.938 45.0551 38.2524 44.9113 38.5559C44.7657 38.8558 44.5167 39.0976 44.1642 39.2812C43.8836 39.4273 43.599 39.4955 43.3104 39.4858C43.0254 39.4742 42.76 39.386 42.5142 39.2214C42.2665 39.0532 42.0631 38.8162 41.9038 38.5104C41.7446 38.2047 41.6662 37.9048 41.6686 37.6109C41.671 37.317 41.75 37.0518 41.9057 36.8152C42.0632 36.5731 42.2858 36.3772 42.5736 36.2273C42.8541 36.0812 43.1342 36.013 43.4137 36.0229C43.6932 36.0328 43.9467 36.1157 44.1743 36.2716C44.4035 36.422 44.5884 36.6321 44.7289 36.9019ZM44.1683 37.0635C44.0709 36.8764 43.9461 36.7379 43.7941 36.6479C43.6402 36.5543 43.4735 36.5108 43.294 36.5174C43.1162 36.5185 42.941 36.5641 42.7684 36.654C42.5202 36.7833 42.3492 36.9729 42.2553 37.223C42.1651 37.4712 42.1805 37.7422 42.3014 38.0358L44.1683 37.0635ZM45.2497 36.7678C45.0905 36.462 45.013 36.164 45.0173 35.8737C45.0197 35.5797 45.096 35.3136 45.2463 35.0753C45.4001 34.8352 45.6173 34.642 45.8979 34.4959C46.2612 34.3066 46.6056 34.2393 46.9313 34.2937C47.2605 34.3464 47.5443 34.5095 47.7829 34.7831L47.2541 35.0585C47.1101 34.9048 46.9371 34.8143 46.7353 34.7868C46.5371 34.7574 46.3301 34.7989 46.1143 34.9113C45.8337 35.0575 45.6577 35.2726 45.5862 35.5568C45.5128 35.8373 45.5679 36.1539 45.7515 36.5064C45.937 36.8625 46.1667 37.0927 46.4405 37.197C46.7143 37.3014 46.9915 37.2804 47.2721 37.1343C47.4879 37.0219 47.6415 36.8779 47.733 36.7022C47.8244 36.5266 47.8484 36.3312 47.8049 36.116L48.3337 35.8406C48.4119 36.184 48.3801 36.5092 48.2382 36.8163C48.0945 37.1198 47.8446 37.3643 47.4885 37.5498C47.2079 37.6959 46.9251 37.7632 46.6401 37.7515C46.3587 37.7381 46.0969 37.6481 45.8547 37.4815C45.6125 37.315 45.4109 37.0771 45.2497 36.7678ZM48.7531 33.5849L49.6608 35.3277C49.7357 35.4716 49.8197 35.5582 49.9127 35.5875C50.0038 35.6132 50.1249 35.5867 50.276 35.508L50.6375 35.3197L50.8539 35.7352L50.4115 35.9656C50.1381 36.108 49.9003 36.1519 49.698 36.0972C49.4957 36.0425 49.3197 35.8712 49.1698 35.5835L48.2621 33.8407L47.879 34.0402L47.6682 33.6355L48.0513 33.436L47.6635 32.6914L48.1545 32.4357L48.5423 33.1803L49.3139 32.7784L49.5247 33.1831L48.7531 33.5849Z" fill="#FF0000"/>
<defs>
<linearGradient id="paint0_linear_3669_428172" x1="38.8292" y1="8.30448" x2="38.8292" y2="67.2051" gradientUnits="userSpaceOnUse">
<stop stop-color="#FDFDFD"/>
<stop offset="0.4791" stop-color="#FBFDFD"/>
<stop offset="0.6517" stop-color="#F4FBFD"/>
<stop offset="0.7747" stop-color="#E9F8FE"/>
<stop offset="0.8741" stop-color="#D8F4FE"/>
<stop offset="0.9583" stop-color="#C2EFFF"/>
<stop offset="1" stop-color="#B4ECFF"/>
</linearGradient>
<clipPath id="clip0_3669_428172">
<rect width="3.47458" height="3.47458" fill="white" transform="translate(21.9102 27.5942)"/>
</clipPath>
<clipPath id="clip1_3669_428172">
<rect width="3.47458" height="3.47458" fill="white" transform="translate(21.9102 33.3817)"/>
</clipPath>
<clipPath id="clip2_3669_428172">
<rect width="3.47458" height="3.47458" fill="white" transform="translate(21.9102 39.1741)"/>
</clipPath>
<clipPath id="clip3_3669_428172">
<rect width="3.47458" height="3.47458" fill="white" transform="translate(21.9102 44.5812)"/>
</clipPath>
</defs>
</svg>
