<svg width="479" height="264" viewBox="0 0 479 264" fill="none" xmlns="http://www.w3.org/2000/svg">
<path d="M18 46.4989C-81 -56.0011 -214 46.4989 -214 46.4989V334.499C-214 334.499 -109 365.499 268.5 349.999C646 334.499 429.5 172 268.5 173.499C107.5 174.998 117 148.999 18 46.4989Z" fill="url(#paint0_linear_1564_2142)" fill-opacity="0.4"/>
<path d="M-12 102.556C-111 0.0555573 -244 102.556 -244 102.556V390.555C-244 390.555 -139 421.555 238.5 406.055C616 390.555 399.5 228.057 238.5 229.556C77.5 231.054 87 205.056 -12 102.556Z" fill="url(#paint1_linear_1564_2142)" fill-opacity="0.8"/>
<defs>
<linearGradient id="paint0_linear_1564_2142" x1="132" y1="-94.4998" x2="132" y2="354" gradientUnits="userSpaceOnUse">
<stop stop-color="#045299"/>
<stop offset="1" stop-color="#1167B4"/>
</linearGradient>
<linearGradient id="paint1_linear_1564_2142" x1="102" y1="-38.4431" x2="102" y2="410.057" gradientUnits="userSpaceOnUse">
<stop stop-color="#045299"/>
<stop offset="1" stop-color="#1167B4"/>
</linearGradient>
</defs>
</svg>
