<svg width="38" height="38" viewBox="0 0 38 38" fill="none" xmlns="http://www.w3.org/2000/svg">
<circle cx="19" cy="19" r="19" fill="#045299"/>
<path d="M26.5469 25.4902L28.5491 18.2745L25.8432 17.5349V11.9608C25.8432 11.3628 25.6056 10.7893 25.1828 10.3663C24.7598 9.94346 24.1862 9.70589 23.5883 9.70589H19.0785V7.90196H20.8824V7H16.3726V7.90196H18.1765V9.70589H13.6667C13.0687 9.70589 12.4952 9.94346 12.0721 10.3663C11.6494 10.7893 11.4118 11.3629 11.4118 11.9608V17.5349L8.70589 18.2745L10.7081 25.4902H6V26.3922H31.255V25.4902H26.5469ZM12.3139 11.9608C12.3139 11.6019 12.4563 11.2579 12.7102 11.0042C12.9639 10.7503 13.3079 10.6078 13.6668 10.6078H23.5884C23.9473 10.6078 24.2913 10.7503 24.545 11.0042C24.799 11.2579 24.9414 11.6019 24.9414 11.9608V17.2913L18.6277 15.5687L12.3139 17.2913L12.3139 11.9608ZM11.6465 25.4902L9.81537 18.9059L18.1766 16.6283V25.4901L11.6465 25.4902ZM19.0787 25.4902V16.6285L27.4399 18.906L25.6087 25.4904L19.0787 25.4902Z" fill="white"/>
<path d="M8.25488 27.293H29V28.1949H8.25488V27.293Z" fill="white"/>
<path d="M10.5099 29.0977H26.7452V29.9996H10.5099V29.0977Z" fill="white"/>
<path d="M18.1772 11.9609H19.0792V13.3139H18.1772V11.9609Z" fill="white"/>
<path d="M21.7845 11.9609H22.6865V13.3139H21.7845V11.9609Z" fill="white"/>
<path d="M14.5692 11.9609H15.4712V13.3139H14.5692V11.9609Z" fill="white"/>
</svg>
