<svg width="137" height="110" viewBox="0 0 137 110" fill="none" xmlns="http://www.w3.org/2000/svg">
<path d="M68.4692 63.4629L65.9744 85.8399H94.9217L91.1511 63.4629H68.4692Z" fill="url(#paint0_linear_3093_431466)"/>
<path d="M18.0984 6.72893V59.465C18.0984 63.803 21.5552 67.351 25.8923 67.4628C45.1543 67.9593 112.522 69.1637 130.858 68.8937C134.009 68.8474 136.562 66.3255 136.654 63.175C137.007 50.9238 137.582 21.4637 135.456 7.78647C135.008 4.90642 132.578 2.75241 129.664 2.65932C113.525 2.1431 42.1102 0.50383 23.7831 0.915126C20.6223 0.985071 18.0984 3.56712 18.0984 6.72893Z" fill="#0045A4"/>
<path d="M21.4075 6.47264V56.5754C21.4075 59.1082 23.4408 61.172 25.9731 61.21L128.22 62.4734C130.731 62.5108 132.789 60.4908 132.798 57.9797L132.969 8.3247C132.976 6.52928 131.545 5.05798 129.75 5.01414L25.0683 2.89954C23.0615 2.85028 21.4075 4.46443 21.4075 6.47264Z" fill="url(#paint1_linear_3093_431466)"/>
<path d="M133.569 64.5503C133.568 64.5503 133.567 64.5503 133.566 64.5503L21.4055 62.6391C21.3148 62.6376 21.2424 62.5627 21.2439 62.4721C21.2454 62.3815 21.3193 62.3101 21.4109 62.3105L133.572 64.2217C133.662 64.2232 133.735 64.2981 133.733 64.3887C133.732 64.4783 133.658 64.5503 133.569 64.5503Z" fill="#7D97F4"/>
<path d="M101.157 90.421H58.7906C57.6395 90.421 56.7755 89.6019 56.9976 88.7216L57.5414 86.5716C57.705 85.9248 58.4162 85.4505 59.261 85.4239L100.104 84.1496C100.987 84.122 101.768 84.5904 101.96 85.2623L102.941 88.6867C103.195 89.5767 102.326 90.421 101.157 90.421Z" fill="url(#paint2_linear_3093_431466)"/>
<path d="M21.4075 6.47264V56.5754C21.4075 59.1082 23.4408 61.172 25.9731 61.21L128.22 62.4734C130.731 62.5108 132.789 60.4908 132.798 57.9797L132.969 8.3247C132.976 6.52928 131.545 5.05798 129.75 5.01414L25.0683 2.89954C23.0615 2.85028 21.4075 4.46443 21.4075 6.47264Z" fill="#91B3FA"/>
<path d="M132.95 14.1297L132.97 8.31094C132.977 6.51552 131.546 5.04963 129.751 5.00579L25.0956 2.89365C23.0879 2.84489 21.4609 4.4615 21.4609 6.46971V14.1297H132.95Z" fill="url(#paint3_linear_3093_431466)"/>
<path d="M29.3058 9.99191C29.4579 9.34778 29.059 8.70231 28.4149 8.55021C27.7707 8.39811 27.1252 8.79698 26.9732 9.44112C26.8211 10.0852 27.2199 10.7307 27.8641 10.8828C28.5082 11.0349 29.1537 10.636 29.3058 9.99191Z" fill="#91B3FA"/>
<path d="M33.4586 9.99191C33.6107 9.34778 33.2118 8.70231 32.5677 8.55021C31.9236 8.39811 31.2781 8.79699 31.126 9.44112C30.9739 10.0853 31.3728 10.7307 32.0169 10.8828C32.661 11.0349 33.3065 10.636 33.4586 9.99191Z" fill="#91B3FA"/>
<path d="M37.5015 9.90023C37.6076 9.24689 37.1639 8.63131 36.5105 8.52528C35.8572 8.41925 35.2416 8.86292 35.1356 9.51625C35.0296 10.1696 35.4732 10.7852 36.1266 10.8912C36.7799 10.9972 37.3955 10.5536 37.5015 9.90023Z" fill="#91B3FA"/>
<path d="M126.738 59.735L28.4546 58.3184C26.9606 58.2967 25.7612 57.0795 25.7612 55.5856V45.749C25.7612 44.3589 26.8966 43.2364 28.2866 43.2521L126.801 44.3722C127.932 44.385 128.842 45.3056 128.842 46.4371V57.6613C128.842 58.8183 127.895 59.7517 126.738 59.735Z" fill="#C5F0FF"/>
<path d="M91.3548 42.0197L28.5275 41.1159C26.9931 41.0937 25.7612 39.8441 25.7612 38.3097V18.8601C25.7612 17.7617 26.6518 16.8711 27.7502 16.8711H90.9366C92.1976 16.8711 93.2202 17.8937 93.2202 19.1546V40.181C93.2202 41.207 92.3808 42.0345 91.3548 42.0197Z" fill="#C5F0FF"/>
<path d="M126.768 42.0463H96.836C95.7789 42.0463 94.9219 41.1893 94.9219 40.1322V19.2556C94.9219 17.9385 95.9893 16.8711 97.3064 16.8711H127.404C128.198 16.8711 128.843 17.5154 128.843 18.3099V39.9716C128.843 41.1174 127.914 42.0463 126.768 42.0463Z" fill="#C5F0FF"/>
<path d="M6.36075 88.6622C6.36075 89.4587 7.0134 90.1108 7.81038 90.1108H86.2113C87.0087 90.1108 87.6609 89.4591 87.6609 88.6622L88.3131 43.6073C88.3131 42.8108 87.3747 41.2553 85.6542 41.3725L9.03195 39.3899C8.03154 39.3638 7.06414 39.749 6.35533 40.4553C5.64701 41.1617 5.25936 42.1271 5.283 43.1266L6.36075 88.6622Z" fill="url(#paint4_linear_3093_431466)"/>
<path d="M7.79132 87.2696C7.79132 88.0242 8.40851 88.6414 9.16313 88.6414H84.3204C85.0751 88.6414 85.6922 88.0242 85.6922 87.2696L86.308 46.3685C86.2355 43.9071 84.0776 43.0225 82.7693 43.0747L9.33405 41.1044C8.63115 41.0857 7.95141 41.3566 7.45391 41.8531C6.95592 42.3496 6.68205 43.0294 6.69979 43.7323L7.79132 87.2696Z" fill="#91B3FA"/>
<path d="M0.278302 93.8489H92.153C92.3061 93.8489 92.4313 93.7238 92.4313 93.5706V90.1689C92.4313 90.0157 92.3061 89.8906 92.153 89.8906H0.278302C0.125112 89.8906 0 90.0157 0 90.1689V93.5706C0 93.7238 0.125112 93.8489 0.278302 93.8489Z" fill="url(#paint5_linear_3093_431466)"/>
<path d="M86.2454 50.4962L86.3064 46.398C86.234 43.9366 84.0761 43.0387 82.7678 43.0909L9.33254 41.1142C8.62964 41.0955 7.9499 41.3629 7.4524 41.8595C6.95441 42.356 6.68104 43.0603 6.69828 43.7632L6.86674 50.4962H86.2454Z" fill="url(#paint6_linear_3093_431466)"/>
<path d="M84.8785 67.838C84.8785 67.838 84.8765 67.838 84.8755 67.838C84.7647 67.8366 84.676 67.745 84.6775 67.6341L84.7263 64.3172C84.7278 64.2073 84.8174 64.1191 84.9272 64.1191C84.9282 64.1191 84.9292 64.1191 84.9292 64.1191C85.041 64.1206 85.1302 64.2122 85.1282 64.3231L85.0794 67.64C85.078 67.7499 84.9883 67.838 84.8785 67.838Z" fill="white"/>
<path d="M84.9989 59.7116C84.9979 59.7116 84.9969 59.7116 84.9959 59.7116C84.8851 59.7101 84.7959 59.6185 84.7979 59.5077L84.9846 46.8033C84.9811 46.0487 84.7521 45.4463 84.3039 45.0168C83.467 44.2149 82.1385 44.2558 82.0824 44.2587L58.6109 43.6292C58.5001 43.6263 58.4124 43.5341 58.4154 43.4228C58.4183 43.312 58.5035 43.2174 58.6217 43.2273L82.0794 43.8568C82.2252 43.8479 83.6399 43.8238 84.5821 44.7262C85.1122 45.234 85.3831 45.9334 85.387 46.8053L85.2003 59.5136C85.1979 59.6234 85.1082 59.7116 84.9989 59.7116Z" fill="#BDD0FB"/>
<path d="M53.0459 71.333H11.8823C10.8588 71.333 10.0288 70.503 10.0288 69.4794V54.3477C10.0288 53.3241 10.8588 52.4941 11.8823 52.4941H53.0459C54.0695 52.4941 54.8995 53.3241 54.8995 54.3477V69.4794C54.8995 70.503 54.0695 71.333 53.0459 71.333Z" fill="#C5F0FF"/>
<path d="M82.7431 71.333H58.5677C57.8343 71.333 57.2397 70.7384 57.2397 70.005V53.8221C57.2397 53.0887 57.8343 52.4941 58.5677 52.4941H82.7431C83.4765 52.4941 84.071 53.0887 84.071 53.8221V70.005C84.071 70.7384 83.4765 71.333 82.7431 71.333Z" fill="#C5F0FF"/>
<path d="M82.439 86.856H11.6612C10.7598 86.856 10.0288 86.125 10.0288 85.2236V75.7007C10.0288 74.7993 10.7598 74.0684 11.6612 74.0684H82.439C83.3404 74.0684 84.0714 74.7993 84.0714 75.7007V85.2236C84.0709 86.125 83.3404 86.856 82.439 86.856Z" fill="#C5F0FF"/>
<path d="M11.5409 45.8262C11.6244 45.312 11.2752 44.8274 10.7609 44.744C10.2467 44.6605 9.76216 45.0097 9.6787 45.524C9.59524 46.0382 9.94446 46.5227 10.4587 46.6062C10.9729 46.6896 11.4575 46.3404 11.5409 45.8262Z" fill="#91B3FA"/>
<path d="M14.4177 46.4268C14.7861 46.0584 14.7861 45.4611 14.4177 45.0928C14.0493 44.7244 13.4521 44.7244 13.0837 45.0928C12.7154 45.4611 12.7154 46.0584 13.0837 46.4267C13.4521 46.7951 14.0493 46.7951 14.4177 46.4268Z" fill="#91B3FA"/>
<path d="M17.3525 46.6025C17.7209 46.2342 17.7209 45.6369 17.3525 45.2686C16.9842 44.9002 16.3869 44.9002 16.0186 45.2686C15.6502 45.6369 15.6502 46.2342 16.0186 46.6025C16.3869 46.9709 16.9842 46.9709 17.3525 46.6025Z" fill="#91B3FA"/>
<path d="M83.4106 29.5398C90.5589 29.5398 96.3538 23.6708 96.3538 16.431C96.3538 9.19126 90.5589 3.32227 83.4106 3.32227C76.2622 3.32227 70.4673 9.19126 70.4673 16.431C70.4673 23.6708 76.2622 29.5398 83.4106 29.5398Z" fill="white"/>
<path d="M82.9555 23.4963C82.3945 23.4963 81.8728 23.1988 81.5822 22.7091L76.7127 14.5005C76.2571 13.7321 76.5024 12.7356 77.2609 12.2741C78.019 11.8125 79.0036 12.0613 79.4592 12.8292L82.8393 18.5277L87.3079 9.63881C87.7093 8.84035 88.6742 8.52215 89.4628 8.92902C90.2515 9.33539 90.5652 10.3126 90.1638 11.1111L84.3835 22.6101C84.119 23.1357 83.5939 23.4751 83.0117 23.4958C82.9929 23.4958 82.9742 23.4963 82.9555 23.4963Z" fill="url(#paint7_linear_3093_431466)"/>
<path d="M25.2902 79.8445C32.4386 79.8445 38.2334 73.9755 38.2334 66.7357C38.2334 59.496 32.4386 53.627 25.2902 53.627C18.1418 53.627 12.3469 59.496 12.3469 66.7357C12.3469 73.9755 18.1418 79.8445 25.2902 79.8445Z" fill="white"/>
<path d="M24.8339 73.7932C24.2729 73.7932 23.7513 73.4956 23.4606 73.006L18.5911 64.7974C18.1355 64.0289 18.3808 63.0325 19.1393 62.5709C19.8974 62.1094 20.882 62.3581 21.3377 63.1261L24.7177 68.8246L29.1863 59.9357C29.5877 59.1372 30.5527 58.819 31.3413 59.2259C32.1299 59.6323 32.4436 60.6095 32.0422 61.408L26.2619 72.907C25.9974 73.4326 25.4723 73.772 24.8901 73.7927C24.8719 73.7932 24.8531 73.7932 24.8339 73.7932Z" fill="url(#paint8_linear_3093_431466)"/>
<path d="M35.8621 102.515C35.8823 102.507 46.6179 83.7062 48.0685 81.9369C48.3128 81.6393 48.6902 81.4876 49.0724 81.5334L52.0692 81.8906L55.5896 89.5062L49.725 86.0907C50.3053 90.1042 42.7714 96.0687 40.1874 98.2454C39.9254 98.466 39.9037 98.8621 40.1406 99.1098L41.1721 100.19C39.4786 101.906 37.5241 103.009 35.3188 103.518L35.8621 102.515Z" fill="url(#paint9_linear_3093_431466)"/>
<path d="M40.5761 99.6133C40.5761 99.6133 41.2346 99.8261 41.4573 100.412C41.5637 100.693 41.4489 101.011 41.2051 101.185C40.1209 101.962 36.5449 104.469 34.8948 104.96C34.7593 105.001 34.6307 104.878 34.6613 104.74C34.746 104.357 35.0199 103.592 35.9026 102.471L35.8233 102.631C35.7233 102.833 35.9439 103.045 36.1405 102.933C37.2443 102.311 39.4924 100.947 40.5761 99.6133Z" fill="url(#paint10_linear_3093_431466)"/>
<path d="M40.0444 107.134C40.0626 107.122 41.6733 103.241 41.691 103.23C43.1678 94.2381 46.7709 86.5378 47.8339 84.5113C48.0127 84.1705 48.3521 83.9459 48.7353 83.9129L51.7419 83.6562L56.7307 90.402L50.2962 88.244C51.6769 92.057 45.5055 99.4229 43.4155 102.077C43.2032 102.347 43.2623 102.738 43.5446 102.933L44.7735 103.782C43.4623 105.806 41.7718 107.281 39.7148 108.227L40.0444 107.134Z" fill="url(#paint11_linear_3093_431466)"/>
<path d="M44.071 103.332C44.071 103.332 44.7586 103.407 45.0955 103.936C45.2566 104.19 45.2083 104.524 45.0049 104.745C44.1005 105.725 41.1062 108.904 39.5896 109.719C39.4654 109.786 39.3142 109.692 39.3162 109.551C39.3216 109.158 39.4349 108.353 40.0723 107.077L40.027 107.25C39.9698 107.469 40.2289 107.631 40.3989 107.482C41.3544 106.648 43.2799 104.858 44.071 103.332Z" fill="url(#paint12_linear_3093_431466)"/>
<path d="M65.8168 82.2345C65.8168 82.2345 68.5367 86.2805 68.7599 88.1257C68.983 89.9713 68.0077 90.6092 65.1607 90.8446C56.6885 91.5451 52.512 89.0059 52.512 89.0059C51.9322 85.3106 51.5199 84.3708 46.6799 82.3616C46.6799 82.3616 52.8021 82.8478 54.034 82.3695C55.2664 81.8912 65.8168 82.2345 65.8168 82.2345Z" fill="url(#paint13_linear_3093_431466)"/>
<path d="M54.9707 59.5662C54.9707 59.5662 56.8651 57.3245 58.8792 60.075C59.2442 60.573 60.6451 60.1622 61.1589 61.2049C61.4239 61.7433 61.9967 62.0492 62.5868 61.9403C64.0566 61.6694 66.4589 61.6463 67.645 63.9495C68.5504 65.7075 67.8514 66.7365 66.9466 67.3226C66.2821 67.7536 66.0447 68.628 66.4466 69.3107C66.8323 69.9653 66.9047 70.8519 65.9092 71.9188C63.6784 74.3098 59.2625 70.4017 59.2625 70.4017L55.7563 62.1167L54.9707 59.5662Z" fill="url(#paint14_linear_3093_431466)"/>
<path d="M58.4613 81.6986C58.4613 81.6986 55.2936 78.6826 53.7346 76.6848C52.8918 75.605 52.6273 74.1835 53.0169 72.8703C53.7287 70.472 54.9941 67.988 55.1094 67.6013C55.2862 67.0087 58.8376 67.0333 58.8376 67.0333C58.8376 67.0333 65.8267 71.5694 68.5723 79.2525L65.4883 80.2125C65.4883 80.2125 63.6633 77.1512 61.8605 75.2046C61.8605 75.2046 64.9805 79.3259 65.0903 81.0135L58.4613 81.6986Z" fill="url(#paint15_linear_3093_431466)"/>
<path d="M52.426 82.8901L54.8061 80.3006L57.5547 81.041C57.5547 81.041 60.7593 81.5375 62.5932 81.041C64.4275 80.5444 64.4275 80.5444 64.4275 80.5444L68.572 79.2539L69.2232 81.0937C69.3887 81.5606 69.2222 82.0793 68.8183 82.3665C68.4597 82.6211 68.0395 82.9014 67.7716 83.0186C67.2258 83.2575 55.1982 83.094 55.1982 83.094L52.426 82.8901Z" fill="url(#paint16_linear_3093_431466)"/>
<path d="M56.3961 62.7618L58.7831 67.2008C58.6254 68.1697 56.1847 68.1973 55.8079 67.6185C55.7695 67.5594 55.7478 67.4914 55.7331 67.423L54.3051 64.4572C54.244 64.1681 55.0366 63.1933 55.2976 63.0544L56.2463 62.5495C56.6118 62.3544 55.0873 62.3391 56.3961 62.7618Z" fill="url(#paint17_linear_3093_431466)"/>
<path d="M51.5653 61.7194C51.5653 61.7194 51.2959 63.2193 52.4746 65.126C53.6533 67.0328 54.8271 66.9466 55.4236 66.2668C56.0201 65.5866 56.7344 64.4542 56.4093 62.5523C56.0837 60.6505 51.9722 59.8073 51.5653 61.7194Z" fill="url(#paint18_linear_3093_431466)"/>
<path d="M54.9823 62.76C54.9823 62.76 53.0736 60.2528 51.6082 62.4383L51.6328 63.1934C51.6328 63.1934 49.727 63.1043 49.9339 61.3482C50.1403 59.5917 51.6963 58.3923 53.8528 58.9923C56.0093 59.5922 57.2698 60.2759 57.5131 61.7728C57.7564 63.2703 56.5339 63.0254 56.5339 63.0254C56.5339 63.0254 56.0669 61.992 55.5029 61.9216C54.9389 61.8512 55.1428 62.6683 55.1428 62.6683L54.9823 62.76Z" fill="url(#paint19_linear_3093_431466)"/>
<path d="M55.4212 62.6934C55.4212 62.6934 54.4326 61.4103 55.3326 61.1443C56.2325 60.8778 56.199 62.4013 56.1404 62.9683L55.4212 62.6934Z" fill="url(#paint20_linear_3093_431466)"/>
<path d="M60.3032 83.9135C60.2948 83.914 60.2864 83.914 60.278 83.914L49.3307 83.9022C49.0603 83.9022 48.8411 83.6825 48.8411 83.4116C48.8416 83.1407 49.0617 82.917 49.3317 82.922L60.279 82.9338C60.5495 82.9338 60.7686 83.1535 60.7686 83.4244C60.7682 83.6864 60.5623 83.9007 60.3032 83.9135Z" fill="url(#paint21_linear_3093_431466)"/>
<path d="M39.4906 73.9727H48.6075C49.2799 73.9727 49.8922 74.3608 50.1793 74.9691L54.3943 83.9063H43.0642C42.6307 83.9063 42.2416 83.6413 42.082 83.2384L38.8138 74.9681C38.6246 74.4903 38.9768 73.9727 39.4906 73.9727Z" fill="url(#paint22_linear_3093_431466)"/>
<path d="M45.913 78.5539C46.1105 79.1676 45.9647 79.7636 45.5869 79.8853C45.2091 80.0069 44.7431 79.608 44.5456 78.9937C44.3481 78.38 44.4939 77.784 44.8717 77.6623C45.249 77.5411 45.7155 77.9401 45.913 78.5539Z" fill="url(#paint23_linear_3093_431466)"/>
<path d="M119.043 20.1496C119.19 19.5245 118.31 19.1093 117.772 19.5457C112.305 23.9788 99.1697 37.2541 102.443 60.4541C106.55 89.5616 99.5287 100.183 90.7881 106.662C90.7881 106.662 102.792 103.615 110.344 92.8377C128.886 66.3763 116.432 31.2625 119.043 20.1496Z" fill="#0045A4"/>
<path d="M114.882 29.2369C114.199 32.4775 113.589 35.7275 113.118 38.9928C112.627 42.255 112.251 45.5287 111.993 48.8077C111.751 52.0872 111.579 55.3702 111.569 58.6547C111.543 61.9391 111.679 65.2201 111.829 68.5144C111.958 71.8078 112.11 75.1242 111.869 78.4649C111.632 81.7986 110.93 85.1608 109.537 88.3133C109.189 89.0989 108.823 89.8821 108.407 90.6387C108.008 91.4027 107.569 92.1514 107.114 92.8927C106.197 94.3724 105.164 95.8018 104.013 97.1589C101.703 99.868 98.9171 102.271 95.8474 104.305C95.5243 104.519 95.0618 104.467 94.8135 104.187C94.5702 103.913 94.6244 103.523 94.9322 103.307L94.9342 103.305C95.6647 102.792 96.3873 102.273 97.0803 101.727C97.432 101.459 97.7694 101.178 98.1128 100.902C98.4433 100.616 98.7871 100.341 99.1073 100.046C100.411 98.8863 101.618 97.6485 102.713 96.3402C104.917 93.735 106.681 90.8323 108.017 87.8232C108.666 86.3115 109.184 84.7614 109.563 83.1817C109.94 81.602 110.177 79.9948 110.308 78.3742C110.571 75.1321 110.453 71.8482 110.351 68.5543C110.254 65.2595 110.183 61.9485 110.27 58.6399C110.308 56.9858 110.381 55.3323 110.488 53.6807C110.536 52.8547 110.602 52.0296 110.667 51.2045C110.741 50.38 110.821 49.5559 110.907 48.7328C111.262 45.44 111.733 42.1585 112.324 38.8942C112.933 35.6324 113.641 32.3859 114.493 29.1679C114.518 29.0758 114.624 29.0187 114.73 29.0394C114.836 29.0601 114.901 29.1478 114.882 29.2369Z" fill="#7D97F4"/>
<path d="M104.67 99.1565C105.393 99.9234 106.664 99.7028 107.099 98.7433C109.497 93.4476 114.925 77.8622 105.961 59.9066C98.3904 44.7438 95.7266 35.8026 94.7986 31.6601C94.6026 30.7843 93.4017 30.6676 93.0396 31.4892C89.041 40.5505 78.4847 71.3741 104.67 99.1565Z" fill="#7D97F4"/>
<path d="M105.982 98.596C106.008 98.6005 106.034 98.6029 106.061 98.6024C106.288 98.599 106.47 98.4118 106.466 98.1847C106.462 97.9271 105.961 72.1874 96.3878 50.6291C96.2957 50.4217 96.0528 50.3281 95.845 50.4202C95.6371 50.5123 95.544 50.7557 95.6361 50.963C105.14 72.3642 105.64 97.9414 105.644 98.197C105.647 98.3975 105.792 98.562 105.982 98.596Z" fill="#91B3FA"/>
<defs>
<linearGradient id="paint0_linear_3093_431466" x1="81.0234" y1="97.2308" x2="79.5211" y2="67.4864" gradientUnits="userSpaceOnUse">
<stop stop-color="#09005D"/>
<stop offset="1" stop-color="#1A0F91"/>
</linearGradient>
<linearGradient id="paint1_linear_3093_431466" x1="82.2492" y1="-34.1772" x2="73.1724" y2="82.9658" gradientUnits="userSpaceOnUse">
<stop stop-color="#53D8FF"/>
<stop offset="1" stop-color="#3840F7"/>
</linearGradient>
<linearGradient id="paint2_linear_3093_431466" x1="81.1167" y1="86.0097" x2="67.296" y2="116.355" gradientUnits="userSpaceOnUse">
<stop stop-color="#09005D"/>
<stop offset="1" stop-color="#1A0F91"/>
</linearGradient>
<linearGradient id="paint3_linear_3093_431466" x1="21.4609" y1="8.51117" x2="132.97" y2="8.51117" gradientUnits="userSpaceOnUse">
<stop stop-color="#4F52FF"/>
<stop offset="1" stop-color="#4042E2"/>
</linearGradient>
<linearGradient id="paint4_linear_3093_431466" x1="47.0416" y1="39.599" x2="45.6716" y2="102.738" gradientUnits="userSpaceOnUse">
<stop stop-color="#09005D"/>
<stop offset="1" stop-color="#1A0F91"/>
</linearGradient>
<linearGradient id="paint5_linear_3093_431466" x1="47.4164" y1="41.1388" x2="46.4155" y2="83.4291" gradientUnits="userSpaceOnUse">
<stop stop-color="#09005D"/>
<stop offset="1" stop-color="#1A0F91"/>
</linearGradient>
<linearGradient id="paint6_linear_3093_431466" x1="38.4052" y1="146.392" x2="48.1665" y2="26.1722" gradientUnits="userSpaceOnUse">
<stop stop-color="#4F52FF"/>
<stop offset="1" stop-color="#4042E2"/>
</linearGradient>
<linearGradient id="paint7_linear_3093_431466" x1="83.4112" y1="-27.7044" x2="83.4112" y2="-2.47351" gradientUnits="userSpaceOnUse">
<stop stop-color="#FEBBBA"/>
<stop offset="1" stop-color="#FF928E"/>
</linearGradient>
<linearGradient id="paint8_linear_3093_431466" x1="25.29" y1="-27.7127" x2="25.29" y2="-2.48181" gradientUnits="userSpaceOnUse">
<stop stop-color="#FEBBBA"/>
<stop offset="1" stop-color="#FF928E"/>
</linearGradient>
<linearGradient id="paint9_linear_3093_431466" x1="33.2891" y1="86.7652" x2="50.2149" y2="96.4262" gradientUnits="userSpaceOnUse">
<stop stop-color="#FEBBBA"/>
<stop offset="1" stop-color="#FF928E"/>
</linearGradient>
<linearGradient id="paint10_linear_3093_431466" x1="35.5022" y1="96.4314" x2="43.1263" y2="114.884" gradientUnits="userSpaceOnUse">
<stop stop-color="#4F52FF"/>
<stop offset="1" stop-color="#4042E2"/>
</linearGradient>
<linearGradient id="paint11_linear_3093_431466" x1="34.9267" y1="89.1788" x2="-22.9851" y2="52.9252" gradientUnits="userSpaceOnUse">
<stop stop-color="#FEBBBA"/>
<stop offset="1" stop-color="#FF928E"/>
</linearGradient>
<linearGradient id="paint12_linear_3093_431466" x1="38.4586" y1="101.244" x2="49.6589" y2="117.769" gradientUnits="userSpaceOnUse">
<stop stop-color="#4F52FF"/>
<stop offset="1" stop-color="#4042E2"/>
</linearGradient>
<linearGradient id="paint13_linear_3093_431466" x1="49.1437" y1="74.6384" x2="63.0646" y2="89.8941" gradientUnits="userSpaceOnUse">
<stop stop-color="#E1473D"/>
<stop offset="1" stop-color="#E9605A"/>
</linearGradient>
<linearGradient id="paint14_linear_3093_431466" x1="52.07" y1="53.941" x2="59.4291" y2="62.4367" gradientUnits="userSpaceOnUse">
<stop stop-color="#09005D"/>
<stop offset="1" stop-color="#1A0F91"/>
</linearGradient>
<linearGradient id="paint15_linear_3093_431466" x1="72.4078" y1="53.2501" x2="68.7559" y2="60.2218" gradientUnits="userSpaceOnUse">
<stop stop-color="#FF928E"/>
<stop offset="1" stop-color="#FE7062"/>
</linearGradient>
<linearGradient id="paint16_linear_3093_431466" x1="62.9347" y1="81.201" x2="79.7954" y2="81.201" gradientUnits="userSpaceOnUse">
<stop stop-color="#FEBBBA"/>
<stop offset="1" stop-color="#FF928E"/>
</linearGradient>
<linearGradient id="paint17_linear_3093_431466" x1="56.0718" y1="73.1401" x2="56.4615" y2="67.0669" gradientUnits="userSpaceOnUse">
<stop stop-color="#FEBBBA"/>
<stop offset="1" stop-color="#FF928E"/>
</linearGradient>
<linearGradient id="paint18_linear_3093_431466" x1="56.6461" y1="68.001" x2="49.3094" y2="53.9604" gradientUnits="userSpaceOnUse">
<stop stop-color="#FEBBBA"/>
<stop offset="1" stop-color="#FF928E"/>
</linearGradient>
<linearGradient id="paint19_linear_3093_431466" x1="47.4797" y1="60.0389" x2="57.7532" y2="62.1002" gradientUnits="userSpaceOnUse">
<stop stop-color="#09005D"/>
<stop offset="1" stop-color="#1A0F91"/>
</linearGradient>
<linearGradient id="paint20_linear_3093_431466" x1="58.3264" y1="67.1245" x2="50.9898" y2="53.084" gradientUnits="userSpaceOnUse">
<stop stop-color="#FEBBBA"/>
<stop offset="1" stop-color="#FF928E"/>
</linearGradient>
<linearGradient id="paint21_linear_3093_431466" x1="62.1605" y1="81.0047" x2="53.4702" y2="83.8549" gradientUnits="userSpaceOnUse">
<stop stop-color="#09005D"/>
<stop offset="1" stop-color="#1A0F91"/>
</linearGradient>
<linearGradient id="paint22_linear_3093_431466" x1="39.2692" y1="79.5836" x2="118.599" y2="72.9093" gradientUnits="userSpaceOnUse">
<stop stop-color="#09005D"/>
<stop offset="1" stop-color="#1A0F91"/>
</linearGradient>
<linearGradient id="paint23_linear_3093_431466" x1="52.6012" y1="60.6271" x2="43.2857" y2="83.5576" gradientUnits="userSpaceOnUse">
<stop stop-color="#4F52FF"/>
<stop offset="1" stop-color="#4042E2"/>
</linearGradient>
</defs>
</svg>
