<svg width="165" height="83" viewBox="0 0 165 83" fill="none" xmlns="http://www.w3.org/2000/svg">
<path d="M159.578 79.8907C159.578 83.8351 125.133 82.9027 81.1899 82.9027C37.247 82.9027 0.448242 83.8341 0.448242 79.8907C0.448242 75.9472 37.248 75.0293 81.1899 75.0293C125.132 75.0293 159.578 75.9472 159.578 79.8907Z" fill="#94D3E9"/>
<path d="M145.938 69.5089H28.2081C28.0185 69.5089 27.8657 69.3551 27.8657 69.1665V8.80755C27.8657 6.06058 30.0923 3.83398 32.8393 3.83398H142.092C144.406 3.83398 146.282 5.70947 146.282 8.02312V69.1655C146.281 69.3551 146.128 69.5089 145.938 69.5089Z" fill="#0045A4"/>
<path d="M139.146 8.98633H35.002V66.2588H139.146V8.98633Z" fill="url(#paint0_linear_3093_431350)"/>
<path d="M28.567 9.43046C28.567 6.69509 30.9822 4.47817 33.9623 4.47817H142.032C143.343 4.47817 144.544 4.90859 145.48 5.62242C144.49 4.5304 143 3.83398 141.331 3.83398H33.26C30.2809 3.83398 27.8657 6.05188 27.8657 8.78627V69.5079H28.567V9.43046Z" fill="#2BC6FF"/>
<path d="M20.3638 69.4505V74.2596C20.3638 76.6758 22.3224 78.6345 24.7386 78.6345H149.67C151.941 78.6345 153.782 76.7929 153.782 74.5218V69.3973C153.782 69.3896 153.776 69.3828 153.768 69.3828H20.4315C20.3938 69.3828 20.3638 69.4128 20.3638 69.4505Z" fill="#76C3E5"/>
<path d="M105.155 70.2168H68.9922C68.9922 71.157 70.121 71.9191 71.5119 71.9191H102.635C104.027 71.9191 105.155 71.157 105.155 70.2168Z" fill="#0045A4"/>
<path d="M20.5435 74.0117C21.1045 76.4269 22.9645 78.2676 25.2636 78.5839C25.3391 78.5926 25.4145 78.6042 25.4909 78.611C25.5518 78.6168 25.6118 78.6177 25.6728 78.6206C25.8082 78.6284 25.9436 78.6371 26.0809 78.6371H148.065C148.202 78.6371 148.338 78.6293 148.473 78.6206C148.533 78.6177 148.595 78.6158 148.655 78.611C148.731 78.6042 148.807 78.5926 148.882 78.5839C151.181 78.2676 153.041 76.4269 153.602 74.0117H20.5435Z" fill="#0045A4"/>
<path opacity="0.22" d="M59.1846 66.2597H139.146V8.98633H134.921L59.1846 66.2597Z" fill="white"/>
<path d="M98.9818 62.8456H75.2456C74.2097 62.8456 73.3691 62.0051 73.3691 60.9691V56.9058C73.3691 55.8689 74.2097 55.0293 75.2456 55.0293H98.9818C100.019 55.0293 100.858 55.8698 100.858 56.9058V60.9691C100.858 62.0051 100.018 62.8456 98.9818 62.8456Z" fill="#0046A4"/>
<path d="M80.0689 57.7617V59.7871H79.6626V57.7617H80.0689ZM82.2316 59.7871H81.8253L80.9055 58.3972V59.7871H80.4992V57.7588H80.9055L81.8253 59.1516V57.7588H82.2316V59.7871ZM83.8982 58.58V58.9224H82.6679V58.58H83.8982ZM85.6247 59.4012H84.8181L84.6846 59.7871H84.258L84.9864 57.7588H85.4594L86.1877 59.7871H85.7582L85.6247 59.4012ZM85.5145 59.0762L85.2214 58.2289L84.9283 59.0762H85.5145ZM86.3903 58.7715C86.3903 58.5723 86.4348 58.3943 86.5238 58.2376C86.6147 58.079 86.7375 57.9561 86.8923 57.8691C87.049 57.7801 87.2241 57.7356 87.4175 57.7356C87.6438 57.7356 87.8421 57.7936 88.0124 57.9097C88.1826 58.0258 88.3016 58.1863 88.3693 58.3914H87.9021C87.8557 58.2947 87.7899 58.2221 87.7048 58.1737C87.6216 58.1254 87.5249 58.1012 87.4146 58.1012C87.2966 58.1012 87.1912 58.1293 87.0983 58.1854C87.0074 58.2395 86.9358 58.3169 86.8836 58.4175C86.8333 58.5181 86.8081 58.6361 86.8081 58.7715C86.8081 58.905 86.8333 59.023 86.8836 59.1255C86.9358 59.2261 87.0074 59.3045 87.0983 59.3606C87.1912 59.4147 87.2966 59.4418 87.4146 59.4418C87.5249 59.4418 87.6216 59.4176 87.7048 59.3693C87.7899 59.319 87.8557 59.2455 87.9021 59.1487H88.3693C88.3016 59.3557 88.1826 59.5172 88.0124 59.6333C87.8441 59.7475 87.6458 59.8045 87.4175 59.8045C87.2241 59.8045 87.049 59.761 86.8923 59.6739C86.7375 59.585 86.6147 59.4621 86.5238 59.3054C86.4348 59.1487 86.3903 58.9708 86.3903 58.7715ZM90.1236 57.7617V58.0896H89.5839V59.7871H89.1776V58.0896H88.6379V57.7617H90.1236ZM90.8553 57.7617V59.7871H90.449V57.7617H90.8553ZM93.105 57.7617L92.3622 59.7871H91.8689L91.126 57.7617H91.5613L92.1184 59.3722L92.6727 57.7617H93.105ZM93.7839 58.0896V58.5974H94.4658V58.9195H93.7839V59.4563H94.5528V59.7871H93.3776V57.7588H94.5528V58.0896H93.7839Z" fill="white"/>
<path d="M67.7004 19.412L66.8241 22.0671H65.6973L68.5651 13.627H69.8796L72.7601 22.0671H71.5955L70.694 19.412H67.7004ZM70.4677 18.5609L69.6407 16.1311C69.4531 15.5798 69.3273 15.0788 69.2026 14.5913H69.1774C69.0526 15.0923 68.9143 15.6059 68.7518 16.1186L67.9258 18.5609H70.4677Z" fill="#0046A4"/>
<path d="M78.1304 21.842C77.8422 21.9919 77.2038 22.1921 76.3894 22.1921C74.5613 22.1921 73.3716 20.9521 73.3716 19.0989C73.3716 17.2331 74.6493 15.8809 76.6273 15.8809C77.2783 15.8809 77.8548 16.0434 78.1546 16.1942L77.9041 17.0454C77.641 16.8955 77.228 16.7572 76.6264 16.7572C75.2364 16.7572 74.4849 17.7844 74.4849 19.0486C74.4849 20.4511 75.3864 21.3148 76.5886 21.3148C77.2154 21.3148 77.6284 21.1523 77.9408 21.014L78.1304 21.842Z" fill="#0046A4"/>
<path d="M83.6631 21.842C83.3749 21.9919 82.7365 22.1921 81.9221 22.1921C80.094 22.1921 78.9043 20.9521 78.9043 19.0989C78.9043 17.2331 80.182 15.8809 82.16 15.8809C82.811 15.8809 83.3875 16.0434 83.6873 16.1942L83.4368 17.0454C83.1737 16.8955 82.7607 16.7572 82.1591 16.7572C80.7691 16.7572 80.0176 17.7844 80.0176 19.0486C80.0176 20.4511 80.9191 21.3148 82.1214 21.3148C82.7481 21.3148 83.1611 21.1523 83.4736 21.014L83.6631 21.842Z" fill="#0046A4"/>
<path d="M90.3619 18.9875C90.3619 21.2296 88.8095 22.2055 87.3441 22.2055C85.7036 22.2055 84.4385 21.0033 84.4385 19.0872C84.4385 17.0589 85.7655 15.8691 87.4437 15.8691C89.1847 15.8701 90.3619 17.1343 90.3619 18.9875ZM85.5527 19.0504C85.5527 20.3775 86.3169 21.3795 87.3934 21.3795C88.4458 21.3795 89.2341 20.39 89.2341 19.0253C89.2341 17.998 88.7205 16.6961 87.4186 16.6961C86.1167 16.6961 85.5527 17.8984 85.5527 19.0504Z" fill="#0046A4"/>
<path d="M96.8214 20.4146C96.8214 21.0404 96.834 21.5917 96.8717 22.0676H95.8948L95.8319 21.0781H95.8067C95.5185 21.5665 94.8801 22.2049 93.8036 22.2049C92.8518 22.2049 91.7124 21.6787 91.7124 19.5498V16.0059H92.8141V19.3622C92.8141 20.5142 93.1652 21.2909 94.1663 21.2909C94.9053 21.2909 95.4189 20.7773 95.6191 20.2888C95.682 20.1263 95.7197 19.9261 95.7197 19.7259V16.0068H96.8214V20.4146Z" fill="#0046A4"/>
<path d="M98.648 17.6469C98.648 17.0202 98.6354 16.5075 98.5977 16.0065H99.5746L99.6374 17.0086H99.6626C99.9634 16.4321 100.665 15.8691 101.666 15.8691C102.504 15.8691 103.807 16.3702 103.807 18.4488V22.0672H102.706V18.5736C102.706 17.5966 102.343 16.7832 101.303 16.7832C100.577 16.7832 100.014 17.2968 99.8251 17.91C99.7748 18.0474 99.7496 18.236 99.7496 18.4236V22.0672H98.648V17.6469Z" fill="#0046A4"/>
<path d="M106.874 14.2656V16.0067H108.452V16.8453H106.874V20.1136C106.874 20.8651 107.087 21.2907 107.7 21.2907C107.988 21.2907 108.201 21.253 108.339 21.2153L108.389 22.0413C108.176 22.1293 107.837 22.1912 107.412 22.1912C106.898 22.1912 106.485 22.0287 106.222 21.7279C105.909 21.402 105.797 20.8642 105.797 20.1503V16.8443H104.857V16.0057H105.797V14.5529L106.874 14.2656Z" fill="#0046A4"/>
<path d="M17.2086 15.0522C18.4477 13.3712 19.0919 11.338 19.0377 9.21686C18.9845 7.10247 18.2436 5.11091 16.9291 3.49755L16.9369 3.49175L16.6467 3.16772C16.6148 3.13194 16.5828 3.09711 16.5509 3.06229C16.5209 3.03037 16.4919 2.99845 16.4619 2.96653C16.4407 2.94429 16.4203 2.92301 16.3991 2.90076C16.3594 2.86014 16.3207 2.81951 16.2801 2.77986C16.2704 2.77019 16.2598 2.75955 16.2501 2.74987C16.2046 2.70441 16.1582 2.65992 16.1118 2.61543C16.1079 2.61156 16.1041 2.60769 16.1002 2.60382C16.0983 2.60285 16.0973 2.60092 16.0953 2.59995C16.046 2.55256 15.9948 2.50613 15.9445 2.4597C15.9348 2.45099 15.9251 2.44132 15.9145 2.43261C15.868 2.39102 15.8216 2.3504 15.7752 2.30978C15.7578 2.29527 15.7404 2.27979 15.723 2.26528C15.6833 2.23143 15.6427 2.19758 15.603 2.16372C15.575 2.14051 15.546 2.11729 15.5169 2.09408C15.5073 2.08634 15.4976 2.0786 15.4879 2.07087C13.9548 0.840532 12.0987 0.128642 10.1362 0.0164415C10.1294 0.0164415 10.1226 0.0154733 10.1158 0.0154733C10.0772 0.0135388 10.0394 0.0116046 10.0007 0.00967008C9.94948 0.00773559 9.89919 0.00580134 9.84792 0.00386685C9.82374 0.00289961 9.80053 0.00289772 9.77635 0.00193047C9.71541 0.000963229 9.65351 0 9.59257 0C9.58 0 9.56742 0 9.55581 0C9.48617 0 9.41653 0.000964174 9.34689 0.00289866C9.34592 0.00289866 9.34496 0.00289866 9.34399 0.00289866C9.26371 0.00483315 9.18343 0.00773748 9.10315 0.0116065C9.07413 0.0135409 9.04511 0.0154752 9.01609 0.0174097C8.9658 0.0203114 8.91453 0.0232108 8.86424 0.0270798C8.82651 0.0299815 8.78976 0.033854 8.753 0.0367557C8.71044 0.0406247 8.66885 0.043526 8.62629 0.0483622C8.5876 0.0522312 8.54891 0.0570679 8.50926 0.0609368C8.46863 0.065773 8.42801 0.0696375 8.38835 0.0744738C8.35063 0.07931 8.31387 0.0841495 8.27615 0.089953C8.23359 0.0957564 8.192 0.101559 8.14944 0.107363C8.11656 0.112199 8.08367 0.118 8.05078 0.122836C8.00339 0.130574 7.95696 0.138317 7.90957 0.146055C7.88248 0.150891 7.85637 0.155724 7.82928 0.16056C7.77512 0.170232 7.72095 0.180874 7.66679 0.192481C7.64841 0.19635 7.63003 0.200218 7.61165 0.204087C7.54782 0.217628 7.48398 0.23117 7.42111 0.246646C7.41337 0.24858 7.40466 0.250515 7.39693 0.252449C6.007 0.579378 4.71476 1.21679 3.60243 2.1289C3.60049 2.12987 3.59953 2.1318 3.59759 2.13277C3.5589 2.16469 3.52021 2.19758 3.48152 2.23046C3.45831 2.24981 3.4351 2.26915 3.41285 2.2885C3.39544 2.30397 3.37803 2.31945 3.35965 2.33493C3.31709 2.37168 3.2755 2.40843 3.23391 2.44616C3.23294 2.44712 3.23197 2.44713 3.23197 2.44809C3.0598 2.60479 2.89247 2.76825 2.73094 2.93752C2.72998 2.93849 2.72901 2.93849 2.72901 2.93946C2.70096 2.96944 2.67291 2.99942 2.64582 3.02941C2.62261 3.05456 2.59843 3.0797 2.57522 3.10485L2.57135 3.10872C2.56941 3.11066 2.56748 3.11355 2.56554 3.11549L2.2744 3.43661L2.28214 3.44339C0.831276 5.1999 0.0700545 7.39458 0.128089 9.69468C0.191927 12.2202 1.23558 14.5696 3.06658 16.3097C4.89757 18.0497 7.29633 18.9735 9.82181 18.9096C12.3473 18.8458 14.6967 17.8021 16.4368 15.9711C16.6535 15.7429 16.8575 15.5059 17.0491 15.2612L17.2261 15.0658L17.2086 15.0522ZM12.0832 1.22453C12.1026 1.23033 12.1209 1.23613 12.1403 1.24194C12.2041 1.26225 12.268 1.28256 12.3318 1.30384H12.3328C13.6008 1.7333 14.7393 2.451 15.6678 3.38052C15.0981 3.77515 14.4675 4.10788 13.7894 4.37581C13.5863 3.8061 13.3503 3.27218 13.0834 2.78372C12.7313 2.14051 12.3395 1.60272 11.9178 1.1752C11.9265 1.1781 11.9352 1.18003 11.9439 1.18197C11.9913 1.19648 12.0368 1.21002 12.0832 1.22453ZM14.6455 8.94023C14.5835 7.61801 14.3804 6.34609 14.0516 5.19216C14.8466 4.88361 15.5846 4.49091 16.2462 4.02083C17.3363 5.35466 18.0366 7.02219 18.1643 8.85221L14.6455 8.94023ZM14.0951 14.1334C14.7789 14.4081 15.4115 14.7524 15.9725 15.1596C15.0246 16.1027 13.8939 16.7981 12.6558 17.2111C12.9305 16.8436 13.1849 16.419 13.4161 15.9411C13.684 15.3888 13.9113 14.7814 14.0951 14.1334ZM12.6471 15.5697C12.208 16.477 11.6867 17.1541 11.1189 17.5709C10.8171 17.6125 10.5105 17.6387 10.2019 17.6493L10.0936 13.3605C11.2088 13.375 12.2912 13.5433 13.2884 13.849C13.1143 14.4671 12.9005 15.0455 12.6471 15.5697ZM3.82973 15.1325C4.2824 14.8182 4.77473 14.5425 5.29801 14.3075C5.51757 14.9633 5.78066 15.5746 6.08244 16.1269C6.25655 16.4451 6.44129 16.7382 6.63474 17.0051C5.59495 16.5766 4.64028 15.944 3.82973 15.1325ZM6.83302 15.7167C6.54769 15.1954 6.30007 14.615 6.09308 13.9912C7.08257 13.6449 8.16202 13.435 9.28499 13.376L9.39235 17.6377C9.00932 17.6145 8.63016 17.5661 8.25777 17.4926C7.74417 17.097 7.26055 16.4983 6.83302 15.7167ZM9.77731 0.887929C10.7059 1.05333 11.6015 1.85614 12.3337 3.1948C12.5785 3.64264 12.7951 4.13303 12.9828 4.65728C12.0126 4.95132 10.967 5.11866 9.88468 5.14574L9.77731 0.887929ZM8.96967 0.905339L9.07703 5.138C8.00629 5.09351 6.97231 4.90876 6.02054 4.59634C6.16466 4.15237 6.33199 3.73162 6.5206 3.34086C7.18703 1.96157 8.04595 1.1133 8.96967 0.905339ZM9.09831 5.99498L9.17666 9.07855L5.35701 9.17527C5.35314 7.84628 5.50016 6.56855 5.7855 5.4185C6.82142 5.75413 7.94149 5.95242 9.09831 5.99498ZM9.19697 9.88619L9.26371 12.521C8.06723 12.5819 6.91427 12.8034 5.85224 13.171C5.59495 12.1805 5.43342 11.103 5.37829 9.98292L9.19697 9.88619ZM10.0714 12.5055L10.0046 9.86589L13.8098 9.77013C13.8117 10.9066 13.7014 12.0054 13.4896 13.0181C12.4179 12.6951 11.2611 12.5181 10.0714 12.5055ZM9.9843 9.05823L9.90693 6.00078C11.0696 5.97176 12.1954 5.78992 13.242 5.4717C13.5438 6.54437 13.7314 7.72731 13.7904 8.96248L9.9843 9.05823ZM6.83399 1.30384C6.43452 1.75168 6.06987 2.30978 5.75068 2.96944C5.55046 3.38342 5.37345 3.82738 5.22063 4.29553C4.60933 4.03437 4.04156 3.71712 3.53279 3.34763C4.45264 2.43552 5.57754 1.72846 6.83399 1.30384ZM4.97978 5.12156C4.66059 6.37124 4.49616 7.75826 4.50197 9.19655L0.983132 9.28554C1.02182 7.28044 1.75306 5.43301 2.95244 3.98214C3.5589 4.43288 4.24178 4.81494 4.97978 5.12156ZM4.52325 10.0042C4.58225 11.2258 4.76215 12.402 5.05039 13.4834C4.27466 13.8209 3.55793 14.2417 2.92342 14.7398L2.84604 14.7998C1.80432 13.4901 1.13499 11.869 1.00441 10.0932L4.52325 10.0042ZM14.304 13.2977C14.5439 12.1902 14.6677 10.9889 14.6648 9.74788L18.1836 9.65889C18.142 11.4647 17.5375 13.141 16.5374 14.5135C15.8748 14.0231 15.1204 13.6149 14.304 13.2977Z" fill="#50B1CB"/>
<path d="M159.019 37.9365C159.019 39.1117 158.066 40.0645 156.891 40.0645C155.715 40.0645 154.763 39.1117 154.763 37.9365C154.763 36.7613 155.715 35.8086 156.891 35.8086C158.066 35.8076 159.019 36.7604 159.019 37.9365Z" fill="#50B1CB"/>
<path d="M160.024 41.1375C159.919 41.1375 159.813 41.1008 159.728 41.0253C159.544 40.8618 159.527 40.5794 159.691 40.3956C161.98 37.8208 159.803 35.5875 159.709 35.4936C159.535 35.3195 159.535 35.0371 159.709 34.863C159.883 34.6889 160.165 34.6889 160.339 34.863C160.368 34.892 163.199 37.7918 160.357 40.9885C160.269 41.0872 160.147 41.1375 160.024 41.1375Z" fill="#50B1CB"/>
<path d="M162.302 42.3354C162.196 42.3354 162.091 42.2987 162.006 42.2232C161.822 42.0598 161.805 41.7773 161.969 41.5935C165.357 37.7816 162.126 34.4398 161.986 34.2996C161.813 34.1245 161.814 33.843 161.988 33.6689C162.163 33.4958 162.444 33.4958 162.618 33.6689C162.658 33.7086 166.59 37.7381 162.635 42.1855C162.546 42.2851 162.424 42.3354 162.302 42.3354Z" fill="#50B1CB"/>
<path d="M154.119 41.1375C154.225 41.1375 154.33 41.1008 154.415 41.0253C154.599 40.8618 154.617 40.5794 154.452 40.3956C152.164 37.8208 154.341 35.5875 154.435 35.4936C154.609 35.3195 154.609 35.0371 154.435 34.863C154.261 34.6889 153.978 34.6889 153.804 34.863C153.775 34.892 150.945 37.7918 153.786 40.9885C153.874 41.0872 153.997 41.1375 154.119 41.1375Z" fill="#50B1CB"/>
<path d="M151.841 42.3354C151.947 42.3354 152.052 42.2987 152.137 42.2232C152.321 42.0598 152.339 41.7773 152.174 41.5935C148.786 37.7816 152.017 34.4398 152.157 34.2996C152.33 34.1245 152.329 33.843 152.155 33.6689C151.98 33.4958 151.699 33.4958 151.525 33.6689C151.485 33.7086 147.553 37.7381 151.508 42.1855C151.596 42.2851 151.719 42.3354 151.841 42.3354Z" fill="#50B1CB"/>
<path d="M19.4497 45.8078C19.4497 45.8078 20.4237 45.9558 21.3175 46.3088C22.2112 46.6618 23.249 47.2954 23.6727 45.5766C24.0992 43.8443 23.1194 44.2525 22.5555 44.3734C22.0448 44.4836 21.8968 44.7399 21.2159 44.6055C20.5117 44.4662 19.4903 44.3985 19.4903 44.3985L19.4497 45.8078Z" fill="#FCC596"/>
<path d="M21.3669 44.5256C21.3669 44.5256 17.3267 43.6416 16.2714 43.6996C16.2714 43.6996 15.0943 40.145 13.9984 38.9978C12.9025 37.8517 9.08576 37.0556 10.527 39.289C11.9682 41.5223 13.8146 45.342 15.6011 46.0481C17.3876 46.7542 19.0726 45.7569 21.3872 46.434L21.3669 44.5256Z" fill="#3EA5EB"/>
<path d="M21.3805 45.8244L21.3872 46.4318C19.0726 45.7547 17.3877 46.752 15.6012 46.0459C13.8147 45.3398 11.9682 41.5201 10.527 39.2868C10.0144 38.4917 10.1691 38.0825 10.6286 37.9336C10.8104 38.9898 13.9366 43.7245 14.8912 44.5766C15.8449 45.4288 17.1246 45.4597 18.4033 45.4897C19.3125 45.511 20.6705 45.7112 21.3805 45.8244Z" fill="#2B85C2"/>
<path d="M11.3496 74.97L11.2471 76.1751C11.2471 76.1751 12.6863 76.6433 12.9301 76.3986C13.1738 76.1548 13.4176 75.5522 13.4176 75.5522V74.6895L11.3496 74.97Z" fill="#312C6D"/>
<path d="M5.76221 74.7548L5.87731 76.0587L7.80696 75.6176L7.80406 74.4453L5.76221 74.7548Z" fill="#312C6D"/>
<path d="M5.79576 52.7229C5.79576 52.7229 5.79576 56.1412 6.03951 58.094C6.28325 60.0469 6.77171 64.9295 6.52797 66.3949C6.30356 67.7413 5.66712 73.6241 5.56556 75.3255C5.55395 75.5141 5.70774 75.6717 5.89732 75.6669C6.63049 75.6476 8.29222 75.5634 8.4818 75.1843C8.72554 74.6958 9.94621 67.3718 10.1909 65.9065C10.4347 64.4421 10.9231 63.2214 10.9231 63.2214C10.9231 63.2214 11.1669 65.1743 11.1669 66.6396V75.2762C11.1669 75.488 11.3506 75.6524 11.5605 75.6263C12.227 75.5441 13.5579 75.3642 14.0966 75.1852C14.0966 75.1852 14.5851 69.5704 14.8288 66.8843C15.0726 64.1983 15.0126 54.4398 14.3104 53.3381C13.6092 52.2345 5.79576 52.7229 5.79576 52.7229Z" fill="#223D56"/>
<path d="M5.3761 75.3237C5.3645 75.5123 5.51829 75.6699 5.70787 75.6651C5.86747 75.6612 6.07155 75.6535 6.29402 75.6409C6.59677 72.8881 7.71587 65.0274 7.92673 63.3415C8.10954 61.8828 7.2719 55.6983 6.83568 52.6621C6.0938 52.6902 5.60728 52.7211 5.60728 52.7211C5.60728 52.7211 5.60728 56.1394 5.85102 58.0922C6.09477 60.0451 6.58323 64.9277 6.33948 66.3931C6.11411 67.7395 5.47767 73.6223 5.3761 75.3237Z" fill="#221D51"/>
<path d="M11.3447 57.7207C11.1009 58.6976 10.6289 63.498 10.6289 63.498C10.6927 63.3181 10.7343 63.2137 10.7343 63.2137C10.7343 63.2137 10.9781 65.1665 10.9781 66.6319V75.2684C10.9781 75.4803 11.1619 75.6447 11.3717 75.6186C11.9289 75.5499 12.9464 75.4135 13.5819 75.2655C13.1225 75.1843 12.0246 74.9512 11.8331 74.5672C11.5894 74.0787 12.0769 65.0456 12.0769 65.0456C11.5884 63.3365 11.3447 57.7207 11.3447 57.7207Z" fill="#221D51"/>
<path d="M8.29193 37.3398C8.04819 37.3398 5.63492 37.6561 4.90271 39.609C4.17051 41.5619 4.87369 42.2225 5.36215 44.1754C5.85061 46.1282 5.72874 49.4246 5.48402 51.1337C5.24028 52.8428 5.24028 54.3072 7.19315 54.0635C9.14601 53.8197 13.0527 54.0635 13.7849 53.575C14.5171 53.0866 14.7618 52.8428 14.2734 51.3775C13.7849 49.913 13.2965 47.227 13.5412 45.2741C13.7849 43.3213 13.2974 39.903 12.3205 38.6824C11.3446 37.4617 8.29193 37.3398 8.29193 37.3398Z" fill="#3EA5EB"/>
<path d="M9.61117 44.6503C9.56571 44.5594 7.11665 44.2411 6.55274 41.7988C6.55274 41.7988 6.24806 44.7412 7.19209 44.7112C8.13612 44.6812 9.61117 44.6503 9.61117 44.6503Z" fill="#2B85C2"/>
<path d="M7.91394 36.771C7.91394 36.771 8.02518 37.3069 7.39067 37.5023C7.20786 38.0874 7.32102 38.5498 8.53685 39.045C10.2585 39.7472 11.1455 38.8796 10.6957 37.7412C10.6957 37.7412 9.63757 36.2071 7.91394 36.771Z" fill="#FCC596"/>
<path d="M14.5263 52.5698C12.9546 53.0293 8.97919 52.7884 7.68212 52.3561C6.21771 51.8676 6.21771 49.1825 6.7052 46.985C7.19366 44.7874 6.18289 42.2677 6.18289 42.2677C5.88305 42.0994 5.35493 41.5636 4.74847 40.8633C4.72332 41.9282 5.04154 42.8955 5.36267 44.1771C5.85113 46.1299 5.72925 49.4263 5.48454 51.1354C5.2408 52.8445 5.2408 54.3089 7.19366 54.0652C9.14653 53.8214 13.0532 54.0652 13.7854 53.5767C14.2487 53.2682 14.5157 53.0554 14.5263 52.5698Z" fill="#2B85C2"/>
<path d="M5.60596 76.1592C5.60596 76.1592 7.55882 75.427 8.04728 75.6708C8.04728 75.6708 8.04728 76.1592 8.29103 76.403C8.53477 76.6467 10.0001 78.1121 9.7564 78.3559C9.51265 78.5996 7.07036 78.8443 5.60596 78.3559V76.1592Z" fill="#19183C"/>
<path d="M11.1493 76.1698C11.0574 76.163 10.9781 76.2355 10.9781 76.3284V78.3548C10.9781 78.3548 10.7343 78.5985 12.1988 78.5985C13.6632 78.5985 17.5699 78.5985 17.8136 78.3548C18.0574 78.111 17.8136 77.8663 16.5929 77.3779C15.3723 76.8894 14.0297 76.0353 13.5413 75.5469C13.5413 75.5469 12.5644 75.5469 12.8091 76.2791C12.8091 76.2781 12.5828 76.2781 11.1493 76.1698Z" fill="#19183C"/>
<path d="M13.1008 45.9746C13.1008 45.9746 12.6375 46.555 13.7024 46.6981L18.0908 48.1016L18.4825 47.4642L13.1008 45.9746Z" fill="#24172E"/>
<path d="M13.2105 45.8831L19.7907 43.0762L18.1347 47.9385L13.2308 46.3377C13.017 46.2681 13.0045 45.9711 13.2105 45.8831Z" fill="#283037"/>
<path d="M13.6756 45.8468L19.5999 43.3203L18.1094 47.6981L13.694 46.2569C13.5005 46.193 13.4889 45.9261 13.6756 45.8468Z" fill="#354048"/>
<path d="M20.3264 41.0823L25.8678 38.2386C26.1725 38.0819 26.5207 38.3566 26.4394 38.6893L25.1423 44.0208L17.9722 48.0339L19.9357 41.5504C19.9966 41.3483 20.1378 41.179 20.3264 41.0823Z" fill="#24172E"/>
<path d="M20.4451 41.1467L25.9864 38.3031C26.2911 38.1464 26.6393 38.4211 26.5581 38.7538L25.261 44.0852L18.0908 48.0983L20.0543 41.6149C20.1153 41.4127 20.2565 41.2435 20.4451 41.1467Z" fill="#586976"/>
<path d="M11.6361 46.2308C11.6835 46.2724 12.1555 46.1786 12.2725 46.1554V46.1563C12.2725 46.1563 13.0667 46.667 13.559 46.3788C14.0513 46.0906 14.7429 46.5868 14.975 46.4746C15.2072 46.3633 15.2459 46.2627 15.212 46.0993C15.1781 45.9368 14.8773 45.8836 14.5591 45.7569C14.2419 45.6301 13.9333 45.3332 13.9333 45.3332C13.9333 45.3332 14.3744 45.6824 14.6046 45.6514C14.8628 45.6166 15.4006 45.6824 15.4006 45.6824C15.4006 45.6824 15.9258 46.4213 16.2547 46.2743C16.5835 46.1273 15.9597 45.1688 15.5447 44.9434C15.1288 44.7171 13.824 44.5236 13.5725 44.5294C13.3307 44.5343 12.3925 44.7886 12.2464 44.8902C12.1661 44.8573 11.7048 44.6716 11.6371 44.7248C11.5645 44.7819 11.5819 46.1834 11.6361 46.2308Z" fill="#FCC596"/>
<path d="M6.35792 38.8673C6.35792 38.8673 7.07464 42.4161 7.32129 44.4347C7.32129 44.4347 10.6186 44.1349 12.3055 44.6272C12.3055 44.6272 12.4699 45.7976 12.1585 46.4988C12.1585 46.4988 6.64229 48.0957 5.81723 46.8683C4.99217 45.6409 3.97753 43.0883 4.19419 41.5978C4.32961 40.6576 4.90512 38.4929 6.35792 38.8673Z" fill="#3EA5EB"/>
<path d="M4.4139 41.1051C4.12953 42.583 5.21091 45.1481 6.03694 46.3756C6.79429 47.5015 11.4932 46.2518 12.267 46.037C12.2437 46.2218 12.2099 46.3833 12.1577 46.4994C12.1577 46.4994 6.64147 48.0963 5.81641 46.8689C4.99135 45.6414 3.909 43.0773 4.19337 41.5984C4.25334 41.2879 4.37521 40.9687 4.54061 40.6582C4.48741 40.8091 4.44195 40.958 4.4139 41.1051Z" fill="#2B85C2"/>
<path d="M7.91311 36.7709C9.51293 36.2477 10.5382 37.5322 10.6765 37.7179C10.5701 37.7604 10.4541 37.7865 10.3264 37.8194C8.92291 38.1783 8.25552 37.6966 7.81445 37.2101C7.95664 36.9973 7.91311 36.7709 7.91311 36.7709Z" fill="#EAA87A"/>
<path d="M11.9105 33.0527C11.9105 33.0527 12.0875 34.4165 12.0875 35.1294C12.0875 35.8423 12.1165 37.4721 10.6908 37.709C9.2651 37.947 8.45068 37.2457 7.92643 36.942C7.92643 36.942 6.21345 35.4505 6.45139 34.9756C6.68933 34.5007 6.9263 33.074 8.35299 33.074C9.77967 33.074 11.9105 33.0527 11.9105 33.0527Z" fill="#FCC596"/>
<path d="M7.9966 36.9939C7.9966 36.9939 6.095 35.5682 5.62008 34.6174C5.14517 33.6666 5.14517 32.9537 5.62008 32.4788C5.62008 32.4788 5.14517 32.0039 4.90723 32.0039C4.90723 32.0039 5.62009 32.0039 5.85803 32.2419C5.85803 32.2419 5.62009 31.529 5.85803 31.2911C5.85803 31.2911 5.85803 31.766 6.09597 32.0039C6.09597 32.0039 6.80883 29.8653 8.23454 30.1023C9.66026 30.3403 12.0368 31.528 12.5117 31.2901C12.5117 31.2901 12.2738 31.528 11.7988 31.528C11.7988 31.528 12.5117 31.766 13.2246 31.766C13.2246 31.766 12.9866 32.9538 11.086 33.4296C9.18438 33.9046 7.75866 33.6676 7.75866 33.6676C7.75866 33.6676 8.23358 35.3312 7.9966 36.0441C7.9966 36.0441 7.52169 35.0933 7.0458 35.0933C6.57089 35.0933 7.0458 35.8061 7.28374 36.0441C7.52169 36.2811 8.23454 36.9939 7.9966 36.9939Z" fill="#221E52"/>
<path d="M95.7469 47.2688C100.538 42.4777 100.538 34.7098 95.7469 29.9187C90.9558 25.1276 83.1879 25.1276 78.3967 29.9187C73.6056 34.7098 73.6056 42.4777 78.3967 47.2688C83.1879 52.0599 90.9558 52.0599 95.7469 47.2688Z" fill="#0046A4"/>
<path d="M83.5258 31.7031L85.645 34.6677C86.1973 35.4377 86.6587 36.1495 87.15 36.9195H87.2419C87.7333 36.0925 88.2247 35.3806 88.716 34.6397L90.8043 31.7041H93.7215L88.6551 38.3732L93.8753 45.4989H90.8053L88.6251 42.3921C88.0418 41.5942 87.5505 40.8242 87.0282 39.9982H86.9663C86.4749 40.8242 85.9526 41.5661 85.4003 42.3921L83.2511 45.4989H80.2729L85.5541 38.4584L80.5186 31.7031H83.5258Z" fill="white"/>
<defs>
<linearGradient id="paint0_linear_3093_431350" x1="35.0021" y1="37.623" x2="139.146" y2="37.623" gradientUnits="userSpaceOnUse">
<stop stop-color="#FDFDFD"/>
<stop offset="0.1104" stop-color="#ECF9FD"/>
<stop offset="0.3078" stop-color="#D3F3FE"/>
<stop offset="0.5152" stop-color="#C2EFFF"/>
<stop offset="0.7374" stop-color="#B7EDFF"/>
<stop offset="1" stop-color="#B4ECFF"/>
</linearGradient>
</defs>
</svg>
