<svg width="127" height="80" viewBox="0 0 127 80" fill="none" xmlns="http://www.w3.org/2000/svg">
<path d="M10.7068 78.8247C10.7068 78.8247 10.7068 75.4099 9.09863 70.486C7.49041 65.5644 -0.802156 64.5723 0.063095 57.5188C4.70546 59.1893 8.35567 66.0767 9.16093 68.1717C6.43827 57.5811 8.35566 50.0938 8.35566 50.0938C8.35566 50.0938 12.0682 58.0148 10.7068 68.2271C15.5961 55.9728 19.4493 54.3023 19.4493 54.3023C19.4493 54.3023 18.4433 61.7297 15.783 65.6267C13.1226 69.5261 11.0806 69.4638 11.0806 69.4638C11.0806 69.4638 11.1429 75.8713 12.3174 78.8247H10.7068Z" fill="white"/>
<path d="M117.465 78.8247C117.465 78.8247 117.465 75.4099 115.856 70.486C114.248 65.5644 105.956 64.5723 106.821 57.5188C111.463 59.1893 115.113 66.0767 115.919 68.1717C113.196 57.5811 115.113 50.0938 115.113 50.0938C115.113 50.0938 118.826 58.0148 117.465 68.2271C122.354 55.9728 126.207 54.3023 126.207 54.3023C126.207 54.3023 125.201 61.7297 122.541 65.6267C119.88 69.5261 117.838 69.4638 117.838 69.4638C117.838 69.4638 117.901 75.8713 119.075 78.8247H117.465Z" fill="white"/>
<path d="M35.5701 71.625L36.0708 75.4621L34.9564 77.3818L32.2637 76.3297L31.4238 72.5849" fill="#F0C9CF"/>
<path d="M41.8182 78.1549L35.9461 74.7539L34.8316 76.3321H32.2636L31.9844 78.7156H41.666C41.9751 78.7133 42.0836 78.3072 41.8182 78.1549Z" fill="#1F2251"/>
<path d="M14.6821 71.625L13.9414 75.4621L15.0535 77.3818L17.7462 76.3297L18.8283 72.5849" fill="#F0C9CF"/>
<path d="M38.5009 34.2175L34.1008 40.0066C33.9485 40.2074 33.8562 40.4473 33.8401 40.6988L33.464 45.8511L31.8857 35.0205L34.1123 31.2918L33.8885 30.5512L33.0463 27.7593L37.3841 26.1211L37.6472 26.901L39.0246 30.985C39.4007 32.0833 39.2023 33.2923 38.5009 34.2175Z" fill="#F0C9CF"/>
<path d="M37.6516 26.901L33.8907 30.5512L33.0508 27.7593L37.3886 26.1211L37.6516 26.901Z" fill="#D683A7"/>
<path d="M36.3735 72.6189L31.0528 73.4842L26.8719 55.5261L25.8336 51.0707L25.8082 50.9576L19.0246 73.9364L13.6924 72.4735L18.6509 40.5446L19.0246 38.1265L32.5364 37.9258L32.6818 39.2433L36.3735 72.6189Z" fill="#99A3CA"/>
<path d="M32.6813 39.2433L18.6504 40.5446L18.8511 39.2433L19.0242 38.1265L32.5359 37.9258L32.6559 39.0195L32.6813 39.2433Z" fill="#7988B8"/>
<path d="M32.6567 39.0211C29.7241 39.4456 20.9285 39.291 18.8496 39.2472L19.025 38.1304L32.5344 37.9297L32.6567 39.0211Z" fill="#1F2251"/>
<path d="M38.0765 25.8609L34.9501 27.7229L34.5486 27.9606L33.6049 28.5236V28.549L33.5865 28.9504L33.4434 32.2292L33.4249 32.6306L33.2819 35.9094L33.2657 36.3109L33.2196 37.3399C33.2196 37.3399 33.778 37.9583 33.6211 38.4844C33.5818 38.6136 32.6543 38.7128 31.2699 38.7797C31.1384 38.7866 31.0045 38.7912 30.8684 38.7982C29.9109 38.8374 28.7757 38.8628 27.5897 38.8766C27.4559 38.8766 27.322 38.8789 27.1882 38.8789C26.0968 38.8858 24.9732 38.8789 23.9095 38.8605C23.7733 38.8582 23.6395 38.8535 23.508 38.8512C22.262 38.8212 21.1176 38.7751 20.2293 38.7036C20.0885 38.6943 19.9524 38.6828 19.8278 38.669C18.9349 38.5836 18.3903 38.4728 18.4019 38.3298C18.4642 37.5891 18.9279 37.0907 18.9279 37.0907L18.9302 36.3109L18.9326 35.9094L18.9441 32.6306L18.9464 32.2292L18.9579 28.9504V28.7428L18.6257 28.549L16.5445 27.3376L16.143 27.1023L13.5449 25.5863L13.688 25.2679L13.8703 24.8665L15.3446 21.5854L15.5269 21.1863L16.1453 19.8088L16.2745 19.5227C16.3599 19.3358 16.4499 19.1512 16.5491 18.9758C16.7567 18.5951 16.9967 18.2398 17.2643 17.9052C17.3728 17.7668 17.4882 17.6307 17.6058 17.5037C18.2357 16.8115 18.9925 16.2416 19.8301 15.824C19.9616 15.7571 20.0978 15.6948 20.2316 15.6371C20.8107 15.3879 21.4245 15.2103 22.0613 15.111L23.0258 14.9611L23.5103 14.8849L23.9118 14.8226L23.9256 14.8203L27.1905 15.0926L27.592 15.1272L28.5818 15.2103L29.4148 15.3256C29.4655 15.3325 29.5186 15.3395 29.5694 15.351C30.0147 15.4202 30.4508 15.5333 30.8707 15.6786C31.0068 15.7248 31.1407 15.7756 31.2722 15.8309C32.2136 16.2163 33.065 16.7862 33.778 17.5061C33.9072 17.6353 34.0318 17.7714 34.1517 17.9075C34.2925 18.069 34.4263 18.2398 34.5509 18.4151C34.6963 18.6136 34.8301 18.8212 34.9524 19.0358C35.0885 19.2666 35.2108 19.5065 35.3239 19.7534L35.9699 21.1909L36.1522 21.59L37.6312 24.8711L37.8135 25.2726L38.0765 25.8609Z" fill="#647BF4"/>
<path opacity="0.25" d="M37.6288 24.8688H34.95V21.5877H36.1498L35.9675 21.1886H34.95V19.0335C34.8254 18.8212 34.6939 18.6113 34.5485 18.4128V21.1886H31.2675V17.9052H34.147C34.0293 17.7668 33.9024 17.6306 33.7732 17.5037H31.2675V15.8286C31.1336 15.7732 30.9998 15.7225 30.866 15.6763V17.5037H27.5873V15.1249L27.1858 15.0903V17.5014H23.9071V14.8203L23.5056 14.8826V17.5014H20.2268V15.6348C20.0907 15.6925 19.9546 15.7525 19.8254 15.8217V17.5014H17.6011C17.4834 17.6306 17.3681 17.7668 17.2596 17.9029H19.8254V21.1839H16.5443V18.9735C16.4451 19.1512 16.3551 19.3358 16.2698 19.5204L16.1406 19.8065V21.1839H15.5222L15.3399 21.5831H16.1406V24.8642H13.8678L13.6855 25.2656H16.1406V27.0977L16.542 27.333V25.2656H19.8231V28.5444H18.6232L18.9555 28.7382V28.9458H19.8231V32.2246H18.944L18.9417 32.626H19.8231V35.9048H18.9278L18.9255 36.3062H19.8231V38.6643C19.95 38.6759 20.0838 38.6897 20.2245 38.6989V36.3062H23.5033V38.8466C23.6371 38.8489 23.7709 38.8535 23.9047 38.8558V36.3062H27.1835V38.8766C27.3196 38.8766 27.4534 38.8743 27.5849 38.8743V36.3085H30.8637V38.7982C31.0021 38.7912 31.1359 38.7866 31.2652 38.7797V36.3109H33.261L33.2771 35.9094H31.2652V32.6306H33.4202L33.4387 32.2292H31.2652V28.9504H33.5817L33.6002 28.549H31.2675V25.2702H34.5462V27.9629L34.9477 27.7252V25.2702H37.8088L37.6288 24.8688ZM19.8208 24.8688H16.5397V21.5877H19.8208V24.8688ZM23.5033 35.914H20.2245V32.6353H23.5033V35.914ZM23.5033 32.2315H20.2245V28.9528H23.5033V32.2315ZM23.5033 28.5513H20.2245V25.2725H23.5033V28.5513ZM23.5033 24.8688H20.2245V21.5877H23.5033V24.8688ZM23.5033 21.1863H20.2245V17.9052H23.5033V21.1863ZM27.1835 35.914H23.9047V32.6353H27.1835V35.914ZM27.1835 32.2315H23.9047V28.9528H27.1835V32.2315ZM27.1835 28.5513H23.9047V25.2725H27.1835V28.5513ZM27.1835 24.8688H23.9047V21.5877H27.1835V24.8688ZM27.1835 21.1863H23.9047V17.9052H27.1835V21.1863ZM30.866 35.914H27.5873V32.6353H30.866V35.914ZM30.866 32.2315H27.5873V28.9528H30.866V32.2315ZM30.866 28.5513H27.5873V25.2725H30.866V28.5513ZM30.866 24.8688H27.5873V21.5877H30.866V24.8688ZM30.866 21.1863H27.5873V17.9052H30.866V21.1863ZM34.5485 24.8688H31.2675V21.5877H34.5462V24.8688H34.5485Z" fill="white"/>
<path d="M29.5645 15.3487C29.2507 16.6708 28.5123 17.9583 26.8141 17.9444C24.0545 17.9214 23.2354 15.8171 23.0186 14.9611L23.9207 14.8203L28.5769 15.2079L29.4099 15.3233C29.4606 15.3302 29.5137 15.3372 29.5645 15.3487Z" fill="white"/>
<path d="M33.0503 27.7609L32.6973 22.4102" stroke="#1F2251" stroke-width="0.121181" stroke-miterlimit="10" stroke-linecap="round" stroke-linejoin="round"/>
<path d="M30.7435 6.34765C30.7435 6.34765 31.3203 6.97756 30.8681 8.07124C30.4158 9.16491 30.1874 10.0925 30.1459 11.1262C30.1112 11.9799 26.3987 12.4806 25.1228 12.6259C24.8574 12.6582 24.6982 12.6721 24.6982 12.6721L23.6876 10.6878C23.5538 10.337 23.2308 9.67253 22.9516 8.90418C22.4901 7.65822 22.1371 6.14 22.8639 5.24706C24.0383 3.80266 25.3489 4.44179 27.3563 3.45425C29.3637 2.4621 30.3743 1.54147 31.528 2.89588C32.6816 4.24798 30.7435 6.34765 30.7435 6.34765Z" fill="#1F2251"/>
<path d="M25.4616 12.1947L25.1224 12.6239C24.857 12.6562 24.6978 12.67 24.6978 12.67L23.6872 10.6857C23.5534 10.335 23.2304 9.67048 22.9512 8.90213C23.9479 8.49604 24.6378 7.45312 24.6378 7.45312L25.4616 12.1947Z" fill="#161937"/>
<path d="M28.5742 15.2053C28.5742 15.2053 28.6688 17.1688 26.5437 17.0904C24.421 17.0119 23.918 14.8176 23.918 14.8176L24.5063 14.693C24.5063 14.693 24.7209 12.3557 24.5063 10.6875L28.5765 12.7595C28.5373 12.7964 28.5003 12.8402 28.468 12.8864C27.995 13.5371 28.0481 15.0184 28.0481 15.0184L28.5742 15.2053Z" fill="#F0C9CF"/>
<path d="M28.0485 15.0169C25.4297 15.0931 24.6982 12.0312 24.6982 12.0312L28.4684 12.885C27.9954 13.5333 28.0485 15.0169 28.0485 15.0169Z" fill="#D683A7"/>
<path d="M30.4156 10.8596C30.4225 11.2403 30.4041 11.6072 30.3533 11.9487C30.141 13.3584 29.3889 14.3575 27.5707 14.2121C24.8872 13.9976 24.4004 11.3603 24.4004 11.3603C24.4004 11.3603 23.7105 11.9371 23.0391 11.2772C22.3699 10.6173 22.7091 9.61593 23.3598 9.50288C23.7105 9.44288 24.0543 9.79821 24.3012 10.1397C24.405 10.2897 24.6404 10.2135 24.6404 10.0313V7.45165C24.6404 7.45165 27.9075 7.58778 29.8457 6.87482C29.8572 6.8702 29.8665 6.8679 29.8803 6.86328C30.1895 7.14939 30.3049 7.5301 30.3395 7.94773C30.3856 8.52918 30.2818 9.17985 30.3441 9.72669C30.3833 10.1074 30.4133 10.4904 30.4156 10.8596Z" fill="#F0C9CF"/>
<path d="M28.4688 11.3829L28.7272 11.2306C28.9002 11.1291 28.9717 10.9145 28.891 10.7299L28.4688 9.75391" stroke="#C85E8B" stroke-width="0.121181" stroke-miterlimit="9" stroke-linecap="round"/>
<path d="M27.5381 10.444C27.5381 10.5732 27.4551 10.677 27.3535 10.677C27.252 10.677 27.1689 10.5732 27.1689 10.444C27.1689 10.3148 27.252 10.2109 27.3535 10.2109C27.4551 10.2132 27.5381 10.3171 27.5381 10.444Z" fill="black"/>
<path d="M29.5664 10.5676C29.6684 10.5676 29.751 10.4633 29.751 10.3346C29.751 10.2059 29.6684 10.1016 29.5664 10.1016C29.4645 10.1016 29.3818 10.2059 29.3818 10.3346C29.3818 10.4633 29.4645 10.5676 29.5664 10.5676Z" fill="black"/>
<path d="M23.1387 10.2138C23.5332 9.98997 24.0132 10.3684 23.9186 10.9337" stroke="#C85E8B" stroke-width="0.121181" stroke-miterlimit="9" stroke-linecap="round"/>
<path d="M27.5869 12.4336C27.5869 12.4336 28.1038 12.9597 28.7937 12.5467" stroke="#C85E8B" stroke-width="0.121181" stroke-miterlimit="9" stroke-linecap="round"/>
<path d="M26.4512 9.43918C26.4512 9.43918 26.8342 8.86003 27.6002 9.11615" stroke="#1F2251" stroke-width="0.181795" stroke-miterlimit="10" stroke-linecap="round" stroke-linejoin="round"/>
<path d="M30.1441 9.14366C30.1441 9.14366 29.6872 8.63835 28.9512 9.10213" stroke="#1F2251" stroke-width="0.181795" stroke-miterlimit="10" stroke-linecap="round" stroke-linejoin="round"/>
<path d="M26.5462 12.0318C26.9055 12.0318 27.1968 11.7405 27.1968 11.3811C27.1968 11.0218 26.9055 10.7305 26.5462 10.7305C26.1868 10.7305 25.8955 11.0218 25.8955 11.3811C25.8955 11.7405 26.1868 12.0318 26.5462 12.0318Z" fill="#EAB7C0"/>
<path d="M30.4155 10.8597C30.4224 11.2404 30.404 11.6073 30.3532 11.9487C30.2586 11.9995 30.1502 12.0318 30.0325 12.0318C29.6749 12.0318 29.3818 11.7411 29.3818 11.3811C29.3818 11.0235 29.6726 10.7305 30.0325 10.7305C30.1756 10.7305 30.3071 10.7766 30.4155 10.8597Z" fill="#EAB7C0"/>
<path d="M31.8005 32.7403H28.4572C28.0557 32.7403 27.7973 32.415 27.8781 32.0135L29.2948 25.0315C29.3755 24.63 29.7678 24.3047 30.1669 24.3047H33.9902C34.3917 24.3047 34.6501 24.63 34.5693 25.0315L32.6727 32.0135C32.5919 32.415 32.202 32.7403 31.8005 32.7403Z" fill="#2A3551"/>
<path d="M32.28 33.0372H28.9367C28.5352 33.0372 28.2768 32.7119 28.3575 32.3104L29.7742 25.3284C29.855 24.9269 30.2473 24.6016 30.6464 24.6016H33.9898C34.3912 24.6016 34.6497 24.9269 34.5689 25.3284L33.1522 32.3104C33.0714 32.7119 32.6815 33.0372 32.28 33.0372Z" fill="#364380"/>
<path d="M31.4661 31.6284C31.4661 32.3183 30.64 32.9274 30.64 32.9274C30.64 32.9274 30.8362 33.8688 29.281 34.1849C27.7236 34.5056 26.1453 33.1558 26.1453 33.1558L16.0946 35.2763C15.8339 35.3317 15.5708 35.3594 15.3124 35.3594C14.1864 35.3594 13.0997 34.854 12.3729 33.9588C11.4615 32.8374 11.2676 31.2915 11.8768 29.9809L13.3281 26.8453L13.8334 25.7539L18.9603 28.7419L18.5934 29.3718L18.0627 30.2878L26.1984 29.9994C26.1984 29.9994 27.0337 29.4203 27.5713 28.7096C28.1089 27.9966 28.3027 27.8328 28.7273 28.1005C29.1495 28.3681 28.6857 29.5864 28.3258 30.0502C29.6248 30.7724 31.1846 30.214 31.8122 30.3063C32.4351 30.4009 32.4444 31.1438 31.4661 31.6284Z" fill="#F0C9CF"/>
<path d="M31.4628 31.6314C30.6645 31.9775 28.6986 31.6684 28.1426 31.2969" stroke="#C85E8B" stroke-width="0.121181" stroke-miterlimit="9" stroke-linecap="round"/>
<path d="M30.6395 32.9299C29.5366 33.1467 28.2975 33.0752 27.6699 32.4453" stroke="#C85E8B" stroke-width="0.121181" stroke-miterlimit="9" stroke-linecap="round"/>
<path d="M30.2824 27.6464C30.0747 27.6464 29.9386 27.4779 29.9801 27.2703L30.2478 25.9113C30.2893 25.7036 30.49 25.5352 30.6977 25.5352C30.9054 25.5352 31.0415 25.7036 31 25.9113L30.7323 27.2703C30.6931 27.4779 30.49 27.6464 30.2824 27.6464Z" fill="#445EC7"/>
<path d="M18.0554 30.2891H15.3535" stroke="#C85E8B" stroke-width="0.121181" stroke-miterlimit="9" stroke-linecap="round"/>
<path d="M34.1143 31.2958L35.5494 29.5469" stroke="#C85E8B" stroke-width="0.121181" stroke-miterlimit="9" stroke-linecap="round"/>
<path d="M18.9529 28.7393L21.8809 23.1094" stroke="#1F2251" stroke-width="0.121181" stroke-miterlimit="10" stroke-linecap="round" stroke-linejoin="round"/>
<path d="M18.9531 28.7442L18.5863 29.3741L13.3232 26.8453L13.8262 25.7539L18.9531 28.7442Z" fill="#D683A7"/>
<path d="M25.8076 50.9582L27.6673 44.8945" stroke="#1F2251" stroke-width="0.121181" stroke-miterlimit="10" stroke-linecap="round" stroke-linejoin="round"/>
<path d="M8.19151 78.1549L14.0637 74.7539L15.1781 76.3321H17.7462L18.0254 78.7156H8.34379C8.03692 78.7133 7.92616 78.3072 8.19151 78.1549Z" fill="#1F2251"/>
<path d="M18.9155 74.0915L13.747 73.0278C13.3963 72.9563 13.1702 72.6125 13.2417 72.2618L13.4102 71.4404C13.4817 71.0897 13.8255 70.8636 14.1762 70.9351L19.3446 71.9988C19.6953 72.0703 19.9215 72.4141 19.8499 72.7648L19.6815 73.5862C19.61 73.9392 19.2662 74.163 18.9155 74.0915Z" fill="#99A3CA"/>
<path d="M14.0742 70.9258L19.4457 72.031" stroke="#1F2251" stroke-width="0.121181" stroke-miterlimit="10" stroke-linecap="round" stroke-linejoin="round"/>
<path d="M36.4499 73.1026L31.2607 74.0648C30.9076 74.1294 30.5708 73.8963 30.5039 73.5456L30.3516 72.7219C30.287 72.3689 30.52 72.032 30.8707 71.9651L36.0599 71.0029C36.413 70.9383 36.7498 71.1714 36.8167 71.5221L36.969 72.3458C37.0336 72.6988 36.8029 73.038 36.4499 73.1026Z" fill="#99A3CA"/>
<path d="M30.7734 71.9913L36.1634 70.9922" stroke="#1F2251" stroke-width="0.121181" stroke-miterlimit="10" stroke-linecap="round" stroke-linejoin="round"/>
<path d="M20.418 36.6703L32.1969 34.9375" stroke="#1F2251" stroke-width="0.121181" stroke-miterlimit="10" stroke-linecap="round" stroke-linejoin="round"/>
<path d="M27.523 45.6367L26.8723 55.526L25.834 51.0705L25.8409 50.8444L27.523 45.6367Z" fill="#7988B8"/>
<path d="M73.1315 16.0407L70.5681 25.6969C70.1597 27.2359 68.5538 28.1289 67.0309 27.6651L65.3027 27.139L70.5219 14.8594L73.1315 16.0407Z" fill="#F0C9CF"/>
<path d="M71.5627 13.3643C71.3574 13.1059 69.7261 13.9734 69.3338 14.0657C68.9416 14.158 69.2923 15.1363 70.0145 15.0394C70.7367 14.9425 70.9628 14.1811 70.9628 14.1811L71.5627 13.3643Z" fill="#D683A7"/>
<path d="M70.3649 11.2855L70.3164 17.6006L70.9971 17.4553V11.2878C70.9971 11.1516 70.9094 11.0293 70.7779 10.9878C70.5748 10.9232 70.3649 11.0732 70.3649 11.2855Z" fill="#2A3551"/>
<path d="M71.336 13.4741C71.336 13.4741 69.2524 15.5623 69.6539 16.1668C70.0554 16.769 71.3406 15.6707 71.5875 15.3315C71.5575 16.0283 72.4458 16.6813 72.9788 16.6006C73.784 16.476 74.1071 15.6569 73.8602 15.2854C73.6133 14.9139 72.1112 14.0486 72.1112 14.0486C72.1112 14.0486 71.7351 12.918 71.336 13.4741Z" fill="#F0C9CF"/>
<path d="M50.9969 71.6289L50.2539 75.466L51.3684 77.3857L54.0587 76.3336L55.1432 72.5888" fill="#F0C9CF"/>
<path d="M44.5066 78.1549L50.3788 74.7539L51.4932 76.3321H54.0613L54.3405 78.7156H44.6589C44.3497 78.7133 44.239 78.3072 44.5066 78.1549Z" fill="#1F2251"/>
<path d="M76.2674 71.6289L77.0103 75.466L75.8959 77.3857L73.2032 76.3336L72.1211 72.5888" fill="#F0C9CF"/>
<path d="M82.7577 78.1549L76.8855 74.7539L75.7711 76.3321H73.203L72.9238 78.7156H82.6054C82.9146 78.7133 83.023 78.3072 82.7577 78.1549Z" fill="#1F2251"/>
<path d="M76.7513 70.2714L71.2021 71.485L62.7319 43.1232L55.9714 70.9982L50.4707 70.1883L54.0032 40.5552L54.5455 35.9912L62.7688 35.3613L68.2926 34.9414L68.3964 35.3613L68.4541 35.6082L76.7513 70.2714Z" fill="#647BF4"/>
<path d="M68.4548 35.6063L54.0039 40.5532L54.5461 35.9893L62.7695 35.3594H68.3971L68.4548 35.6063Z" fill="#4257B2"/>
<path d="M68.826 34.7154C68.8744 35.0707 68.6275 35.4007 68.2676 35.4537L55.0189 37.4034C54.5689 37.468 54.1675 37.1104 54.1859 36.6535L54.5666 26.2636L54.8458 18.6955L56.8693 14.277L57.2893 13.3633H61.9363L62.4439 13.4302C62.5708 13.4463 62.6954 13.4671 62.82 13.4902C64.8251 13.8755 66.5394 15.1745 67.4577 17.0135L70.3211 22.7772L67.5962 25.5322L68.826 34.7154Z" fill="#EBAF65"/>
<path d="M56.5415 17.5356C56.4561 17.7433 56.4192 17.9671 56.4377 18.1909L56.9476 24.8683L56.5207 25.1175L54.5664 26.2643L52.1183 27.6994L51.7076 27.9394L50.9324 21.2873C50.5932 18.3685 52.1691 15.5651 54.8364 14.3376L56.4884 13.5762L57.2914 13.207L57.8659 13.3616L58.2051 13.4539L57.5475 15.0598L56.5415 17.5356Z" fill="#EBAF65"/>
<path opacity="0.25" d="M52.0585 34.558C52.0585 34.8234 51.8439 35.038 51.5786 35.038C51.3132 35.038 51.0986 34.8234 51.0986 34.558C51.0986 34.2927 51.3132 34.0781 51.5786 34.0781C51.8439 34.0804 52.0585 34.295 52.0585 34.558Z" fill="white"/>
<path opacity="0.25" d="M54.8983 34.558C54.8983 34.8234 54.6838 35.038 54.4184 35.038C54.1531 35.038 53.9385 34.8234 53.9385 34.558C53.9385 34.2927 54.1531 34.0781 54.4184 34.0781C54.6838 34.0781 54.8983 34.295 54.8983 34.558Z" fill="white"/>
<path opacity="0.25" d="M57.7372 34.558C57.7372 34.8234 57.5226 35.038 57.2573 35.038C56.9919 35.038 56.7773 34.8234 56.7773 34.558C56.7773 34.2927 56.9919 34.0781 57.2573 34.0781C57.5226 34.0804 57.7372 34.295 57.7372 34.558Z" fill="white"/>
<path opacity="0.25" d="M60.5773 34.558C60.5773 34.8234 60.3627 35.038 60.0974 35.038C59.832 35.038 59.6174 34.8234 59.6174 34.558C59.6174 34.2927 59.832 34.0781 60.0974 34.0781C60.3627 34.0804 60.5773 34.295 60.5773 34.558Z" fill="white"/>
<path opacity="0.25" d="M63.4179 34.558C63.4179 34.8234 63.2033 35.038 62.9379 35.038C62.6726 35.038 62.458 34.8234 62.458 34.558C62.458 34.2927 62.6726 34.0781 62.9379 34.0781C63.2033 34.0781 63.4179 34.295 63.4179 34.558Z" fill="white"/>
<path opacity="0.25" d="M66.2555 34.558C66.2555 34.8234 66.0409 35.038 65.7756 35.038C65.5102 35.038 65.2957 34.8234 65.2957 34.558C65.2957 34.2927 65.5102 34.0781 65.7756 34.0781C66.0409 34.0804 66.2555 34.295 66.2555 34.558Z" fill="white"/>
<path opacity="0.25" d="M69.0958 34.558C69.0958 34.8234 68.8813 35.038 68.6159 35.038C68.3506 35.038 68.136 34.8234 68.136 34.558C68.136 34.2927 68.3506 34.0781 68.6159 34.0781C68.8813 34.0804 69.0958 34.295 69.0958 34.558Z" fill="white"/>
<path opacity="0.25" d="M71.9335 34.558C71.9335 34.8234 71.7189 35.038 71.4536 35.038C71.1882 35.038 70.9736 34.8234 70.9736 34.558C70.9736 34.2927 71.1882 34.0781 71.4536 34.0781C71.7189 34.0781 71.9335 34.295 71.9335 34.558Z" fill="white"/>
<path opacity="0.25" d="M52.0585 31.9096C52.0585 32.175 51.8439 32.3895 51.5786 32.3895C51.3132 32.3895 51.0986 32.175 51.0986 31.9096C51.0986 31.6443 51.3132 31.4297 51.5786 31.4297C51.8439 31.4297 52.0585 31.6443 52.0585 31.9096Z" fill="white"/>
<path opacity="0.25" d="M54.8993 31.9096C54.8993 32.175 54.6847 32.3895 54.4194 32.3895C54.154 32.3895 53.9395 32.175 53.9395 31.9096C53.9395 31.6443 54.154 31.4297 54.4194 31.4297C54.6847 31.4297 54.8993 31.6443 54.8993 31.9096Z" fill="white"/>
<path opacity="0.25" d="M57.7372 31.9096C57.7372 32.175 57.5226 32.3895 57.2573 32.3895C56.9919 32.3895 56.7773 32.175 56.7773 31.9096C56.7773 31.6443 56.9919 31.4297 57.2573 31.4297C57.5226 31.4297 57.7372 31.6443 57.7372 31.9096Z" fill="white"/>
<path opacity="0.25" d="M60.5773 31.9096C60.5773 32.175 60.3627 32.3895 60.0974 32.3895C59.832 32.3895 59.6174 32.175 59.6174 31.9096C59.6174 31.6443 59.832 31.4297 60.0974 31.4297C60.3627 31.4297 60.5773 31.6443 60.5773 31.9096Z" fill="white"/>
<path opacity="0.25" d="M63.4179 31.9096C63.4179 32.175 63.2033 32.3895 62.9379 32.3895C62.6726 32.3895 62.458 32.175 62.458 31.9096C62.458 31.6443 62.6726 31.4297 62.9379 31.4297C63.2033 31.4297 63.4179 31.6443 63.4179 31.9096Z" fill="white"/>
<path opacity="0.25" d="M66.2555 31.9096C66.2555 32.175 66.0409 32.3895 65.7756 32.3895C65.5102 32.3895 65.2957 32.175 65.2957 31.9096C65.2957 31.6443 65.5102 31.4297 65.7756 31.4297C66.0409 31.4297 66.2555 31.6443 66.2555 31.9096Z" fill="white"/>
<path opacity="0.25" d="M69.0956 31.9096C69.0956 32.175 68.881 32.3895 68.6157 32.3895C68.3503 32.3895 68.1357 32.175 68.1357 31.9096C68.1357 31.6443 68.3503 31.4297 68.6157 31.4297C68.881 31.4297 69.0956 31.6443 69.0956 31.9096Z" fill="white"/>
<path opacity="0.25" d="M71.9335 31.9096C71.9335 32.175 71.7189 32.3895 71.4536 32.3895C71.1882 32.3895 70.9736 32.175 70.9736 31.9096C70.9736 31.6443 71.1882 31.4297 71.4536 31.4297C71.7189 31.4297 71.9335 31.6443 71.9335 31.9096Z" fill="white"/>
<path opacity="0.25" d="M51.5786 29.7372C51.8436 29.7372 52.0585 29.5223 52.0585 29.2573C52.0585 28.9922 51.8436 28.7773 51.5786 28.7773C51.3135 28.7773 51.0986 28.9922 51.0986 29.2573C51.0986 29.5223 51.3135 29.7372 51.5786 29.7372Z" fill="white"/>
<path opacity="0.25" d="M54.8983 29.2573C54.8983 29.5226 54.6838 29.7372 54.4184 29.7372C54.1531 29.7372 53.9385 29.5226 53.9385 29.2573C53.9385 28.9919 54.1531 28.7773 54.4184 28.7773C54.6838 28.7773 54.8983 28.9919 54.8983 29.2573Z" fill="white"/>
<path opacity="0.25" d="M57.7372 29.2573C57.7372 29.5226 57.5226 29.7372 57.2573 29.7372C56.9919 29.7372 56.7773 29.5226 56.7773 29.2573C56.7773 28.9919 56.9919 28.7773 57.2573 28.7773C57.5226 28.7773 57.7372 28.9919 57.7372 29.2573Z" fill="white"/>
<path opacity="0.25" d="M60.5773 29.2573C60.5773 29.5226 60.3627 29.7372 60.0974 29.7372C59.832 29.7372 59.6174 29.5226 59.6174 29.2573C59.6174 28.9919 59.832 28.7773 60.0974 28.7773C60.3627 28.7773 60.5773 28.9919 60.5773 29.2573Z" fill="white"/>
<path opacity="0.25" d="M63.4179 29.2573C63.4179 29.5226 63.2033 29.7372 62.9379 29.7372C62.6726 29.7372 62.458 29.5226 62.458 29.2573C62.458 28.9919 62.6726 28.7773 62.9379 28.7773C63.2033 28.7773 63.4179 28.9919 63.4179 29.2573Z" fill="white"/>
<path opacity="0.25" d="M65.7756 29.7372C66.0406 29.7372 66.2555 29.5223 66.2555 29.2573C66.2555 28.9922 66.0406 28.7773 65.7756 28.7773C65.5105 28.7773 65.2957 28.9922 65.2957 29.2573C65.2957 29.5223 65.5105 29.7372 65.7756 29.7372Z" fill="white"/>
<path opacity="0.25" d="M68.6157 29.7372C68.8807 29.7372 69.0956 29.5223 69.0956 29.2573C69.0956 28.9922 68.8807 28.7773 68.6157 28.7773C68.3506 28.7773 68.1357 28.9922 68.1357 29.2573C68.1357 29.5223 68.3506 29.7372 68.6157 29.7372Z" fill="white"/>
<path opacity="0.25" d="M71.4562 29.7372C71.7213 29.7372 71.9362 29.5223 71.9362 29.2573C71.9362 28.9922 71.7213 28.7773 71.4562 28.7773C71.1912 28.7773 70.9763 28.9922 70.9763 29.2573C70.9763 29.5223 71.1912 29.7372 71.4562 29.7372Z" fill="white"/>
<path opacity="0.25" d="M51.5786 27.0888C51.8436 27.0888 52.0585 26.8739 52.0585 26.6088C52.0585 26.3438 51.8436 26.1289 51.5786 26.1289C51.3135 26.1289 51.0986 26.3438 51.0986 26.6088C51.0986 26.8739 51.3135 27.0888 51.5786 27.0888Z" fill="white"/>
<path opacity="0.25" d="M54.8993 26.6088C54.8993 26.8742 54.6847 27.0888 54.4194 27.0888C54.154 27.0888 53.9395 26.8742 53.9395 26.6088C53.9395 26.3435 54.154 26.1289 54.4194 26.1289C54.6847 26.1289 54.8993 26.3458 54.8993 26.6088Z" fill="white"/>
<path opacity="0.25" d="M57.7372 26.6088C57.7372 26.8742 57.5226 27.0888 57.2573 27.0888C56.9919 27.0888 56.7773 26.8742 56.7773 26.6088C56.7773 26.3435 56.9919 26.1289 57.2573 26.1289C57.5226 26.1312 57.7372 26.3458 57.7372 26.6088Z" fill="white"/>
<path opacity="0.25" d="M60.5773 26.6088C60.5773 26.8742 60.3627 27.0888 60.0974 27.0888C59.832 27.0888 59.6174 26.8742 59.6174 26.6088C59.6174 26.3435 59.832 26.1289 60.0974 26.1289C60.3627 26.1312 60.5773 26.3458 60.5773 26.6088Z" fill="white"/>
<path opacity="0.25" d="M63.4179 26.6088C63.4179 26.8742 63.2033 27.0888 62.9379 27.0888C62.6726 27.0888 62.458 26.8742 62.458 26.6088C62.458 26.3435 62.6726 26.1289 62.9379 26.1289C63.2033 26.1289 63.4179 26.3458 63.4179 26.6088Z" fill="white"/>
<path opacity="0.25" d="M65.7756 27.0888C66.0406 27.0888 66.2555 26.8739 66.2555 26.6088C66.2555 26.3438 66.0406 26.1289 65.7756 26.1289C65.5105 26.1289 65.2957 26.3438 65.2957 26.6088C65.2957 26.8739 65.5105 27.0888 65.7756 27.0888Z" fill="white"/>
<path opacity="0.25" d="M68.6157 27.0888C68.8807 27.0888 69.0956 26.8739 69.0956 26.6088C69.0956 26.3438 68.8807 26.1289 68.6157 26.1289C68.3506 26.1289 68.1357 26.3438 68.1357 26.6088C68.1357 26.8739 68.3506 27.0888 68.6157 27.0888Z" fill="white"/>
<path opacity="0.25" d="M71.4562 27.0888C71.7213 27.0888 71.9362 26.8739 71.9362 26.6088C71.9362 26.3438 71.7213 26.1289 71.4562 26.1289C71.1912 26.1289 70.9763 26.3438 70.9763 26.6088C70.9763 26.8739 71.1912 27.0888 71.4562 27.0888Z" fill="white"/>
<path opacity="0.25" d="M52.0585 23.9604C52.0585 24.2257 51.8439 24.4403 51.5786 24.4403C51.3132 24.4403 51.0986 24.2257 51.0986 23.9604C51.0986 23.6951 51.3132 23.4805 51.5786 23.4805C51.8439 23.4805 52.0585 23.6951 52.0585 23.9604Z" fill="white"/>
<path opacity="0.25" d="M54.8993 23.9604C54.8993 24.2257 54.6847 24.4403 54.4194 24.4403C54.154 24.4403 53.9395 24.2257 53.9395 23.9604C53.9395 23.6951 54.154 23.4805 54.4194 23.4805C54.6847 23.4805 54.8993 23.6951 54.8993 23.9604Z" fill="white"/>
<path opacity="0.25" d="M57.7372 23.9604C57.7372 24.2257 57.5226 24.4403 57.2573 24.4403C56.9919 24.4403 56.7773 24.2257 56.7773 23.9604C56.7773 23.6951 56.9919 23.4805 57.2573 23.4805C57.5226 23.4805 57.7372 23.6951 57.7372 23.9604Z" fill="white"/>
<path opacity="0.25" d="M60.5773 23.9604C60.5773 24.2257 60.3627 24.4403 60.0974 24.4403C59.832 24.4403 59.6174 24.2257 59.6174 23.9604C59.6174 23.6951 59.832 23.4805 60.0974 23.4805C60.3627 23.4805 60.5773 23.6951 60.5773 23.9604Z" fill="white"/>
<path opacity="0.25" d="M63.4179 23.9604C63.4179 24.2257 63.2033 24.4403 62.9379 24.4403C62.6726 24.4403 62.458 24.2257 62.458 23.9604C62.458 23.6951 62.6726 23.4805 62.9379 23.4805C63.2033 23.4805 63.4179 23.6951 63.4179 23.9604Z" fill="white"/>
<path opacity="0.25" d="M66.2555 23.9604C66.2555 24.2257 66.0409 24.4403 65.7756 24.4403C65.5102 24.4403 65.2957 24.2257 65.2957 23.9604C65.2957 23.6951 65.5102 23.4805 65.7756 23.4805C66.0409 23.4805 66.2555 23.6951 66.2555 23.9604Z" fill="white"/>
<path opacity="0.25" d="M69.0956 23.9604C69.0956 24.2257 68.881 24.4403 68.6157 24.4403C68.3503 24.4403 68.1357 24.2257 68.1357 23.9604C68.1357 23.6951 68.3503 23.4805 68.6157 23.4805C68.881 23.4805 69.0956 23.6951 69.0956 23.9604Z" fill="white"/>
<path opacity="0.25" d="M71.9335 23.9604C71.9335 24.2257 71.7189 24.4403 71.4536 24.4403C71.1882 24.4403 70.9736 24.2257 70.9736 23.9604C70.9736 23.6951 71.1882 23.4805 71.4536 23.4805C71.7189 23.4805 71.9335 23.6951 71.9335 23.9604Z" fill="white"/>
<path opacity="0.25" d="M52.0585 21.312C52.0585 21.5773 51.8439 21.7919 51.5786 21.7919C51.3132 21.7919 51.0986 21.5773 51.0986 21.312C51.0986 21.0466 51.3132 20.832 51.5786 20.832C51.8439 20.832 52.0585 21.0466 52.0585 21.312Z" fill="white"/>
<path opacity="0.25" d="M54.8993 21.312C54.8993 21.5773 54.6847 21.7919 54.4194 21.7919C54.154 21.7919 53.9395 21.5773 53.9395 21.312C53.9395 21.0466 54.154 20.832 54.4194 20.832C54.6847 20.832 54.8993 21.0466 54.8993 21.312Z" fill="white"/>
<path opacity="0.25" d="M57.7372 21.312C57.7372 21.5773 57.5226 21.7919 57.2573 21.7919C56.9919 21.7919 56.7773 21.5773 56.7773 21.312C56.7773 21.0466 56.9919 20.832 57.2573 20.832C57.5226 20.832 57.7372 21.0466 57.7372 21.312Z" fill="white"/>
<path opacity="0.25" d="M60.5773 21.312C60.5773 21.5773 60.3627 21.7919 60.0974 21.7919C59.832 21.7919 59.6174 21.5773 59.6174 21.312C59.6174 21.0466 59.832 20.832 60.0974 20.832C60.3627 20.832 60.5773 21.0466 60.5773 21.312Z" fill="white"/>
<path opacity="0.25" d="M63.4179 21.312C63.4179 21.5773 63.2033 21.7919 62.9379 21.7919C62.6726 21.7919 62.458 21.5773 62.458 21.312C62.458 21.0466 62.6726 20.832 62.9379 20.832C63.2033 20.832 63.4179 21.0466 63.4179 21.312Z" fill="white"/>
<path opacity="0.25" d="M66.2555 21.312C66.2555 21.5773 66.0409 21.7919 65.7756 21.7919C65.5102 21.7919 65.2957 21.5773 65.2957 21.312C65.2957 21.0466 65.5102 20.832 65.7756 20.832C66.0409 20.832 66.2555 21.0466 66.2555 21.312Z" fill="white"/>
<path opacity="0.25" d="M69.0956 21.312C69.0956 21.5773 68.881 21.7919 68.6157 21.7919C68.3503 21.7919 68.1357 21.5773 68.1357 21.312C68.1357 21.0466 68.3503 20.832 68.6157 20.832C68.881 20.832 69.0956 21.0466 69.0956 21.312Z" fill="white"/>
<path opacity="0.25" d="M71.9335 21.312C71.9335 21.5773 71.7189 21.7919 71.4536 21.7919C71.1882 21.7919 70.9736 21.5773 70.9736 21.312C70.9736 21.0466 71.1882 20.832 71.4536 20.832C71.7189 20.832 71.9335 21.0466 71.9335 21.312Z" fill="white"/>
<path opacity="0.25" d="M51.5786 19.1434C51.8436 19.1434 52.0585 18.9286 52.0585 18.6635C52.0585 18.3985 51.8436 18.1836 51.5786 18.1836C51.3135 18.1836 51.0986 18.3985 51.0986 18.6635C51.0986 18.9286 51.3135 19.1434 51.5786 19.1434Z" fill="white"/>
<path opacity="0.25" d="M54.8993 18.6635C54.8993 18.9289 54.6847 19.1434 54.4194 19.1434C54.154 19.1434 53.9395 18.9289 53.9395 18.6635C53.9395 18.3982 54.154 18.1836 54.4194 18.1836C54.6847 18.1836 54.8993 18.3982 54.8993 18.6635Z" fill="white"/>
<path opacity="0.25" d="M57.7372 18.6635C57.7372 18.9289 57.5226 19.1434 57.2573 19.1434C56.9919 19.1434 56.7773 18.9289 56.7773 18.6635C56.7773 18.3982 56.9919 18.1836 57.2573 18.1836C57.5226 18.1836 57.7372 18.3982 57.7372 18.6635Z" fill="white"/>
<path opacity="0.25" d="M60.5773 18.6635C60.5773 18.9289 60.3627 19.1434 60.0974 19.1434C59.832 19.1434 59.6174 18.9289 59.6174 18.6635C59.6174 18.3982 59.832 18.1836 60.0974 18.1836C60.3627 18.1836 60.5773 18.3982 60.5773 18.6635Z" fill="white"/>
<path opacity="0.25" d="M63.4179 18.6635C63.4179 18.9289 63.2033 19.1434 62.9379 19.1434C62.6726 19.1434 62.458 18.9289 62.458 18.6635C62.458 18.3982 62.6726 18.1836 62.9379 18.1836C63.2033 18.1836 63.4179 18.3982 63.4179 18.6635Z" fill="white"/>
<path opacity="0.25" d="M65.7756 19.1434C66.0406 19.1434 66.2555 18.9286 66.2555 18.6635C66.2555 18.3985 66.0406 18.1836 65.7756 18.1836C65.5105 18.1836 65.2957 18.3985 65.2957 18.6635C65.2957 18.9286 65.5105 19.1434 65.7756 19.1434Z" fill="white"/>
<path opacity="0.25" d="M68.6157 19.1434C68.8807 19.1434 69.0956 18.9286 69.0956 18.6635C69.0956 18.3985 68.8807 18.1836 68.6157 18.1836C68.3506 18.1836 68.1357 18.3985 68.1357 18.6635C68.1357 18.9286 68.3506 19.1434 68.6157 19.1434Z" fill="white"/>
<path opacity="0.25" d="M71.4562 19.1434C71.7213 19.1434 71.9362 18.9286 71.9362 18.6635C71.9362 18.3985 71.7213 18.1836 71.4562 18.1836C71.1912 18.1836 70.9763 18.3985 70.9763 18.6635C70.9763 18.9286 71.1912 19.1434 71.4562 19.1434Z" fill="white"/>
<path opacity="0.25" d="M51.5786 16.4911C51.8436 16.4911 52.0585 16.2762 52.0585 16.0112C52.0585 15.7461 51.8436 15.5312 51.5786 15.5312C51.3135 15.5312 51.0986 15.7461 51.0986 16.0112C51.0986 16.2762 51.3135 16.4911 51.5786 16.4911Z" fill="white"/>
<path opacity="0.25" d="M54.8993 16.0112C54.8993 16.2765 54.6847 16.4911 54.4194 16.4911C54.154 16.4911 53.9395 16.2765 53.9395 16.0112C53.9395 15.7458 54.154 15.5312 54.4194 15.5312C54.6847 15.5312 54.8993 15.7458 54.8993 16.0112Z" fill="white"/>
<path opacity="0.25" d="M57.7372 16.0112C57.7372 16.2765 57.5226 16.4911 57.2573 16.4911C56.9919 16.4911 56.7773 16.2765 56.7773 16.0112C56.7773 15.7458 56.9919 15.5312 57.2573 15.5312C57.5226 15.5312 57.7372 15.7458 57.7372 16.0112Z" fill="white"/>
<path opacity="0.25" d="M60.5773 16.0112C60.5773 16.2765 60.3627 16.4911 60.0974 16.4911C59.832 16.4911 59.6174 16.2765 59.6174 16.0112C59.6174 15.7458 59.832 15.5312 60.0974 15.5312C60.3627 15.5312 60.5773 15.7458 60.5773 16.0112Z" fill="white"/>
<path opacity="0.25" d="M63.4179 16.0112C63.4179 16.2765 63.2033 16.4911 62.9379 16.4911C62.6726 16.4911 62.458 16.2765 62.458 16.0112C62.458 15.7458 62.6726 15.5312 62.9379 15.5312C63.2033 15.5312 63.4179 15.7458 63.4179 16.0112Z" fill="white"/>
<path opacity="0.25" d="M65.7756 16.4911C66.0406 16.4911 66.2555 16.2762 66.2555 16.0112C66.2555 15.7461 66.0406 15.5312 65.7756 15.5312C65.5105 15.5312 65.2957 15.7461 65.2957 16.0112C65.2957 16.2762 65.5105 16.4911 65.7756 16.4911Z" fill="white"/>
<path opacity="0.25" d="M68.6157 16.4911C68.8807 16.4911 69.0956 16.2762 69.0956 16.0112C69.0956 15.7461 68.8807 15.5312 68.6157 15.5312C68.3506 15.5312 68.1357 15.7461 68.1357 16.0112C68.1357 16.2762 68.3506 16.4911 68.6157 16.4911Z" fill="white"/>
<path opacity="0.25" d="M71.4562 16.4911C71.7213 16.4911 71.9362 16.2762 71.9362 16.0112C71.9362 15.7461 71.7213 15.5312 71.4562 15.5312C71.1912 15.5312 70.9763 15.7461 70.9763 16.0112C70.9763 16.2762 71.1912 16.4911 71.4562 16.4911Z" fill="white"/>
<path opacity="0.25" d="M52.0585 13.3627C52.0585 13.6281 51.8439 13.8427 51.5786 13.8427C51.3132 13.8427 51.0986 13.6281 51.0986 13.3627C51.0986 13.0974 51.3132 12.8828 51.5786 12.8828C51.8439 12.8828 52.0585 13.0974 52.0585 13.3627Z" fill="white"/>
<path opacity="0.25" d="M54.8993 13.3627C54.8993 13.6281 54.6847 13.8427 54.4194 13.8427C54.154 13.8427 53.9395 13.6281 53.9395 13.3627C53.9395 13.0974 54.154 12.8828 54.4194 12.8828C54.6847 12.8828 54.8993 13.0974 54.8993 13.3627Z" fill="white"/>
<path opacity="0.25" d="M57.7372 13.3627C57.7372 13.6281 57.5226 13.8427 57.2573 13.8427C56.9919 13.8427 56.7773 13.6281 56.7773 13.3627C56.7773 13.0974 56.9919 12.8828 57.2573 12.8828C57.5226 12.8828 57.7372 13.0974 57.7372 13.3627Z" fill="white"/>
<path opacity="0.25" d="M60.5773 13.3627C60.5773 13.6281 60.3627 13.8427 60.0974 13.8427C59.832 13.8427 59.6174 13.6281 59.6174 13.3627C59.6174 13.0974 59.832 12.8828 60.0974 12.8828C60.3627 12.8828 60.5773 13.0974 60.5773 13.3627Z" fill="white"/>
<path opacity="0.25" d="M63.4179 13.3627C63.4179 13.6281 63.2033 13.8427 62.9379 13.8427C62.6726 13.8427 62.458 13.6281 62.458 13.3627C62.458 13.0974 62.6726 12.8828 62.9379 12.8828C63.2033 12.8828 63.4179 13.0974 63.4179 13.3627Z" fill="white"/>
<path opacity="0.25" d="M66.2555 13.3627C66.2555 13.6281 66.0409 13.8427 65.7756 13.8427C65.5102 13.8427 65.2957 13.6281 65.2957 13.3627C65.2957 13.0974 65.5102 12.8828 65.7756 12.8828C66.0409 12.8828 66.2555 13.0974 66.2555 13.3627Z" fill="white"/>
<path opacity="0.25" d="M69.0956 13.3627C69.0956 13.6281 68.881 13.8427 68.6157 13.8427C68.3503 13.8427 68.1357 13.6281 68.1357 13.3627C68.1357 13.0974 68.3503 12.8828 68.6157 12.8828C68.881 12.8828 69.0956 13.0974 69.0956 13.3627Z" fill="white"/>
<path opacity="0.25" d="M71.9335 13.3627C71.9335 13.6281 71.7189 13.8427 71.4536 13.8427C71.1882 13.8427 70.9736 13.6281 70.9736 13.3627C70.9736 13.0974 71.1882 12.8828 71.4536 12.8828C71.7189 12.8828 71.9335 13.0974 71.9335 13.3627Z" fill="white"/>
<path d="M63.6531 24.1355L66.4819 17.8919C66.5904 17.6519 66.8003 17.4719 67.0541 17.4027L78.5585 14.2463C78.7524 14.1932 79.1515 14.6731 79.0615 14.8554L74.876 22.6265C74.7422 22.8988 74.5092 23.111 74.2254 23.2195L63.4062 27.3219L63.6531 24.1355Z" fill="#2A3551"/>
<path d="M63.8582 24.5932L66.687 18.3496C66.7954 18.1096 67.0054 17.9296 67.2592 17.8604L78.7636 14.704C78.9574 14.6509 79.1259 14.8516 79.0359 15.0339L75.0811 23.0842C74.9473 23.3565 74.7142 23.5688 74.4304 23.6772L63.6113 27.7797L63.8582 24.5932Z" fill="#364380"/>
<path d="M66.6521 26.0665C66.6521 26.0665 66.8851 26.6088 65.7407 27.6609C64.5939 28.713 62.8611 28.0324 62.8611 28.0324L58.2649 31.5188C57.6142 32.0056 56.8367 32.2548 56.0568 32.2548C55.4753 32.2548 54.8939 32.1187 54.3586 31.8395C53.3734 31.3273 52.6742 30.3997 52.4504 29.313L52.4181 29.1561L52.1182 27.6978L54.5662 26.2627L56.5206 25.1159L56.5852 25.4805L56.8897 27.1648L61.8874 24.719C61.8874 24.719 62.8934 23.1085 63.3734 22.5386C63.8533 21.9664 64.3932 21.8741 64.5639 22.2456C64.737 22.6171 63.6525 24.133 63.6525 24.133C63.6525 24.133 64.054 24.1007 65.2631 23.683C66.4698 23.2654 67.2589 22.4002 67.5819 22.6632C67.9073 22.9285 67.7227 23.683 67.2889 24.2737C67.3974 25.3097 66.6521 26.0665 66.6521 26.0665Z" fill="#F0C9CF"/>
<path d="M56.5852 25.4817L52.4181 29.1573L52.1182 27.6991L54.5662 26.2639L56.5183 25.1172L56.5852 25.4817Z" fill="#D683A7"/>
<path d="M62.815 13.4908C62.6235 14.5753 62.012 15.669 60.3715 15.8466C59.0748 15.9897 58.1703 15.5974 57.5473 15.0621C57.2659 14.8176 57.0397 14.543 56.8667 14.2776C56.7029 14.0308 56.5783 13.7885 56.4883 13.5762L57.2912 13.207L57.8658 13.3616H61.9336L62.4412 13.4285C62.5658 13.447 62.6927 13.4655 62.815 13.4908Z" fill="white"/>
<path d="M60.4959 15.1122C58.2209 15.366 57.291 13.2087 57.291 13.2087L57.7571 13.0079C57.7571 13.0079 57.8355 11.1967 57.6648 10.1445L58.3155 10.3107L61.5181 11.1344C61.2227 11.8266 61.2989 12.798 61.3358 13.1072C61.3427 13.1695 61.3473 13.2064 61.3473 13.2064L61.9334 13.361C61.9334 13.3633 62.028 14.9415 60.4959 15.1122Z" fill="#F0C9CF"/>
<path d="M61.3359 13.1113C60.053 13.1413 58.4241 12.6937 57.9257 11.0185C57.8126 10.6378 57.9811 10.4209 58.3156 10.3125L61.5182 11.1362C61.2206 11.8307 61.299 12.7998 61.3359 13.1113Z" fill="#D683A7"/>
<path d="M57.1236 9.00006L55.9584 7.56951C55.3562 6.82885 55.4185 5.75133 56.1015 5.08681C55.4716 3.58012 56.3622 1.87039 57.9566 1.51967L59.1448 1.25894C59.3571 1.2128 59.5556 1.12281 59.7309 0.993598L60.873 0.16065C61.1499 -0.0400887 61.5214 -0.0539331 61.8098 0.126039C62.1836 0.35908 62.3151 0.841314 62.1098 1.23125L61.7591 1.89346C61.7175 1.97191 61.8075 2.05497 61.8814 2.00883L63.9464 0.719025C64.2118 0.552896 64.5602 0.601351 64.7701 0.834392C64.9732 1.06051 64.9939 1.39738 64.8163 1.64427L63.3927 3.64011C63.3442 3.70933 63.4134 3.80163 63.4919 3.77394L63.8403 3.64934C64.1979 3.52244 64.5948 3.66319 64.7909 3.98621C64.9801 4.2954 64.9409 4.68995 64.6917 4.9553C64.011 5.6798 62.7328 7.12881 62.562 7.95022C62.3382 9.07851 57.1236 9.00006 57.1236 9.00006Z" fill="#1F2251"/>
<path d="M62.7364 6.76325C62.6972 6.98475 62.6603 7.31932 62.6603 7.80617C62.6603 8.12689 62.7226 8.65757 62.7295 9.23671C62.7341 9.6405 62.7133 10.072 62.6256 10.4781C62.4226 11.4195 61.8619 12.2178 60.4498 12.2178C57.5564 12.2178 57.2634 9.35439 57.2634 9.35439C57.2634 9.35439 57.1849 10.042 56.5366 9.71895C56.052 9.47668 55.8859 8.37146 56.4351 8.10843C56.7581 7.95383 57.1019 8.1638 57.3326 8.36223C57.4295 8.4453 57.5772 8.36685 57.5657 8.23994L57.4503 6.89015C58.2394 7.13012 61.0705 6.32485 62.1849 5.22656C62.2034 5.5219 62.4088 5.85877 62.5818 6.09412C62.7179 6.28794 62.7779 6.5279 62.7364 6.76325Z" fill="#F0C9CF"/>
<path d="M60.6924 9.91414L60.9508 9.76185C61.1239 9.66033 61.1954 9.44575 61.1146 9.26116L60.6924 8.28516" stroke="#C85E8B" stroke-width="0.121181" stroke-miterlimit="9" stroke-linecap="round"/>
<path d="M59.7627 8.74867C59.7627 8.87788 59.6797 8.98171 59.5781 8.98171C59.4766 8.98171 59.3936 8.87788 59.3936 8.74867C59.3936 8.61946 59.4766 8.51562 59.5781 8.51562C59.6797 8.51793 59.7627 8.62176 59.7627 8.74867Z" fill="black"/>
<path d="M61.9756 8.61585C61.9756 8.74506 61.8926 8.8489 61.791 8.8489C61.6895 8.8489 61.6064 8.74506 61.6064 8.61585C61.6064 8.48664 61.6895 8.38281 61.791 8.38281C61.8926 8.38512 61.9756 8.48895 61.9756 8.61585Z" fill="black"/>
<path d="M58.6758 7.97042C58.6758 7.97042 59.0588 7.39128 59.8248 7.6474" stroke="#1F2251" stroke-width="0.181795" stroke-miterlimit="10" stroke-linecap="round" stroke-linejoin="round"/>
<path d="M62.3675 7.67882C62.3675 7.67882 61.9106 7.17351 61.1746 7.63729" stroke="#1F2251" stroke-width="0.181795" stroke-miterlimit="10" stroke-linecap="round" stroke-linejoin="round"/>
<path d="M59.8252 10.4766L60.9211 10.5273C60.9211 10.5273 60.8842 11.0949 60.3328 11.058C59.779 11.0211 59.8252 10.4766 59.8252 10.4766Z" fill="white"/>
<path d="M56.3799 8.655C56.7052 8.45426 56.9983 8.70807 56.936 9.19722" stroke="#C85E8B" stroke-width="0.121181" stroke-miterlimit="9" stroke-linecap="round"/>
<path d="M59.6617 9.84208C59.6617 10.202 59.371 10.4927 59.011 10.4927C58.6511 10.4927 58.3604 10.202 58.3604 9.84208C58.3604 9.48213 58.6511 9.19141 59.011 9.19141C59.371 9.19141 59.6617 9.48213 59.6617 9.84208Z" fill="#EAB7C0"/>
<path d="M62.7323 9.23755C62.737 9.64134 62.7162 10.0728 62.6285 10.4789C62.587 10.4881 62.5431 10.4927 62.4993 10.4927C62.1417 10.4927 61.8486 10.202 61.8486 9.84208C61.8486 9.48444 62.1394 9.19141 62.4993 9.19141C62.5801 9.19371 62.6585 9.20987 62.7323 9.23755Z" fill="#EAB7C0"/>
<path d="M56.8897 27.1641L55.0508 28.0939" stroke="#C85E8B" stroke-width="0.121181" stroke-miterlimit="9" stroke-linecap="round"/>
<path d="M67.2868 24.2695C66.8853 25.0748 64.668 25.3863 64.668 25.3863" stroke="#C85E8B" stroke-width="0.121181" stroke-miterlimit="9" stroke-linecap="round"/>
<path d="M66.652 26.0664C65.7545 27.0263 64.2686 26.7932 64.2686 26.7932" stroke="#C85E8B" stroke-width="0.121181" stroke-miterlimit="9" stroke-linecap="round"/>
<path d="M56.5183 25.1152L55.75 19.543" stroke="#1F2251" stroke-width="0.121181" stroke-miterlimit="10" stroke-linecap="round" stroke-linejoin="round"/>
<path d="M65.9787 29.5469L60.3718 34.2723" stroke="#1F2251" stroke-width="0.121181" stroke-miterlimit="10" stroke-linecap="round" stroke-linejoin="round"/>
<path d="M55.5453 72.8778L50.3122 72.2017C49.9569 72.1556 49.7054 71.8302 49.7516 71.4749L49.8577 70.6443C49.9038 70.2889 50.2292 70.0374 50.5845 70.0836L55.8175 70.7596C56.1729 70.8058 56.4244 71.1311 56.3782 71.4864L56.2721 72.3171C56.2259 72.6724 55.9006 72.9239 55.5453 72.8778Z" fill="#647BF4"/>
<path d="M50.4805 70.082L55.9189 70.7835" stroke="#1F2251" stroke-width="0.121181" stroke-miterlimit="10" stroke-linecap="round" stroke-linejoin="round"/>
<path d="M77.1025 71.7848L72.0379 73.2638C71.6941 73.363 71.3341 73.1669 71.2326 72.8231L70.9973 72.0179C70.8958 71.6741 71.0942 71.3141 71.438 71.2126L76.5026 69.7336C76.8464 69.6321 77.2063 69.8305 77.3078 70.1743L77.5432 70.9796C77.6424 71.3257 77.4463 71.6856 77.1025 71.7848Z" fill="#647BF4"/>
<path d="M71.3438 71.2492L76.6068 69.7148" stroke="#1F2251" stroke-width="0.121181" stroke-miterlimit="10" stroke-linecap="round" stroke-linejoin="round"/>
<path opacity="0.25" d="M67.3312 18.7996C67.6381 18.5734 68.0257 18.5781 68.1965 18.8088C68.3672 19.0395 68.2588 19.4133 67.9519 19.6394C67.645 19.8655 67.2574 19.8609 67.0867 19.6302C66.9159 19.3972 67.0244 19.0257 67.3312 18.7996Z" fill="white"/>
<path opacity="0.25" d="M67.4836 19C67.6405 18.8847 67.8413 18.8847 67.9289 19.0046C68.0166 19.1246 67.9612 19.3138 67.8043 19.4315C67.6474 19.5469 67.4467 19.5469 67.359 19.4269C67.269 19.3069 67.3267 19.1177 67.4836 19Z" fill="white"/>
<path d="M63.1757 40.5469L61.7129 47.3235" stroke="#1F2251" stroke-width="0.121181" stroke-miterlimit="10" stroke-linecap="round" stroke-linejoin="round"/>
<path d="M82.8798 22.033H82.7275C82.7806 22.0191 82.8314 22.0214 82.8798 22.033Z" fill="#364380"/>
<path d="M82.7282 22.0352C82.7258 22.0352 82.7211 22.0352 82.7188 22.0375V22.0352H82.7282Z" fill="#364380"/>
<path d="M94.2321 64.9414L93.8606 75.5736L94.975 77.491L97.6677 76.4412L98.3784 65.899" fill="#F0C9CF"/>
<path d="M88.113 78.2643L93.9852 74.8633L95.0997 76.4415H97.6677L97.9469 78.825H88.2653C87.9561 78.8227 87.8477 78.4166 88.113 78.2643Z" fill="#EBAF65"/>
<path d="M112.19 64.9414L115.573 75.5736L114.461 77.491L111.768 76.4412L108.044 65.899" fill="#F0C9CF"/>
<path d="M121.322 78.2643L115.45 74.8633L114.336 76.4415H111.767L111.488 78.825H121.17C121.477 78.8227 121.587 78.4166 121.322 78.2643Z" fill="#EBAF65"/>
<path d="M94.5642 29.9462L93.1729 70.0777L98.6805 70.4815L100.785 45.3869L109.077 71.2498L113.967 69.7131C113.967 69.7131 107.345 42.415 106.602 38.5156C105.859 34.6162 106.23 32.5742 105.053 29.8516L94.5642 29.9462Z" fill="#292F69"/>
<path d="M98.9671 2.99931C97.3796 2.56553 96.1729 4.88671 96.5444 7.76396C96.9159 10.6412 94.4401 13.3962 94.7193 14.5706C94.9985 15.7473 100.506 17.3856 104.189 17.3556C107.871 17.3256 109.016 15.715 108.335 14.5706C107.654 13.4262 106.572 12.3117 106.664 8.86225C106.757 5.41278 104.359 -1.02469 98.9671 2.99931Z" fill="#1F2251"/>
<path d="M91.3756 19.4295L89.3336 24.0096L86.1772 16.6053C86.1772 16.6053 85.7757 14.0765 85.4504 13.3658C85.125 12.6552 85.2335 11.7091 84.7997 11.5707C84.3659 11.4323 84.2113 12.2052 84.2113 12.8697C84.2113 13.5342 84.1029 14.1688 84.1029 14.1688C84.1029 14.1688 82.2916 12.5906 82.1855 12.0945C82.077 11.5984 82.1393 9.91404 81.7379 9.69715C81.3364 9.48026 80.8864 9.97633 80.7942 11.4138C80.7019 12.8536 83.5953 17.046 83.5953 17.046L85.7157 27.3183L91.6571 28.4004L95.185 22.6136L91.3756 19.4295Z" fill="#F0C9CF"/>
<path d="M109.571 20.7778L107.384 22.3652L107.179 22.5129L105.547 23.6989L105.3 30.1663L104.304 30.1479L104.098 30.1433L101.223 30.0856L101.018 30.0833L98.143 30.0256L97.9377 30.021L95.0627 29.9633L94.8574 29.9587L94.5644 29.9541C94.5644 29.9541 94.689 28.3735 94.2252 26.0685C93.7591 23.7635 94.4098 22.1783 94.4098 22.1783L91.3779 19.4326L92.9308 17.0191C93.4061 16.2808 94.0752 15.6878 94.8574 15.3094C94.9243 15.2748 94.9935 15.2448 95.0627 15.2148C95.2889 15.1156 95.5242 15.0348 95.7642 14.9748L97.9377 14.4165L98.0554 14.3841L98.143 14.3634L98.8791 14.1719L101.018 14.1788H101.223L103.554 14.1857L104.098 14.4718L104.304 14.5803L104.308 14.5826L106.267 15.607C106.597 15.7801 106.902 15.9877 107.179 16.23C107.248 16.2877 107.319 16.3523 107.384 16.4169C107.862 16.8807 108.242 17.4437 108.491 18.0759L109.571 20.7778Z" fill="#647BF4"/>
<path opacity="0.25" d="M95.0628 15.2109V29.9594L94.8574 29.9548V15.3055C94.9243 15.2709 94.9936 15.2386 95.0628 15.2109Z" fill="white"/>
<path opacity="0.25" d="M98.1428 14.3594V30.0216L97.9375 30.017V14.4124L98.0552 14.3801L98.1428 14.3594Z" fill="white"/>
<path opacity="0.25" d="M101.223 14.1758V30.0849L101.018 30.0803V14.1758H101.223Z" fill="white"/>
<path opacity="0.25" d="M104.306 14.5795V30.1471L104.099 30.1425V14.4688L104.306 14.5795Z" fill="white"/>
<path opacity="0.25" d="M107.386 16.4174V22.368L107.181 22.5157V16.2305C107.25 16.2882 107.319 16.3504 107.386 16.4174Z" fill="white"/>
<path d="M104.31 14.5826C103.671 15.8862 101.987 16.6476 99.9194 16.5115C98.1843 16.3961 97.9697 15.2379 98.0574 14.3841L98.8811 14.1719L103.554 14.1857L104.31 14.5826Z" fill="white"/>
<path d="M103.553 14.1844C103.553 14.1844 102.7 15.8849 100.519 15.8849C98.3389 15.8849 98.8811 14.1682 98.8811 14.1682L99.4995 13.9675L99.4626 12.9038L99.4072 11.3533L103.12 10.2227C103.041 10.3772 102.986 10.6011 102.949 10.8572C102.776 12.0293 102.963 13.9675 102.963 13.9675L103.553 14.1844Z" fill="#F0C9CF"/>
<path d="M103.12 10.2227C103.042 10.3772 102.986 10.6011 102.949 10.8572C102.949 10.8595 102.947 10.8595 102.947 10.8618C101.904 12.9592 100.151 12.9822 99.4606 12.9038L99.4053 11.3533L103.12 10.2227Z" fill="#D683A7"/>
<path d="M99.0401 4.64062C99.3816 6.46804 103.288 7.73015 103.565 7.94012C103.726 8.06241 103.779 8.35313 103.796 8.57233C103.798 8.61847 103.862 8.6277 103.879 8.58386C103.978 8.31391 104.174 7.92858 104.506 7.88935C105.023 7.82706 105.521 8.48003 105.226 9.26222C104.931 10.0444 103.752 9.62909 103.752 9.62909C103.752 9.62909 102.79 11.971 100.579 12.0356C98.3687 12.1002 97.8796 10.2267 98.048 9.07533C98.2164 7.92397 98.198 7.35175 98.1011 6.6757C98.0065 5.99734 98.8556 5.51972 99.0401 4.64062Z" fill="#F0C9CF"/>
<path d="M104.682 8.33984C104.497 8.39291 104.289 8.90053 104.372 9.13587" stroke="#C85E8B" stroke-width="0.121181" stroke-miterlimit="9" stroke-linecap="round"/>
<path d="M100.249 9.79695L99.9909 9.64466C99.8178 9.54314 99.7463 9.32856 99.8271 9.14397L100.249 8.16797" stroke="#C85E8B" stroke-width="0.121181" stroke-miterlimit="9" stroke-linecap="round"/>
<path d="M101.18 8.63148C101.18 8.76069 101.263 8.86452 101.364 8.86452C101.466 8.86452 101.549 8.76069 101.549 8.63148C101.549 8.50227 101.466 8.39844 101.364 8.39844C101.263 8.40074 101.18 8.50458 101.18 8.63148Z" fill="black"/>
<path d="M98.9668 8.49867C98.9668 8.62788 99.0499 8.73171 99.1514 8.73171C99.2529 8.73171 99.336 8.62788 99.336 8.49867C99.336 8.36946 99.2529 8.26562 99.1514 8.26562C99.0499 8.26793 98.9668 8.37176 98.9668 8.49867Z" fill="black"/>
<path d="M102.144 7.37728C102.144 7.37728 101.678 6.86274 100.96 7.22961" stroke="#1F2251" stroke-width="0.181795" stroke-miterlimit="10" stroke-linecap="round" stroke-linejoin="round"/>
<path d="M98.5537 7.3546C98.5537 7.3546 99.0106 6.84929 99.7466 7.31307" stroke="#1F2251" stroke-width="0.181795" stroke-miterlimit="10" stroke-linecap="round" stroke-linejoin="round"/>
<path d="M99.7653 8.55698C99.7653 9.07844 99.3431 9.50068 98.8216 9.50068C98.3002 9.50068 97.8779 9.07844 97.8779 8.55698C97.8779 8.03552 98.3002 7.61328 98.8216 7.61328C99.3431 7.61328 99.7653 8.03552 99.7653 8.55698Z" stroke="#647BF4" stroke-width="0.181795" stroke-miterlimit="10"/>
<path d="M102.386 8.55698C102.386 9.07844 101.964 9.50068 101.443 9.50068C100.921 9.50068 100.499 9.07844 100.499 8.55698C100.499 8.03552 100.921 7.61328 101.443 7.61328C101.962 7.61328 102.386 8.03552 102.386 8.55698Z" stroke="#647BF4" stroke-width="0.181795" stroke-miterlimit="10"/>
<path d="M99.7402 8.33922C99.7402 8.33922 100.139 7.9539 100.525 8.33922" stroke="#647BF4" stroke-width="0.181795" stroke-miterlimit="10"/>
<path d="M100.521 10.6402C100.521 10.6402 101.124 10.8871 101.617 10.4648" stroke="#C85E8B" stroke-width="0.121181" stroke-miterlimit="9" stroke-linecap="round"/>
<path d="M93.8329 29.8554H84.6658C84.5135 29.86 84.3751 29.7678 84.3313 29.6132L82.3654 22.4789C82.317 22.2989 82.4208 22.1143 82.6008 22.0659L82.7138 22.0336H82.7161C82.7184 22.0312 82.723 22.0313 82.7253 22.0313H91.8947L93.8329 29.8554Z" fill="#99A3CA"/>
<path d="M88.3715 26.2966C88.3715 26.6888 88.0531 27.0073 87.6609 27.0073C87.2686 27.0073 86.9502 26.6888 86.9502 26.2966C86.9502 25.9044 87.2686 25.5859 87.6609 25.5859C88.0531 25.5859 88.3715 25.9044 88.3715 26.2966Z" fill="#E6E9FC"/>
<path d="M93.8352 29.8571H101.11C101.295 29.8571 101.443 29.7071 101.443 29.5249V29.4026C101.443 29.218 101.293 29.0703 101.11 29.0703H93.8352C93.6506 29.0703 93.503 29.2203 93.503 29.4026V29.5249C93.5006 29.7071 93.6506 29.8571 93.8352 29.8571Z" fill="#7988B8"/>
<path d="M91.5461 22.476L93.4796 29.4903C93.5281 29.668 93.7127 29.7718 93.888 29.7234L94.008 29.6911C94.1857 29.6426 94.2895 29.458 94.241 29.2827L92.3075 22.2684C92.259 22.0907 92.0745 21.9869 91.8991 22.0353L91.7791 22.0676C91.6015 22.1161 91.4976 22.2984 91.5461 22.476Z" fill="#7988B8"/>
<path d="M112.878 31.8987C112.878 32.794 112.485 33.6592 111.772 34.2476C110.725 35.1105 109.234 35.1728 108.118 34.4045L103.021 30.8973C103.021 30.8973 100.247 31.5065 98.999 31.3911C97.7507 31.278 96.4194 30.6181 96.4102 30.362C96.3986 30.1036 101.433 29.5775 101.196 29.3699C100.958 29.1645 98.7106 29.1437 98.6806 28.6592C98.6506 28.1747 99.2159 28.0085 100.155 27.9462C101.096 27.8839 102.289 28.3593 102.289 28.3593L107.391 29.0676L105.942 24.8406L105.55 23.6984L109.574 20.7773L109.834 21.6264L112.744 31.0012C112.834 31.2988 112.878 31.6011 112.878 31.8987Z" fill="#F0C9CF"/>
<path d="M109.571 20.7812L109.834 21.628L105.941 24.8422L105.547 23.7023L109.571 20.7812Z" fill="#D683A7"/>
<path d="M107.389 29.0664L109.571 29.3594" stroke="#C85E8B" stroke-width="0.121181" stroke-miterlimit="9" stroke-linecap="round"/>
<path d="M95.3025 29.4637C95.3025 29.5306 95.2494 29.5837 95.1825 29.5837C95.1156 29.5837 95.0625 29.5306 95.0625 29.4637C95.0625 29.3968 95.1156 29.3438 95.1825 29.3438C95.2494 29.3438 95.3025 29.3968 95.3025 29.4637Z" fill="#1F2251"/>
<path d="M95.7898 29.4637C95.7898 29.5306 95.7367 29.5837 95.6698 29.5837C95.6029 29.5837 95.5498 29.5306 95.5498 29.4637C95.5498 29.3968 95.6029 29.3438 95.6698 29.3438C95.7367 29.3438 95.7898 29.3968 95.7898 29.4637Z" fill="#1F2251"/>
<path d="M98.5117 71.9429L93.2371 71.7653C92.8795 71.7537 92.598 71.4538 92.6118 71.0962L92.6395 70.2586C92.651 69.901 92.951 69.6195 93.3086 69.6333L98.5832 69.811C98.9408 69.8225 99.2223 70.1225 99.2085 70.4801L99.1808 71.3177C99.1693 71.6753 98.8693 71.9545 98.5117 71.9429Z" fill="#99A3CA"/>
<path d="M114.366 70.7502L109.311 72.2638C108.967 72.3676 108.607 72.1715 108.503 71.8277L108.263 71.0248C108.159 70.681 108.355 70.321 108.699 70.2172L113.755 68.7036C114.098 68.5998 114.458 68.7959 114.562 69.1397L114.802 69.9426C114.904 70.2841 114.708 70.6464 114.366 70.7502Z" fill="#99A3CA"/>
<path d="M99.1953 40.1484L101.75 48.4018" stroke="#1F2251" stroke-width="0.121181" stroke-miterlimit="10" stroke-linecap="round" stroke-linejoin="round"/>
<path d="M95.0625 25.8828C96.4192 27.1357 98.8211 27.3226 98.8211 27.3226" stroke="#1F2251" stroke-width="0.121181" stroke-miterlimit="10" stroke-linecap="round" stroke-linejoin="round"/>
<path d="M105.547 23.7023L103.814 20.7812" stroke="#1F2251" stroke-width="0.121181" stroke-miterlimit="10" stroke-linecap="round" stroke-linejoin="round"/>
<path d="M94.4102 22.1777C95.1531 20.701 95.3031 18.7812 95.3031 18.7812" stroke="#1F2251" stroke-width="0.121181" stroke-miterlimit="10" stroke-linecap="round" stroke-linejoin="round"/>
<path d="M4.8877 78.8242H126.06" stroke="#97A2D4" stroke-width="0.484771" stroke-miterlimit="10" stroke-linecap="round" stroke-linejoin="round"/>
<path d="M91.7731 0V9.73927L89.325 7.29349H79.9434V0H91.7731Z" fill="#2F4BE0"/>
<path d="M84 1.97656H89" stroke="white" stroke-width="0.230734" stroke-miterlimit="10" stroke-linecap="round" stroke-linejoin="round"/>
<path d="M85 2.97656H89" stroke="white" stroke-width="0.230734" stroke-miterlimit="10" stroke-linecap="round" stroke-linejoin="round"/>
<path d="M86 3.97656H89" stroke="white" stroke-width="0.230734" stroke-miterlimit="10" stroke-linecap="round" stroke-linejoin="round"/>
<path d="M87 4.97656H89" stroke="white" stroke-width="0.230734" stroke-miterlimit="10" stroke-linecap="round" stroke-linejoin="round"/>
<path d="M37.0703 5.66016V15.3994L39.5184 12.9536H48.9V5.66016H37.0703Z" fill="#2F4BE0"/>
<path d="M45 7.63281H40" stroke="white" stroke-width="0.230734" stroke-miterlimit="10" stroke-linecap="round" stroke-linejoin="round"/>
<path d="M44 8.63281H40" stroke="white" stroke-width="0.230734" stroke-miterlimit="10" stroke-linecap="round" stroke-linejoin="round"/>
<path d="M43 9.63281H40" stroke="white" stroke-width="0.230734" stroke-miterlimit="10" stroke-linecap="round" stroke-linejoin="round"/>
<path d="M42 10.6328H40" stroke="white" stroke-width="0.230734" stroke-miterlimit="10" stroke-linecap="round" stroke-linejoin="round"/>
</svg>
