<svg width="15" height="17" viewBox="0 0 15 17" fill="none" xmlns="http://www.w3.org/2000/svg">
<path d="M5.37122 16.9446C5.46364 16.9816 5.53749 17 5.62991 17C5.74076 17 5.88859 16.963 5.96245 16.8892L8.77116 14.6532C8.919 14.5424 8.99286 14.3761 8.99286 14.2097L8.99299 8.31518L13.8158 1.79238C14.0745 1.45984 14.0929 1.0163 13.9266 0.60978C13.7234 0.221804 13.3169 0 12.9103 0H1.13971C0.714748 0 0.32664 0.221698 0.123381 0.60978C-0.0798859 0.997887 -0.0244616 1.44126 0.23423 1.79238L5.05703 8.31518V16.4456C5.05703 16.6674 5.16788 16.8522 5.37115 16.9447L5.37122 16.9446ZM1.13972 1.14574H12.9103L7.97664 7.81636C7.88422 7.90877 7.86579 8.03806 7.86579 8.1489V13.951L6.18424 15.2999V8.14886C6.18424 8.03802 6.14725 7.92717 6.0734 7.81632L1.13972 1.14574Z" fill="#045299"/>
</svg>
