<svg width="38" height="38" viewBox="0 0 38 38" fill="none" xmlns="http://www.w3.org/2000/svg">
    <circle cx="19" cy="19" r="19" fill="#045299"/>
    <path d="M24.1328 15.9062C24.0298 17.3361 22.9691 18.4375 21.8125 18.4375C20.6558 18.4375 19.5934 17.3364 19.4922 15.9062C19.3867 14.4188 20.4192 13.375 21.8125 13.375C23.2057 13.375 24.2382 14.4459 24.1328 15.9062Z" stroke="white" stroke-width="1.125" stroke-linecap="round" stroke-linejoin="round"/>
    <path d="M21.8124 20.6875C19.5212 20.6875 17.318 21.8255 16.766 24.0418C16.6929 24.335 16.8768 24.625 17.1781 24.625H26.447C26.7483 24.625 26.9311 24.335 26.859 24.0418C26.3071 21.79 24.1038 20.6875 21.8124 20.6875Z" stroke="white" stroke-width="1.125" stroke-miterlimit="10"/>
    <path d="M17.0311 16.537C16.9488 17.6788 16.0917 18.5781 15.1678 18.5781C14.2439 18.5781 13.3854 17.6792 13.3045 16.537C13.2205 15.349 14.0548 14.5 15.1678 14.5C16.2809 14.5 17.1151 15.3708 17.0311 16.537Z" stroke="white" stroke-width="1.125" stroke-linecap="round" stroke-linejoin="round"/>
    <path d="M17.2423 20.758C16.6077 20.4673 15.9088 20.3555 15.1681 20.3555C13.3399 20.3555 11.5786 21.2643 11.1374 23.0344C11.0794 23.2685 11.2263 23.5002 11.4668 23.5002H15.4142" stroke="white" stroke-width="1.125" stroke-miterlimit="10" stroke-linecap="round"/>
</svg>