<svg width="365" height="109" viewBox="0 0 365 109" fill="none" xmlns="http://www.w3.org/2000/svg">
<g clip-path="url(#clip0_6045_555027)">
<path d="M71.5475 54.5C71.5616 60.6043 70.9693 66.6948 69.7794 72.682C65.5405 93.8353 54.0912 109 40.635 109H27.0961C35.4821 109 42.6419 94.5518 45.4985 74.1837C46.4002 67.6614 46.8498 61.0844 46.8441 54.5C46.8514 47.9142 46.4034 41.3357 45.5031 34.8117C42.6465 14.439 35.4867 0 27.0961 0H40.635C54.0912 0 65.5313 15.1555 69.7794 36.3134C70.9695 42.3021 71.5618 48.3942 71.5475 54.5Z" fill="#0075BB"/>
<path d="M103.158 54.5C103.158 84.5905 89.3161 109 72.2501 109H48.0013C61.779 109 73.4166 93.1465 77.4305 71.2491C78.4291 65.7222 78.9271 60.1164 78.9185 54.5C78.9289 48.8816 78.4278 43.2739 77.4213 37.7463C73.4166 15.8444 61.7561 0 48.0013 0H72.2501C89.3161 0 103.158 24.3957 103.158 54.5Z" fill="#39C5F3"/>
<path d="M39.441 54.5C39.455 60.9712 39.0269 67.4357 38.1596 73.8485C35.3628 94.391 28.1433 109 19.7159 109C9.9475 109 1.83703 89.353 0.270962 63.5795C0.0903205 60.625 0 57.5985 0 54.5C0 51.4046 0.0918514 48.3689 0.270962 45.4113C1.83703 19.6332 9.9475 0 19.7159 0C28.1433 0 35.3628 14.5998 38.1596 35.1423C39.0268 41.5582 39.4549 48.0258 39.441 54.5Z" fill="#092F49"/>
<path d="M136.714 48.4108C141.035 48.4108 143.915 45.9162 143.915 42.8299C143.915 39.8981 141.832 38.7407 139.08 37.892L134.605 36.4518C133.422 36.0917 132.882 35.5516 132.882 34.7544C132.882 33.6999 134.014 32.7998 135.788 32.7998C137.82 32.7998 139.492 33.8028 140.238 35.2687L143.504 34.3172C142.527 31.8225 139.646 29.6879 135.763 29.6879C132.008 29.6879 129.282 32.0539 129.307 34.8573C129.282 37.1719 131.005 38.6893 133.371 39.4351L137.974 40.8754C139.697 41.4412 140.34 42.0841 140.34 43.0357C140.34 44.2187 139.029 45.2989 136.92 45.2989C134.322 45.2989 132.496 43.8072 131.776 41.9298L128.407 42.9585C129.41 45.7618 132.316 48.4108 136.714 48.4108ZM148.261 33.2113C149.393 33.2113 150.293 32.3368 150.293 31.2052C150.293 30.1251 149.393 29.2506 148.261 29.2506C147.129 29.2506 146.229 30.1251 146.229 31.2052C146.229 32.3368 147.129 33.2113 148.261 33.2113ZM146.512 48.0508H149.933V35.0373H146.512V48.0508ZM160.906 34.6772C159.028 34.6772 157.614 35.5259 156.714 36.6833V35.0373H153.319V48.0508H156.714V41.6212C156.714 39.3322 157.948 37.8406 159.851 37.8406C161.729 37.8406 162.629 39.1008 162.629 41.0811V48.0508H166.024V40.4381C166.024 36.9662 164.301 34.6772 160.906 34.6772ZM178.99 35.0373V36.5547C178.012 35.3459 176.598 34.6772 174.875 34.6772C171.145 34.6772 168.445 37.3777 168.445 41.2868C168.445 44.9903 171.145 47.8965 174.875 47.8965C176.598 47.8965 178.012 47.2278 178.99 46.019V47.5879C178.964 49.5167 177.884 51.0084 175.749 51.0084C174.103 51.0084 173.023 50.3912 172.354 49.3367L169.397 50.3912C170.477 52.3458 172.483 53.8117 175.672 53.8117C179.735 53.8117 182.384 51.2141 182.384 47.5879V35.0373H178.99ZM175.466 44.836C173.306 44.836 171.814 43.3958 171.814 41.2868C171.814 39.1779 173.306 37.7377 175.466 37.7377C177.549 37.7377 179.067 39.2037 179.067 41.2868C179.067 43.3958 177.549 44.836 175.466 44.836ZM185.718 48.0508H189.113V29.2764H185.718V48.0508ZM198.724 48.4108C202.145 48.4108 204.254 46.4048 205 44.7074L201.939 43.8072C201.425 44.7845 200.422 45.5304 198.776 45.5304C196.41 45.5304 195.227 44.2445 194.995 42.5728H205.103C205.18 42.1613 205.18 41.7755 205.18 41.364C205.18 37.6348 202.736 34.6772 198.467 34.6772C194.378 34.6772 191.652 37.6606 191.652 41.544C191.652 45.659 194.558 48.4108 198.724 48.4108ZM194.995 40.4381C195.175 38.9465 196.461 37.5577 198.441 37.5577C200.473 37.5577 201.708 38.8436 201.862 40.4381H194.995ZM229.222 30.0479L223.332 38.5607L217.443 30.0479H214.074V48.0508H217.597V36.1946L223.332 44.1416L229.067 36.1946V48.0508H232.591V30.0479H229.222ZM241.557 48.4108C243.383 48.4108 244.823 47.6393 245.749 46.4562V48.0508H249.169V35.0373H245.749V36.6061C244.823 35.4231 243.383 34.6772 241.557 34.6772C237.956 34.6772 235.127 37.5834 235.127 41.544C235.127 45.4789 237.956 48.4108 241.557 48.4108ZM242.148 45.3761C240.013 45.3761 238.496 43.7815 238.496 41.5183C238.496 39.2808 240.013 37.712 242.148 37.712C244.206 37.712 245.852 39.2808 245.852 41.5183C245.852 43.7815 244.206 45.3761 242.148 45.3761ZM257.618 48.4108C260.936 48.4108 263.251 46.6106 263.251 44.1673C263.251 41.8269 261.553 41.0297 259.599 40.4639L256.358 39.538C255.638 39.3322 255.278 39.0236 255.278 38.5093C255.278 37.892 256.075 37.3262 257.13 37.3262C258.493 37.3262 259.444 38.0206 259.907 38.8436L262.916 37.9692C262.093 36.0146 259.959 34.6772 257.156 34.6772C254.301 34.6772 251.935 36.4004 251.935 38.5864C251.935 40.4381 253.298 41.5183 255.15 42.0584L258.467 43.0357C259.419 43.3186 259.907 43.6787 259.907 44.3216C259.907 45.0417 259.059 45.659 257.747 45.659C256.024 45.659 254.789 44.7331 254.352 43.4986L251.292 44.3988C251.935 46.5077 254.404 48.4108 257.618 48.4108ZM273.018 44.8874C272.504 45.1446 272.067 45.2475 271.475 45.2475C270.395 45.2475 269.881 44.656 269.881 43.6015V38.0206H273.687V35.0373H269.881V30.8195H266.46V35.0373H264.274V38.0206H266.46V43.6015C266.46 46.4048 267.823 48.2565 270.807 48.2565C271.887 48.2565 272.813 48.0508 273.841 47.6393L273.018 44.8874ZM281.832 48.4108C285.252 48.4108 287.361 46.4048 288.107 44.7074L285.047 43.8072C284.532 44.7845 283.529 45.5304 281.883 45.5304C279.517 45.5304 278.334 44.2445 278.103 42.5728H288.21C288.287 42.1613 288.287 41.7755 288.287 41.364C288.287 37.6348 285.844 34.6772 281.575 34.6772C277.486 34.6772 274.759 37.6606 274.759 41.544C274.759 45.659 277.666 48.4108 281.832 48.4108ZM278.103 40.4381C278.283 38.9465 279.569 37.5577 281.549 37.5577C283.581 37.5577 284.815 38.8436 284.97 40.4381H278.103ZM294.247 36.9662V35.0373H290.852V48.0508H294.247V42.3927C294.247 38.895 295.764 37.6091 298.542 38.0463V34.8573C296.51 34.5743 295.018 35.4488 294.247 36.9662Z" fill="#231F20"/>
<path d="M137.177 60.9112H129.359V78.9141H137.177C142.475 78.9141 145.793 75.1077 145.793 69.9126C145.793 64.6146 142.424 60.9112 137.177 60.9112ZM137.1 75.725H132.856V64.0746H137.1C140.186 64.0746 142.244 66.4149 142.244 69.8355C142.244 73.3075 140.186 75.725 137.1 75.725ZM154.029 79.2741C155.855 79.2741 157.295 78.5026 158.221 77.3195V78.9141H161.641V65.9006H158.221V67.4694C157.295 66.2863 155.855 65.5405 154.029 65.5405C150.428 65.5405 147.599 68.4467 147.599 72.4073C147.599 76.3422 150.428 79.2741 154.029 79.2741ZM154.62 76.2394C152.486 76.2394 150.968 74.6448 150.968 72.3816C150.968 70.1441 152.486 68.5753 154.62 68.5753C156.678 68.5753 158.324 70.1441 158.324 72.3816C158.324 74.6448 156.678 76.2394 154.62 76.2394ZM172.405 75.7507C171.891 76.0079 171.454 76.1108 170.862 76.1108C169.782 76.1108 169.268 75.5192 169.268 74.4648V68.8839H173.074V65.9006H169.268V61.6827H165.847V65.9006H163.661V68.8839H165.847V74.4648C165.847 77.2681 167.21 79.1198 170.193 79.1198C171.274 79.1198 172.2 78.9141 173.228 78.5026L172.405 75.7507ZM180.576 79.2741C182.402 79.2741 183.842 78.5026 184.768 77.3195V78.9141H188.189V65.9006H184.768V67.4694C183.842 66.2863 182.402 65.5405 180.576 65.5405C176.975 65.5405 174.146 68.4467 174.146 72.4073C174.146 76.3422 176.975 79.2741 180.576 79.2741ZM181.167 76.2394C179.033 76.2394 177.515 74.6448 177.515 72.3816C177.515 70.1441 179.033 68.5753 181.167 68.5753C183.225 68.5753 184.871 70.1441 184.871 72.3816C184.871 74.6448 183.225 76.2394 181.167 76.2394ZM212.997 60.9112L207.108 69.424L201.218 60.9112H197.849V78.9141H201.372V67.0579L207.108 75.0049L212.843 67.0579V78.9141H216.366V60.9112H212.997ZM225.332 79.2741C227.158 79.2741 228.598 78.5026 229.524 77.3195V78.9141H232.945V65.9006H229.524V67.4694C228.598 66.2863 227.158 65.5405 225.332 65.5405C221.731 65.5405 218.902 68.4467 218.902 72.4073C218.902 76.3422 221.731 79.2741 225.332 79.2741ZM225.923 76.2394C223.789 76.2394 222.271 74.6448 222.271 72.3816C222.271 70.1441 223.789 68.5753 225.923 68.5753C227.981 68.5753 229.627 70.1441 229.627 72.3816C229.627 74.6448 227.981 76.2394 225.923 76.2394ZM243.863 65.5405C241.985 65.5405 240.571 66.3892 239.671 67.5465V65.9006H236.276V78.9141H239.671V72.4845C239.671 70.1955 240.905 68.7039 242.808 68.7039C244.686 68.7039 245.586 69.9641 245.586 71.9444V78.9141H248.981V71.3014C248.981 67.8294 247.258 65.5405 243.863 65.5405ZM257.831 79.2741C259.657 79.2741 261.098 78.5026 262.024 77.3195V78.9141H265.444V65.9006H262.024V67.4694C261.098 66.2863 259.657 65.5405 257.831 65.5405C254.231 65.5405 251.402 68.4467 251.402 72.4073C251.402 76.3422 254.231 79.2741 257.831 79.2741ZM258.423 76.2394C256.288 76.2394 254.771 74.6448 254.771 72.3816C254.771 70.1441 256.288 68.5753 258.423 68.5753C260.48 68.5753 262.126 70.1441 262.126 72.3816C262.126 74.6448 260.48 76.2394 258.423 76.2394ZM278.523 65.9006V67.4179C277.545 66.2092 276.131 65.5405 274.408 65.5405C270.679 65.5405 267.978 68.2409 267.978 72.1501C267.978 75.8536 270.679 78.7598 274.408 78.7598C276.131 78.7598 277.545 78.0911 278.523 76.8823V78.4511C278.497 80.38 277.417 81.8717 275.282 81.8717C273.636 81.8717 272.556 81.2544 271.887 80.2L268.93 81.2544C270.01 83.209 272.016 84.675 275.205 84.675C279.269 84.675 281.918 82.0774 281.918 78.4511V65.9006H278.523ZM274.999 75.6993C272.839 75.6993 271.347 74.259 271.347 72.1501C271.347 70.0412 272.839 68.601 274.999 68.601C277.082 68.601 278.6 70.0669 278.6 72.1501C278.6 74.259 277.082 75.6993 274.999 75.6993ZM291.527 79.2741C294.947 79.2741 297.056 77.2681 297.802 75.5707L294.741 74.6705C294.227 75.6478 293.224 76.3937 291.578 76.3937C289.212 76.3937 288.029 75.1077 287.797 73.436H297.905C297.982 73.0246 297.982 72.6388 297.982 72.2273C297.982 68.4981 295.539 65.5405 291.269 65.5405C287.18 65.5405 284.454 68.5238 284.454 72.4073C284.454 76.5223 287.36 79.2741 291.527 79.2741ZM287.797 71.3014C287.977 69.8098 289.263 68.421 291.244 68.421C293.275 68.421 294.51 69.7069 294.664 71.3014H287.797ZM316.106 65.5405C314.023 65.5405 312.557 66.4149 311.708 67.4951C310.911 66.2606 309.625 65.5405 307.799 65.5405C306.076 65.5405 304.79 66.3378 303.942 67.4437V65.9006H300.547V78.9141H303.942V72.3816C303.942 70.0927 304.919 68.7039 306.745 68.7039C308.494 68.7039 309.188 69.9641 309.188 71.8929V78.9141H312.609V72.2787C312.609 70.0669 313.534 68.7039 315.36 68.7039C317.135 68.7039 317.855 69.9383 317.855 71.8929V78.9141H321.25V71.1728C321.25 67.5465 319.218 65.5405 316.106 65.5405ZM330.732 79.2741C334.153 79.2741 336.261 77.2681 337.007 75.5707L333.947 74.6705C333.432 75.6478 332.429 76.3937 330.783 76.3937C328.417 76.3937 327.234 75.1077 327.003 73.436H337.11C337.187 73.0246 337.187 72.6388 337.187 72.2273C337.187 68.4981 334.744 65.5405 330.475 65.5405C326.386 65.5405 323.659 68.5238 323.659 72.4073C323.659 76.5223 326.566 79.2741 330.732 79.2741ZM327.003 71.3014C327.183 69.8098 328.469 68.421 330.449 68.421C332.481 68.421 333.715 69.7069 333.87 71.3014H327.003ZM347.339 65.5405C345.462 65.5405 344.047 66.3892 343.147 67.5465V65.9006H339.752V78.9141H343.147V72.4845C343.147 70.1955 344.381 68.7039 346.285 68.7039C348.162 68.7039 349.062 69.9641 349.062 71.9444V78.9141H352.457V71.3014C352.457 67.8294 350.734 65.5405 347.339 65.5405ZM363.108 75.7507C362.594 76.0079 362.156 76.1108 361.565 76.1108C360.485 76.1108 359.97 75.5192 359.97 74.4648V68.8839H363.777V65.9006H359.97V61.6827H356.55V65.9006H354.364V68.8839H356.55V74.4648C356.55 77.2681 357.913 79.1198 360.896 79.1198C361.976 79.1198 362.902 78.9141 363.931 78.5026L363.108 75.7507Z" fill="#231F20"/>
</g>
<defs>
<clipPath id="clip0_6045_555027">
<rect width="364.677" height="109" fill="white"/>
</clipPath>
</defs>
</svg>
